<?xml version="1.0" encoding="UTF-8" standalone="no"?><svg xmlns="http://www.w3.org/2000/svg" xmlns:xlink="http://www.w3.org/1999/xlink" contentScriptType="application/ecmascript" contentStyleType="text/css" height="1384px" preserveAspectRatio="none" style="width:1328px;height:1384px;" version="1.1" viewBox="0 0 1328 1384" width="1328px" zoomAndPan="magnify"><defs><filter height="300%" id="f1ae6n2a2dps0h" width="300%" x="-1" y="-1"><feGaussianBlur result="blurOut" stdDeviation="2.0"/><feColorMatrix in="blurOut" result="blurOut2" type="matrix" values="0 0 0 0 0 0 0 0 0 0 0 0 0 0 0 0 0 0 .4 0"/><feOffset dx="4.0" dy="4.0" in="blurOut2" result="blurOut3"/><feBlend in="SourceGraphic" in2="blurOut3" mode="normal"/></filter></defs><g><text fill="#000000" font-family="sans-serif" font-size="14" font-weight="bold" lengthAdjust="spacingAndGlyphs" textLength="44" x="637.5" y="24.5332">TX_RX</text><rect fill="#FFFFFF" filter="url(#f1ae6n2a2dps0h)" height="122.4063" style="stroke: #000000; stroke-width: 2.0;" width="379.5" x="653.5" y="425.3828"/><rect fill="#FFFFFF" filter="url(#f1ae6n2a2dps0h)" height="167.7578" style="stroke: #000000; stroke-width: 2.0;" width="1020" x="13" y="561.7891"/><rect fill="#FFFFFF" height="75.7031" style="stroke: none; stroke-width: 1.0;" width="1020" x="13" y="653.8438"/><rect fill="#FFFFFF" filter="url(#f1ae6n2a2dps0h)" height="122.4063" style="stroke: #000000; stroke-width: 2.0;" width="379.5" x="653.5" y="988.6563"/><rect fill="#FFFFFF" filter="url(#f1ae6n2a2dps0h)" height="167.7578" style="stroke: #000000; stroke-width: 2.0;" width="1020" x="13" y="1125.0625"/><rect fill="#FFFFFF" height="75.7031" style="stroke: none; stroke-width: 1.0;" width="1020" x="13" y="1217.1172"/><line style="stroke: #A80036; stroke-width: 1.0; stroke-dasharray: 5.0,5.0;" x1="78" x2="78" y1="98.2188" y2="1309.8203"/><line style="stroke: #A80036; stroke-width: 1.0; stroke-dasharray: 5.0,5.0;" x1="301" x2="301" y1="98.2188" y2="1309.8203"/><line style="stroke: #A80036; stroke-width: 1.0; stroke-dasharray: 5.0,5.0;" x1="617.5" x2="617.5" y1="98.2188" y2="1309.8203"/><line style="stroke: #A80036; stroke-width: 1.0; stroke-dasharray: 5.0,5.0;" x1="698.5" x2="698.5" y1="98.2188" y2="1309.8203"/><line style="stroke: #A80036; stroke-width: 1.0; stroke-dasharray: 5.0,5.0;" x1="896.5" x2="896.5" y1="98.2188" y2="1309.8203"/><line style="stroke: #A80036; stroke-width: 1.0; stroke-dasharray: 5.0,5.0;" x1="1198" x2="1198" y1="98.2188" y2="1309.8203"/><rect fill="#FEFECE" filter="url(#f1ae6n2a2dps0h)" height="31.6094" style="stroke: #A80036; stroke-width: 1.5;" width="106" x="23" y="61.6094"/><text fill="#000000" font-family="sans-serif" font-size="14" lengthAdjust="spacingAndGlyphs" textLength="92" x="30" y="83.1426">GroundStation</text><rect fill="#FEFECE" filter="url(#f1ae6n2a2dps0h)" height="31.6094" style="stroke: #A80036; stroke-width: 1.5;" width="106" x="23" y="1308.8203"/><text fill="#000000" font-family="sans-serif" font-size="14" lengthAdjust="spacingAndGlyphs" textLength="92" x="30" y="1330.3535">GroundStation</text><rect fill="#FEFECE" filter="url(#f1ae6n2a2dps0h)" height="31.6094" style="stroke: #A80036; stroke-width: 1.5;" width="72" x="263" y="61.6094"/><text fill="#000000" font-family="sans-serif" font-size="14" lengthAdjust="spacingAndGlyphs" textLength="58" x="270" y="83.1426">RXCOBC</text><rect fill="#FEFECE" filter="url(#f1ae6n2a2dps0h)" height="31.6094" style="stroke: #A80036; stroke-width: 1.5;" width="72" x="263" y="1308.8203"/><text fill="#000000" font-family="sans-serif" font-size="14" lengthAdjust="spacingAndGlyphs" textLength="58" x="270" y="1330.3535">RXCOBC</text><text fill="#000000" font-family="sans-serif" font-size="14" lengthAdjust="spacingAndGlyphs" textLength="65" x="582.5" y="95.1426">EEPLOM1</text><path d="M600,44.6094 C600,34.6094 618,34.6094 618,34.6094 C618,34.6094 636,34.6094 636,44.6094 L636,70.6094 C636,80.6094 618,80.6094 618,80.6094 C618,80.6094 600,80.6094 600,70.6094 L600,44.6094 " fill="#FEFECE" filter="url(#f1ae6n2a2dps0h)" style="stroke: #000000; stroke-width: 1.5;"/><path d="M600,44.6094 C600,54.6094 618,54.6094 618,54.6094 C618,54.6094 636,54.6094 636,44.6094 " fill="none" style="stroke: #000000; stroke-width: 1.5;"/><text fill="#000000" font-family="sans-serif" font-size="14" lengthAdjust="spacingAndGlyphs" textLength="65" x="582.5" y="1323.3535">EEPLOM1</text><path d="M600,1336.4297 C600,1326.4297 618,1326.4297 618,1326.4297 C618,1326.4297 636,1326.4297 636,1336.4297 L636,1362.4297 C636,1372.4297 618,1372.4297 618,1372.4297 C618,1372.4297 600,1372.4297 600,1362.4297 L600,1336.4297 " fill="#FEFECE" filter="url(#f1ae6n2a2dps0h)" style="stroke: #000000; stroke-width: 1.5;"/><path d="M600,1336.4297 C600,1346.4297 618,1346.4297 618,1346.4297 C618,1346.4297 636,1346.4297 636,1336.4297 " fill="none" style="stroke: #000000; stroke-width: 1.5;"/><text fill="#000000" font-family="sans-serif" font-size="14" lengthAdjust="spacingAndGlyphs" textLength="65" x="663.5" y="95.1426">EEPLOM2</text><path d="M681,44.6094 C681,34.6094 699,34.6094 699,34.6094 C699,34.6094 717,34.6094 717,44.6094 L717,70.6094 C717,80.6094 699,80.6094 699,80.6094 C699,80.6094 681,80.6094 681,70.6094 L681,44.6094 " fill="#FEFECE" filter="url(#f1ae6n2a2dps0h)" style="stroke: #000000; stroke-width: 1.5;"/><path d="M681,44.6094 C681,54.6094 699,54.6094 699,54.6094 C699,54.6094 717,54.6094 717,44.6094 " fill="none" style="stroke: #000000; stroke-width: 1.5;"/><text fill="#000000" font-family="sans-serif" font-size="14" lengthAdjust="spacingAndGlyphs" textLength="65" x="663.5" y="1323.3535">EEPLOM2</text><path d="M681,1336.4297 C681,1326.4297 699,1326.4297 699,1326.4297 C699,1326.4297 717,1326.4297 717,1336.4297 L717,1362.4297 C717,1372.4297 699,1372.4297 699,1372.4297 C699,1372.4297 681,1372.4297 681,1362.4297 L681,1336.4297 " fill="#FEFECE" filter="url(#f1ae6n2a2dps0h)" style="stroke: #000000; stroke-width: 1.5;"/><path d="M681,1336.4297 C681,1346.4297 699,1346.4297 699,1346.4297 C699,1346.4297 717,1346.4297 717,1336.4297 " fill="none" style="stroke: #000000; stroke-width: 1.5;"/><rect fill="#FEFECE" filter="url(#f1ae6n2a2dps0h)" height="31.6094" style="stroke: #A80036; stroke-width: 1.5;" width="71" x="859.5" y="61.6094"/><text fill="#000000" font-family="sans-serif" font-size="14" lengthAdjust="spacingAndGlyphs" textLength="57" x="866.5" y="83.1426">TXCOBC</text><rect fill="#FEFECE" filter="url(#f1ae6n2a2dps0h)" height="31.6094" style="stroke: #A80036; stroke-width: 1.5;" width="71" x="859.5" y="1308.8203"/><text fill="#000000" font-family="sans-serif" font-size="14" lengthAdjust="spacingAndGlyphs" textLength="57" x="866.5" y="1330.3535">TXCOBC</text><rect fill="#FEFECE" filter="url(#f1ae6n2a2dps0h)" height="31.6094" style="stroke: #A80036; stroke-width: 1.5;" width="44" x="1174" y="61.6094"/><text fill="#000000" font-family="sans-serif" font-size="14" lengthAdjust="spacingAndGlyphs" textLength="30" x="1181" y="83.1426">OBC</text><rect fill="#FEFECE" filter="url(#f1ae6n2a2dps0h)" height="31.6094" style="stroke: #A80036; stroke-width: 1.5;" width="44" x="1174" y="1308.8203"/><text fill="#000000" font-family="sans-serif" font-size="14" lengthAdjust="spacingAndGlyphs" textLength="30" x="1181" y="1330.3535">OBC</text><rect fill="#EEEEEE" filter="url(#f1ae6n2a2dps0h)" height="3" style="stroke: #EEEEEE; stroke-width: 1.0;" width="1313" x="3" y="129.3945"/><line style="stroke: #000000; stroke-width: 1.0;" x1="3" x2="1316" y1="129.3945" y2="129.3945"/><line style="stroke: #000000; stroke-width: 1.0;" x1="3" x2="1316" y1="132.3945" y2="132.3945"/><rect fill="#EEEEEE" filter="url(#f1ae6n2a2dps0h)" height="24.3516" style="stroke: #000000; stroke-width: 2.0;" width="87" x="616" y="118.2188"/><text fill="#000000" font-family="sans-serif" font-size="13" font-weight="bold" lengthAdjust="spacingAndGlyphs" textLength="69" x="622" y="135.7139">VHF uplink</text><polygon fill="#A80036" points="289,175.9219,299,179.9219,289,183.9219,293,179.9219" style="stroke: #A80036; stroke-width: 1.0;"/><line style="stroke: #A80036; stroke-width: 1.0;" x1="78" x2="295" y1="179.9219" y2="179.9219"/><text fill="#000000" font-family="sans-serif" font-size="13" lengthAdjust="spacingAndGlyphs" textLength="199" x="85" y="175.0654">through the Modem(RX) and uplink</text><path d="M306,157.5703 L306,183.5703 L513,183.5703 L513,167.5703 L503,157.5703 L306,157.5703 " fill="#FBFB77" filter="url(#f1ae6n2a2dps0h)" style="stroke: #A80036; stroke-width: 1.0;"/><path d="M503,157.5703 L503,167.5703 L513,167.5703 L503,157.5703 " fill="#FBFB77" style="stroke: #A80036; stroke-width: 1.0;"/><text fill="#000000" font-family="sans-serif" font-size="13" lengthAdjust="spacingAndGlyphs" textLength="186" x="312" y="176.0654">if it is the AX.25 protocol signals</text><polygon fill="#A80036" points="606,211.2734,616,215.2734,606,219.2734,610,215.2734" style="stroke: #A80036; stroke-width: 1.0;"/><line style="stroke: #A80036; stroke-width: 1.0;" x1="301" x2="612" y1="215.2734" y2="215.2734"/><text fill="#000000" font-family="sans-serif" font-size="13" lengthAdjust="spacingAndGlyphs" textLength="293" x="308" y="210.417">write the command data with the specified address</text><polygon fill="#A80036" points="687,241.625,697,245.625,687,249.625,691,245.625" style="stroke: #A80036; stroke-width: 1.0;"/><line style="stroke: #A80036; stroke-width: 1.0;" x1="301" x2="693" y1="245.625" y2="245.625"/><text fill="#000000" font-family="sans-serif" font-size="13" lengthAdjust="spacingAndGlyphs" textLength="297" x="308" y="240.7686">writre the command data with the specified address</text><polygon fill="#A80036" points="885,271.9766,895,275.9766,885,279.9766,889,275.9766" style="stroke: #A80036; stroke-width: 1.0;"/><line style="stroke: #A80036; stroke-width: 1.0;" x1="301" x2="891" y1="275.9766" y2="275.9766"/><text fill="#000000" font-family="sans-serif" font-size="13" lengthAdjust="spacingAndGlyphs" textLength="190" x="308" y="271.1201">send the command data address</text><polygon fill="#A80036" points="1186,302.3281,1196,306.3281,1186,310.3281,1190,306.3281" style="stroke: #A80036; stroke-width: 1.0;"/><line style="stroke: #A80036; stroke-width: 1.0;" x1="301" x2="1192" y1="306.3281" y2="306.3281"/><text fill="#000000" font-family="sans-serif" font-size="13" lengthAdjust="spacingAndGlyphs" textLength="190" x="308" y="301.4717">send the command data address</text><polygon fill="#A80036" points="629,332.6797,619,336.6797,629,340.6797,625,336.6797" style="stroke: #A80036; stroke-width: 1.0;"/><line style="stroke: #A80036; stroke-width: 1.0;" x1="623" x2="896" y1="336.6797" y2="336.6797"/><text fill="#000000" font-family="sans-serif" font-size="13" lengthAdjust="spacingAndGlyphs" textLength="97" x="635" y="331.8232">read the comand</text><polygon fill="#A80036" points="629,363.0313,619,367.0313,629,371.0313,625,367.0313" style="stroke: #A80036; stroke-width: 1.0;"/><line style="stroke: #A80036; stroke-width: 1.0;" x1="623" x2="896" y1="367.0313" y2="367.0313"/><text fill="#000000" font-family="sans-serif" font-size="13" lengthAdjust="spacingAndGlyphs" textLength="174" x="635" y="362.1748">check the CRC of the comand</text><line style="stroke: #A80036; stroke-width: 1.0;" x1="897" x2="939" y1="397.3828" y2="397.3828"/><line style="stroke: #A80036; stroke-width: 1.0;" x1="939" x2="939" y1="397.3828" y2="410.3828"/><line style="stroke: #A80036; stroke-width: 1.0;" x1="898" x2="939" y1="410.3828" y2="410.3828"/><polygon fill="#A80036" points="908,406.3828,898,410.3828,908,414.3828,904,410.3828" style="stroke: #A80036; stroke-width: 1.0;"/><text fill="#000000" font-family="sans-serif" font-size="13" lengthAdjust="spacingAndGlyphs" textLength="117" x="904" y="392.5264">signal status update</text><path d="M653.5,425.3828 L718.5,425.3828 L718.5,433.3828 L708.5,443.3828 L653.5,443.3828 L653.5,425.3828 " fill="#EEEEEE" style="stroke: #000000; stroke-width: 1.0;"/><rect fill="none" height="122.4063" style="stroke: #000000; stroke-width: 2.0;" width="379.5" x="653.5" y="425.3828"/><text fill="#000000" font-family="sans-serif" font-size="13" font-weight="bold" lengthAdjust="spacingAndGlyphs" textLength="20" x="668.5" y="439.8779">opt</text><text fill="#000000" font-family="sans-serif" font-size="11" font-weight="bold" lengthAdjust="spacingAndGlyphs" textLength="253" x="733.5" y="438.8018">[the command CRC in EEPLOM1 is not correct]</text><polygon fill="#A80036" points="710,462.0859,700,466.0859,710,470.0859,706,466.0859" style="stroke: #A80036; stroke-width: 1.0;"/><line style="stroke: #A80036; stroke-width: 1.0;" x1="704" x2="896" y1="466.0859" y2="466.0859"/><text fill="#000000" font-family="sans-serif" font-size="13" lengthAdjust="spacingAndGlyphs" textLength="97" x="716" y="461.2295">read the comand</text><polygon fill="#A80036" points="710,492.4375,700,496.4375,710,500.4375,706,496.4375" style="stroke: #A80036; stroke-width: 1.0;"/><line style="stroke: #A80036; stroke-width: 1.0;" x1="704" x2="896" y1="496.4375" y2="496.4375"/><text fill="#000000" font-family="sans-serif" font-size="13" lengthAdjust="spacingAndGlyphs" textLength="174" x="716" y="491.5811">check the CRC of the comand</text><line style="stroke: #A80036; stroke-width: 1.0;" x1="897" x2="939" y1="526.7891" y2="526.7891"/><line style="stroke: #A80036; stroke-width: 1.0;" x1="939" x2="939" y1="526.7891" y2="539.7891"/><line style="stroke: #A80036; stroke-width: 1.0;" x1="898" x2="939" y1="539.7891" y2="539.7891"/><polygon fill="#A80036" points="908,535.7891,898,539.7891,908,543.7891,904,539.7891" style="stroke: #A80036; stroke-width: 1.0;"/><text fill="#000000" font-family="sans-serif" font-size="13" lengthAdjust="spacingAndGlyphs" textLength="117" x="904" y="521.9326">signal status update</text><path d="M13,561.7891 L74,561.7891 L74,569.7891 L64,579.7891 L13,579.7891 L13,561.7891 " fill="#EEEEEE" style="stroke: #000000; stroke-width: 1.0;"/><rect fill="none" height="167.7578" style="stroke: #000000; stroke-width: 2.0;" width="1020" x="13" y="561.7891"/><text fill="#000000" font-family="sans-serif" font-size="13" font-weight="bold" lengthAdjust="spacingAndGlyphs" textLength="16" x="28" y="576.2842">alt</text><text fill="#000000" font-family="sans-serif" font-size="11" font-weight="bold" lengthAdjust="spacingAndGlyphs" textLength="448" x="89" y="575.208">[the command CRC in EEPLOM1 and the command CRC in EEPLOM2 aren't correct]</text><polygon fill="#A80036" points="89,598.4922,79,602.4922,89,606.4922,85,602.4922" style="stroke: #A80036; stroke-width: 1.0;"/><line style="stroke: #A80036; stroke-width: 1.0;" x1="83" x2="896" y1="602.4922" y2="602.4922"/><text fill="#000000" font-family="sans-serif" font-size="13" lengthAdjust="spacingAndGlyphs" textLength="437" x="95" y="597.6357">through the Modem(TX) and downlink (the signal is not correct)(TBD times?)</text><line style="stroke: #A80036; stroke-width: 1.0;" x1="897" x2="939" y1="632.8438" y2="632.8438"/><line style="stroke: #A80036; stroke-width: 1.0;" x1="939" x2="939" y1="632.8438" y2="645.8438"/><line style="stroke: #A80036; stroke-width: 1.0;" x1="898" x2="939" y1="645.8438" y2="645.8438"/><polygon fill="#A80036" points="908,641.8438,898,645.8438,908,649.8438,904,645.8438" style="stroke: #A80036; stroke-width: 1.0;"/><text fill="#000000" font-family="sans-serif" font-size="13" lengthAdjust="spacingAndGlyphs" textLength="117" x="904" y="627.9873">signal status update</text><line style="stroke: #000000; stroke-width: 1.0; stroke-dasharray: 2.0,2.0;" x1="13" x2="1033" y1="654.8438" y2="654.8438"/><polygon fill="#A80036" points="89,674.1953,79,678.1953,89,682.1953,85,678.1953" style="stroke: #A80036; stroke-width: 1.0;"/><line style="stroke: #A80036; stroke-width: 1.0;" x1="83" x2="896" y1="678.1953" y2="678.1953"/><text fill="#000000" font-family="sans-serif" font-size="13" lengthAdjust="spacingAndGlyphs" textLength="415" x="95" y="673.3389">through the Modem(TX) and downlink (the signal is correct)(TBD times?)</text><line style="stroke: #A80036; stroke-width: 1.0;" x1="897" x2="939" y1="708.5469" y2="708.5469"/><line style="stroke: #A80036; stroke-width: 1.0;" x1="939" x2="939" y1="708.5469" y2="721.5469"/><line style="stroke: #A80036; stroke-width: 1.0;" x1="898" x2="939" y1="721.5469" y2="721.5469"/><polygon fill="#A80036" points="908,717.5469,898,721.5469,908,725.5469,904,721.5469" style="stroke: #A80036; stroke-width: 1.0;"/><text fill="#000000" font-family="sans-serif" font-size="13" lengthAdjust="spacingAndGlyphs" textLength="117" x="904" y="703.6904">signal status update</text><rect fill="#EEEEEE" filter="url(#f1ae6n2a2dps0h)" height="3" style="stroke: #EEEEEE; stroke-width: 1.0;" width="1313" x="3" y="757.7227"/><line style="stroke: #000000; stroke-width: 1.0;" x1="3" x2="1316" y1="757.7227" y2="757.7227"/><line style="stroke: #000000; stroke-width: 1.0;" x1="3" x2="1316" y1="760.7227" y2="760.7227"/><rect fill="#EEEEEE" filter="url(#f1ae6n2a2dps0h)" height="24.3516" style="stroke: #000000; stroke-width: 2.0;" width="106" x="606.5" y="746.5469"/><text fill="#000000" font-family="sans-serif" font-size="13" font-weight="bold" lengthAdjust="spacingAndGlyphs" textLength="88" x="612.5" y="764.042">UHF downlink</text><line style="stroke: #A80036; stroke-width: 1.0;" x1="1198" x2="1240" y1="803.25" y2="803.25"/><line style="stroke: #A80036; stroke-width: 1.0;" x1="1240" x2="1240" y1="803.25" y2="816.25"/><line style="stroke: #A80036; stroke-width: 1.0;" x1="1199" x2="1240" y1="816.25" y2="816.25"/><polygon fill="#A80036" points="1209,812.25,1199,816.25,1209,820.25,1205,816.25" style="stroke: #A80036; stroke-width: 1.0;"/><text fill="#000000" font-family="sans-serif" font-size="13" lengthAdjust="spacingAndGlyphs" textLength="104" x="1205" y="798.3936">switch Multiplexer</text><polygon fill="#A80036" points="908,847.6016,898,851.6016,908,855.6016,904,851.6016" style="stroke: #A80036; stroke-width: 1.0;"/><line style="stroke: #A80036; stroke-width: 1.0;" x1="902" x2="1197" y1="851.6016" y2="851.6016"/><text fill="#000000" font-family="sans-serif" font-size="13" lengthAdjust="spacingAndGlyphs" textLength="277" x="914" y="846.7451">downlink command and send EEPLOM address</text><path d="M544,829.25 L544,855.25 L888,855.25 L888,839.25 L878,829.25 L544,829.25 " fill="#FBFB77" filter="url(#f1ae6n2a2dps0h)" style="stroke: #A80036; stroke-width: 1.0;"/><path d="M878,829.25 L878,839.25 L888,839.25 L878,829.25 " fill="#FBFB77" style="stroke: #A80036; stroke-width: 1.0;"/><text fill="#000000" font-family="sans-serif" font-size="13" lengthAdjust="spacingAndGlyphs" textLength="323" x="550" y="847.7451">after RXCOBC send OBC the command data address(?)</text><line style="stroke: #A80036; stroke-width: 1.0;" x1="1198" x2="1240" y1="886.9531" y2="886.9531"/><line style="stroke: #A80036; stroke-width: 1.0;" x1="1240" x2="1240" y1="886.9531" y2="899.9531"/><line style="stroke: #A80036; stroke-width: 1.0;" x1="1199" x2="1240" y1="899.9531" y2="899.9531"/><polygon fill="#A80036" points="1209,895.9531,1199,899.9531,1209,903.9531,1205,899.9531" style="stroke: #A80036; stroke-width: 1.0;"/><text fill="#000000" font-family="sans-serif" font-size="13" lengthAdjust="spacingAndGlyphs" textLength="104" x="1205" y="882.0967">switch Multiplexer</text><polygon fill="#A80036" points="629,926.3047,619,930.3047,629,934.3047,625,930.3047" style="stroke: #A80036; stroke-width: 1.0;"/><line style="stroke: #A80036; stroke-width: 1.0;" x1="623" x2="896" y1="930.3047" y2="930.3047"/><text fill="#000000" font-family="sans-serif" font-size="13" lengthAdjust="spacingAndGlyphs" textLength="101" x="635" y="925.4482">read that address</text><line style="stroke: #A80036; stroke-width: 1.0;" x1="897" x2="939" y1="960.6563" y2="960.6563"/><line style="stroke: #A80036; stroke-width: 1.0;" x1="939" x2="939" y1="960.6563" y2="973.6563"/><line style="stroke: #A80036; stroke-width: 1.0;" x1="898" x2="939" y1="973.6563" y2="973.6563"/><polygon fill="#A80036" points="908,969.6563,898,973.6563,908,977.6563,904,973.6563" style="stroke: #A80036; stroke-width: 1.0;"/><text fill="#000000" font-family="sans-serif" font-size="13" lengthAdjust="spacingAndGlyphs" textLength="117" x="904" y="955.7998">signal status update</text><path d="M653.5,988.6563 L718.5,988.6563 L718.5,996.6563 L708.5,1006.6563 L653.5,1006.6563 L653.5,988.6563 " fill="#EEEEEE" style="stroke: #000000; stroke-width: 1.0;"/><rect fill="none" height="122.4063" style="stroke: #000000; stroke-width: 2.0;" width="379.5" x="653.5" y="988.6563"/><text fill="#000000" font-family="sans-serif" font-size="13" font-weight="bold" lengthAdjust="spacingAndGlyphs" textLength="20" x="668.5" y="1003.1514">opt</text><text fill="#000000" font-family="sans-serif" font-size="11" font-weight="bold" lengthAdjust="spacingAndGlyphs" textLength="253" x="733.5" y="1002.0752">[the command CRC in EEPLOM1 is not correct]</text><polygon fill="#A80036" points="710,1025.3594,700,1029.3594,710,1033.3594,706,1029.3594" style="stroke: #A80036; stroke-width: 1.0;"/><line style="stroke: #A80036; stroke-width: 1.0;" x1="704" x2="896" y1="1029.3594" y2="1029.3594"/><text fill="#000000" font-family="sans-serif" font-size="13" lengthAdjust="spacingAndGlyphs" textLength="97" x="716" y="1024.5029">read the comand</text><polygon fill="#A80036" points="710,1055.7109,700,1059.7109,710,1063.7109,706,1059.7109" style="stroke: #A80036; stroke-width: 1.0;"/><line style="stroke: #A80036; stroke-width: 1.0;" x1="704" x2="896" y1="1059.7109" y2="1059.7109"/><text fill="#000000" font-family="sans-serif" font-size="13" lengthAdjust="spacingAndGlyphs" textLength="174" x="716" y="1054.8545">check the CRC of the comand</text><line style="stroke: #A80036; stroke-width: 1.0;" x1="897" x2="939" y1="1090.0625" y2="1090.0625"/><line style="stroke: #A80036; stroke-width: 1.0;" x1="939" x2="939" y1="1090.0625" y2="1103.0625"/><line style="stroke: #A80036; stroke-width: 1.0;" x1="898" x2="939" y1="1103.0625" y2="1103.0625"/><polygon fill="#A80036" points="908,1099.0625,898,1103.0625,908,1107.0625,904,1103.0625" style="stroke: #A80036; stroke-width: 1.0;"/><text fill="#000000" font-family="sans-serif" font-size="13" lengthAdjust="spacingAndGlyphs" textLength="117" x="904" y="1085.2061">signal status update</text><path d="M13,1125.0625 L74,1125.0625 L74,1133.0625 L64,1143.0625 L13,1143.0625 L13,1125.0625 " fill="#EEEEEE" style="stroke: #000000; stroke-width: 1.0;"/><rect fill="none" height="167.7578" style="stroke: #000000; stroke-width: 2.0;" width="1020" x="13" y="1125.0625"/><text fill="#000000" font-family="sans-serif" font-size="13" font-weight="bold" lengthAdjust="spacingAndGlyphs" textLength="16" x="28" y="1139.5576">alt</text><text fill="#000000" font-family="sans-serif" font-size="11" font-weight="bold" lengthAdjust="spacingAndGlyphs" textLength="448" x="89" y="1138.4814">[the command CRC in EEPLOM1 and the command CRC in EEPLOM2 aren't correct]</text><polygon fill="#A80036" points="89,1161.7656,79,1165.7656,89,1169.7656,85,1165.7656" style="stroke: #A80036; stroke-width: 1.0;"/><line style="stroke: #A80036; stroke-width: 1.0;" x1="83" x2="896" y1="1165.7656" y2="1165.7656"/><text fill="#000000" font-family="sans-serif" font-size="13" lengthAdjust="spacingAndGlyphs" textLength="437" x="95" y="1160.9092">through the Modem(TX) and downlink (the signal is not correct)(TBD times?)</text><line style="stroke: #A80036; stroke-width: 1.0;" x1="897" x2="939" y1="1196.1172" y2="1196.1172"/><line style="stroke: #A80036; stroke-width: 1.0;" x1="939" x2="939" y1="1196.1172" y2="1209.1172"/><line style="stroke: #A80036; stroke-width: 1.0;" x1="898" x2="939" y1="1209.1172" y2="1209.1172"/><polygon fill="#A80036" points="908,1205.1172,898,1209.1172,908,1213.1172,904,1209.1172" style="stroke: #A80036; stroke-width: 1.0;"/><text fill="#000000" font-family="sans-serif" font-size="13" lengthAdjust="spacingAndGlyphs" textLength="117" x="904" y="1191.2607">signal status update</text><line style="stroke: #000000; stroke-width: 1.0; stroke-dasharray: 2.0,2.0;" x1="13" x2="1033" y1="1218.1172" y2="1218.1172"/><polygon fill="#A80036" points="89,1237.4688,79,1241.4688,89,1245.4688,85,1241.4688" style="stroke: #A80036; stroke-width: 1.0;"/><line style="stroke: #A80036; stroke-width: 1.0;" x1="83" x2="896" y1="1241.4688" y2="1241.4688"/><text fill="#000000" font-family="sans-serif" font-size="13" lengthAdjust="spacingAndGlyphs" textLength="415" x="95" y="1236.6123">through the Modem(TX) and downlink (the signal is correct)(TBD times?)</text><line style="stroke: #A80036; stroke-width: 1.0;" x1="897" x2="939" y1="1271.8203" y2="1271.8203"/><line style="stroke: #A80036; stroke-width: 1.0;" x1="939" x2="939" y1="1271.8203" y2="1284.8203"/><line style="stroke: #A80036; stroke-width: 1.0;" x1="898" x2="939" y1="1284.8203" y2="1284.8203"/><polygon fill="#A80036" points="908,1280.8203,898,1284.8203,908,1288.8203,904,1284.8203" style="stroke: #A80036; stroke-width: 1.0;"/><text fill="#000000" font-family="sans-serif" font-size="13" lengthAdjust="spacingAndGlyphs" textLength="117" x="904" y="1266.9639">signal status update</text><!--
@startuml
title TX_RX
participant GroundStation
participant RXCOBC
database EEPLOM1
database EEPLOM2
participant TXCOBC
participant OBC

== VHF uplink ==
GroundStation -> RXCOBC: through the Modem(RX) and uplink
note right: if it is the AX.25 protocol signals
RXCOBC -> EEPLOM1: write the command data with the specified address
RXCOBC -> EEPLOM2: writre the command data with the specified address
RXCOBC -> TXCOBC: send the command data address
RXCOBC -> OBC: send the command data address
TXCOBC -> EEPLOM1: read the comand
TXCOBC -> EEPLOM1: check the CRC of the comand

TXCOBC -> TXCOBC: signal status update

 opt the command CRC in EEPLOM1 is not correct
TXCOBC -> EEPLOM2: read the comand
TXCOBC -> EEPLOM2: check the CRC of the comand
TXCOBC -> TXCOBC: signal status update
 end

alt the command CRC in EEPLOM1 and the command CRC in EEPLOM2 aren't correct
TXCOBC -> GroundStation: through the Modem(TX) and downlink (the signal is not correct)(TBD times?)
TXCOBC -> TXCOBC: signal status update
else
TXCOBC -> GroundStation: through the Modem(TX) and downlink (the signal is correct)(TBD times?)
TXCOBC -> TXCOBC: signal status update
end



== UHF downlink ==


OBC -> OBC: switch Multiplexer
OBC -> TXCOBC: downlink command and send EEPLOM address
note left: after RXCOBC send OBC the command data address(?)
OBC -> OBC: switch Multiplexer
TXCOBC -> EEPLOM1: read that address
TXCOBC -> TXCOBC: signal status update
opt the command CRC in EEPLOM1 is not correct
TXCOBC -> EEPLOM2: read the comand
TXCOBC -> EEPLOM2: check the CRC of the comand
TXCOBC -> TXCOBC: signal status update
 end

alt the command CRC in EEPLOM1 and the command CRC in EEPLOM2 aren't correct
TXCOBC -> GroundStation: through the Modem(TX) and downlink (the signal is not correct)(TBD times?)
TXCOBC -> TXCOBC: signal status update
else
TXCOBC -> GroundStation: through the Modem(TX) and downlink (the signal is correct)(TBD times?)
TXCOBC -> TXCOBC: signal status update
end
@enduml

PlantUML version 1.2018.03(Fri Apr 06 01:59:15 JST 2018)
(GPL source distribution)
Java Runtime: Java(TM) SE Runtime Environment
JVM: Java HotSpot(TM) Client VM
Java Version: 1.8.0_171-b11
Operating System: Windows 10
OS Version: 10.0
Default Encoding: MS932
Language: ja
Country: JP
--></g></svg>