<?xml version="1.0" encoding="UTF-8" standalone="no"?><svg xmlns="http://www.w3.org/2000/svg" xmlns:xlink="http://www.w3.org/1999/xlink" contentScriptType="application/ecmascript" contentStyleType="text/css" height="1093px" preserveAspectRatio="none" style="width:747px;height:1093px;" version="1.1" viewBox="0 0 747 1093" width="747px" zoomAndPan="magnify"><defs><filter height="300%" id="fp3yim7e0v442" width="300%" x="-1" y="-1"><feGaussianBlur result="blurOut" stdDeviation="2.0"/><feColorMatrix in="blurOut" result="blurOut2" type="matrix" values="0 0 0 0 0 0 0 0 0 0 0 0 0 0 0 0 0 0 .4 0"/><feOffset dx="4.0" dy="4.0" in="blurOut2" result="blurOut3"/><feBlend in="SourceGraphic" in2="blurOut3" mode="normal"/></filter></defs><g><text fill="#000000" font-family="sans-serif" font-size="14" font-weight="bold" lengthAdjust="spacingAndGlyphs" textLength="126" x="311.75" y="24.5332">Downlink Pictures</text><rect fill="#FFFFFF" filter="url(#fp3yim7e0v442)" height="366.7031" style="stroke: #A80036; stroke-width: 1.0;" width="10" x="260" y="128.9219"/><rect fill="#FFFFFF" filter="url(#fp3yim7e0v442)" height="121.4063" style="stroke: #A80036; stroke-width: 1.0;" width="10" x="260" y="608.3281"/><rect fill="#FFFFFF" filter="url(#fp3yim7e0v442)" height="184.1094" style="stroke: #A80036; stroke-width: 1.0;" width="10" x="260" y="842.4375"/><rect fill="#FFFFFF" filter="url(#fp3yim7e0v442)" height="336.3516" style="stroke: #A80036; stroke-width: 1.0;" width="10" x="480" y="159.2734"/><rect fill="#FFFFFF" filter="url(#fp3yim7e0v442)" height="60.7031" style="stroke: #A80036; stroke-width: 1.0;" width="10" x="684" y="669.0313"/><rect fill="#FFFFFF" filter="url(#fp3yim7e0v442)" height="123.4063" style="stroke: #A80036; stroke-width: 1.0;" width="10" x="684" y="903.1406"/><rect fill="#FFFFFF" filter="url(#fp3yim7e0v442)" height="415.4063" style="stroke: #000000; stroke-width: 2.0;" width="594" x="23" y="88.2188"/><rect fill="#FFFFFF" filter="url(#fp3yim7e0v442)" height="261.6484" style="stroke: #000000; stroke-width: 2.0;" width="304" x="221" y="174.2734"/><rect fill="#FFFFFF" filter="url(#fp3yim7e0v442)" height="92.0547" style="stroke: #000000; stroke-width: 2.0;" width="284" x="231" y="199.625"/><rect fill="#FFFFFF" height="137.2422" style="stroke: none; stroke-width: 1.0;" width="304" x="221" y="298.6797"/><rect fill="#FFFFFF" filter="url(#fp3yim7e0v442)" height="170.1094" style="stroke: #000000; stroke-width: 2.0;" width="703.5" x="23" y="567.625"/><rect fill="#FFFFFF" filter="url(#fp3yim7e0v442)" height="232.8125" style="stroke: #000000; stroke-width: 2.0;" width="723.5" x="13" y="801.7344"/><rect fill="#FFFFFF" filter="url(#fp3yim7e0v442)" height="48.7031" style="stroke: #000000; stroke-width: 2.0;" width="703.5" x="23" y="948.4922"/><line style="stroke: #A80036; stroke-width: 1.0; stroke-dasharray: 5.0,5.0;" x1="52" x2="52" y1="71.2188" y2="1051.5469"/><line style="stroke: #A80036; stroke-width: 1.0; stroke-dasharray: 5.0,5.0;" x1="265" x2="265" y1="71.2188" y2="1051.5469"/><line style="stroke: #A80036; stroke-width: 1.0; stroke-dasharray: 5.0,5.0;" x1="485" x2="485" y1="71.2188" y2="1051.5469"/><line style="stroke: #A80036; stroke-width: 1.0; stroke-dasharray: 5.0,5.0;" x1="587" x2="587" y1="71.2188" y2="1051.5469"/><line style="stroke: #A80036; stroke-width: 1.0; stroke-dasharray: 5.0,5.0;" x1="688.5" x2="688.5" y1="71.2188" y2="1051.5469"/><rect fill="#FEFECE" filter="url(#fp3yim7e0v442)" height="31.6094" style="stroke: #A80036; stroke-width: 1.5;" width="34" x="33" y="34.6094"/><text fill="#000000" font-family="sans-serif" font-size="14" lengthAdjust="spacingAndGlyphs" textLength="20" x="40" y="56.1426">GS</text><rect fill="#FEFECE" filter="url(#fp3yim7e0v442)" height="31.6094" style="stroke: #A80036; stroke-width: 1.5;" width="34" x="33" y="1050.5469"/><text fill="#000000" font-family="sans-serif" font-size="14" lengthAdjust="spacingAndGlyphs" textLength="20" x="40" y="1072.0801">GS</text><rect fill="#FEFECE" filter="url(#fp3yim7e0v442)" height="31.6094" style="stroke: #A80036; stroke-width: 1.5;" width="44" x="241" y="34.6094"/><text fill="#000000" font-family="sans-serif" font-size="14" lengthAdjust="spacingAndGlyphs" textLength="30" x="248" y="56.1426">OBC</text><rect fill="#FEFECE" filter="url(#fp3yim7e0v442)" height="31.6094" style="stroke: #A80036; stroke-width: 1.5;" width="44" x="241" y="1050.5469"/><text fill="#000000" font-family="sans-serif" font-size="14" lengthAdjust="spacingAndGlyphs" textLength="30" x="248" y="1072.0801">OBC</text><rect fill="#FEFECE" filter="url(#fp3yim7e0v442)" height="31.6094" style="stroke: #A80036; stroke-width: 1.5;" width="36" x="465" y="34.6094"/><text fill="#000000" font-family="sans-serif" font-size="14" lengthAdjust="spacingAndGlyphs" textLength="22" x="472" y="56.1426">RPI</text><rect fill="#FEFECE" filter="url(#fp3yim7e0v442)" height="31.6094" style="stroke: #A80036; stroke-width: 1.5;" width="36" x="465" y="1050.5469"/><text fill="#000000" font-family="sans-serif" font-size="14" lengthAdjust="spacingAndGlyphs" textLength="22" x="472" y="1072.0801">RPI</text><rect fill="#FEFECE" filter="url(#fp3yim7e0v442)" height="31.6094" style="stroke: #A80036; stroke-width: 1.5;" width="36" x="567" y="34.6094"/><text fill="#000000" font-family="sans-serif" font-size="14" lengthAdjust="spacingAndGlyphs" textLength="22" x="574" y="56.1426">CIB</text><rect fill="#FEFECE" filter="url(#fp3yim7e0v442)" height="31.6094" style="stroke: #A80036; stroke-width: 1.5;" width="36" x="567" y="1050.5469"/><text fill="#000000" font-family="sans-serif" font-size="14" lengthAdjust="spacingAndGlyphs" textLength="22" x="574" y="1072.0801">CIB</text><rect fill="#FEFECE" filter="url(#fp3yim7e0v442)" height="31.6094" style="stroke: #A80036; stroke-width: 1.5;" width="51" x="661.5" y="34.6094"/><text fill="#000000" font-family="sans-serif" font-size="14" lengthAdjust="spacingAndGlyphs" textLength="37" x="668.5" y="56.1426">5R8G</text><rect fill="#FEFECE" filter="url(#fp3yim7e0v442)" height="31.6094" style="stroke: #A80036; stroke-width: 1.5;" width="51" x="661.5" y="1050.5469"/><text fill="#000000" font-family="sans-serif" font-size="14" lengthAdjust="spacingAndGlyphs" textLength="37" x="668.5" y="1072.0801">5R8G</text><rect fill="#FFFFFF" filter="url(#fp3yim7e0v442)" height="366.7031" style="stroke: #A80036; stroke-width: 1.0;" width="10" x="260" y="128.9219"/><rect fill="#FFFFFF" filter="url(#fp3yim7e0v442)" height="121.4063" style="stroke: #A80036; stroke-width: 1.0;" width="10" x="260" y="608.3281"/><rect fill="#FFFFFF" filter="url(#fp3yim7e0v442)" height="184.1094" style="stroke: #A80036; stroke-width: 1.0;" width="10" x="260" y="842.4375"/><rect fill="#FFFFFF" filter="url(#fp3yim7e0v442)" height="336.3516" style="stroke: #A80036; stroke-width: 1.0;" width="10" x="480" y="159.2734"/><rect fill="#FFFFFF" filter="url(#fp3yim7e0v442)" height="60.7031" style="stroke: #A80036; stroke-width: 1.0;" width="10" x="684" y="669.0313"/><rect fill="#FFFFFF" filter="url(#fp3yim7e0v442)" height="123.4063" style="stroke: #A80036; stroke-width: 1.0;" width="10" x="684" y="903.1406"/><path d="M23,88.2188 L257,88.2188 L257,96.2188 L247,106.2188 L23,106.2188 L23,88.2188 " fill="#EEEEEE" style="stroke: #000000; stroke-width: 1.0;"/><rect fill="none" height="415.4063" style="stroke: #000000; stroke-width: 2.0;" width="594" x="23" y="88.2188"/><text fill="#000000" font-family="sans-serif" font-size="13" font-weight="bold" lengthAdjust="spacingAndGlyphs" textLength="189" x="38" y="102.7139">Send Picture from RPI to OBC</text><polygon fill="#A80036" points="248,124.9219,258,128.9219,248,132.9219,252,128.9219" style="stroke: #A80036; stroke-width: 1.0;"/><line style="stroke: #A80036; stroke-width: 1.0;" x1="52" x2="254" y1="128.9219" y2="128.9219"/><text fill="#000000" font-family="sans-serif" font-size="13" lengthAdjust="spacingAndGlyphs" textLength="189" x="59" y="124.0654">Command : Supply power to RPI</text><polygon fill="#A80036" points="501,155.2734,491,159.2734,501,163.2734,497,159.2734" style="stroke: #A80036; stroke-width: 1.0;"/><line style="stroke: #A80036; stroke-width: 1.0;" x1="495" x2="586" y1="159.2734" y2="159.2734"/><text fill="#000000" font-family="sans-serif" font-size="13" lengthAdjust="spacingAndGlyphs" textLength="78" x="507" y="154.417">Supply power</text><path d="M221,174.2734 L287,174.2734 L287,182.2734 L277,192.2734 L221,192.2734 L221,174.2734 " fill="#EEEEEE" style="stroke: #000000; stroke-width: 1.0;"/><rect fill="none" height="261.6484" style="stroke: #000000; stroke-width: 2.0;" width="304" x="221" y="174.2734"/><text fill="#000000" font-family="sans-serif" font-size="13" font-weight="bold" lengthAdjust="spacingAndGlyphs" textLength="21" x="236" y="188.7686">par</text><text fill="#000000" font-family="sans-serif" font-size="11" font-weight="bold" lengthAdjust="spacingAndGlyphs" textLength="79" x="302" y="187.6924">[HK telemetry]</text><path d="M231,199.625 L304,199.625 L304,207.625 L294,217.625 L231,217.625 L231,199.625 " fill="#EEEEEE" style="stroke: #000000; stroke-width: 1.0;"/><rect fill="none" height="92.0547" style="stroke: #000000; stroke-width: 2.0;" width="284" x="231" y="199.625"/><text fill="#000000" font-family="sans-serif" font-size="13" font-weight="bold" lengthAdjust="spacingAndGlyphs" textLength="28" x="246" y="214.1201">loop</text><text fill="#000000" font-family="sans-serif" font-size="11" font-weight="bold" lengthAdjust="spacingAndGlyphs" textLength="93" x="319" y="213.0439">[Send telemetry]</text><polygon fill="#A80036" points="281,236.3281,271,240.3281,281,244.3281,277,240.3281" style="stroke: #A80036; stroke-width: 1.0;"/><line style="stroke: #A80036; stroke-width: 1.0;" x1="275" x2="479" y1="240.3281" y2="240.3281"/><text fill="#000000" font-family="sans-serif" font-size="13" lengthAdjust="spacingAndGlyphs" textLength="76" x="287" y="235.4717">HK telemetry</text><line style="stroke: #A80036; stroke-width: 1.0;" x1="270" x2="312" y1="270.6797" y2="270.6797"/><line style="stroke: #A80036; stroke-width: 1.0;" x1="312" x2="312" y1="270.6797" y2="283.6797"/><line style="stroke: #A80036; stroke-width: 1.0;" x1="271" x2="312" y1="283.6797" y2="283.6797"/><polygon fill="#A80036" points="281,279.6797,271,283.6797,281,287.6797,277,283.6797" style="stroke: #A80036; stroke-width: 1.0;"/><text fill="#000000" font-family="sans-serif" font-size="13" lengthAdjust="spacingAndGlyphs" textLength="101" x="277" y="265.8232">Check something</text><line style="stroke: #000000; stroke-width: 1.0; stroke-dasharray: 2.0,2.0;" x1="221" x2="525" y1="299.6797" y2="299.6797"/><text fill="#000000" font-family="sans-serif" font-size="11" font-weight="bold" lengthAdjust="spacingAndGlyphs" textLength="54" x="226" y="311.0986">[Pictures]</text><polygon fill="#A80036" points="468,332.8672,478,336.8672,468,340.8672,472,336.8672" style="stroke: #A80036; stroke-width: 1.0;"/><line style="stroke: #A80036; stroke-width: 1.0;" x1="270" x2="474" y1="336.8672" y2="336.8672"/><text fill="#000000" font-family="sans-serif" font-size="13" lengthAdjust="spacingAndGlyphs" textLength="167" x="277" y="332.0107">Command : Start send mode</text><polygon fill="#A80036" points="281,363.2188,271,367.2188,281,371.2188,277,367.2188" style="stroke: #A80036; stroke-width: 1.0;"/><line style="stroke: #A80036; stroke-width: 1.0;" x1="275" x2="479" y1="367.2188" y2="367.2188"/><text fill="#000000" font-family="sans-serif" font-size="13" lengthAdjust="spacingAndGlyphs" textLength="186" x="287" y="362.3623">File telemetry(File list, File size)</text><polygon fill="#A80036" points="468,393.5703,478,397.5703,468,401.5703,472,397.5703" style="stroke: #A80036; stroke-width: 1.0;"/><line style="stroke: #A80036; stroke-width: 1.0;" x1="270" x2="474" y1="397.5703" y2="397.5703"/><text fill="#000000" font-family="sans-serif" font-size="13" lengthAdjust="spacingAndGlyphs" textLength="87" x="277" y="392.7139">Choose picture</text><polygon fill="#A80036" points="281,423.9219,271,427.9219,281,431.9219,277,427.9219" style="stroke: #A80036; stroke-width: 1.0;"/><line style="stroke: #A80036; stroke-width: 1.0;" x1="275" x2="479" y1="427.9219" y2="427.9219"/><text fill="#000000" font-family="sans-serif" font-size="13" lengthAdjust="spacingAndGlyphs" textLength="73" x="287" y="423.0654">Send picture</text><polygon fill="#A80036" points="575,461.2734,585,465.2734,575,469.2734,579,465.2734" style="stroke: #A80036; stroke-width: 1.0;"/><line style="stroke: #A80036; stroke-width: 1.0;" x1="270" x2="581" y1="465.2734" y2="465.2734"/><text fill="#000000" font-family="sans-serif" font-size="13" lengthAdjust="spacingAndGlyphs" textLength="128" x="277" y="460.417">Command : Shutdown</text><polygon fill="#A80036" points="496,491.625,486,495.625,496,499.625,492,495.625" style="stroke: #A80036; stroke-width: 1.0;"/><line style="stroke: #A80036; stroke-width: 1.0;" x1="490" x2="586" y1="495.625" y2="495.625"/><text fill="#000000" font-family="sans-serif" font-size="13" lengthAdjust="spacingAndGlyphs" textLength="57" x="502" y="490.7686">Shutdown</text><path d="M23,567.625 L268,567.625 L268,575.625 L258,585.625 L23,585.625 L23,567.625 " fill="#EEEEEE" style="stroke: #000000; stroke-width: 1.0;"/><rect fill="none" height="170.1094" style="stroke: #000000; stroke-width: 2.0;" width="703.5" x="23" y="567.625"/><text fill="#000000" font-family="sans-serif" font-size="13" font-weight="bold" lengthAdjust="spacingAndGlyphs" textLength="200" x="38" y="582.1201">Receive pictures in 5R8G's from</text><polygon fill="#A80036" points="248,604.3281,258,608.3281,248,612.3281,252,608.3281" style="stroke: #A80036; stroke-width: 1.0;"/><line style="stroke: #A80036; stroke-width: 1.0;" x1="52" x2="254" y1="608.3281" y2="608.3281"/><text fill="#000000" font-family="sans-serif" font-size="13" lengthAdjust="spacingAndGlyphs" textLength="170" x="59" y="603.4717">Command : Receive pitctures</text><polygon fill="#A80036" points="575,634.6797,585,638.6797,575,642.6797,579,638.6797" style="stroke: #A80036; stroke-width: 1.0;"/><line style="stroke: #A80036; stroke-width: 1.0;" x1="270" x2="581" y1="638.6797" y2="638.6797"/><text fill="#000000" font-family="sans-serif" font-size="13" lengthAdjust="spacingAndGlyphs" textLength="201" x="277" y="633.8232">Command : Supply power to 5R8G</text><polygon fill="#A80036" points="672,665.0313,682,669.0313,672,673.0313,676,669.0313" style="stroke: #A80036; stroke-width: 1.0;"/><line style="stroke: #A80036; stroke-width: 1.0;" x1="587" x2="678" y1="669.0313" y2="669.0313"/><text fill="#000000" font-family="sans-serif" font-size="13" lengthAdjust="spacingAndGlyphs" textLength="78" x="594" y="664.1748">Supply power</text><polygon fill="#A80036" points="672,695.3828,682,699.3828,672,703.3828,676,699.3828" style="stroke: #A80036; stroke-width: 1.0;"/><line style="stroke: #A80036; stroke-width: 1.0;" x1="270" x2="678" y1="699.3828" y2="699.3828"/><text fill="#000000" font-family="sans-serif" font-size="13" lengthAdjust="spacingAndGlyphs" textLength="262" x="277" y="694.5264">Send picture(Thumbnbail, JPEG, H264, ECC)</text><polygon fill="#A80036" points="677,725.7344,687,729.7344,677,733.7344,681,729.7344" style="stroke: #A80036; stroke-width: 1.0;"/><line style="stroke: #A80036; stroke-width: 1.0;" x1="587" x2="683" y1="729.7344" y2="729.7344"/><text fill="#000000" font-family="sans-serif" font-size="13" lengthAdjust="spacingAndGlyphs" textLength="57" x="594" y="724.8779">Shutdown</text><path d="M13,801.7344 L226,801.7344 L226,809.7344 L216,819.7344 L13,819.7344 L13,801.7344 " fill="#EEEEEE" style="stroke: #000000; stroke-width: 1.0;"/><rect fill="none" height="232.8125" style="stroke: #000000; stroke-width: 2.0;" width="723.5" x="13" y="801.7344"/><text fill="#000000" font-family="sans-serif" font-size="13" font-weight="bold" lengthAdjust="spacingAndGlyphs" textLength="168" x="28" y="816.2295">Downlink from 5R8G to GS</text><polygon fill="#A80036" points="248,838.4375,258,842.4375,248,846.4375,252,842.4375" style="stroke: #A80036; stroke-width: 1.0;"/><line style="stroke: #A80036; stroke-width: 1.0;" x1="52" x2="254" y1="842.4375" y2="842.4375"/><text fill="#000000" font-family="sans-serif" font-size="13" lengthAdjust="spacingAndGlyphs" textLength="173" x="59" y="837.5811">Command : Downlink pictures</text><polygon fill="#A80036" points="575,868.7891,585,872.7891,575,876.7891,579,872.7891" style="stroke: #A80036; stroke-width: 1.0;"/><line style="stroke: #A80036; stroke-width: 1.0;" x1="270" x2="581" y1="872.7891" y2="872.7891"/><text fill="#000000" font-family="sans-serif" font-size="13" lengthAdjust="spacingAndGlyphs" textLength="201" x="277" y="867.9326">Command : Supply power to 5R8G</text><polygon fill="#A80036" points="672,899.1406,682,903.1406,672,907.1406,676,903.1406" style="stroke: #A80036; stroke-width: 1.0;"/><line style="stroke: #A80036; stroke-width: 1.0;" x1="587" x2="678" y1="903.1406" y2="903.1406"/><text fill="#000000" font-family="sans-serif" font-size="13" lengthAdjust="spacingAndGlyphs" textLength="78" x="594" y="898.2842">Supply power</text><polygon fill="#A80036" points="672,929.4922,682,933.4922,672,937.4922,676,933.4922" style="stroke: #A80036; stroke-width: 1.0;"/><line style="stroke: #A80036; stroke-width: 1.0;" x1="270" x2="678" y1="933.4922" y2="933.4922"/><text fill="#000000" font-family="sans-serif" font-size="13" lengthAdjust="spacingAndGlyphs" textLength="123" x="277" y="928.6357">Command : Downlink</text><path d="M23,948.4922 L96,948.4922 L96,956.4922 L86,966.4922 L23,966.4922 L23,948.4922 " fill="#EEEEEE" style="stroke: #000000; stroke-width: 1.0;"/><rect fill="none" height="48.7031" style="stroke: #000000; stroke-width: 2.0;" width="703.5" x="23" y="948.4922"/><text fill="#000000" font-family="sans-serif" font-size="13" font-weight="bold" lengthAdjust="spacingAndGlyphs" textLength="28" x="38" y="962.9873">loop</text><text fill="#000000" font-family="sans-serif" font-size="11" font-weight="bold" lengthAdjust="spacingAndGlyphs" textLength="100" x="111" y="961.9111">[Until end of Pass]</text><polygon fill="#A80036" points="63,985.1953,53,989.1953,63,993.1953,59,989.1953" style="stroke: #A80036; stroke-width: 1.0;"/><line style="stroke: #A80036; stroke-width: 1.0;" x1="57" x2="683" y1="989.1953" y2="989.1953"/><text fill="#000000" font-family="sans-serif" font-size="13" lengthAdjust="spacingAndGlyphs" textLength="52" x="69" y="984.3389">Downlink</text><polygon fill="#A80036" points="677,1022.5469,687,1026.5469,677,1030.5469,681,1026.5469" style="stroke: #A80036; stroke-width: 1.0;"/><line style="stroke: #A80036; stroke-width: 1.0;" x1="587" x2="683" y1="1026.5469" y2="1026.5469"/><text fill="#000000" font-family="sans-serif" font-size="13" lengthAdjust="spacingAndGlyphs" textLength="57" x="594" y="1021.6904">Shutdown</text><!--
@startuml
title Downlink Pictures
participant GS
participant OBC
participant RPI
participant CIB

group Send Picture from RPI to OBC
    GS -> OBC : Command : Supply power to RPI
    activate OBC
    CIB -> RPI : Supply power
    activate RPI
    par HK telemetry
        loop Send telemetry
            RPI -> OBC : HK telemetry
            OBC -> OBC : Check something
        end
    else Pictures
        OBC -> RPI : Command : Start send mode
        RPI -> OBC : File telemetry(File list, File size)
        OBC -> RPI : Choose picture
        RPI -> OBC : Send picture
    end
    OBC -> CIB : Command : Shutdown
    CIB -> RPI : Shutdown
    deactivate RPI
    deactivate OBC
end
||50||
group Receive pictures in 5R8G's from
    GS -> OBC : Command : Receive pitctures
    activate OBC
    OBC -> CIB : Command : Supply power to 5R8G
    CIB -> 5R8G : Supply power
    activate 5R8G
    OBC -> 5R8G : Send picture(Thumbnbail, JPEG, H264, ECC)
    CIB -> 5R8G : Shutdown
    deactivate 5R8G
    deactivate OBC
end
||50||
group Downlink from 5R8G to GS
    GS -> OBC : Command : Downlink pictures
    activate OBC
    OBC -> CIB : Command : Supply power to 5R8G
    CIB -> 5R8G : Supply power
    activate 5R8G
    OBC -> 5R8G : Command : Downlink
    loop Until end of Pass
        5R8G -> GS : Downlink
    end
    CIB -> 5R8G : Shutdown
    deactivate 5R8G
    deactivate OBC
end
@enduml

PlantUML version 1.2018.03(Fri Apr 06 01:59:15 JST 2018)
(GPL source distribution)
Java Runtime: Java(TM) SE Runtime Environment
JVM: Java HotSpot(TM) 64-Bit Server VM
Java Version: 1.8.0_171-b11
Operating System: Windows 7
OS Version: 6.1
Default Encoding: MS932
Language: ja
Country: JP
--></g></svg>