<?xml version="1.0" encoding="UTF-8" standalone="no"?><svg xmlns="http://www.w3.org/2000/svg" xmlns:xlink="http://www.w3.org/1999/xlink" contentScriptType="application/ecmascript" contentStyleType="text/css" height="965px" preserveAspectRatio="none" style="width:747px;height:965px;" version="1.1" viewBox="0 0 747 965" width="747px" zoomAndPan="magnify"><defs><filter height="300%" id="f1wr5e2d56e2e" width="300%" x="-1" y="-1"><feGaussianBlur result="blurOut" stdDeviation="2.0"/><feColorMatrix in="blurOut" result="blurOut2" type="matrix" values="0 0 0 0 0 0 0 0 0 0 0 0 0 0 0 0 0 0 .4 0"/><feOffset dx="4.0" dy="4.0" in="blurOut2" result="blurOut3"/><feBlend in="SourceGraphic" in2="blurOut3" mode="normal"/></filter></defs><g><text fill="#000000" font-family="sans-serif" font-size="14" font-weight="bold" lengthAdjust="spacingAndGlyphs" textLength="126" x="311.5" y="24.5332">Downlink Pictures</text><rect fill="#FFFFFF" filter="url(#f1wr5e2d56e2e)" height="123.4063" style="stroke: #A80036; stroke-width: 1.0;" width="10" x="683.5" y="775.3828"/><rect fill="#FFFFFF" filter="url(#f1wr5e2d56e2e)" height="378.7031" style="stroke: #000000; stroke-width: 2.0;" width="658" x="13" y="88.2188"/><rect fill="#FFFFFF" filter="url(#f1wr5e2d56e2e)" height="285.6484" style="stroke: #000000; stroke-width: 2.0;" width="638" x="23" y="113.5703"/><rect fill="#FFFFFF" height="223.9453" style="stroke: none; stroke-width: 1.0;" width="638" x="23" y="175.2734"/><rect fill="#FFFFFF" filter="url(#f1wr5e2d56e2e)" height="79.0547" style="stroke: #000000; stroke-width: 2.0;" width="703" x="23" y="530.9219"/><rect fill="#FFFFFF" filter="url(#f1wr5e2d56e2e)" height="232.8125" style="stroke: #000000; stroke-width: 2.0;" width="723" x="13" y="673.9766"/><rect fill="#FFFFFF" filter="url(#f1wr5e2d56e2e)" height="48.7031" style="stroke: #000000; stroke-width: 2.0;" width="703" x="23" y="820.7344"/><line style="stroke: #A80036; stroke-width: 1.0; stroke-dasharray: 5.0,5.0;" x1="52" x2="52" y1="71.2188" y2="923.7891"/><line style="stroke: #A80036; stroke-width: 1.0; stroke-dasharray: 5.0,5.0;" x1="294" x2="294" y1="71.2188" y2="923.7891"/><line style="stroke: #A80036; stroke-width: 1.0; stroke-dasharray: 5.0,5.0;" x1="413" x2="413" y1="71.2188" y2="923.7891"/><line style="stroke: #A80036; stroke-width: 1.0; stroke-dasharray: 5.0,5.0;" x1="465" x2="465" y1="71.2188" y2="923.7891"/><line style="stroke: #A80036; stroke-width: 1.0; stroke-dasharray: 5.0,5.0;" x1="536" x2="536" y1="71.2188" y2="923.7891"/><line style="stroke: #A80036; stroke-width: 1.0; stroke-dasharray: 5.0,5.0;" x1="633" x2="633" y1="71.2188" y2="923.7891"/><line style="stroke: #A80036; stroke-width: 1.0; stroke-dasharray: 5.0,5.0;" x1="688" x2="688" y1="71.2188" y2="923.7891"/><rect fill="#FEFECE" filter="url(#f1wr5e2d56e2e)" height="31.6094" style="stroke: #A80036; stroke-width: 1.5;" width="34" x="33" y="34.6094"/><text fill="#000000" font-family="sans-serif" font-size="14" lengthAdjust="spacingAndGlyphs" textLength="20" x="40" y="56.1426">GS</text><rect fill="#FEFECE" filter="url(#f1wr5e2d56e2e)" height="31.6094" style="stroke: #A80036; stroke-width: 1.5;" width="34" x="33" y="922.7891"/><text fill="#000000" font-family="sans-serif" font-size="14" lengthAdjust="spacingAndGlyphs" textLength="20" x="40" y="944.3223">GS</text><rect fill="#FEFECE" filter="url(#f1wr5e2d56e2e)" height="31.6094" style="stroke: #A80036; stroke-width: 1.5;" width="44" x="270" y="34.6094"/><text fill="#000000" font-family="sans-serif" font-size="14" lengthAdjust="spacingAndGlyphs" textLength="30" x="277" y="56.1426">OBC</text><rect fill="#FEFECE" filter="url(#f1wr5e2d56e2e)" height="31.6094" style="stroke: #A80036; stroke-width: 1.5;" width="44" x="270" y="922.7891"/><text fill="#000000" font-family="sans-serif" font-size="14" lengthAdjust="spacingAndGlyphs" textLength="30" x="277" y="944.3223">OBC</text><rect fill="#FEFECE" filter="url(#f1wr5e2d56e2e)" height="31.6094" style="stroke: #A80036; stroke-width: 1.5;" width="36" x="393" y="34.6094"/><text fill="#000000" font-family="sans-serif" font-size="14" lengthAdjust="spacingAndGlyphs" textLength="22" x="400" y="56.1426">RPI</text><rect fill="#FEFECE" filter="url(#f1wr5e2d56e2e)" height="31.6094" style="stroke: #A80036; stroke-width: 1.5;" width="36" x="393" y="922.7891"/><text fill="#000000" font-family="sans-serif" font-size="14" lengthAdjust="spacingAndGlyphs" textLength="22" x="400" y="944.3223">RPI</text><rect fill="#FEFECE" filter="url(#f1wr5e2d56e2e)" height="31.6094" style="stroke: #A80036; stroke-width: 1.5;" width="41" x="443" y="34.6094"/><text fill="#000000" font-family="sans-serif" font-size="14" lengthAdjust="spacingAndGlyphs" textLength="27" x="450" y="56.1426">EPS</text><rect fill="#FEFECE" filter="url(#f1wr5e2d56e2e)" height="31.6094" style="stroke: #A80036; stroke-width: 1.5;" width="41" x="443" y="922.7891"/><text fill="#000000" font-family="sans-serif" font-size="14" lengthAdjust="spacingAndGlyphs" textLength="27" x="450" y="944.3223">EPS</text><rect fill="#FEFECE" filter="url(#f1wr5e2d56e2e)" height="31.6094" style="stroke: #A80036; stroke-width: 1.5;" width="73" x="498" y="34.6094"/><text fill="#000000" font-family="sans-serif" font-size="14" lengthAdjust="spacingAndGlyphs" textLength="59" x="505" y="56.1426">EEPROM</text><rect fill="#FEFECE" filter="url(#f1wr5e2d56e2e)" height="31.6094" style="stroke: #A80036; stroke-width: 1.5;" width="73" x="498" y="922.7891"/><text fill="#000000" font-family="sans-serif" font-size="14" lengthAdjust="spacingAndGlyphs" textLength="59" x="505" y="944.3223">EEPROM</text><rect fill="#FEFECE" filter="url(#f1wr5e2d56e2e)" height="31.6094" style="stroke: #A80036; stroke-width: 1.5;" width="31" x="616" y="34.6094"/><text fill="#000000" font-family="sans-serif" font-size="14" lengthAdjust="spacingAndGlyphs" textLength="17" x="623" y="56.1426">TX</text><rect fill="#FEFECE" filter="url(#f1wr5e2d56e2e)" height="31.6094" style="stroke: #A80036; stroke-width: 1.5;" width="31" x="616" y="922.7891"/><text fill="#000000" font-family="sans-serif" font-size="14" lengthAdjust="spacingAndGlyphs" textLength="17" x="623" y="944.3223">TX</text><rect fill="#FEFECE" filter="url(#f1wr5e2d56e2e)" height="31.6094" style="stroke: #A80036; stroke-width: 1.5;" width="51" x="661" y="34.6094"/><text fill="#000000" font-family="sans-serif" font-size="14" lengthAdjust="spacingAndGlyphs" textLength="37" x="668" y="56.1426">5R8G</text><rect fill="#FEFECE" filter="url(#f1wr5e2d56e2e)" height="31.6094" style="stroke: #A80036; stroke-width: 1.5;" width="51" x="661" y="922.7891"/><text fill="#000000" font-family="sans-serif" font-size="14" lengthAdjust="spacingAndGlyphs" textLength="37" x="668" y="944.3223">5R8G</text><rect fill="#FFFFFF" filter="url(#f1wr5e2d56e2e)" height="123.4063" style="stroke: #A80036; stroke-width: 1.0;" width="10" x="683.5" y="775.3828"/><path d="M13,88.2188 L165,88.2188 L165,96.2188 L155,106.2188 L13,106.2188 L13,88.2188 " fill="#EEEEEE" style="stroke: #000000; stroke-width: 1.0;"/><rect fill="none" height="378.7031" style="stroke: #000000; stroke-width: 2.0;" width="658" x="13" y="88.2188"/><text fill="#000000" font-family="sans-serif" font-size="13" font-weight="bold" lengthAdjust="spacingAndGlyphs" textLength="107" x="28" y="102.7139">Choose a picture</text><path d="M23,113.5703 L84,113.5703 L84,121.5703 L74,131.5703 L23,131.5703 L23,113.5703 " fill="#EEEEEE" style="stroke: #000000; stroke-width: 1.0;"/><rect fill="none" height="285.6484" style="stroke: #000000; stroke-width: 2.0;" width="638" x="23" y="113.5703"/><text fill="#000000" font-family="sans-serif" font-size="13" font-weight="bold" lengthAdjust="spacingAndGlyphs" textLength="16" x="38" y="128.0654">alt</text><text fill="#000000" font-family="sans-serif" font-size="11" font-weight="bold" lengthAdjust="spacingAndGlyphs" textLength="93" x="99" y="126.9893">[Know file name]</text><line style="stroke: #A80036; stroke-width: 1.0;" x1="52" x2="94" y1="154.2734" y2="154.2734"/><line style="stroke: #A80036; stroke-width: 1.0;" x1="94" x2="94" y1="154.2734" y2="167.2734"/><line style="stroke: #A80036; stroke-width: 1.0;" x1="53" x2="94" y1="167.2734" y2="167.2734"/><polygon fill="#A80036" points="63,163.2734,53,167.2734,63,171.2734,59,167.2734" style="stroke: #A80036; stroke-width: 1.0;"/><text fill="#000000" font-family="sans-serif" font-size="13" lengthAdjust="spacingAndGlyphs" textLength="98" x="59" y="149.417">Choose a picture</text><line style="stroke: #000000; stroke-width: 1.0; stroke-dasharray: 2.0,2.0;" x1="23" x2="661" y1="176.2734" y2="176.2734"/><text fill="#000000" font-family="sans-serif" font-size="11" font-weight="bold" lengthAdjust="spacingAndGlyphs" textLength="107" x="28" y="187.6924">[Unknow file name]</text><polygon fill="#A80036" points="282,209.4609,292,213.4609,282,217.4609,286,213.4609" style="stroke: #A80036; stroke-width: 1.0;"/><line style="stroke: #A80036; stroke-width: 1.0;" x1="52" x2="288" y1="213.4609" y2="213.4609"/><text fill="#000000" font-family="sans-serif" font-size="13" lengthAdjust="spacingAndGlyphs" textLength="169" x="59" y="208.6045">Command : Tell me file name</text><line style="stroke: #A80036; stroke-width: 1.0;" x1="294" x2="336" y1="243.8125" y2="243.8125"/><line style="stroke: #A80036; stroke-width: 1.0;" x1="336" x2="336" y1="243.8125" y2="256.8125"/><line style="stroke: #A80036; stroke-width: 1.0;" x1="295" x2="336" y1="256.8125" y2="256.8125"/><polygon fill="#A80036" points="305,252.8125,295,256.8125,305,260.8125,301,256.8125" style="stroke: #A80036; stroke-width: 1.0;"/><text fill="#000000" font-family="sans-serif" font-size="13" lengthAdjust="spacingAndGlyphs" textLength="84" x="301" y="238.9561">Make a file list</text><polygon fill="#A80036" points="524.5,283.1641,534.5,287.1641,524.5,291.1641,528.5,287.1641" style="stroke: #A80036; stroke-width: 1.0;"/><line style="stroke: #A80036; stroke-width: 1.0;" x1="294" x2="530.5" y1="287.1641" y2="287.1641"/><text fill="#000000" font-family="sans-serif" font-size="13" lengthAdjust="spacingAndGlyphs" textLength="74" x="301" y="282.3076">Write the list</text><polygon fill="#A80036" points="547.5,313.5156,537.5,317.5156,547.5,321.5156,543.5,317.5156" style="stroke: #A80036; stroke-width: 1.0;"/><line style="stroke: #A80036; stroke-width: 1.0;" x1="541.5" x2="632.5" y1="317.5156" y2="317.5156"/><text fill="#000000" font-family="sans-serif" font-size="13" lengthAdjust="spacingAndGlyphs" textLength="73" x="553.5" y="312.6592">Read the list</text><polygon fill="#A80036" points="63,343.8672,53,347.8672,63,351.8672,59,347.8672" style="stroke: #A80036; stroke-width: 1.0;"/><line style="stroke: #A80036; stroke-width: 1.0;" x1="57" x2="632.5" y1="347.8672" y2="347.8672"/><text fill="#000000" font-family="sans-serif" font-size="13" lengthAdjust="spacingAndGlyphs" textLength="73" x="69" y="343.0107">Send the list</text><line style="stroke: #A80036; stroke-width: 1.0;" x1="52" x2="94" y1="378.2188" y2="378.2188"/><line style="stroke: #A80036; stroke-width: 1.0;" x1="94" x2="94" y1="378.2188" y2="391.2188"/><line style="stroke: #A80036; stroke-width: 1.0;" x1="53" x2="94" y1="391.2188" y2="391.2188"/><polygon fill="#A80036" points="63,387.2188,53,391.2188,63,395.2188,59,391.2188" style="stroke: #A80036; stroke-width: 1.0;"/><text fill="#000000" font-family="sans-serif" font-size="13" lengthAdjust="spacingAndGlyphs" textLength="193" x="59" y="373.3623">Check the list &amp; choose a picture</text><polygon fill="#A80036" points="401,424.5703,411,428.5703,401,432.5703,405,428.5703" style="stroke: #A80036; stroke-width: 1.0;"/><line style="stroke: #A80036; stroke-width: 1.0;" x1="52" x2="407" y1="428.5703" y2="428.5703"/><text fill="#000000" font-family="sans-serif" font-size="13" lengthAdjust="spacingAndGlyphs" textLength="213" x="59" y="423.7139">Command : Send the picture to OBC</text><polygon fill="#A80036" points="305,454.9219,295,458.9219,305,462.9219,301,458.9219" style="stroke: #A80036; stroke-width: 1.0;"/><line style="stroke: #A80036; stroke-width: 1.0;" x1="299" x2="412" y1="458.9219" y2="458.9219"/><text fill="#000000" font-family="sans-serif" font-size="13" lengthAdjust="spacingAndGlyphs" textLength="95" x="311" y="454.0654">Send the picture</text><path d="M23,530.9219 L226,530.9219 L226,538.9219 L216,548.9219 L23,548.9219 L23,530.9219 " fill="#EEEEEE" style="stroke: #000000; stroke-width: 1.0;"/><rect fill="none" height="79.0547" style="stroke: #000000; stroke-width: 2.0;" width="703" x="23" y="530.9219"/><text fill="#000000" font-family="sans-serif" font-size="13" font-weight="bold" lengthAdjust="spacingAndGlyphs" textLength="158" x="38" y="545.417">Send the picture to 5R8G</text><polygon fill="#A80036" points="282,567.625,292,571.625,282,575.625,286,571.625" style="stroke: #A80036; stroke-width: 1.0;"/><line style="stroke: #A80036; stroke-width: 1.0;" x1="52" x2="288" y1="571.625" y2="571.625"/><text fill="#000000" font-family="sans-serif" font-size="13" lengthAdjust="spacingAndGlyphs" textLength="218" x="59" y="566.7686">Command : Send the picture to 5R8G</text><polygon fill="#A80036" points="676.5,597.9766,686.5,601.9766,676.5,605.9766,680.5,601.9766" style="stroke: #A80036; stroke-width: 1.0;"/><line style="stroke: #A80036; stroke-width: 1.0;" x1="294" x2="682.5" y1="601.9766" y2="601.9766"/><text fill="#000000" font-family="sans-serif" font-size="13" lengthAdjust="spacingAndGlyphs" textLength="284" x="301" y="597.1201">Send the picture(Thumbnbail, JPEG, H264, ECC)</text><path d="M13,673.9766 L226,673.9766 L226,681.9766 L216,691.9766 L13,691.9766 L13,673.9766 " fill="#EEEEEE" style="stroke: #000000; stroke-width: 1.0;"/><rect fill="none" height="232.8125" style="stroke: #000000; stroke-width: 2.0;" width="723" x="13" y="673.9766"/><text fill="#000000" font-family="sans-serif" font-size="13" font-weight="bold" lengthAdjust="spacingAndGlyphs" textLength="168" x="28" y="688.4717">Downlink from 5R8G to GS</text><polygon fill="#A80036" points="282,710.6797,292,714.6797,282,718.6797,286,714.6797" style="stroke: #A80036; stroke-width: 1.0;"/><line style="stroke: #A80036; stroke-width: 1.0;" x1="52" x2="288" y1="714.6797" y2="714.6797"/><text fill="#000000" font-family="sans-serif" font-size="13" lengthAdjust="spacingAndGlyphs" textLength="188" x="59" y="709.8232">Command : Downlink the picture</text><polygon fill="#A80036" points="453.5,741.0313,463.5,745.0313,453.5,749.0313,457.5,745.0313" style="stroke: #A80036; stroke-width: 1.0;"/><line style="stroke: #A80036; stroke-width: 1.0;" x1="294" x2="459.5" y1="745.0313" y2="745.0313"/><text fill="#000000" font-family="sans-serif" font-size="13" lengthAdjust="spacingAndGlyphs" textLength="62" x="301" y="740.1748">Switch ON</text><polygon fill="#A80036" points="671.5,771.3828,681.5,775.3828,671.5,779.3828,675.5,775.3828" style="stroke: #A80036; stroke-width: 1.0;"/><line style="stroke: #A80036; stroke-width: 1.0;" x1="465.5" x2="677.5" y1="775.3828" y2="775.3828"/><text fill="#000000" font-family="sans-serif" font-size="13" lengthAdjust="spacingAndGlyphs" textLength="78" x="472.5" y="770.5264">Supply power</text><polygon fill="#A80036" points="671.5,801.7344,681.5,805.7344,671.5,809.7344,675.5,805.7344" style="stroke: #A80036; stroke-width: 1.0;"/><line style="stroke: #A80036; stroke-width: 1.0;" x1="294" x2="677.5" y1="805.7344" y2="805.7344"/><text fill="#000000" font-family="sans-serif" font-size="13" lengthAdjust="spacingAndGlyphs" textLength="123" x="301" y="800.8779">Command : Downlink</text><path d="M23,820.7344 L96,820.7344 L96,828.7344 L86,838.7344 L23,838.7344 L23,820.7344 " fill="#EEEEEE" style="stroke: #000000; stroke-width: 1.0;"/><rect fill="none" height="48.7031" style="stroke: #000000; stroke-width: 2.0;" width="703" x="23" y="820.7344"/><text fill="#000000" font-family="sans-serif" font-size="13" font-weight="bold" lengthAdjust="spacingAndGlyphs" textLength="28" x="38" y="835.2295">loop</text><text fill="#000000" font-family="sans-serif" font-size="11" font-weight="bold" lengthAdjust="spacingAndGlyphs" textLength="100" x="111" y="834.1533">[Until end of Pass]</text><polygon fill="#A80036" points="63,857.4375,53,861.4375,63,865.4375,59,861.4375" style="stroke: #A80036; stroke-width: 1.0;"/><line style="stroke: #A80036; stroke-width: 1.0;" x1="57" x2="682.5" y1="861.4375" y2="861.4375"/><text fill="#000000" font-family="sans-serif" font-size="13" lengthAdjust="spacingAndGlyphs" textLength="52" x="69" y="856.5811">Downlink</text><polygon fill="#A80036" points="453.5,894.7891,463.5,898.7891,453.5,902.7891,457.5,898.7891" style="stroke: #A80036; stroke-width: 1.0;"/><line style="stroke: #A80036; stroke-width: 1.0;" x1="294" x2="459.5" y1="898.7891" y2="898.7891"/><text fill="#000000" font-family="sans-serif" font-size="13" lengthAdjust="spacingAndGlyphs" textLength="69" x="301" y="893.9326">Switch OFF</text><!--
@startuml
title Downlink Pictures
participant GS
participant OBC
participant RPI
participant EPS
participant EEPROM

group Choose a picture
    alt Know file name
        GS -> GS : Choose a picture
    else Unknow file name
        GS -> OBC : Command : Tell me file name
        OBC -> OBC : Make a file list
        OBC -> EEPROM : Write the list
        TX -> EEPROM : Read the list
        TX -> GS : Send the list
        GS -> GS : Check the list & choose a picture
    end

    GS -> RPI : Command : Send the picture to OBC
    RPI -> OBC : Send the picture
end
||50||
group Send the picture to 5R8G
    GS -> OBC : Command : Send the picture to 5R8G
    OBC -> 5R8G : Send the picture(Thumbnbail, JPEG, H264, ECC)
end
||50||
group Downlink from 5R8G to GS
    GS -> OBC : Command : Downlink the picture
    OBC -> EPS : Switch ON
    EPS -> 5R8G : Supply power
    activate 5R8G
    OBC -> 5R8G : Command : Downlink
    loop Until end of Pass
        5R8G -> GS : Downlink
    end
    OBC -> EPS : Switch OFF
    deactivate 5R8G
end
@enduml

PlantUML version 1.2018.03(Fri Apr 06 01:59:15 JST 2018)
(GPL source distribution)
Java Runtime: Java(TM) SE Runtime Environment
JVM: Java HotSpot(TM) Client VM
Java Version: 1.8.0_181-b13
Operating System: Windows 10
OS Version: 10.0
Default Encoding: MS932
Language: ja
Country: JP
--></g></svg>