<?xml version="1.0" encoding="UTF-8" standalone="no"?><svg xmlns="http://www.w3.org/2000/svg" xmlns:xlink="http://www.w3.org/1999/xlink" contentScriptType="application/ecmascript" contentStyleType="text/css" height="2435px" preserveAspectRatio="none" style="width:733px;height:2435px;" version="1.1" viewBox="0 0 733 2435" width="733px" zoomAndPan="magnify"><defs><filter height="300%" id="f2ck793zmpbjp" width="300%" x="-1" y="-1"><feGaussianBlur result="blurOut" stdDeviation="2.0"/><feColorMatrix in="blurOut" result="blurOut2" type="matrix" values="0 0 0 0 0 0 0 0 0 0 0 0 0 0 0 0 0 0 .4 0"/><feOffset dx="4.0" dy="4.0" in="blurOut2" result="blurOut3"/><feBlend in="SourceGraphic" in2="blurOut3" mode="normal"/></filter></defs><g><text fill="#000000" font-family="sans-serif" font-size="14" font-weight="bold" lengthAdjust="spacingAndGlyphs" textLength="179" x="277.75" y="24.5332">sequence_map_Downlink</text><rect fill="#FFFFFF" filter="url(#f2ck793zmpbjp)" height="91.0547" style="stroke: #A80036; stroke-width: 1.0;" width="10" x="315" y="151.5703"/><rect fill="#FFFFFF" filter="url(#f2ck793zmpbjp)" height="30.3516" style="stroke: #A80036; stroke-width: 1.0;" width="10" x="315" y="272.9766"/><rect fill="#FFFFFF" filter="url(#f2ck793zmpbjp)" height="194.1094" style="stroke: #A80036; stroke-width: 1.0;" width="10" x="315" y="409.3828"/><rect fill="#FFFFFF" filter="url(#f2ck793zmpbjp)" height="91.0547" style="stroke: #A80036; stroke-width: 1.0;" width="10" x="315" y="820.5469"/><rect fill="#FFFFFF" filter="url(#f2ck793zmpbjp)" height="30.3516" style="stroke: #A80036; stroke-width: 1.0;" width="10" x="315" y="941.9531"/><rect fill="#FFFFFF" filter="url(#f2ck793zmpbjp)" height="194.1094" style="stroke: #A80036; stroke-width: 1.0;" width="10" x="315" y="1078.3594"/><rect fill="#FFFFFF" filter="url(#f2ck793zmpbjp)" height="60.7031" style="stroke: #A80036; stroke-width: 1.0;" width="10" x="315" y="1446.1719"/><rect fill="#FFFFFF" filter="url(#f2ck793zmpbjp)" height="30.3516" style="stroke: #A80036; stroke-width: 1.0;" width="10" x="315" y="1592.9297"/><rect fill="#FFFFFF" filter="url(#f2ck793zmpbjp)" height="194.1094" style="stroke: #A80036; stroke-width: 1.0;" width="10" x="315" y="1729.3359"/><rect fill="#FFFFFF" filter="url(#f2ck793zmpbjp)" height="121.4063" style="stroke: #A80036; stroke-width: 1.0;" width="10" x="315" y="2099.9844"/><rect fill="#FFFFFF" filter="url(#f2ck793zmpbjp)" height="30.3516" style="stroke: #A80036; stroke-width: 1.0;" width="10" x="417" y="181.9219"/><rect fill="#FFFFFF" filter="url(#f2ck793zmpbjp)" height="30.3516" style="stroke: #A80036; stroke-width: 1.0;" width="10" x="417" y="850.8984"/><rect fill="#FFFFFF" filter="url(#f2ck793zmpbjp)" height="133.4063" style="stroke: #A80036; stroke-width: 1.0;" width="10" x="482" y="470.0859"/><rect fill="#FFFFFF" filter="url(#f2ck793zmpbjp)" height="133.4063" style="stroke: #A80036; stroke-width: 1.0;" width="10" x="482" y="1139.0625"/><rect fill="#FFFFFF" filter="url(#f2ck793zmpbjp)" height="133.4063" style="stroke: #A80036; stroke-width: 1.0;" width="10" x="482" y="1790.0391"/><rect fill="#FFFFFF" filter="url(#f2ck793zmpbjp)" height="30.3516" style="stroke: #A80036; stroke-width: 1.0;" width="10" x="632" y="1476.5234"/><rect fill="#FFFFFF" filter="url(#f2ck793zmpbjp)" height="91.0547" style="stroke: #A80036; stroke-width: 1.0;" width="10" x="686.5" y="2130.3359"/><rect fill="#FFFFFF" filter="url(#f2ck793zmpbjp)" height="61.7031" style="stroke: #000000; stroke-width: 2.0;" width="214" x="449.5" y="318.3281"/><rect fill="#FFFFFF" filter="url(#f2ck793zmpbjp)" height="48.7031" style="stroke: #000000; stroke-width: 2.0;" width="501.5" x="23" y="485.0859"/><rect fill="#FFFFFF" filter="url(#f2ck793zmpbjp)" height="61.7031" style="stroke: #000000; stroke-width: 2.0;" width="214" x="449.5" y="987.3047"/><rect fill="#FFFFFF" filter="url(#f2ck793zmpbjp)" height="48.7031" style="stroke: #000000; stroke-width: 2.0;" width="501.5" x="23" y="1154.0625"/><rect fill="#FFFFFF" filter="url(#f2ck793zmpbjp)" height="807.5156" style="stroke: #000000; stroke-width: 2.0;" width="708.5" x="13" y="1521.875"/><rect fill="#FFFFFF" filter="url(#f2ck793zmpbjp)" height="61.7031" style="stroke: #000000; stroke-width: 2.0;" width="214" x="449.5" y="1638.2813"/><rect fill="#FFFFFF" filter="url(#f2ck793zmpbjp)" height="48.7031" style="stroke: #000000; stroke-width: 2.0;" width="501.5" x="23" y="1805.0391"/><rect fill="#FFFFFF" height="297.9453" style="stroke: none; stroke-width: 1.0;" width="708.5" x="13" y="2031.4453"/><line style="stroke: #A80036; stroke-width: 1.0; stroke-dasharray: 5.0,5.0;" x1="48" x2="48" y1="119.2188" y2="2346.3906"/><line style="stroke: #A80036; stroke-width: 1.0; stroke-dasharray: 5.0,5.0;" x1="320" x2="320" y1="119.2188" y2="2346.3906"/><line style="stroke: #A80036; stroke-width: 1.0; stroke-dasharray: 5.0,5.0;" x1="421.5" x2="421.5" y1="119.2188" y2="2346.3906"/><line style="stroke: #A80036; stroke-width: 1.0; stroke-dasharray: 5.0,5.0;" x1="486.5" x2="486.5" y1="119.2188" y2="2346.3906"/><line style="stroke: #A80036; stroke-width: 1.0; stroke-dasharray: 5.0,5.0;" x1="636.5" x2="636.5" y1="119.2188" y2="2346.3906"/><line style="stroke: #A80036; stroke-width: 1.0; stroke-dasharray: 5.0,5.0;" x1="691.5" x2="691.5" y1="119.2188" y2="2346.3906"/><text fill="#000000" font-family="sans-serif" font-size="14" lengthAdjust="spacingAndGlyphs" textLength="20" x="35" y="116.1426">GS</text><ellipse cx="48" cy="44.6094" fill="#FEFECE" filter="url(#f2ck793zmpbjp)" rx="8" ry="8" style="stroke: #A80036; stroke-width: 2.0;"/><path d="M48,52.6094 L48,79.6094 M35,60.6094 L61,60.6094 M48,79.6094 L35,94.6094 M48,79.6094 L61,94.6094 " fill="none" filter="url(#f2ck793zmpbjp)" style="stroke: #A80036; stroke-width: 2.0;"/><text fill="#000000" font-family="sans-serif" font-size="14" lengthAdjust="spacingAndGlyphs" textLength="20" x="35" y="2359.9238">GS</text><ellipse cx="48" cy="2373" fill="#FEFECE" filter="url(#f2ck793zmpbjp)" rx="8" ry="8" style="stroke: #A80036; stroke-width: 2.0;"/><path d="M48,2381 L48,2408 M35,2389 L61,2389 M48,2408 L35,2423 M48,2408 L61,2423 " fill="none" filter="url(#f2ck793zmpbjp)" style="stroke: #A80036; stroke-width: 2.0;"/><rect fill="#FEFECE" filter="url(#f2ck793zmpbjp)" height="31.6094" style="stroke: #A80036; stroke-width: 1.5;" width="44" x="296" y="82.6094"/><text fill="#000000" font-family="sans-serif" font-size="14" lengthAdjust="spacingAndGlyphs" textLength="30" x="303" y="104.1426">OBC</text><rect fill="#FEFECE" filter="url(#f2ck793zmpbjp)" height="31.6094" style="stroke: #A80036; stroke-width: 1.5;" width="44" x="296" y="2345.3906"/><text fill="#000000" font-family="sans-serif" font-size="14" lengthAdjust="spacingAndGlyphs" textLength="30" x="303" y="2366.9238">OBC</text><rect fill="#FEFECE" filter="url(#f2ck793zmpbjp)" height="31.6094" style="stroke: #A80036; stroke-width: 1.5;" width="51" x="394.5" y="82.6094"/><text fill="#000000" font-family="sans-serif" font-size="14" lengthAdjust="spacingAndGlyphs" textLength="37" x="401.5" y="104.1426">RasPi</text><rect fill="#FEFECE" filter="url(#f2ck793zmpbjp)" height="31.6094" style="stroke: #A80036; stroke-width: 1.5;" width="51" x="394.5" y="2345.3906"/><text fill="#000000" font-family="sans-serif" font-size="14" lengthAdjust="spacingAndGlyphs" textLength="37" x="401.5" y="2366.9238">RasPi</text><rect fill="#FEFECE" filter="url(#f2ck793zmpbjp)" height="31.6094" style="stroke: #A80036; stroke-width: 1.5;" width="51" x="459.5" y="82.6094"/><text fill="#000000" font-family="sans-serif" font-size="14" lengthAdjust="spacingAndGlyphs" textLength="37" x="466.5" y="104.1426">5R8G</text><rect fill="#FEFECE" filter="url(#f2ck793zmpbjp)" height="31.6094" style="stroke: #A80036; stroke-width: 1.5;" width="51" x="459.5" y="2345.3906"/><text fill="#000000" font-family="sans-serif" font-size="14" lengthAdjust="spacingAndGlyphs" textLength="37" x="466.5" y="2366.9238">5R8G</text><rect fill="#FEFECE" filter="url(#f2ck793zmpbjp)" height="31.6094" style="stroke: #A80036; stroke-width: 1.5;" width="45" x="612.5" y="82.6094"/><text fill="#000000" font-family="sans-serif" font-size="14" lengthAdjust="spacingAndGlyphs" textLength="31" x="619.5" y="104.1426">MDC</text><rect fill="#FEFECE" filter="url(#f2ck793zmpbjp)" height="31.6094" style="stroke: #A80036; stroke-width: 1.5;" width="45" x="612.5" y="2345.3906"/><text fill="#000000" font-family="sans-serif" font-size="14" lengthAdjust="spacingAndGlyphs" textLength="31" x="619.5" y="2366.9238">MDC</text><rect fill="#FEFECE" filter="url(#f2ck793zmpbjp)" height="31.6094" style="stroke: #A80036; stroke-width: 1.5;" width="36" x="671.5" y="82.6094"/><text fill="#000000" font-family="sans-serif" font-size="14" lengthAdjust="spacingAndGlyphs" textLength="22" x="678.5" y="104.1426">CIB</text><rect fill="#FEFECE" filter="url(#f2ck793zmpbjp)" height="31.6094" style="stroke: #A80036; stroke-width: 1.5;" width="36" x="671.5" y="2345.3906"/><text fill="#000000" font-family="sans-serif" font-size="14" lengthAdjust="spacingAndGlyphs" textLength="22" x="678.5" y="2366.9238">CIB</text><rect fill="#FFFFFF" filter="url(#f2ck793zmpbjp)" height="91.0547" style="stroke: #A80036; stroke-width: 1.0;" width="10" x="315" y="151.5703"/><rect fill="#FFFFFF" filter="url(#f2ck793zmpbjp)" height="30.3516" style="stroke: #A80036; stroke-width: 1.0;" width="10" x="315" y="272.9766"/><rect fill="#FFFFFF" filter="url(#f2ck793zmpbjp)" height="194.1094" style="stroke: #A80036; stroke-width: 1.0;" width="10" x="315" y="409.3828"/><rect fill="#FFFFFF" filter="url(#f2ck793zmpbjp)" height="91.0547" style="stroke: #A80036; stroke-width: 1.0;" width="10" x="315" y="820.5469"/><rect fill="#FFFFFF" filter="url(#f2ck793zmpbjp)" height="30.3516" style="stroke: #A80036; stroke-width: 1.0;" width="10" x="315" y="941.9531"/><rect fill="#FFFFFF" filter="url(#f2ck793zmpbjp)" height="194.1094" style="stroke: #A80036; stroke-width: 1.0;" width="10" x="315" y="1078.3594"/><rect fill="#FFFFFF" filter="url(#f2ck793zmpbjp)" height="60.7031" style="stroke: #A80036; stroke-width: 1.0;" width="10" x="315" y="1446.1719"/><rect fill="#FFFFFF" filter="url(#f2ck793zmpbjp)" height="30.3516" style="stroke: #A80036; stroke-width: 1.0;" width="10" x="315" y="1592.9297"/><rect fill="#FFFFFF" filter="url(#f2ck793zmpbjp)" height="194.1094" style="stroke: #A80036; stroke-width: 1.0;" width="10" x="315" y="1729.3359"/><rect fill="#FFFFFF" filter="url(#f2ck793zmpbjp)" height="121.4063" style="stroke: #A80036; stroke-width: 1.0;" width="10" x="315" y="2099.9844"/><rect fill="#FFFFFF" filter="url(#f2ck793zmpbjp)" height="30.3516" style="stroke: #A80036; stroke-width: 1.0;" width="10" x="417" y="181.9219"/><rect fill="#FFFFFF" filter="url(#f2ck793zmpbjp)" height="30.3516" style="stroke: #A80036; stroke-width: 1.0;" width="10" x="417" y="850.8984"/><rect fill="#FFFFFF" filter="url(#f2ck793zmpbjp)" height="133.4063" style="stroke: #A80036; stroke-width: 1.0;" width="10" x="482" y="470.0859"/><rect fill="#FFFFFF" filter="url(#f2ck793zmpbjp)" height="133.4063" style="stroke: #A80036; stroke-width: 1.0;" width="10" x="482" y="1139.0625"/><rect fill="#FFFFFF" filter="url(#f2ck793zmpbjp)" height="133.4063" style="stroke: #A80036; stroke-width: 1.0;" width="10" x="482" y="1790.0391"/><rect fill="#FFFFFF" filter="url(#f2ck793zmpbjp)" height="30.3516" style="stroke: #A80036; stroke-width: 1.0;" width="10" x="632" y="1476.5234"/><rect fill="#FFFFFF" filter="url(#f2ck793zmpbjp)" height="91.0547" style="stroke: #A80036; stroke-width: 1.0;" width="10" x="686.5" y="2130.3359"/><polygon fill="#A80036" points="303,147.5703,313,151.5703,303,155.5703,307,151.5703" style="stroke: #A80036; stroke-width: 1.0;"/><line style="stroke: #A80036; stroke-width: 1.0;" x1="48" x2="309" y1="151.5703" y2="151.5703"/><text fill="#000000" font-family="sans-serif" font-size="13" lengthAdjust="spacingAndGlyphs" textLength="238" x="55" y="146.7139">Send Command that Donwlink Thumbnail</text><polygon fill="#A80036" points="405,177.9219,415,181.9219,405,185.9219,409,181.9219" style="stroke: #A80036; stroke-width: 1.0;"/><line style="stroke: #A80036; stroke-width: 1.0;" x1="325" x2="411" y1="181.9219" y2="181.9219"/><text fill="#000000" font-family="sans-serif" font-size="13" lengthAdjust="spacingAndGlyphs" textLength="73" x="332" y="177.0654">Choose data</text><polygon fill="#A80036" points="336,208.2734,326,212.2734,336,216.2734,332,212.2734" style="stroke: #A80036; stroke-width: 1.0;"/><line style="stroke: #A80036; stroke-width: 1.0;" x1="330" x2="421" y1="212.2734" y2="212.2734"/><text fill="#000000" font-family="sans-serif" font-size="13" lengthAdjust="spacingAndGlyphs" textLength="59" x="342" y="207.417">Send data</text><polygon fill="#A80036" points="475,238.625,485,242.625,475,246.625,479,242.625" style="stroke: #A80036; stroke-width: 1.0;"/><line style="stroke: #A80036; stroke-width: 1.0;" x1="320" x2="481" y1="242.625" y2="242.625"/><text fill="#000000" font-family="sans-serif" font-size="13" lengthAdjust="spacingAndGlyphs" textLength="59" x="327" y="237.7686">Send data</text><polygon fill="#A80036" points="303,268.9766,313,272.9766,303,276.9766,307,272.9766" style="stroke: #A80036; stroke-width: 1.0;"/><line style="stroke: #A80036; stroke-width: 1.0;" x1="48" x2="309" y1="272.9766" y2="272.9766"/><text fill="#000000" font-family="sans-serif" font-size="13" lengthAdjust="spacingAndGlyphs" textLength="136" x="55" y="268.1201">Change FROM address</text><polygon fill="#A80036" points="475,299.3281,485,303.3281,475,307.3281,479,303.3281" style="stroke: #A80036; stroke-width: 1.0;"/><line style="stroke: #A80036; stroke-width: 1.0;" x1="320" x2="481" y1="303.3281" y2="303.3281"/><text fill="#000000" font-family="sans-serif" font-size="13" lengthAdjust="spacingAndGlyphs" textLength="136" x="327" y="298.4717">Change FROM address</text><path d="M449.5,318.3281 L514.5,318.3281 L514.5,326.3281 L504.5,336.3281 L449.5,336.3281 L449.5,318.3281 " fill="#EEEEEE" style="stroke: #000000; stroke-width: 1.0;"/><rect fill="none" height="61.7031" style="stroke: #000000; stroke-width: 2.0;" width="214" x="449.5" y="318.3281"/><text fill="#000000" font-family="sans-serif" font-size="13" font-weight="bold" lengthAdjust="spacingAndGlyphs" textLength="20" x="464.5" y="332.8232">opt</text><text fill="#000000" font-family="sans-serif" font-size="11" font-weight="bold" lengthAdjust="spacingAndGlyphs" textLength="129" x="529.5" y="331.7471">[Check CRC &amp; Adrress]</text><line style="stroke: #A80036; stroke-width: 1.0;" x1="487" x2="529" y1="359.0313" y2="359.0313"/><line style="stroke: #A80036; stroke-width: 1.0;" x1="529" x2="529" y1="359.0313" y2="372.0313"/><line style="stroke: #A80036; stroke-width: 1.0;" x1="488" x2="529" y1="372.0313" y2="372.0313"/><polygon fill="#A80036" points="498,368.0313,488,372.0313,498,376.0313,494,372.0313" style="stroke: #A80036; stroke-width: 1.0;"/><text fill="#000000" font-family="sans-serif" font-size="13" lengthAdjust="spacingAndGlyphs" textLength="136" x="494" y="354.1748">Change FROM address</text><polygon fill="#A80036" points="303,405.3828,313,409.3828,303,413.3828,307,409.3828" style="stroke: #A80036; stroke-width: 1.0;"/><line style="stroke: #A80036; stroke-width: 1.0;" x1="48" x2="309" y1="409.3828" y2="409.3828"/><text fill="#000000" font-family="sans-serif" font-size="13" lengthAdjust="spacingAndGlyphs" textLength="212" x="55" y="404.5264">Downlilnk Command &amp; Time to finish</text><polygon fill="#A80036" points="475,435.7344,485,439.7344,475,443.7344,479,439.7344" style="stroke: #A80036; stroke-width: 1.0;"/><line style="stroke: #A80036; stroke-width: 1.0;" x1="325" x2="481" y1="439.7344" y2="439.7344"/><text fill="#000000" font-family="sans-serif" font-size="13" lengthAdjust="spacingAndGlyphs" textLength="115" x="332" y="434.8779">Downlink Command</text><polygon fill="#A80036" points="470,466.0859,480,470.0859,470,474.0859,474,470.0859" style="stroke: #A80036; stroke-width: 1.0;"/><line style="stroke: #A80036; stroke-width: 1.0;" x1="325" x2="476" y1="470.0859" y2="470.0859"/><text fill="#000000" font-family="sans-serif" font-size="13" lengthAdjust="spacingAndGlyphs" textLength="80" x="332" y="465.2295">5V switch ON</text><path d="M23,485.0859 L96,485.0859 L96,493.0859 L86,503.0859 L23,503.0859 L23,485.0859 " fill="#EEEEEE" style="stroke: #000000; stroke-width: 1.0;"/><rect fill="none" height="48.7031" style="stroke: #000000; stroke-width: 2.0;" width="501.5" x="23" y="485.0859"/><text fill="#000000" font-family="sans-serif" font-size="13" font-weight="bold" lengthAdjust="spacingAndGlyphs" textLength="28" x="38" y="499.5811">loop</text><text fill="#000000" font-family="sans-serif" font-size="11" font-weight="bold" lengthAdjust="spacingAndGlyphs" textLength="59" x="111" y="498.5049">[Donwlink]</text><polygon fill="#A80036" points="59,521.7891,49,525.7891,59,529.7891,55,525.7891" style="stroke: #A80036; stroke-width: 1.0;"/><line style="stroke: #A80036; stroke-width: 1.0;" x1="53" x2="481" y1="525.7891" y2="525.7891"/><text fill="#000000" font-family="sans-serif" font-size="13" lengthAdjust="spacingAndGlyphs" textLength="115" x="65" y="520.9326">Donwlink Thumbnail</text><path d="M216,545.7891 L216,571.7891 L306,571.7891 L306,555.7891 L296,545.7891 L216,545.7891 " fill="#FBFB77" filter="url(#f2ck793zmpbjp)" style="stroke: #A80036; stroke-width: 1.0;"/><path d="M296,545.7891 L296,555.7891 L306,555.7891 L296,545.7891 " fill="#FBFB77" style="stroke: #A80036; stroke-width: 1.0;"/><text fill="#000000" font-family="sans-serif" font-size="13" lengthAdjust="spacingAndGlyphs" textLength="69" x="222" y="564.2842">End of pass</text><polygon fill="#A80036" points="475,599.4922,485,603.4922,475,607.4922,479,603.4922" style="stroke: #A80036; stroke-width: 1.0;"/><line style="stroke: #A80036; stroke-width: 1.0;" x1="320" x2="481" y1="603.4922" y2="603.4922"/><text fill="#000000" font-family="sans-serif" font-size="13" lengthAdjust="spacingAndGlyphs" textLength="87" x="327" y="598.6357">5V switch OFF</text><line style="stroke: #A80036; stroke-width: 1.0;" x1="48" x2="90" y1="733.8438" y2="733.8438"/><line style="stroke: #A80036; stroke-width: 1.0;" x1="90" x2="90" y1="733.8438" y2="746.8438"/><line style="stroke: #A80036; stroke-width: 1.0;" x1="49" x2="90" y1="746.8438" y2="746.8438"/><polygon fill="#A80036" points="59,742.8438,49,746.8438,59,750.8438,55,746.8438" style="stroke: #A80036; stroke-width: 1.0;"/><text fill="#000000" font-family="sans-serif" font-size="13" lengthAdjust="spacingAndGlyphs" textLength="100" x="55" y="728.9873">Check Thumbnail</text><line style="stroke: #A80036; stroke-width: 1.0;" x1="48" x2="90" y1="777.1953" y2="777.1953"/><line style="stroke: #A80036; stroke-width: 1.0;" x1="90" x2="90" y1="777.1953" y2="790.1953"/><line style="stroke: #A80036; stroke-width: 1.0;" x1="49" x2="90" y1="790.1953" y2="790.1953"/><polygon fill="#A80036" points="59,786.1953,49,790.1953,59,794.1953,55,790.1953" style="stroke: #A80036; stroke-width: 1.0;"/><text fill="#000000" font-family="sans-serif" font-size="13" lengthAdjust="spacingAndGlyphs" textLength="147" x="55" y="772.3389">Choose screen resolution</text><polygon fill="#A80036" points="303,816.5469,313,820.5469,303,824.5469,307,820.5469" style="stroke: #A80036; stroke-width: 1.0;"/><line style="stroke: #A80036; stroke-width: 1.0;" x1="48" x2="309" y1="820.5469" y2="820.5469"/><text fill="#000000" font-family="sans-serif" font-size="13" lengthAdjust="spacingAndGlyphs" textLength="207" x="55" y="815.6904">Send Command that Donwlink Files</text><polygon fill="#A80036" points="405,846.8984,415,850.8984,405,854.8984,409,850.8984" style="stroke: #A80036; stroke-width: 1.0;"/><line style="stroke: #A80036; stroke-width: 1.0;" x1="325" x2="411" y1="850.8984" y2="850.8984"/><text fill="#000000" font-family="sans-serif" font-size="13" lengthAdjust="spacingAndGlyphs" textLength="73" x="332" y="846.042">Choose data</text><polygon fill="#A80036" points="336,877.25,326,881.25,336,885.25,332,881.25" style="stroke: #A80036; stroke-width: 1.0;"/><line style="stroke: #A80036; stroke-width: 1.0;" x1="330" x2="421" y1="881.25" y2="881.25"/><text fill="#000000" font-family="sans-serif" font-size="13" lengthAdjust="spacingAndGlyphs" textLength="59" x="342" y="876.3936">Send data</text><polygon fill="#A80036" points="475,907.6016,485,911.6016,475,915.6016,479,911.6016" style="stroke: #A80036; stroke-width: 1.0;"/><line style="stroke: #A80036; stroke-width: 1.0;" x1="320" x2="481" y1="911.6016" y2="911.6016"/><text fill="#000000" font-family="sans-serif" font-size="13" lengthAdjust="spacingAndGlyphs" textLength="59" x="327" y="906.7451">Send data</text><polygon fill="#A80036" points="303,937.9531,313,941.9531,303,945.9531,307,941.9531" style="stroke: #A80036; stroke-width: 1.0;"/><line style="stroke: #A80036; stroke-width: 1.0;" x1="48" x2="309" y1="941.9531" y2="941.9531"/><text fill="#000000" font-family="sans-serif" font-size="13" lengthAdjust="spacingAndGlyphs" textLength="136" x="55" y="937.0967">Change FROM address</text><polygon fill="#A80036" points="475,968.3047,485,972.3047,475,976.3047,479,972.3047" style="stroke: #A80036; stroke-width: 1.0;"/><line style="stroke: #A80036; stroke-width: 1.0;" x1="320" x2="481" y1="972.3047" y2="972.3047"/><text fill="#000000" font-family="sans-serif" font-size="13" lengthAdjust="spacingAndGlyphs" textLength="136" x="327" y="967.4482">Change FROM address</text><path d="M449.5,987.3047 L514.5,987.3047 L514.5,995.3047 L504.5,1005.3047 L449.5,1005.3047 L449.5,987.3047 " fill="#EEEEEE" style="stroke: #000000; stroke-width: 1.0;"/><rect fill="none" height="61.7031" style="stroke: #000000; stroke-width: 2.0;" width="214" x="449.5" y="987.3047"/><text fill="#000000" font-family="sans-serif" font-size="13" font-weight="bold" lengthAdjust="spacingAndGlyphs" textLength="20" x="464.5" y="1001.7998">opt</text><text fill="#000000" font-family="sans-serif" font-size="11" font-weight="bold" lengthAdjust="spacingAndGlyphs" textLength="129" x="529.5" y="1000.7236">[Check CRC &amp; Adrress]</text><line style="stroke: #A80036; stroke-width: 1.0;" x1="487" x2="529" y1="1028.0078" y2="1028.0078"/><line style="stroke: #A80036; stroke-width: 1.0;" x1="529" x2="529" y1="1028.0078" y2="1041.0078"/><line style="stroke: #A80036; stroke-width: 1.0;" x1="488" x2="529" y1="1041.0078" y2="1041.0078"/><polygon fill="#A80036" points="498,1037.0078,488,1041.0078,498,1045.0078,494,1041.0078" style="stroke: #A80036; stroke-width: 1.0;"/><text fill="#000000" font-family="sans-serif" font-size="13" lengthAdjust="spacingAndGlyphs" textLength="136" x="494" y="1023.1514">Change FROM address</text><polygon fill="#A80036" points="303,1074.3594,313,1078.3594,303,1082.3594,307,1078.3594" style="stroke: #A80036; stroke-width: 1.0;"/><line style="stroke: #A80036; stroke-width: 1.0;" x1="48" x2="309" y1="1078.3594" y2="1078.3594"/><text fill="#000000" font-family="sans-serif" font-size="13" lengthAdjust="spacingAndGlyphs" textLength="212" x="55" y="1073.5029">Downlilnk Command &amp; Time to finish</text><polygon fill="#A80036" points="475,1104.7109,485,1108.7109,475,1112.7109,479,1108.7109" style="stroke: #A80036; stroke-width: 1.0;"/><line style="stroke: #A80036; stroke-width: 1.0;" x1="325" x2="481" y1="1108.7109" y2="1108.7109"/><text fill="#000000" font-family="sans-serif" font-size="13" lengthAdjust="spacingAndGlyphs" textLength="115" x="332" y="1103.8545">Downlink Command</text><polygon fill="#A80036" points="470,1135.0625,480,1139.0625,470,1143.0625,474,1139.0625" style="stroke: #A80036; stroke-width: 1.0;"/><line style="stroke: #A80036; stroke-width: 1.0;" x1="325" x2="476" y1="1139.0625" y2="1139.0625"/><text fill="#000000" font-family="sans-serif" font-size="13" lengthAdjust="spacingAndGlyphs" textLength="80" x="332" y="1134.2061">5V switch ON</text><path d="M23,1154.0625 L96,1154.0625 L96,1162.0625 L86,1172.0625 L23,1172.0625 L23,1154.0625 " fill="#EEEEEE" style="stroke: #000000; stroke-width: 1.0;"/><rect fill="none" height="48.7031" style="stroke: #000000; stroke-width: 2.0;" width="501.5" x="23" y="1154.0625"/><text fill="#000000" font-family="sans-serif" font-size="13" font-weight="bold" lengthAdjust="spacingAndGlyphs" textLength="28" x="38" y="1168.5576">loop</text><text fill="#000000" font-family="sans-serif" font-size="11" font-weight="bold" lengthAdjust="spacingAndGlyphs" textLength="59" x="111" y="1167.4814">[Donwlink]</text><polygon fill="#A80036" points="59,1190.7656,49,1194.7656,59,1198.7656,55,1194.7656" style="stroke: #A80036; stroke-width: 1.0;"/><line style="stroke: #A80036; stroke-width: 1.0;" x1="53" x2="481" y1="1194.7656" y2="1194.7656"/><text fill="#000000" font-family="sans-serif" font-size="13" lengthAdjust="spacingAndGlyphs" textLength="84" x="65" y="1189.9092">Donwlink Files</text><path d="M216,1214.7656 L216,1240.7656 L306,1240.7656 L306,1224.7656 L296,1214.7656 L216,1214.7656 " fill="#FBFB77" filter="url(#f2ck793zmpbjp)" style="stroke: #A80036; stroke-width: 1.0;"/><path d="M296,1214.7656 L296,1224.7656 L306,1224.7656 L296,1214.7656 " fill="#FBFB77" style="stroke: #A80036; stroke-width: 1.0;"/><text fill="#000000" font-family="sans-serif" font-size="13" lengthAdjust="spacingAndGlyphs" textLength="69" x="222" y="1233.2607">End of pass</text><polygon fill="#A80036" points="475,1268.4688,485,1272.4688,475,1276.4688,479,1272.4688" style="stroke: #A80036; stroke-width: 1.0;"/><line style="stroke: #A80036; stroke-width: 1.0;" x1="320" x2="481" y1="1272.4688" y2="1272.4688"/><text fill="#000000" font-family="sans-serif" font-size="13" lengthAdjust="spacingAndGlyphs" textLength="87" x="327" y="1267.6123">5V switch OFF</text><line style="stroke: #A80036; stroke-width: 1.0;" x1="48" x2="90" y1="1402.8203" y2="1402.8203"/><line style="stroke: #A80036; stroke-width: 1.0;" x1="90" x2="90" y1="1402.8203" y2="1415.8203"/><line style="stroke: #A80036; stroke-width: 1.0;" x1="49" x2="90" y1="1415.8203" y2="1415.8203"/><polygon fill="#A80036" points="59,1411.8203,49,1415.8203,59,1419.8203,55,1415.8203" style="stroke: #A80036; stroke-width: 1.0;"/><text fill="#000000" font-family="sans-serif" font-size="13" lengthAdjust="spacingAndGlyphs" textLength="71" x="55" y="1397.9639">FM or 5R8G</text><polygon fill="#A80036" points="303,1442.1719,313,1446.1719,303,1450.1719,307,1446.1719" style="stroke: #A80036; stroke-width: 1.0;"/><line style="stroke: #A80036; stroke-width: 1.0;" x1="48" x2="309" y1="1446.1719" y2="1446.1719"/><text fill="#000000" font-family="sans-serif" font-size="13" lengthAdjust="spacingAndGlyphs" textLength="248" x="55" y="1441.3154">Send Command that Donwlink various data</text><polygon fill="#A80036" points="620,1472.5234,630,1476.5234,620,1480.5234,624,1476.5234" style="stroke: #A80036; stroke-width: 1.0;"/><line style="stroke: #A80036; stroke-width: 1.0;" x1="325" x2="626" y1="1476.5234" y2="1476.5234"/><text fill="#000000" font-family="sans-serif" font-size="13" lengthAdjust="spacingAndGlyphs" textLength="73" x="332" y="1471.667">Choose data</text><polygon fill="#A80036" points="331,1502.875,321,1506.875,331,1510.875,327,1506.875" style="stroke: #A80036; stroke-width: 1.0;"/><line style="stroke: #A80036; stroke-width: 1.0;" x1="325" x2="636" y1="1506.875" y2="1506.875"/><text fill="#000000" font-family="sans-serif" font-size="13" lengthAdjust="spacingAndGlyphs" textLength="59" x="337" y="1502.0186">Send data</text><path d="M13,1521.875 L74,1521.875 L74,1529.875 L64,1539.875 L13,1539.875 L13,1521.875 " fill="#EEEEEE" style="stroke: #000000; stroke-width: 1.0;"/><rect fill="none" height="807.5156" style="stroke: #000000; stroke-width: 2.0;" width="708.5" x="13" y="1521.875"/><text fill="#000000" font-family="sans-serif" font-size="13" font-weight="bold" lengthAdjust="spacingAndGlyphs" textLength="16" x="28" y="1536.3701">alt</text><text fill="#000000" font-family="sans-serif" font-size="11" font-weight="bold" lengthAdjust="spacingAndGlyphs" textLength="35" x="89" y="1535.2939">[5R8G]</text><polygon fill="#A80036" points="475,1558.5781,485,1562.5781,475,1566.5781,479,1562.5781" style="stroke: #A80036; stroke-width: 1.0;"/><line style="stroke: #A80036; stroke-width: 1.0;" x1="320" x2="481" y1="1562.5781" y2="1562.5781"/><text fill="#000000" font-family="sans-serif" font-size="13" lengthAdjust="spacingAndGlyphs" textLength="59" x="327" y="1557.7217">Send data</text><polygon fill="#A80036" points="303,1588.9297,313,1592.9297,303,1596.9297,307,1592.9297" style="stroke: #A80036; stroke-width: 1.0;"/><line style="stroke: #A80036; stroke-width: 1.0;" x1="48" x2="309" y1="1592.9297" y2="1592.9297"/><text fill="#000000" font-family="sans-serif" font-size="13" lengthAdjust="spacingAndGlyphs" textLength="136" x="55" y="1588.0732">Change FROM address</text><polygon fill="#A80036" points="475,1619.2813,485,1623.2813,475,1627.2813,479,1623.2813" style="stroke: #A80036; stroke-width: 1.0;"/><line style="stroke: #A80036; stroke-width: 1.0;" x1="320" x2="481" y1="1623.2813" y2="1623.2813"/><text fill="#000000" font-family="sans-serif" font-size="13" lengthAdjust="spacingAndGlyphs" textLength="136" x="327" y="1618.4248">Change FROM address</text><path d="M449.5,1638.2813 L514.5,1638.2813 L514.5,1646.2813 L504.5,1656.2813 L449.5,1656.2813 L449.5,1638.2813 " fill="#EEEEEE" style="stroke: #000000; stroke-width: 1.0;"/><rect fill="none" height="61.7031" style="stroke: #000000; stroke-width: 2.0;" width="214" x="449.5" y="1638.2813"/><text fill="#000000" font-family="sans-serif" font-size="13" font-weight="bold" lengthAdjust="spacingAndGlyphs" textLength="20" x="464.5" y="1652.7764">opt</text><text fill="#000000" font-family="sans-serif" font-size="11" font-weight="bold" lengthAdjust="spacingAndGlyphs" textLength="129" x="529.5" y="1651.7002">[Check CRC &amp; Adrress]</text><line style="stroke: #A80036; stroke-width: 1.0;" x1="487" x2="529" y1="1678.9844" y2="1678.9844"/><line style="stroke: #A80036; stroke-width: 1.0;" x1="529" x2="529" y1="1678.9844" y2="1691.9844"/><line style="stroke: #A80036; stroke-width: 1.0;" x1="488" x2="529" y1="1691.9844" y2="1691.9844"/><polygon fill="#A80036" points="498,1687.9844,488,1691.9844,498,1695.9844,494,1691.9844" style="stroke: #A80036; stroke-width: 1.0;"/><text fill="#000000" font-family="sans-serif" font-size="13" lengthAdjust="spacingAndGlyphs" textLength="136" x="494" y="1674.1279">Change FROM address</text><polygon fill="#A80036" points="303,1725.3359,313,1729.3359,303,1733.3359,307,1729.3359" style="stroke: #A80036; stroke-width: 1.0;"/><line style="stroke: #A80036; stroke-width: 1.0;" x1="48" x2="309" y1="1729.3359" y2="1729.3359"/><text fill="#000000" font-family="sans-serif" font-size="13" lengthAdjust="spacingAndGlyphs" textLength="212" x="55" y="1724.4795">Downlilnk Command &amp; Time to finish</text><polygon fill="#A80036" points="475,1755.6875,485,1759.6875,475,1763.6875,479,1759.6875" style="stroke: #A80036; stroke-width: 1.0;"/><line style="stroke: #A80036; stroke-width: 1.0;" x1="325" x2="481" y1="1759.6875" y2="1759.6875"/><text fill="#000000" font-family="sans-serif" font-size="13" lengthAdjust="spacingAndGlyphs" textLength="115" x="332" y="1754.8311">Downlink Command</text><polygon fill="#A80036" points="470,1786.0391,480,1790.0391,470,1794.0391,474,1790.0391" style="stroke: #A80036; stroke-width: 1.0;"/><line style="stroke: #A80036; stroke-width: 1.0;" x1="325" x2="476" y1="1790.0391" y2="1790.0391"/><text fill="#000000" font-family="sans-serif" font-size="13" lengthAdjust="spacingAndGlyphs" textLength="80" x="332" y="1785.1826">5V switch ON</text><path d="M23,1805.0391 L96,1805.0391 L96,1813.0391 L86,1823.0391 L23,1823.0391 L23,1805.0391 " fill="#EEEEEE" style="stroke: #000000; stroke-width: 1.0;"/><rect fill="none" height="48.7031" style="stroke: #000000; stroke-width: 2.0;" width="501.5" x="23" y="1805.0391"/><text fill="#000000" font-family="sans-serif" font-size="13" font-weight="bold" lengthAdjust="spacingAndGlyphs" textLength="28" x="38" y="1819.5342">loop</text><text fill="#000000" font-family="sans-serif" font-size="11" font-weight="bold" lengthAdjust="spacingAndGlyphs" textLength="59" x="111" y="1818.458">[Donwlink]</text><polygon fill="#A80036" points="59,1841.7422,49,1845.7422,59,1849.7422,55,1845.7422" style="stroke: #A80036; stroke-width: 1.0;"/><line style="stroke: #A80036; stroke-width: 1.0;" x1="53" x2="481" y1="1845.7422" y2="1845.7422"/><text fill="#000000" font-family="sans-serif" font-size="13" lengthAdjust="spacingAndGlyphs" textLength="125" x="65" y="1840.8857">Donwlink various data</text><path d="M216,1865.7422 L216,1891.7422 L306,1891.7422 L306,1875.7422 L296,1865.7422 L216,1865.7422 " fill="#FBFB77" filter="url(#f2ck793zmpbjp)" style="stroke: #A80036; stroke-width: 1.0;"/><path d="M296,1865.7422 L296,1875.7422 L306,1875.7422 L296,1865.7422 " fill="#FBFB77" style="stroke: #A80036; stroke-width: 1.0;"/><text fill="#000000" font-family="sans-serif" font-size="13" lengthAdjust="spacingAndGlyphs" textLength="69" x="222" y="1884.2373">End of pass</text><polygon fill="#A80036" points="475,1919.4453,485,1923.4453,475,1927.4453,479,1923.4453" style="stroke: #A80036; stroke-width: 1.0;"/><line style="stroke: #A80036; stroke-width: 1.0;" x1="320" x2="481" y1="1923.4453" y2="1923.4453"/><text fill="#000000" font-family="sans-serif" font-size="13" lengthAdjust="spacingAndGlyphs" textLength="87" x="327" y="1918.5889">5V switch OFF</text><line style="stroke: #000000; stroke-width: 1.0; stroke-dasharray: 2.0,2.0;" x1="13" x2="721.5" y1="2032.4453" y2="2032.4453"/><text fill="#000000" font-family="sans-serif" font-size="11" font-weight="bold" lengthAdjust="spacingAndGlyphs" textLength="24" x="18" y="2043.8643">[FM]</text><polygon fill="#A80036" points="679.5,2065.6328,689.5,2069.6328,679.5,2073.6328,683.5,2069.6328" style="stroke: #A80036; stroke-width: 1.0;"/><line style="stroke: #A80036; stroke-width: 1.0;" x1="320" x2="685.5" y1="2069.6328" y2="2069.6328"/><text fill="#000000" font-family="sans-serif" font-size="13" lengthAdjust="spacingAndGlyphs" textLength="59" x="327" y="2064.7764">Send data</text><polygon fill="#A80036" points="303,2095.9844,313,2099.9844,303,2103.9844,307,2099.9844" style="stroke: #A80036; stroke-width: 1.0;"/><line style="stroke: #A80036; stroke-width: 1.0;" x1="48" x2="309" y1="2099.9844" y2="2099.9844"/><text fill="#000000" font-family="sans-serif" font-size="13" lengthAdjust="spacingAndGlyphs" textLength="118" x="55" y="2095.1279">Downlilnk Command</text><polygon fill="#A80036" points="674.5,2126.3359,684.5,2130.3359,674.5,2134.3359,678.5,2130.3359" style="stroke: #A80036; stroke-width: 1.0;"/><line style="stroke: #A80036; stroke-width: 1.0;" x1="325" x2="680.5" y1="2130.3359" y2="2130.3359"/><text fill="#000000" font-family="sans-serif" font-size="13" lengthAdjust="spacingAndGlyphs" textLength="115" x="332" y="2125.4795">Downlink Command</text><polygon fill="#A80036" points="59,2156.6875,49,2160.6875,59,2164.6875,55,2160.6875" style="stroke: #A80036; stroke-width: 1.0;"/><line style="stroke: #A80036; stroke-width: 1.0;" x1="53" x2="685.5" y1="2160.6875" y2="2160.6875"/><text fill="#000000" font-family="sans-serif" font-size="13" lengthAdjust="spacingAndGlyphs" textLength="125" x="65" y="2155.8311">Donwlink various data</text><polygon fill="#A80036" points="303,2187.0391,313,2191.0391,303,2195.0391,307,2191.0391" style="stroke: #A80036; stroke-width: 1.0;"/><line style="stroke: #A80036; stroke-width: 1.0;" x1="48" x2="309" y1="2191.0391" y2="2191.0391"/><text fill="#000000" font-family="sans-serif" font-size="13" lengthAdjust="spacingAndGlyphs" textLength="89" x="55" y="2186.1826">Finish donwlink</text><polygon fill="#A80036" points="679.5,2217.3906,689.5,2221.3906,679.5,2225.3906,683.5,2221.3906" style="stroke: #A80036; stroke-width: 1.0;"/><line style="stroke: #A80036; stroke-width: 1.0;" x1="320" x2="685.5" y1="2221.3906" y2="2221.3906"/><text fill="#000000" font-family="sans-serif" font-size="13" lengthAdjust="spacingAndGlyphs" textLength="89" x="327" y="2216.5342">Finish downlink</text><!--
@startuml
title sequence_map_Downlink

actor GS

GS -> OBC : Send Command that Donwlink Thumbnail
activate OBC
OBC -> RasPi : Choose data
activate RasPi
RasPi -> OBC : Send data
deactivate RasPi
OBC -> 5R8G : Send data
deactivate OBC

GS -> OBC : Change FROM address
activate OBC
OBC -> 5R8G : Change FROM address
deactivate OBC
opt Check CRC & Adrress
    5R8G -> 5R8G : Change FROM address
end

GS -> OBC : Downlilnk Command & Time to finish
activate OBC
OBC -> 5R8G : Downlink Command

OBC -> 5R8G : 5V switch ON
activate 5R8G
loop Donwlink
    5R8G -> GS : Donwlink Thumbnail
end
note left of OBC : End of pass
OBC -> 5R8G : 5V switch OFF
deactivate 5R8G
deactivate OBC
||100||
GS -> GS : Check Thumbnail
GS -> GS : Choose screen resolution


GS -> OBC : Send Command that Donwlink Files
activate OBC
OBC -> RasPi : Choose data
activate RasPi
RasPi -> OBC : Send data
deactivate RasPi
OBC -> 5R8G : Send data
deactivate OBC

GS -> OBC : Change FROM address
activate OBC
OBC -> 5R8G : Change FROM address
deactivate OBC
opt Check CRC & Adrress
    5R8G -> 5R8G : Change FROM address
end

GS -> OBC : Downlilnk Command & Time to finish
activate OBC
OBC -> 5R8G : Downlink Command

OBC -> 5R8G : 5V switch ON
activate 5R8G
loop Donwlink
    5R8G -> GS : Donwlink Files
end
note left of OBC : End of pass
OBC -> 5R8G : 5V switch OFF
deactivate 5R8G
deactivate OBC
||100||

GS -> GS : FM or 5R8G
GS -> OBC : Send Command that Donwlink various data
activate OBC
OBC -> MDC : Choose data
activate MDC
MDC -> OBC : Send data
deactivate MDC
deactivate OBC

alt 5R8G
    OBC -> 5R8G : Send data
    deactivate OBC

    GS -> OBC : Change FROM address
    activate OBC
    OBC -> 5R8G : Change FROM address
    deactivate OBC
    opt Check CRC & Adrress
        5R8G -> 5R8G : Change FROM address
    end

    GS -> OBC : Downlilnk Command & Time to finish
    activate OBC
    OBC -> 5R8G : Downlink Command

    OBC -> 5R8G : 5V switch ON
    activate 5R8G
    loop Donwlink
        5R8G -> GS : Donwlink various data
    end
    note left of OBC : End of pass
    OBC -> 5R8G : 5V switch OFF
    deactivate 5R8G
    deactivate OBC
    ||100||
else FM
    OBC -> CIB : Send data
    deactivate OBC
    GS -> OBC : Downlilnk Command
    activate OBC
    OBC -> CIB : Downlink Command
    activate CIB
    CIB -> GS : Donwlink various data
    GS -> OBC : Finish donwlink
    OBC -> CIB : Finish downlink
    deactivate CIB
    deactivate OBC
    ||100||
end

@enduml

PlantUML version 1.2018.03(Fri Apr 06 01:59:15 JST 2018)
(GPL source distribution)
Java Runtime: Java(TM) SE Runtime Environment
JVM: Java HotSpot(TM) 64-Bit Server VM
Java Version: 1.8.0_171-b11
Operating System: Windows 7
OS Version: 6.1
Default Encoding: MS932
Language: ja
Country: JP
--></g></svg>