<?xml version="1.0" encoding="UTF-8" standalone="no"?><svg xmlns="http://www.w3.org/2000/svg" xmlns:xlink="http://www.w3.org/1999/xlink" contentScriptType="application/ecmascript" contentStyleType="text/css" height="1279px" preserveAspectRatio="none" style="width:654px;height:1279px;" version="1.1" viewBox="0 0 654 1279" width="654px" zoomAndPan="magnify"><defs><filter height="300%" id="fkgl0r7v2ien0" width="300%" x="-1" y="-1"><feGaussianBlur result="blurOut" stdDeviation="2.0"/><feColorMatrix in="blurOut" result="blurOut2" type="matrix" values="0 0 0 0 0 0 0 0 0 0 0 0 0 0 0 0 0 0 .4 0"/><feOffset dx="4.0" dy="4.0" in="blurOut2" result="blurOut3"/><feBlend in="SourceGraphic" in2="blurOut3" mode="normal"/></filter></defs><g><text fill="#000000" font-family="sans-serif" font-size="14" font-weight="bold" lengthAdjust="spacingAndGlyphs" textLength="179" x="238.75" y="24.5332">sequence_map_Downlink</text><rect fill="#FFFFFF" filter="url(#fkgl0r7v2ien0)" height="91.0547" style="stroke: #A80036; stroke-width: 1.0;" width="10" x="295" y="151.5703"/><rect fill="#FFFFFF" filter="url(#fkgl0r7v2ien0)" height="30.3516" style="stroke: #A80036; stroke-width: 1.0;" width="10" x="295" y="272.9766"/><rect fill="#FFFFFF" filter="url(#fkgl0r7v2ien0)" height="194.1094" style="stroke: #A80036; stroke-width: 1.0;" width="10" x="295" y="409.3828"/><rect fill="#FFFFFF" filter="url(#fkgl0r7v2ien0)" height="91.0547" style="stroke: #A80036; stroke-width: 1.0;" width="10" x="295" y="720.5469"/><rect fill="#FFFFFF" filter="url(#fkgl0r7v2ien0)" height="30.3516" style="stroke: #A80036; stroke-width: 1.0;" width="10" x="295" y="841.9531"/><rect fill="#FFFFFF" filter="url(#fkgl0r7v2ien0)" height="194.1094" style="stroke: #A80036; stroke-width: 1.0;" width="10" x="295" y="978.3594"/><rect fill="#FFFFFF" filter="url(#fkgl0r7v2ien0)" height="30.3516" style="stroke: #A80036; stroke-width: 1.0;" width="10" x="397" y="181.9219"/><rect fill="#FFFFFF" filter="url(#fkgl0r7v2ien0)" height="30.3516" style="stroke: #A80036; stroke-width: 1.0;" width="10" x="397" y="750.8984"/><rect fill="#FFFFFF" filter="url(#fkgl0r7v2ien0)" height="133.4063" style="stroke: #A80036; stroke-width: 1.0;" width="10" x="462" y="470.0859"/><rect fill="#FFFFFF" filter="url(#fkgl0r7v2ien0)" height="133.4063" style="stroke: #A80036; stroke-width: 1.0;" width="10" x="462" y="1039.0625"/><rect fill="#FFFFFF" filter="url(#fkgl0r7v2ien0)" height="61.7031" style="stroke: #000000; stroke-width: 2.0;" width="214" x="429.5" y="318.3281"/><rect fill="#FFFFFF" filter="url(#fkgl0r7v2ien0)" height="48.7031" style="stroke: #000000; stroke-width: 2.0;" width="491.5" x="13" y="485.0859"/><rect fill="#FFFFFF" filter="url(#fkgl0r7v2ien0)" height="61.7031" style="stroke: #000000; stroke-width: 2.0;" width="214" x="429.5" y="887.3047"/><rect fill="#FFFFFF" filter="url(#fkgl0r7v2ien0)" height="48.7031" style="stroke: #000000; stroke-width: 2.0;" width="491.5" x="13" y="1054.0625"/><line style="stroke: #A80036; stroke-width: 1.0; stroke-dasharray: 5.0,5.0;" x1="38" x2="38" y1="119.2188" y2="1190.4688"/><line style="stroke: #A80036; stroke-width: 1.0; stroke-dasharray: 5.0,5.0;" x1="300" x2="300" y1="119.2188" y2="1190.4688"/><line style="stroke: #A80036; stroke-width: 1.0; stroke-dasharray: 5.0,5.0;" x1="401.5" x2="401.5" y1="119.2188" y2="1190.4688"/><line style="stroke: #A80036; stroke-width: 1.0; stroke-dasharray: 5.0,5.0;" x1="466.5" x2="466.5" y1="119.2188" y2="1190.4688"/><text fill="#000000" font-family="sans-serif" font-size="14" lengthAdjust="spacingAndGlyphs" textLength="20" x="25" y="116.1426">GS</text><ellipse cx="38" cy="44.6094" fill="#FEFECE" filter="url(#fkgl0r7v2ien0)" rx="8" ry="8" style="stroke: #A80036; stroke-width: 2.0;"/><path d="M38,52.6094 L38,79.6094 M25,60.6094 L51,60.6094 M38,79.6094 L25,94.6094 M38,79.6094 L51,94.6094 " fill="none" filter="url(#fkgl0r7v2ien0)" style="stroke: #A80036; stroke-width: 2.0;"/><text fill="#000000" font-family="sans-serif" font-size="14" lengthAdjust="spacingAndGlyphs" textLength="20" x="25" y="1204.002">GS</text><ellipse cx="38" cy="1217.0781" fill="#FEFECE" filter="url(#fkgl0r7v2ien0)" rx="8" ry="8" style="stroke: #A80036; stroke-width: 2.0;"/><path d="M38,1225.0781 L38,1252.0781 M25,1233.0781 L51,1233.0781 M38,1252.0781 L25,1267.0781 M38,1252.0781 L51,1267.0781 " fill="none" filter="url(#fkgl0r7v2ien0)" style="stroke: #A80036; stroke-width: 2.0;"/><rect fill="#FEFECE" filter="url(#fkgl0r7v2ien0)" height="31.6094" style="stroke: #A80036; stroke-width: 1.5;" width="44" x="276" y="82.6094"/><text fill="#000000" font-family="sans-serif" font-size="14" lengthAdjust="spacingAndGlyphs" textLength="30" x="283" y="104.1426">OBC</text><rect fill="#FEFECE" filter="url(#fkgl0r7v2ien0)" height="31.6094" style="stroke: #A80036; stroke-width: 1.5;" width="44" x="276" y="1189.4688"/><text fill="#000000" font-family="sans-serif" font-size="14" lengthAdjust="spacingAndGlyphs" textLength="30" x="283" y="1211.002">OBC</text><rect fill="#FEFECE" filter="url(#fkgl0r7v2ien0)" height="31.6094" style="stroke: #A80036; stroke-width: 1.5;" width="51" x="374.5" y="82.6094"/><text fill="#000000" font-family="sans-serif" font-size="14" lengthAdjust="spacingAndGlyphs" textLength="37" x="381.5" y="104.1426">RasPi</text><rect fill="#FEFECE" filter="url(#fkgl0r7v2ien0)" height="31.6094" style="stroke: #A80036; stroke-width: 1.5;" width="51" x="374.5" y="1189.4688"/><text fill="#000000" font-family="sans-serif" font-size="14" lengthAdjust="spacingAndGlyphs" textLength="37" x="381.5" y="1211.002">RasPi</text><rect fill="#FEFECE" filter="url(#fkgl0r7v2ien0)" height="31.6094" style="stroke: #A80036; stroke-width: 1.5;" width="51" x="439.5" y="82.6094"/><text fill="#000000" font-family="sans-serif" font-size="14" lengthAdjust="spacingAndGlyphs" textLength="37" x="446.5" y="104.1426">5R8G</text><rect fill="#FEFECE" filter="url(#fkgl0r7v2ien0)" height="31.6094" style="stroke: #A80036; stroke-width: 1.5;" width="51" x="439.5" y="1189.4688"/><text fill="#000000" font-family="sans-serif" font-size="14" lengthAdjust="spacingAndGlyphs" textLength="37" x="446.5" y="1211.002">5R8G</text><rect fill="#FFFFFF" filter="url(#fkgl0r7v2ien0)" height="91.0547" style="stroke: #A80036; stroke-width: 1.0;" width="10" x="295" y="151.5703"/><rect fill="#FFFFFF" filter="url(#fkgl0r7v2ien0)" height="30.3516" style="stroke: #A80036; stroke-width: 1.0;" width="10" x="295" y="272.9766"/><rect fill="#FFFFFF" filter="url(#fkgl0r7v2ien0)" height="194.1094" style="stroke: #A80036; stroke-width: 1.0;" width="10" x="295" y="409.3828"/><rect fill="#FFFFFF" filter="url(#fkgl0r7v2ien0)" height="91.0547" style="stroke: #A80036; stroke-width: 1.0;" width="10" x="295" y="720.5469"/><rect fill="#FFFFFF" filter="url(#fkgl0r7v2ien0)" height="30.3516" style="stroke: #A80036; stroke-width: 1.0;" width="10" x="295" y="841.9531"/><rect fill="#FFFFFF" filter="url(#fkgl0r7v2ien0)" height="194.1094" style="stroke: #A80036; stroke-width: 1.0;" width="10" x="295" y="978.3594"/><rect fill="#FFFFFF" filter="url(#fkgl0r7v2ien0)" height="30.3516" style="stroke: #A80036; stroke-width: 1.0;" width="10" x="397" y="181.9219"/><rect fill="#FFFFFF" filter="url(#fkgl0r7v2ien0)" height="30.3516" style="stroke: #A80036; stroke-width: 1.0;" width="10" x="397" y="750.8984"/><rect fill="#FFFFFF" filter="url(#fkgl0r7v2ien0)" height="133.4063" style="stroke: #A80036; stroke-width: 1.0;" width="10" x="462" y="470.0859"/><rect fill="#FFFFFF" filter="url(#fkgl0r7v2ien0)" height="133.4063" style="stroke: #A80036; stroke-width: 1.0;" width="10" x="462" y="1039.0625"/><polygon fill="#A80036" points="283,147.5703,293,151.5703,283,155.5703,287,151.5703" style="stroke: #A80036; stroke-width: 1.0;"/><line style="stroke: #A80036; stroke-width: 1.0;" x1="38" x2="289" y1="151.5703" y2="151.5703"/><text fill="#000000" font-family="sans-serif" font-size="13" lengthAdjust="spacingAndGlyphs" textLength="238" x="45" y="146.7139">Send Command that Donwlink Thumbnail</text><polygon fill="#A80036" points="385,177.9219,395,181.9219,385,185.9219,389,181.9219" style="stroke: #A80036; stroke-width: 1.0;"/><line style="stroke: #A80036; stroke-width: 1.0;" x1="305" x2="391" y1="181.9219" y2="181.9219"/><text fill="#000000" font-family="sans-serif" font-size="13" lengthAdjust="spacingAndGlyphs" textLength="73" x="312" y="177.0654">Choose data</text><polygon fill="#A80036" points="316,208.2734,306,212.2734,316,216.2734,312,212.2734" style="stroke: #A80036; stroke-width: 1.0;"/><line style="stroke: #A80036; stroke-width: 1.0;" x1="310" x2="401" y1="212.2734" y2="212.2734"/><text fill="#000000" font-family="sans-serif" font-size="13" lengthAdjust="spacingAndGlyphs" textLength="59" x="322" y="207.417">Send data</text><polygon fill="#A80036" points="455,238.625,465,242.625,455,246.625,459,242.625" style="stroke: #A80036; stroke-width: 1.0;"/><line style="stroke: #A80036; stroke-width: 1.0;" x1="300" x2="461" y1="242.625" y2="242.625"/><text fill="#000000" font-family="sans-serif" font-size="13" lengthAdjust="spacingAndGlyphs" textLength="59" x="307" y="237.7686">Send data</text><polygon fill="#A80036" points="283,268.9766,293,272.9766,283,276.9766,287,272.9766" style="stroke: #A80036; stroke-width: 1.0;"/><line style="stroke: #A80036; stroke-width: 1.0;" x1="38" x2="289" y1="272.9766" y2="272.9766"/><text fill="#000000" font-family="sans-serif" font-size="13" lengthAdjust="spacingAndGlyphs" textLength="136" x="45" y="268.1201">Change FROM address</text><polygon fill="#A80036" points="455,299.3281,465,303.3281,455,307.3281,459,303.3281" style="stroke: #A80036; stroke-width: 1.0;"/><line style="stroke: #A80036; stroke-width: 1.0;" x1="300" x2="461" y1="303.3281" y2="303.3281"/><text fill="#000000" font-family="sans-serif" font-size="13" lengthAdjust="spacingAndGlyphs" textLength="136" x="307" y="298.4717">Change FROM address</text><path d="M429.5,318.3281 L494.5,318.3281 L494.5,326.3281 L484.5,336.3281 L429.5,336.3281 L429.5,318.3281 " fill="#EEEEEE" style="stroke: #000000; stroke-width: 1.0;"/><rect fill="none" height="61.7031" style="stroke: #000000; stroke-width: 2.0;" width="214" x="429.5" y="318.3281"/><text fill="#000000" font-family="sans-serif" font-size="13" font-weight="bold" lengthAdjust="spacingAndGlyphs" textLength="20" x="444.5" y="332.8232">opt</text><text fill="#000000" font-family="sans-serif" font-size="11" font-weight="bold" lengthAdjust="spacingAndGlyphs" textLength="129" x="509.5" y="331.7471">[Check CRC &amp; Adrress]</text><line style="stroke: #A80036; stroke-width: 1.0;" x1="467" x2="509" y1="359.0313" y2="359.0313"/><line style="stroke: #A80036; stroke-width: 1.0;" x1="509" x2="509" y1="359.0313" y2="372.0313"/><line style="stroke: #A80036; stroke-width: 1.0;" x1="468" x2="509" y1="372.0313" y2="372.0313"/><polygon fill="#A80036" points="478,368.0313,468,372.0313,478,376.0313,474,372.0313" style="stroke: #A80036; stroke-width: 1.0;"/><text fill="#000000" font-family="sans-serif" font-size="13" lengthAdjust="spacingAndGlyphs" textLength="136" x="474" y="354.1748">Change FROM address</text><polygon fill="#A80036" points="283,405.3828,293,409.3828,283,413.3828,287,409.3828" style="stroke: #A80036; stroke-width: 1.0;"/><line style="stroke: #A80036; stroke-width: 1.0;" x1="38" x2="289" y1="409.3828" y2="409.3828"/><text fill="#000000" font-family="sans-serif" font-size="13" lengthAdjust="spacingAndGlyphs" textLength="212" x="45" y="404.5264">Downlilnk Command &amp; Time to finish</text><polygon fill="#A80036" points="455,435.7344,465,439.7344,455,443.7344,459,439.7344" style="stroke: #A80036; stroke-width: 1.0;"/><line style="stroke: #A80036; stroke-width: 1.0;" x1="305" x2="461" y1="439.7344" y2="439.7344"/><text fill="#000000" font-family="sans-serif" font-size="13" lengthAdjust="spacingAndGlyphs" textLength="115" x="312" y="434.8779">Downlink Command</text><polygon fill="#A80036" points="450,466.0859,460,470.0859,450,474.0859,454,470.0859" style="stroke: #A80036; stroke-width: 1.0;"/><line style="stroke: #A80036; stroke-width: 1.0;" x1="305" x2="456" y1="470.0859" y2="470.0859"/><text fill="#000000" font-family="sans-serif" font-size="13" lengthAdjust="spacingAndGlyphs" textLength="80" x="312" y="465.2295">5V switch ON</text><path d="M13,485.0859 L86,485.0859 L86,493.0859 L76,503.0859 L13,503.0859 L13,485.0859 " fill="#EEEEEE" style="stroke: #000000; stroke-width: 1.0;"/><rect fill="none" height="48.7031" style="stroke: #000000; stroke-width: 2.0;" width="491.5" x="13" y="485.0859"/><text fill="#000000" font-family="sans-serif" font-size="13" font-weight="bold" lengthAdjust="spacingAndGlyphs" textLength="28" x="28" y="499.5811">loop</text><text fill="#000000" font-family="sans-serif" font-size="11" font-weight="bold" lengthAdjust="spacingAndGlyphs" textLength="59" x="101" y="498.5049">[Donwlink]</text><polygon fill="#A80036" points="49,521.7891,39,525.7891,49,529.7891,45,525.7891" style="stroke: #A80036; stroke-width: 1.0;"/><line style="stroke: #A80036; stroke-width: 1.0;" x1="43" x2="461" y1="525.7891" y2="525.7891"/><text fill="#000000" font-family="sans-serif" font-size="13" lengthAdjust="spacingAndGlyphs" textLength="115" x="55" y="520.9326">Donwlink Thumbnail</text><path d="M196,545.7891 L196,571.7891 L286,571.7891 L286,555.7891 L276,545.7891 L196,545.7891 " fill="#FBFB77" filter="url(#fkgl0r7v2ien0)" style="stroke: #A80036; stroke-width: 1.0;"/><path d="M276,545.7891 L276,555.7891 L286,555.7891 L276,545.7891 " fill="#FBFB77" style="stroke: #A80036; stroke-width: 1.0;"/><text fill="#000000" font-family="sans-serif" font-size="13" lengthAdjust="spacingAndGlyphs" textLength="69" x="202" y="564.2842">End of pass</text><polygon fill="#A80036" points="455,599.4922,465,603.4922,455,607.4922,459,603.4922" style="stroke: #A80036; stroke-width: 1.0;"/><line style="stroke: #A80036; stroke-width: 1.0;" x1="300" x2="461" y1="603.4922" y2="603.4922"/><text fill="#000000" font-family="sans-serif" font-size="13" lengthAdjust="spacingAndGlyphs" textLength="87" x="307" y="598.6357">5V switch OFF</text><line style="stroke: #A80036; stroke-width: 1.0;" x1="38" x2="80" y1="633.8438" y2="633.8438"/><line style="stroke: #A80036; stroke-width: 1.0;" x1="80" x2="80" y1="633.8438" y2="646.8438"/><line style="stroke: #A80036; stroke-width: 1.0;" x1="39" x2="80" y1="646.8438" y2="646.8438"/><polygon fill="#A80036" points="49,642.8438,39,646.8438,49,650.8438,45,646.8438" style="stroke: #A80036; stroke-width: 1.0;"/><text fill="#000000" font-family="sans-serif" font-size="13" lengthAdjust="spacingAndGlyphs" textLength="100" x="45" y="628.9873">Check Thumbnail</text><line style="stroke: #A80036; stroke-width: 1.0;" x1="38" x2="80" y1="677.1953" y2="677.1953"/><line style="stroke: #A80036; stroke-width: 1.0;" x1="80" x2="80" y1="677.1953" y2="690.1953"/><line style="stroke: #A80036; stroke-width: 1.0;" x1="39" x2="80" y1="690.1953" y2="690.1953"/><polygon fill="#A80036" points="49,686.1953,39,690.1953,49,694.1953,45,690.1953" style="stroke: #A80036; stroke-width: 1.0;"/><text fill="#000000" font-family="sans-serif" font-size="13" lengthAdjust="spacingAndGlyphs" textLength="147" x="45" y="672.3389">Choose screen resolution</text><polygon fill="#A80036" points="283,716.5469,293,720.5469,283,724.5469,287,720.5469" style="stroke: #A80036; stroke-width: 1.0;"/><line style="stroke: #A80036; stroke-width: 1.0;" x1="38" x2="289" y1="720.5469" y2="720.5469"/><text fill="#000000" font-family="sans-serif" font-size="13" lengthAdjust="spacingAndGlyphs" textLength="207" x="45" y="715.6904">Send Command that Donwlink Files</text><polygon fill="#A80036" points="385,746.8984,395,750.8984,385,754.8984,389,750.8984" style="stroke: #A80036; stroke-width: 1.0;"/><line style="stroke: #A80036; stroke-width: 1.0;" x1="305" x2="391" y1="750.8984" y2="750.8984"/><text fill="#000000" font-family="sans-serif" font-size="13" lengthAdjust="spacingAndGlyphs" textLength="73" x="312" y="746.042">Choose data</text><polygon fill="#A80036" points="316,777.25,306,781.25,316,785.25,312,781.25" style="stroke: #A80036; stroke-width: 1.0;"/><line style="stroke: #A80036; stroke-width: 1.0;" x1="310" x2="401" y1="781.25" y2="781.25"/><text fill="#000000" font-family="sans-serif" font-size="13" lengthAdjust="spacingAndGlyphs" textLength="59" x="322" y="776.3936">Send data</text><polygon fill="#A80036" points="455,807.6016,465,811.6016,455,815.6016,459,811.6016" style="stroke: #A80036; stroke-width: 1.0;"/><line style="stroke: #A80036; stroke-width: 1.0;" x1="300" x2="461" y1="811.6016" y2="811.6016"/><text fill="#000000" font-family="sans-serif" font-size="13" lengthAdjust="spacingAndGlyphs" textLength="59" x="307" y="806.7451">Send data</text><polygon fill="#A80036" points="283,837.9531,293,841.9531,283,845.9531,287,841.9531" style="stroke: #A80036; stroke-width: 1.0;"/><line style="stroke: #A80036; stroke-width: 1.0;" x1="38" x2="289" y1="841.9531" y2="841.9531"/><text fill="#000000" font-family="sans-serif" font-size="13" lengthAdjust="spacingAndGlyphs" textLength="136" x="45" y="837.0967">Change FROM address</text><polygon fill="#A80036" points="455,868.3047,465,872.3047,455,876.3047,459,872.3047" style="stroke: #A80036; stroke-width: 1.0;"/><line style="stroke: #A80036; stroke-width: 1.0;" x1="300" x2="461" y1="872.3047" y2="872.3047"/><text fill="#000000" font-family="sans-serif" font-size="13" lengthAdjust="spacingAndGlyphs" textLength="136" x="307" y="867.4482">Change FROM address</text><path d="M429.5,887.3047 L494.5,887.3047 L494.5,895.3047 L484.5,905.3047 L429.5,905.3047 L429.5,887.3047 " fill="#EEEEEE" style="stroke: #000000; stroke-width: 1.0;"/><rect fill="none" height="61.7031" style="stroke: #000000; stroke-width: 2.0;" width="214" x="429.5" y="887.3047"/><text fill="#000000" font-family="sans-serif" font-size="13" font-weight="bold" lengthAdjust="spacingAndGlyphs" textLength="20" x="444.5" y="901.7998">opt</text><text fill="#000000" font-family="sans-serif" font-size="11" font-weight="bold" lengthAdjust="spacingAndGlyphs" textLength="129" x="509.5" y="900.7236">[Check CRC &amp; Adrress]</text><line style="stroke: #A80036; stroke-width: 1.0;" x1="467" x2="509" y1="928.0078" y2="928.0078"/><line style="stroke: #A80036; stroke-width: 1.0;" x1="509" x2="509" y1="928.0078" y2="941.0078"/><line style="stroke: #A80036; stroke-width: 1.0;" x1="468" x2="509" y1="941.0078" y2="941.0078"/><polygon fill="#A80036" points="478,937.0078,468,941.0078,478,945.0078,474,941.0078" style="stroke: #A80036; stroke-width: 1.0;"/><text fill="#000000" font-family="sans-serif" font-size="13" lengthAdjust="spacingAndGlyphs" textLength="136" x="474" y="923.1514">Change FROM address</text><polygon fill="#A80036" points="283,974.3594,293,978.3594,283,982.3594,287,978.3594" style="stroke: #A80036; stroke-width: 1.0;"/><line style="stroke: #A80036; stroke-width: 1.0;" x1="38" x2="289" y1="978.3594" y2="978.3594"/><text fill="#000000" font-family="sans-serif" font-size="13" lengthAdjust="spacingAndGlyphs" textLength="212" x="45" y="973.5029">Downlilnk Command &amp; Time to finish</text><polygon fill="#A80036" points="455,1004.7109,465,1008.7109,455,1012.7109,459,1008.7109" style="stroke: #A80036; stroke-width: 1.0;"/><line style="stroke: #A80036; stroke-width: 1.0;" x1="305" x2="461" y1="1008.7109" y2="1008.7109"/><text fill="#000000" font-family="sans-serif" font-size="13" lengthAdjust="spacingAndGlyphs" textLength="115" x="312" y="1003.8545">Downlink Command</text><polygon fill="#A80036" points="450,1035.0625,460,1039.0625,450,1043.0625,454,1039.0625" style="stroke: #A80036; stroke-width: 1.0;"/><line style="stroke: #A80036; stroke-width: 1.0;" x1="305" x2="456" y1="1039.0625" y2="1039.0625"/><text fill="#000000" font-family="sans-serif" font-size="13" lengthAdjust="spacingAndGlyphs" textLength="80" x="312" y="1034.2061">5V switch ON</text><path d="M13,1054.0625 L86,1054.0625 L86,1062.0625 L76,1072.0625 L13,1072.0625 L13,1054.0625 " fill="#EEEEEE" style="stroke: #000000; stroke-width: 1.0;"/><rect fill="none" height="48.7031" style="stroke: #000000; stroke-width: 2.0;" width="491.5" x="13" y="1054.0625"/><text fill="#000000" font-family="sans-serif" font-size="13" font-weight="bold" lengthAdjust="spacingAndGlyphs" textLength="28" x="28" y="1068.5576">loop</text><text fill="#000000" font-family="sans-serif" font-size="11" font-weight="bold" lengthAdjust="spacingAndGlyphs" textLength="59" x="101" y="1067.4814">[Donwlink]</text><polygon fill="#A80036" points="49,1090.7656,39,1094.7656,49,1098.7656,45,1094.7656" style="stroke: #A80036; stroke-width: 1.0;"/><line style="stroke: #A80036; stroke-width: 1.0;" x1="43" x2="461" y1="1094.7656" y2="1094.7656"/><text fill="#000000" font-family="sans-serif" font-size="13" lengthAdjust="spacingAndGlyphs" textLength="84" x="55" y="1089.9092">Donwlink Files</text><path d="M196,1114.7656 L196,1140.7656 L286,1140.7656 L286,1124.7656 L276,1114.7656 L196,1114.7656 " fill="#FBFB77" filter="url(#fkgl0r7v2ien0)" style="stroke: #A80036; stroke-width: 1.0;"/><path d="M276,1114.7656 L276,1124.7656 L286,1124.7656 L276,1114.7656 " fill="#FBFB77" style="stroke: #A80036; stroke-width: 1.0;"/><text fill="#000000" font-family="sans-serif" font-size="13" lengthAdjust="spacingAndGlyphs" textLength="69" x="202" y="1133.2607">End of pass</text><polygon fill="#A80036" points="455,1168.4688,465,1172.4688,455,1176.4688,459,1172.4688" style="stroke: #A80036; stroke-width: 1.0;"/><line style="stroke: #A80036; stroke-width: 1.0;" x1="300" x2="461" y1="1172.4688" y2="1172.4688"/><text fill="#000000" font-family="sans-serif" font-size="13" lengthAdjust="spacingAndGlyphs" textLength="87" x="307" y="1167.6123">5V switch OFF</text><!--
@startuml
title sequence_map_Downlink

actor GS

GS -> OBC : Send Command that Donwlink Thumbnail
activate OBC
OBC -> RasPi : Choose data
activate RasPi
RasPi -> OBC : Send data
deactivate RasPi
OBC -> 5R8G : Send data
deactivate OBC

GS -> OBC : Change FROM address
activate OBC
OBC -> 5R8G : Change FROM address
deactivate OBC
opt Check CRC & Adrress
    5R8G -> 5R8G : Change FROM address
end

GS -> OBC : Downlilnk Command & Time to finish
activate OBC
OBC -> 5R8G : Downlink Command

OBC -> 5R8G : 5V switch ON
activate 5R8G
loop Donwlink
    5R8G -> GS : Donwlink Thumbnail
end
note left of OBC : End of pass
OBC -> 5R8G : 5V switch OFF
deactivate 5R8G
deactivate OBC

GS -> GS : Check Thumbnail
GS -> GS : Choose screen resolution

GS -> OBC : Send Command that Donwlink Files
activate OBC
OBC -> RasPi : Choose data
activate RasPi
RasPi -> OBC : Send data
deactivate RasPi
OBC -> 5R8G : Send data
deactivate OBC

GS -> OBC : Change FROM address
activate OBC
OBC -> 5R8G : Change FROM address
deactivate OBC
opt Check CRC & Adrress
    5R8G -> 5R8G : Change FROM address
end

GS -> OBC : Downlilnk Command & Time to finish
activate OBC
OBC -> 5R8G : Downlink Command

OBC -> 5R8G : 5V switch ON
activate 5R8G
loop Donwlink
    5R8G -> GS : Donwlink Files
end
note left of OBC : End of pass
OBC -> 5R8G : 5V switch OFF
deactivate 5R8G
deactivate OBC

@enduml

PlantUML version 1.2018.03(Fri Apr 06 01:59:15 JST 2018)
(GPL source distribution)
Java Runtime: Java(TM) SE Runtime Environment
JVM: Java HotSpot(TM) 64-Bit Server VM
Java Version: 1.8.0_171-b11
Operating System: Windows 7
OS Version: 6.1
Default Encoding: MS932
Language: ja
Country: JP
--></g></svg>