<?xml version="1.0" encoding="UTF-8" standalone="no"?><svg xmlns="http://www.w3.org/2000/svg" xmlns:xlink="http://www.w3.org/1999/xlink" contentScriptType="application/ecmascript" contentStyleType="text/css" height="2549px" preserveAspectRatio="none" style="width:1333px;height:2549px;" version="1.1" viewBox="0 0 1333 2549" width="1333px" zoomAndPan="magnify"><defs><filter height="300%" id="fy18xs419dlxi" width="300%" x="-1" y="-1"><feGaussianBlur result="blurOut" stdDeviation="2.0"/><feColorMatrix in="blurOut" result="blurOut2" type="matrix" values="0 0 0 0 0 0 0 0 0 0 0 0 0 0 0 0 0 0 .4 0"/><feOffset dx="4.0" dy="4.0" in="blurOut2" result="blurOut3"/><feBlend in="SourceGraphic" in2="blurOut3" mode="normal"/></filter></defs><g><text fill="#000000" font-family="sans-serif" font-size="14" font-weight="bold" lengthAdjust="spacingAndGlyphs" textLength="160" x="582" y="24.5332">membrane deployment</text><rect fill="#FFFFFF" filter="url(#fy18xs419dlxi)" height="2417.5547" style="stroke: #A80036; stroke-width: 1.0;" width="10" x="562" y="81.2188"/><rect fill="#FFFFFF" filter="url(#fy18xs419dlxi)" height="329.1641" style="stroke: #A80036; stroke-width: 1.0;" width="10" x="892" y="854.9531"/><rect fill="#FFFFFF" filter="url(#fy18xs419dlxi)" height="642.9766" style="stroke: #A80036; stroke-width: 1.0;" width="10" x="892" y="1530.6328"/><rect fill="#FFFFFF" filter="url(#fy18xs419dlxi)" height="422.2188" style="stroke: #A80036; stroke-width: 1.0;" width="10" x="1105" y="252.9766"/><rect fill="#FFFFFF" filter="url(#fy18xs419dlxi)" height="794.7344" style="stroke: #A80036; stroke-width: 1.0;" width="10" x="1105" y="1469.9297"/><rect fill="#FFFFFF" filter="url(#fy18xs419dlxi)" height="61.7031" style="stroke: #000000; stroke-width: 2.0;" width="403" x="13" y="584.1406"/><rect fill="#FFFFFF" filter="url(#fy18xs419dlxi)" height="61.7031" style="stroke: #000000; stroke-width: 2.0;" width="426" x="13" y="1229.4688"/><rect fill="#FFFFFF" filter="url(#fy18xs419dlxi)" height="269.4609" style="stroke: #000000; stroke-width: 2.0;" width="907" x="404" y="1671.0391"/><rect fill="#FFFFFF" filter="url(#fy18xs419dlxi)" height="61.7031" style="stroke: #000000; stroke-width: 2.0;" width="390" x="13" y="2279.6641"/><line style="stroke: #A80036; stroke-width: 1.0; stroke-dasharray: 5.0,5.0;" x1="42" x2="42" y1="71.2188" y2="2507.7734"/><line style="stroke: #A80036; stroke-width: 1.0; stroke-dasharray: 5.0,5.0;" x1="434" x2="434" y1="71.2188" y2="2507.7734"/><line style="stroke: #A80036; stroke-width: 1.0; stroke-dasharray: 5.0,5.0;" x1="567" x2="567" y1="71.2188" y2="2507.7734"/><line style="stroke: #A80036; stroke-width: 1.0; stroke-dasharray: 5.0,5.0;" x1="897" x2="897" y1="71.2188" y2="2507.7734"/><line style="stroke: #A80036; stroke-width: 1.0; stroke-dasharray: 5.0,5.0;" x1="1109.5" x2="1109.5" y1="71.2188" y2="2507.7734"/><rect fill="#FEFECE" filter="url(#fy18xs419dlxi)" height="31.6094" style="stroke: #A80036; stroke-width: 1.5;" width="34" x="23" y="34.6094"/><text fill="#000000" font-family="sans-serif" font-size="14" lengthAdjust="spacingAndGlyphs" textLength="20" x="30" y="56.1426">GS</text><rect fill="#FEFECE" filter="url(#fy18xs419dlxi)" height="31.6094" style="stroke: #A80036; stroke-width: 1.5;" width="34" x="23" y="2506.7734"/><text fill="#000000" font-family="sans-serif" font-size="14" lengthAdjust="spacingAndGlyphs" textLength="20" x="30" y="2528.3066">GS</text><rect fill="#FEFECE" filter="url(#fy18xs419dlxi)" height="31.6094" style="stroke: #A80036; stroke-width: 1.5;" width="36" x="414" y="34.6094"/><text fill="#000000" font-family="sans-serif" font-size="14" lengthAdjust="spacingAndGlyphs" textLength="22" x="421" y="56.1426">CIB</text><rect fill="#FEFECE" filter="url(#fy18xs419dlxi)" height="31.6094" style="stroke: #A80036; stroke-width: 1.5;" width="36" x="414" y="2506.7734"/><text fill="#000000" font-family="sans-serif" font-size="14" lengthAdjust="spacingAndGlyphs" textLength="22" x="421" y="2528.3066">CIB</text><rect fill="#FEFECE" filter="url(#fy18xs419dlxi)" height="31.6094" style="stroke: #A80036; stroke-width: 1.5;" width="44" x="543" y="34.6094"/><text fill="#000000" font-family="sans-serif" font-size="14" lengthAdjust="spacingAndGlyphs" textLength="30" x="550" y="56.1426">OBC</text><rect fill="#FEFECE" filter="url(#fy18xs419dlxi)" height="31.6094" style="stroke: #A80036; stroke-width: 1.5;" width="44" x="543" y="2506.7734"/><text fill="#000000" font-family="sans-serif" font-size="14" lengthAdjust="spacingAndGlyphs" textLength="30" x="550" y="2528.3066">OBC</text><rect fill="#FEFECE" filter="url(#fy18xs419dlxi)" height="31.6094" style="stroke: #A80036; stroke-width: 1.5;" width="36" x="877" y="34.6094"/><text fill="#000000" font-family="sans-serif" font-size="14" lengthAdjust="spacingAndGlyphs" textLength="22" x="884" y="56.1426">RPI</text><rect fill="#FEFECE" filter="url(#fy18xs419dlxi)" height="31.6094" style="stroke: #A80036; stroke-width: 1.5;" width="36" x="877" y="2506.7734"/><text fill="#000000" font-family="sans-serif" font-size="14" lengthAdjust="spacingAndGlyphs" textLength="22" x="884" y="2528.3066">RPI</text><rect fill="#FEFECE" filter="url(#fy18xs419dlxi)" height="31.6094" style="stroke: #A80036; stroke-width: 1.5;" width="45" x="1085.5" y="34.6094"/><text fill="#000000" font-family="sans-serif" font-size="14" lengthAdjust="spacingAndGlyphs" textLength="31" x="1092.5" y="56.1426">MDC</text><rect fill="#FEFECE" filter="url(#fy18xs419dlxi)" height="31.6094" style="stroke: #A80036; stroke-width: 1.5;" width="45" x="1085.5" y="2506.7734"/><text fill="#000000" font-family="sans-serif" font-size="14" lengthAdjust="spacingAndGlyphs" textLength="31" x="1092.5" y="2528.3066">MDC</text><rect fill="#FFFFFF" filter="url(#fy18xs419dlxi)" height="2417.5547" style="stroke: #A80036; stroke-width: 1.0;" width="10" x="562" y="81.2188"/><rect fill="#FFFFFF" filter="url(#fy18xs419dlxi)" height="329.1641" style="stroke: #A80036; stroke-width: 1.0;" width="10" x="892" y="854.9531"/><rect fill="#FFFFFF" filter="url(#fy18xs419dlxi)" height="642.9766" style="stroke: #A80036; stroke-width: 1.0;" width="10" x="892" y="1530.6328"/><rect fill="#FFFFFF" filter="url(#fy18xs419dlxi)" height="422.2188" style="stroke: #A80036; stroke-width: 1.0;" width="10" x="1105" y="252.9766"/><rect fill="#FFFFFF" filter="url(#fy18xs419dlxi)" height="794.7344" style="stroke: #A80036; stroke-width: 1.0;" width="10" x="1105" y="1469.9297"/><rect fill="#EEEEEE" filter="url(#fy18xs419dlxi)" height="3" style="stroke: #EEEEEE; stroke-width: 1.0;" width="1318" x="3" y="102.3945"/><line style="stroke: #000000; stroke-width: 1.0;" x1="3" x2="1321" y1="102.3945" y2="102.3945"/><line style="stroke: #000000; stroke-width: 1.0;" x1="3" x2="1321" y1="105.3945" y2="105.3945"/><rect fill="#EEEEEE" filter="url(#fy18xs419dlxi)" height="24.3516" style="stroke: #000000; stroke-width: 2.0;" width="286" x="519" y="91.2188"/><text fill="#000000" font-family="sans-serif" font-size="13" font-weight="bold" lengthAdjust="spacingAndGlyphs" textLength="268" x="525" y="108.7139">start the membrane deployment sequence</text><polygon fill="#A80036" points="550,143.9219,560,147.9219,550,151.9219,554,147.9219" style="stroke: #A80036; stroke-width: 1.0;"/><line style="stroke: #A80036; stroke-width: 1.0;" x1="42" x2="556" y1="147.9219" y2="147.9219"/><text fill="#000000" font-family="sans-serif" font-size="13" lengthAdjust="spacingAndGlyphs" textLength="119" x="49" y="143.0654">Uplink the command</text><polygon fill="#A80036" points="53,174.2734,43,178.2734,53,182.2734,49,178.2734" style="stroke: #A80036; stroke-width: 1.0;"/><line style="stroke: #A80036; stroke-width: 1.0;" x1="47" x2="561" y1="178.2734" y2="178.2734"/><text fill="#000000" font-family="sans-serif" font-size="13" lengthAdjust="spacingAndGlyphs" textLength="135" x="59" y="173.417">Downlink the command</text><rect fill="#EEEEEE" filter="url(#fy18xs419dlxi)" height="3" style="stroke: #EEEEEE; stroke-width: 1.0;" width="1318" x="3" y="207.4492"/><line style="stroke: #000000; stroke-width: 1.0;" x1="3" x2="1321" y1="207.4492" y2="207.4492"/><line style="stroke: #000000; stroke-width: 1.0;" x1="3" x2="1321" y1="210.4492" y2="210.4492"/><rect fill="#EEEEEE" filter="url(#fy18xs419dlxi)" height="24.3516" style="stroke: #000000; stroke-width: 2.0;" width="164" x="580" y="196.2734"/><text fill="#000000" font-family="sans-serif" font-size="13" font-weight="bold" lengthAdjust="spacingAndGlyphs" textLength="146" x="586" y="213.7686">IMU &amp; M/S function test</text><polygon fill="#A80036" points="1093,248.9766,1103,252.9766,1093,256.9766,1097,252.9766" style="stroke: #A80036; stroke-width: 1.0;"/><line style="stroke: #A80036; stroke-width: 1.0;" x1="572" x2="1099" y1="252.9766" y2="252.9766"/><text fill="#000000" font-family="sans-serif" font-size="13" lengthAdjust="spacingAndGlyphs" textLength="180" x="579" y="248.1201">Send MDC power on command</text><polygon fill="#A80036" points="583,279.3281,573,283.3281,583,287.3281,579,283.3281" style="stroke: #A80036; stroke-width: 1.0;"/><line style="stroke: #A80036; stroke-width: 1.0;" x1="577" x2="1104" y1="283.3281" y2="283.3281"/><text fill="#000000" font-family="sans-serif" font-size="13" lengthAdjust="spacingAndGlyphs" textLength="21" x="589" y="278.4717">ack</text><polygon fill="#A80036" points="1093,309.6797,1103,313.6797,1093,317.6797,1097,313.6797" style="stroke: #A80036; stroke-width: 1.0;"/><line style="stroke: #A80036; stroke-width: 1.0;" x1="572" x2="1099" y1="313.6797" y2="313.6797"/><text fill="#000000" font-family="sans-serif" font-size="13" lengthAdjust="spacingAndGlyphs" textLength="234" x="579" y="308.8232">Send IMU &amp; M/S function test command</text><polygon fill="#FBFB77" filter="url(#fy18xs419dlxi)" points="424,326.6797,1119,326.6797,1129,338.6797,1119,350.6797,424,350.6797,414,338.6797,424,326.6797" style="stroke: #A80036; stroke-width: 1.0;"/><text fill="#000000" font-family="sans-serif" font-size="13" lengthAdjust="spacingAndGlyphs" textLength="89" x="727.25" y="344.1748">Sync with OBC</text><line style="stroke: #A80036; stroke-width: 1.0;" x1="1115" x2="1157" y1="378.3828" y2="378.3828"/><line style="stroke: #A80036; stroke-width: 1.0;" x1="1157" x2="1157" y1="378.3828" y2="391.3828"/><line style="stroke: #A80036; stroke-width: 1.0;" x1="1116" x2="1157" y1="391.3828" y2="391.3828"/><polygon fill="#A80036" points="1126,387.3828,1116,391.3828,1126,395.3828,1122,391.3828" style="stroke: #A80036; stroke-width: 1.0;"/><text fill="#000000" font-family="sans-serif" font-size="13" lengthAdjust="spacingAndGlyphs" textLength="118" x="1122" y="373.5264">Measure M/S status</text><line style="stroke: #A80036; stroke-width: 1.0;" x1="1115" x2="1157" y1="421.7344" y2="421.7344"/><line style="stroke: #A80036; stroke-width: 1.0;" x1="1157" x2="1157" y1="421.7344" y2="434.7344"/><line style="stroke: #A80036; stroke-width: 1.0;" x1="1116" x2="1157" y1="434.7344" y2="434.7344"/><polygon fill="#A80036" points="1126,430.7344,1116,434.7344,1126,438.7344,1122,434.7344" style="stroke: #A80036; stroke-width: 1.0;"/><text fill="#000000" font-family="sans-serif" font-size="13" lengthAdjust="spacingAndGlyphs" textLength="77" x="1122" y="416.8779">Measure IMU</text><line style="stroke: #A80036; stroke-width: 1.0;" x1="434" x2="476" y1="465.0859" y2="465.0859"/><line style="stroke: #A80036; stroke-width: 1.0;" x1="476" x2="476" y1="465.0859" y2="478.0859"/><line style="stroke: #A80036; stroke-width: 1.0;" x1="435" x2="476" y1="478.0859" y2="478.0859"/><polygon fill="#A80036" points="445,474.0859,435,478.0859,445,482.0859,441,478.0859" style="stroke: #A80036; stroke-width: 1.0;"/><text fill="#000000" font-family="sans-serif" font-size="13" lengthAdjust="spacingAndGlyphs" textLength="77" x="441" y="460.2295">Measure IMU</text><polygon fill="#A80036" points="583,504.4375,573,508.4375,583,512.4375,579,508.4375" style="stroke: #A80036; stroke-width: 1.0;"/><line style="stroke: #A80036; stroke-width: 1.0;" x1="577" x2="1104" y1="508.4375" y2="508.4375"/><text fill="#000000" font-family="sans-serif" font-size="13" lengthAdjust="spacingAndGlyphs" textLength="179" x="589" y="503.5811">Send IMU data and M/S status</text><polygon fill="#A80036" points="550,534.7891,560,538.7891,550,542.7891,554,538.7891" style="stroke: #A80036; stroke-width: 1.0;"/><line style="stroke: #A80036; stroke-width: 1.0;" x1="434" x2="556" y1="538.7891" y2="538.7891"/><text fill="#000000" font-family="sans-serif" font-size="13" lengthAdjust="spacingAndGlyphs" textLength="86" x="441" y="533.9326">Send IMU data</text><polygon fill="#A80036" points="53,565.1406,43,569.1406,53,573.1406,49,569.1406" style="stroke: #A80036; stroke-width: 1.0;"/><line style="stroke: #A80036; stroke-width: 1.0;" x1="47" x2="561" y1="569.1406" y2="569.1406"/><text fill="#000000" font-family="sans-serif" font-size="13" lengthAdjust="spacingAndGlyphs" textLength="223" x="59" y="564.2842">Downlink the IMU data and M/S status</text><path d="M13,584.1406 L78,584.1406 L78,592.1406 L68,602.1406 L13,602.1406 L13,584.1406 " fill="#EEEEEE" style="stroke: #000000; stroke-width: 1.0;"/><rect fill="none" height="61.7031" style="stroke: #000000; stroke-width: 2.0;" width="403" x="13" y="584.1406"/><text fill="#000000" font-family="sans-serif" font-size="13" font-weight="bold" lengthAdjust="spacingAndGlyphs" textLength="20" x="28" y="598.6357">opt</text><text fill="#000000" font-family="sans-serif" font-size="11" font-weight="bold" lengthAdjust="spacingAndGlyphs" textLength="207" x="93" y="597.5596">[IMU data or M/S status is not correct]</text><line style="stroke: #A80036; stroke-width: 1.0;" x1="42" x2="84" y1="624.8438" y2="624.8438"/><line style="stroke: #A80036; stroke-width: 1.0;" x1="84" x2="84" y1="624.8438" y2="637.8438"/><line style="stroke: #A80036; stroke-width: 1.0;" x1="43" x2="84" y1="637.8438" y2="637.8438"/><polygon fill="#A80036" points="53,633.8438,43,637.8438,53,641.8438,49,637.8438" style="stroke: #A80036; stroke-width: 1.0;"/><text fill="#000000" font-family="sans-serif" font-size="13" lengthAdjust="spacingAndGlyphs" textLength="355" x="49" y="619.9873">Back to tha start the membrane deployment sequence border</text><polygon fill="#A80036" points="1098,671.1953,1108,675.1953,1098,679.1953,1102,675.1953" style="stroke: #A80036; stroke-width: 1.0;"/><line style="stroke: #A80036; stroke-width: 1.0;" x1="572" x2="1104" y1="675.1953" y2="675.1953"/><text fill="#000000" font-family="sans-serif" font-size="13" lengthAdjust="spacingAndGlyphs" textLength="179" x="579" y="670.3389">Send MDC power off command</text><rect fill="#EEEEEE" filter="url(#fy18xs419dlxi)" height="3" style="stroke: #EEEEEE; stroke-width: 1.0;" width="1318" x="3" y="704.3711"/><line style="stroke: #000000; stroke-width: 1.0;" x1="3" x2="1321" y1="704.3711" y2="704.3711"/><line style="stroke: #000000; stroke-width: 1.0;" x1="3" x2="1321" y1="707.3711" y2="707.3711"/><rect fill="#EEEEEE" filter="url(#fy18xs419dlxi)" height="24.3516" style="stroke: #000000; stroke-width: 2.0;" width="312" x="506" y="693.1953"/><text fill="#000000" font-family="sans-serif" font-size="13" font-weight="bold" lengthAdjust="spacingAndGlyphs" textLength="294" x="512" y="710.6904">Uplink the side camera function test command</text><polygon fill="#A80036" points="550,745.8984,560,749.8984,550,753.8984,554,749.8984" style="stroke: #A80036; stroke-width: 1.0;"/><line style="stroke: #A80036; stroke-width: 1.0;" x1="42" x2="556" y1="749.8984" y2="749.8984"/><text fill="#000000" font-family="sans-serif" font-size="13" lengthAdjust="spacingAndGlyphs" textLength="119" x="49" y="745.042">Uplink the command</text><polygon fill="#A80036" points="53,776.25,43,780.25,53,784.25,49,780.25" style="stroke: #A80036; stroke-width: 1.0;"/><line style="stroke: #A80036; stroke-width: 1.0;" x1="47" x2="561" y1="780.25" y2="780.25"/><text fill="#000000" font-family="sans-serif" font-size="13" lengthAdjust="spacingAndGlyphs" textLength="135" x="59" y="775.3936">Downlink the command</text><rect fill="#EEEEEE" filter="url(#fy18xs419dlxi)" height="3" style="stroke: #EEEEEE; stroke-width: 1.0;" width="1318" x="3" y="809.4258"/><line style="stroke: #000000; stroke-width: 1.0;" x1="3" x2="1321" y1="809.4258" y2="809.4258"/><line style="stroke: #000000; stroke-width: 1.0;" x1="3" x2="1321" y1="812.4258" y2="812.4258"/><rect fill="#EEEEEE" filter="url(#fy18xs419dlxi)" height="24.3516" style="stroke: #000000; stroke-width: 2.0;" width="177" x="573.5" y="798.25"/><text fill="#000000" font-family="sans-serif" font-size="13" font-weight="bold" lengthAdjust="spacingAndGlyphs" textLength="159" x="579.5" y="815.7451">side camera function test</text><polygon fill="#A80036" points="880,850.9531,890,854.9531,880,858.9531,884,854.9531" style="stroke: #A80036; stroke-width: 1.0;"/><line style="stroke: #A80036; stroke-width: 1.0;" x1="572" x2="886" y1="854.9531" y2="854.9531"/><text fill="#000000" font-family="sans-serif" font-size="13" lengthAdjust="spacingAndGlyphs" textLength="111" x="579" y="850.0967">Send RPI power on</text><polygon fill="#A80036" points="583,881.3047,573,885.3047,583,889.3047,579,885.3047" style="stroke: #A80036; stroke-width: 1.0;"/><line style="stroke: #A80036; stroke-width: 1.0;" x1="577" x2="891" y1="885.3047" y2="885.3047"/><text fill="#000000" font-family="sans-serif" font-size="13" lengthAdjust="spacingAndGlyphs" textLength="21" x="589" y="880.4482">ack</text><polygon fill="#A80036" points="880,911.6563,890,915.6563,880,919.6563,884,915.6563" style="stroke: #A80036; stroke-width: 1.0;"/><line style="stroke: #A80036; stroke-width: 1.0;" x1="572" x2="886" y1="915.6563" y2="915.6563"/><text fill="#000000" font-family="sans-serif" font-size="13" lengthAdjust="spacingAndGlyphs" textLength="241" x="579" y="910.7998">Send side camera function test command</text><polygon fill="#FBFB77" filter="url(#fy18xs419dlxi)" points="557,928.6563,906,928.6563,916,940.6563,906,952.6563,557,952.6563,547,940.6563,557,928.6563" style="stroke: #A80036; stroke-width: 1.0;"/><text fill="#000000" font-family="sans-serif" font-size="13" lengthAdjust="spacingAndGlyphs" textLength="87" x="688" y="946.1514">sync with OBC</text><line style="stroke: #A80036; stroke-width: 1.0;" x1="902" x2="944" y1="980.3594" y2="980.3594"/><line style="stroke: #A80036; stroke-width: 1.0;" x1="944" x2="944" y1="980.3594" y2="993.3594"/><line style="stroke: #A80036; stroke-width: 1.0;" x1="903" x2="944" y1="993.3594" y2="993.3594"/><polygon fill="#A80036" points="913,989.3594,903,993.3594,913,997.3594,909,993.3594" style="stroke: #A80036; stroke-width: 1.0;"/><text fill="#000000" font-family="sans-serif" font-size="13" lengthAdjust="spacingAndGlyphs" textLength="48" x="909" y="975.5029">LED ON</text><line style="stroke: #A80036; stroke-width: 1.0;" x1="902" x2="944" y1="1023.7109" y2="1023.7109"/><line style="stroke: #A80036; stroke-width: 1.0;" x1="944" x2="944" y1="1023.7109" y2="1036.7109"/><line style="stroke: #A80036; stroke-width: 1.0;" x1="903" x2="944" y1="1036.7109" y2="1036.7109"/><polygon fill="#A80036" points="913,1032.7109,903,1036.7109,913,1040.7109,909,1036.7109" style="stroke: #A80036; stroke-width: 1.0;"/><text fill="#000000" font-family="sans-serif" font-size="13" lengthAdjust="spacingAndGlyphs" textLength="179" x="909" y="1018.8545">Take the photo by side camera</text><line style="stroke: #A80036; stroke-width: 1.0;" x1="902" x2="944" y1="1067.0625" y2="1067.0625"/><line style="stroke: #A80036; stroke-width: 1.0;" x1="944" x2="944" y1="1067.0625" y2="1080.0625"/><line style="stroke: #A80036; stroke-width: 1.0;" x1="903" x2="944" y1="1080.0625" y2="1080.0625"/><polygon fill="#A80036" points="913,1076.0625,903,1080.0625,913,1084.0625,909,1080.0625" style="stroke: #A80036; stroke-width: 1.0;"/><text fill="#000000" font-family="sans-serif" font-size="13" lengthAdjust="spacingAndGlyphs" textLength="55" x="909" y="1062.2061">LED OFF</text><line style="stroke: #A80036; stroke-width: 1.0;" x1="902" x2="944" y1="1110.4141" y2="1110.4141"/><line style="stroke: #A80036; stroke-width: 1.0;" x1="944" x2="944" y1="1110.4141" y2="1123.4141"/><line style="stroke: #A80036; stroke-width: 1.0;" x1="903" x2="944" y1="1123.4141" y2="1123.4141"/><polygon fill="#A80036" points="913,1119.4141,903,1123.4141,913,1127.4141,909,1123.4141" style="stroke: #A80036; stroke-width: 1.0;"/><text fill="#000000" font-family="sans-serif" font-size="13" lengthAdjust="spacingAndGlyphs" textLength="127" x="909" y="1105.5576">Resize the photo data</text><polygon fill="#A80036" points="583,1149.7656,573,1153.7656,583,1157.7656,579,1153.7656" style="stroke: #A80036; stroke-width: 1.0;"/><line style="stroke: #A80036; stroke-width: 1.0;" x1="577" x2="891" y1="1153.7656" y2="1153.7656"/><text fill="#000000" font-family="sans-serif" font-size="13" lengthAdjust="spacingAndGlyphs" textLength="117" x="589" y="1148.9092">Send the photo data</text><polygon fill="#A80036" points="885,1180.1172,895,1184.1172,885,1188.1172,889,1184.1172" style="stroke: #A80036; stroke-width: 1.0;"/><line style="stroke: #A80036; stroke-width: 1.0;" x1="572" x2="891" y1="1184.1172" y2="1184.1172"/><text fill="#000000" font-family="sans-serif" font-size="13" lengthAdjust="spacingAndGlyphs" textLength="171" x="579" y="1179.2607">Send RPI power off command</text><polygon fill="#A80036" points="53,1210.4688,43,1214.4688,53,1218.4688,49,1214.4688" style="stroke: #A80036; stroke-width: 1.0;"/><line style="stroke: #A80036; stroke-width: 1.0;" x1="47" x2="561" y1="1214.4688" y2="1214.4688"/><text fill="#000000" font-family="sans-serif" font-size="13" lengthAdjust="spacingAndGlyphs" textLength="117" x="59" y="1209.6123">Send the photo data</text><path d="M13,1229.4688 L78,1229.4688 L78,1237.4688 L68,1247.4688 L13,1247.4688 L13,1229.4688 " fill="#EEEEEE" style="stroke: #000000; stroke-width: 1.0;"/><rect fill="none" height="61.7031" style="stroke: #000000; stroke-width: 2.0;" width="426" x="13" y="1229.4688"/><text fill="#000000" font-family="sans-serif" font-size="13" font-weight="bold" lengthAdjust="spacingAndGlyphs" textLength="20" x="28" y="1243.9639">opt</text><text fill="#000000" font-family="sans-serif" font-size="11" font-weight="bold" lengthAdjust="spacingAndGlyphs" textLength="196" x="93" y="1242.8877">[taking the photo is not successful]</text><line style="stroke: #A80036; stroke-width: 1.0;" x1="42" x2="84" y1="1270.1719" y2="1270.1719"/><line style="stroke: #A80036; stroke-width: 1.0;" x1="84" x2="84" y1="1270.1719" y2="1283.1719"/><line style="stroke: #A80036; stroke-width: 1.0;" x1="43" x2="84" y1="1283.1719" y2="1283.1719"/><polygon fill="#A80036" points="53,1279.1719,43,1283.1719,53,1287.1719,49,1283.1719" style="stroke: #A80036; stroke-width: 1.0;"/><text fill="#000000" font-family="sans-serif" font-size="13" lengthAdjust="spacingAndGlyphs" textLength="378" x="49" y="1265.3154">Back to the uplink the side camera function test command border</text><rect fill="#EEEEEE" filter="url(#fy18xs419dlxi)" height="3" style="stroke: #EEEEEE; stroke-width: 1.0;" width="1318" x="3" y="1319.3477"/><line style="stroke: #000000; stroke-width: 1.0;" x1="3" x2="1321" y1="1319.3477" y2="1319.3477"/><line style="stroke: #000000; stroke-width: 1.0;" x1="3" x2="1321" y1="1322.3477" y2="1322.3477"/><rect fill="#EEEEEE" filter="url(#fy18xs419dlxi)" height="24.3516" style="stroke: #000000; stroke-width: 2.0;" width="277" x="523.5" y="1308.1719"/><text fill="#000000" font-family="sans-serif" font-size="13" font-weight="bold" lengthAdjust="spacingAndGlyphs" textLength="259" x="529.5" y="1325.667">Uplink membrane deployment command</text><polygon fill="#A80036" points="550,1360.875,560,1364.875,550,1368.875,554,1364.875" style="stroke: #A80036; stroke-width: 1.0;"/><line style="stroke: #A80036; stroke-width: 1.0;" x1="42" x2="556" y1="1364.875" y2="1364.875"/><text fill="#000000" font-family="sans-serif" font-size="13" lengthAdjust="spacingAndGlyphs" textLength="119" x="49" y="1360.0186">Uplink the command</text><polygon fill="#A80036" points="53,1391.2266,43,1395.2266,53,1399.2266,49,1395.2266" style="stroke: #A80036; stroke-width: 1.0;"/><line style="stroke: #A80036; stroke-width: 1.0;" x1="47" x2="561" y1="1395.2266" y2="1395.2266"/><text fill="#000000" font-family="sans-serif" font-size="13" lengthAdjust="spacingAndGlyphs" textLength="135" x="59" y="1390.3701">Downlink the command</text><rect fill="#EEEEEE" filter="url(#fy18xs419dlxi)" height="3" style="stroke: #EEEEEE; stroke-width: 1.0;" width="1318" x="3" y="1424.4023"/><line style="stroke: #000000; stroke-width: 1.0;" x1="3" x2="1321" y1="1424.4023" y2="1424.4023"/><line style="stroke: #000000; stroke-width: 1.0;" x1="3" x2="1321" y1="1427.4023" y2="1427.4023"/><rect fill="#EEEEEE" filter="url(#fy18xs419dlxi)" height="24.3516" style="stroke: #000000; stroke-width: 2.0;" width="166" x="579" y="1413.2266"/><text fill="#000000" font-family="sans-serif" font-size="13" font-weight="bold" lengthAdjust="spacingAndGlyphs" textLength="148" x="585" y="1430.7217">membrane deployment</text><polygon fill="#A80036" points="1093,1465.9297,1103,1469.9297,1093,1473.9297,1097,1469.9297" style="stroke: #A80036; stroke-width: 1.0;"/><line style="stroke: #A80036; stroke-width: 1.0;" x1="572" x2="1099" y1="1469.9297" y2="1469.9297"/><text fill="#000000" font-family="sans-serif" font-size="13" lengthAdjust="spacingAndGlyphs" textLength="180" x="579" y="1465.0732">Send MDC power on command</text><polygon fill="#A80036" points="583,1496.2813,573,1500.2813,583,1504.2813,579,1500.2813" style="stroke: #A80036; stroke-width: 1.0;"/><line style="stroke: #A80036; stroke-width: 1.0;" x1="577" x2="1104" y1="1500.2813" y2="1500.2813"/><text fill="#000000" font-family="sans-serif" font-size="13" lengthAdjust="spacingAndGlyphs" textLength="21" x="589" y="1495.4248">ack</text><polygon fill="#A80036" points="880,1526.6328,890,1530.6328,880,1534.6328,884,1530.6328" style="stroke: #A80036; stroke-width: 1.0;"/><line style="stroke: #A80036; stroke-width: 1.0;" x1="572" x2="886" y1="1530.6328" y2="1530.6328"/><text fill="#000000" font-family="sans-serif" font-size="13" lengthAdjust="spacingAndGlyphs" textLength="172" x="579" y="1525.7764">Send RPI power on command</text><polygon fill="#A80036" points="583,1556.9844,573,1560.9844,583,1564.9844,579,1560.9844" style="stroke: #A80036; stroke-width: 1.0;"/><line style="stroke: #A80036; stroke-width: 1.0;" x1="577" x2="891" y1="1560.9844" y2="1560.9844"/><text fill="#000000" font-family="sans-serif" font-size="13" lengthAdjust="spacingAndGlyphs" textLength="21" x="589" y="1556.1279">ack</text><polygon fill="#A80036" points="1093,1587.3359,1103,1591.3359,1093,1595.3359,1097,1591.3359" style="stroke: #A80036; stroke-width: 1.0;"/><line style="stroke: #A80036; stroke-width: 1.0;" x1="572" x2="1099" y1="1591.3359" y2="1591.3359"/><text fill="#000000" font-family="sans-serif" font-size="13" lengthAdjust="spacingAndGlyphs" textLength="296" x="579" y="1586.4795">Send starting the membrane deployment command</text><polygon fill="#A80036" points="880,1617.6875,890,1621.6875,880,1625.6875,884,1621.6875" style="stroke: #A80036; stroke-width: 1.0;"/><line style="stroke: #A80036; stroke-width: 1.0;" x1="572" x2="886" y1="1621.6875" y2="1621.6875"/><text fill="#000000" font-family="sans-serif" font-size="13" lengthAdjust="spacingAndGlyphs" textLength="296" x="579" y="1616.8311">Send starting the membrane deployment command</text><polygon fill="#FBFB77" filter="url(#fy18xs419dlxi)" points="887,1634.6875,1119,1634.6875,1129,1646.6875,1119,1658.6875,887,1658.6875,877,1646.6875,887,1634.6875" style="stroke: #A80036; stroke-width: 1.0;"/><text fill="#000000" font-family="sans-serif" font-size="13" lengthAdjust="spacingAndGlyphs" textLength="87" x="959.75" y="1652.1826">sync with OBC</text><path d="M404,1671.0391 L477,1671.0391 L477,1679.0391 L467,1689.0391 L404,1689.0391 L404,1671.0391 " fill="#EEEEEE" style="stroke: #000000; stroke-width: 1.0;"/><rect fill="none" height="269.4609" style="stroke: #000000; stroke-width: 2.0;" width="907" x="404" y="1671.0391"/><text fill="#000000" font-family="sans-serif" font-size="13" font-weight="bold" lengthAdjust="spacingAndGlyphs" textLength="28" x="419" y="1685.5342">loop</text><text fill="#000000" font-family="sans-serif" font-size="11" font-weight="bold" lengthAdjust="spacingAndGlyphs" textLength="90" x="492" y="1684.458">[IMU Measuring]</text><line style="stroke: #A80036; stroke-width: 1.0;" x1="1115" x2="1157" y1="1711.7422" y2="1711.7422"/><line style="stroke: #A80036; stroke-width: 1.0;" x1="1157" x2="1157" y1="1711.7422" y2="1724.7422"/><line style="stroke: #A80036; stroke-width: 1.0;" x1="1116" x2="1157" y1="1724.7422" y2="1724.7422"/><polygon fill="#A80036" points="1126,1720.7422,1116,1724.7422,1126,1728.7422,1122,1724.7422" style="stroke: #A80036; stroke-width: 1.0;"/><text fill="#000000" font-family="sans-serif" font-size="13" lengthAdjust="spacingAndGlyphs" textLength="119" x="1122" y="1706.8857">Start IMU measuring</text><line style="stroke: #A80036; stroke-width: 1.0;" x1="434" x2="476" y1="1755.0938" y2="1755.0938"/><line style="stroke: #A80036; stroke-width: 1.0;" x1="476" x2="476" y1="1755.0938" y2="1768.0938"/><line style="stroke: #A80036; stroke-width: 1.0;" x1="435" x2="476" y1="1768.0938" y2="1768.0938"/><polygon fill="#A80036" points="445,1764.0938,435,1768.0938,445,1772.0938,441,1768.0938" style="stroke: #A80036; stroke-width: 1.0;"/><text fill="#000000" font-family="sans-serif" font-size="13" lengthAdjust="spacingAndGlyphs" textLength="119" x="441" y="1750.2373">Start IMU measuring</text><line style="stroke: #A80036; stroke-width: 1.0;" x1="1115" x2="1157" y1="1798.4453" y2="1798.4453"/><line style="stroke: #A80036; stroke-width: 1.0;" x1="1157" x2="1157" y1="1798.4453" y2="1811.4453"/><line style="stroke: #A80036; stroke-width: 1.0;" x1="1116" x2="1157" y1="1811.4453" y2="1811.4453"/><polygon fill="#A80036" points="1126,1807.4453,1116,1811.4453,1126,1815.4453,1122,1811.4453" style="stroke: #A80036; stroke-width: 1.0;"/><text fill="#000000" font-family="sans-serif" font-size="13" lengthAdjust="spacingAndGlyphs" textLength="148" x="1122" y="1793.5889">Melt the gut of membrane</text><polygon fill="#FBFB77" filter="url(#fy18xs419dlxi)" points="887,1824.4453,1119,1824.4453,1129,1836.4453,1119,1848.4453,887,1848.4453,877,1836.4453,887,1824.4453" style="stroke: #A80036; stroke-width: 1.0;"/><text fill="#000000" font-family="sans-serif" font-size="13" lengthAdjust="spacingAndGlyphs" textLength="181" x="912.75" y="1841.9404">wait the membrane deployment</text><line style="stroke: #A80036; stroke-width: 1.0;" x1="902" x2="944" y1="1876.1484" y2="1876.1484"/><line style="stroke: #A80036; stroke-width: 1.0;" x1="944" x2="944" y1="1876.1484" y2="1889.1484"/><line style="stroke: #A80036; stroke-width: 1.0;" x1="903" x2="944" y1="1889.1484" y2="1889.1484"/><polygon fill="#A80036" points="913,1885.1484,903,1889.1484,913,1893.1484,909,1889.1484" style="stroke: #A80036; stroke-width: 1.0;"/><text fill="#000000" font-family="sans-serif" font-size="13" lengthAdjust="spacingAndGlyphs" textLength="133" x="909" y="1871.292">Finish taking the movie</text><line style="stroke: #A80036; stroke-width: 1.0;" x1="1115" x2="1157" y1="1919.5" y2="1919.5"/><line style="stroke: #A80036; stroke-width: 1.0;" x1="1157" x2="1157" y1="1919.5" y2="1932.5"/><line style="stroke: #A80036; stroke-width: 1.0;" x1="1116" x2="1157" y1="1932.5" y2="1932.5"/><polygon fill="#A80036" points="1126,1928.5,1116,1932.5,1126,1936.5,1122,1932.5" style="stroke: #A80036; stroke-width: 1.0;"/><text fill="#000000" font-family="sans-serif" font-size="13" lengthAdjust="spacingAndGlyphs" textLength="177" x="1122" y="1914.6436">Finish measuring the IMU data</text><line style="stroke: #A80036; stroke-width: 1.0;" x1="902" x2="944" y1="1969.8516" y2="1969.8516"/><line style="stroke: #A80036; stroke-width: 1.0;" x1="944" x2="944" y1="1969.8516" y2="1982.8516"/><line style="stroke: #A80036; stroke-width: 1.0;" x1="903" x2="944" y1="1982.8516" y2="1982.8516"/><polygon fill="#A80036" points="913,1978.8516,903,1982.8516,913,1986.8516,909,1982.8516" style="stroke: #A80036; stroke-width: 1.0;"/><text fill="#000000" font-family="sans-serif" font-size="13" lengthAdjust="spacingAndGlyphs" textLength="48" x="909" y="1964.9951">LED ON</text><line style="stroke: #A80036; stroke-width: 1.0;" x1="902" x2="944" y1="2013.2031" y2="2013.2031"/><line style="stroke: #A80036; stroke-width: 1.0;" x1="944" x2="944" y1="2013.2031" y2="2026.2031"/><line style="stroke: #A80036; stroke-width: 1.0;" x1="903" x2="944" y1="2026.2031" y2="2026.2031"/><polygon fill="#A80036" points="913,2022.2031,903,2026.2031,913,2030.2031,909,2026.2031" style="stroke: #A80036; stroke-width: 1.0;"/><text fill="#000000" font-family="sans-serif" font-size="13" lengthAdjust="spacingAndGlyphs" textLength="189" x="909" y="2008.3467">Taking the photo by side camera</text><line style="stroke: #A80036; stroke-width: 1.0;" x1="902" x2="944" y1="2056.5547" y2="2056.5547"/><line style="stroke: #A80036; stroke-width: 1.0;" x1="944" x2="944" y1="2056.5547" y2="2069.5547"/><line style="stroke: #A80036; stroke-width: 1.0;" x1="903" x2="944" y1="2069.5547" y2="2069.5547"/><polygon fill="#A80036" points="913,2065.5547,903,2069.5547,913,2073.5547,909,2069.5547" style="stroke: #A80036; stroke-width: 1.0;"/><text fill="#000000" font-family="sans-serif" font-size="13" lengthAdjust="spacingAndGlyphs" textLength="55" x="909" y="2051.6982">LED OFF</text><line style="stroke: #A80036; stroke-width: 1.0;" x1="902" x2="944" y1="2099.9063" y2="2099.9063"/><line style="stroke: #A80036; stroke-width: 1.0;" x1="944" x2="944" y1="2099.9063" y2="2112.9063"/><line style="stroke: #A80036; stroke-width: 1.0;" x1="903" x2="944" y1="2112.9063" y2="2112.9063"/><polygon fill="#A80036" points="913,2108.9063,903,2112.9063,913,2116.9063,909,2112.9063" style="stroke: #A80036; stroke-width: 1.0;"/><text fill="#000000" font-family="sans-serif" font-size="13" lengthAdjust="spacingAndGlyphs" textLength="127" x="909" y="2095.0498">Resize the photo data</text><polygon fill="#A80036" points="583,2139.2578,573,2143.2578,583,2147.2578,579,2143.2578" style="stroke: #A80036; stroke-width: 1.0;"/><line style="stroke: #A80036; stroke-width: 1.0;" x1="577" x2="891" y1="2143.2578" y2="2143.2578"/><text fill="#000000" font-family="sans-serif" font-size="13" lengthAdjust="spacingAndGlyphs" textLength="117" x="589" y="2138.4014">Send the photo data</text><polygon fill="#A80036" points="885,2169.6094,895,2173.6094,885,2177.6094,889,2173.6094" style="stroke: #A80036; stroke-width: 1.0;"/><line style="stroke: #A80036; stroke-width: 1.0;" x1="572" x2="891" y1="2173.6094" y2="2173.6094"/><text fill="#000000" font-family="sans-serif" font-size="13" lengthAdjust="spacingAndGlyphs" textLength="171" x="579" y="2168.7529">Send RPI power off command</text><polygon fill="#A80036" points="583,2199.9609,573,2203.9609,583,2207.9609,579,2203.9609" style="stroke: #A80036; stroke-width: 1.0;"/><line style="stroke: #A80036; stroke-width: 1.0;" x1="577" x2="1104" y1="2203.9609" y2="2203.9609"/><text fill="#000000" font-family="sans-serif" font-size="13" lengthAdjust="spacingAndGlyphs" textLength="179" x="589" y="2199.1045">Send IMU data and M/S status</text><polygon fill="#A80036" points="53,2230.3125,43,2234.3125,53,2238.3125,49,2234.3125" style="stroke: #A80036; stroke-width: 1.0;"/><line style="stroke: #A80036; stroke-width: 1.0;" x1="47" x2="561" y1="2234.3125" y2="2234.3125"/><text fill="#000000" font-family="sans-serif" font-size="13" lengthAdjust="spacingAndGlyphs" textLength="237" x="59" y="2229.4561">Downlink the data of IMU and M/S status</text><polygon fill="#A80036" points="1098,2260.6641,1108,2264.6641,1098,2268.6641,1102,2264.6641" style="stroke: #A80036; stroke-width: 1.0;"/><line style="stroke: #A80036; stroke-width: 1.0;" x1="572" x2="1104" y1="2264.6641" y2="2264.6641"/><text fill="#000000" font-family="sans-serif" font-size="13" lengthAdjust="spacingAndGlyphs" textLength="179" x="579" y="2259.8076">Send MDC power off command</text><path d="M13,2279.6641 L78,2279.6641 L78,2287.6641 L68,2297.6641 L13,2297.6641 L13,2279.6641 " fill="#EEEEEE" style="stroke: #000000; stroke-width: 1.0;"/><rect fill="none" height="61.7031" style="stroke: #000000; stroke-width: 2.0;" width="390" x="13" y="2279.6641"/><text fill="#000000" font-family="sans-serif" font-size="13" font-weight="bold" lengthAdjust="spacingAndGlyphs" textLength="20" x="28" y="2294.1592">opt</text><text fill="#000000" font-family="sans-serif" font-size="11" font-weight="bold" lengthAdjust="spacingAndGlyphs" textLength="236" x="93" y="2293.083">[membrane deployment is not successful]</text><line style="stroke: #A80036; stroke-width: 1.0;" x1="42" x2="84" y1="2320.3672" y2="2320.3672"/><line style="stroke: #A80036; stroke-width: 1.0;" x1="84" x2="84" y1="2320.3672" y2="2333.3672"/><line style="stroke: #A80036; stroke-width: 1.0;" x1="43" x2="84" y1="2333.3672" y2="2333.3672"/><polygon fill="#A80036" points="53,2329.3672,43,2333.3672,53,2337.3672,49,2333.3672" style="stroke: #A80036; stroke-width: 1.0;"/><text fill="#000000" font-family="sans-serif" font-size="13" lengthAdjust="spacingAndGlyphs" textLength="342" x="49" y="2315.5107">Back to the uplink membrane deployment command border</text><rect fill="#EEEEEE" filter="url(#fy18xs419dlxi)" height="3" style="stroke: #EEEEEE; stroke-width: 1.0;" width="1318" x="3" y="2369.543"/><line style="stroke: #000000; stroke-width: 1.0;" x1="3" x2="1321" y1="2369.543" y2="2369.543"/><line style="stroke: #000000; stroke-width: 1.0;" x1="3" x2="1321" y1="2372.543" y2="2372.543"/><rect fill="#EEEEEE" filter="url(#fy18xs419dlxi)" height="24.3516" style="stroke: #000000; stroke-width: 2.0;" width="141" x="591.5" y="2358.3672"/><text fill="#000000" font-family="sans-serif" font-size="13" font-weight="bold" lengthAdjust="spacingAndGlyphs" textLength="123" x="597.5" y="2375.8623">Downlink the photo</text><polygon fill="#A80036" points="550,2411.0703,560,2415.0703,550,2419.0703,554,2415.0703" style="stroke: #A80036; stroke-width: 1.0;"/><line style="stroke: #A80036; stroke-width: 1.0;" x1="42" x2="556" y1="2415.0703" y2="2415.0703"/><text fill="#000000" font-family="sans-serif" font-size="13" lengthAdjust="spacingAndGlyphs" textLength="119" x="49" y="2410.2139">Uplink the command</text><polygon fill="#A80036" points="53,2441.4219,43,2445.4219,53,2449.4219,49,2445.4219" style="stroke: #A80036; stroke-width: 1.0;"/><line style="stroke: #A80036; stroke-width: 1.0;" x1="47" x2="561" y1="2445.4219" y2="2445.4219"/><text fill="#000000" font-family="sans-serif" font-size="13" lengthAdjust="spacingAndGlyphs" textLength="139" x="59" y="2440.5654">Downlink the photo data</text><rect fill="#EEEEEE" filter="url(#fy18xs419dlxi)" height="3" style="stroke: #EEEEEE; stroke-width: 1.0;" width="1318" x="3" y="2474.5977"/><line style="stroke: #000000; stroke-width: 1.0;" x1="3" x2="1321" y1="2474.5977" y2="2474.5977"/><line style="stroke: #000000; stroke-width: 1.0;" x1="3" x2="1321" y1="2477.5977" y2="2477.5977"/><rect fill="#EEEEEE" filter="url(#fy18xs419dlxi)" height="24.3516" style="stroke: #000000; stroke-width: 2.0;" width="283" x="520.5" y="2463.4219"/><text fill="#000000" font-family="sans-serif" font-size="13" font-weight="bold" lengthAdjust="spacingAndGlyphs" textLength="265" x="526.5" y="2480.917">end the membrane deployment sequence</text><!--
@startuml
title membrane deployment

participant GS
participant CIB
participant OBC
participant RPI
participant MDC

== start the membrane deployment sequence ==
activate OBC
GS -> OBC: Uplink the command 
OBC -> GS: Downlink the command 

== IMU & M/S function test ==
OBC -> MDC         : Send MDC power on command
activate MDC
MDC  -> OBC        : ack
OBC -> MDC         : Send IMU & M/S function test command
hnote over CIB,MDC : Sync with OBC
MDC -> MDC : Measure M/S status
MDC -> MDC : Measure IMU
CIB -> CIB : Measure IMU
MDC -> OBC        : Send IMU data and M/S status
CIB -> OBC : Send IMU data
OBC -> GS  : Downlink the IMU data and M/S status
opt IMU data or M/S status is not correct
    GS -> GS : Back to tha start the membrane deployment sequence border
end
OBC -> MDC         : Send MDC power off command
deactivate MDC

== Uplink the side camera function test command ==
GS -> OBC  : Uplink the command
OBC -> GS  : Downlink the command

== side camera function test ==
OBC -> RPI             : Send RPI power on
activate RPI
RPI -> OBC             : ack
OBC -> RPI             : Send side camera function test command
hnote over OBC,RPI          : sync with OBC
RPI -> RPI          : LED ON
RPI -> RPI          : Take the photo by side camera
RPI -> RPI          : LED OFF
RPI -> RPI          : Resize the photo data
RPI -> OBC             : Send the photo data
OBC -> RPI             : Send RPI power off command
deactivate RPI
OBC -> GS  : Send the photo data
opt taking the photo is not successful
    GS -> GS : Back to the uplink the side camera function test command border
end

== Uplink membrane deployment command ==
GS -> OBC  : Uplink the command
OBC -> GS  : Downlink the command

== membrane deployment ==
OBC -> MDC         : Send MDC power on command
activate MDC
MDC -> OBC         : ack
OBC -> RPI             : Send RPI power on command
activate RPI
RPI -> OBC             : ack
OBC -> MDC         : Send starting the membrane deployment command
OBC -> RPI             : Send starting the membrane deployment command
hnote over MDC, RPI     : sync with OBC
loop IMU Measuring
MDC -> MDC        : Start IMU measuring
CIB -> CIB  : Start IMU measuring
MDC -> MDC        : Melt the gut of membrane
hnote over RPI,MDC      : wait the membrane deployment
RPI -> RPI          : Finish taking the movie
MDC -> MDC        : Finish measuring the IMU data
end
RPI -> RPI : LED ON
RPI -> RPI          : Taking the photo by side camera
RPI -> RPI          : LED OFF
RPI -> RPI          : Resize the photo data
RPI -> OBC             : Send the photo data
OBC -> RPI             : Send RPI power off command
deactivate RPI
MDC -> OBC         : Send IMU data and M/S status
OBC -> GS  : Downlink the data of IMU and M/S status
OBC -> MDC         : Send MDC power off command
deactivate MDC
opt membrane deployment is not successful
    GS -> GS : Back to the uplink membrane deployment command border
end

== Downlink the photo ==
GS -> OBC  : Uplink the command
OBC -> GS  : Downlink the photo data

== end the membrane deployment sequence ==
@enduml

PlantUML version 1.2018.03(Fri Apr 06 01:59:15 JST 2018)
(GPL source distribution)
Java Runtime: Java(TM) SE Runtime Environment
JVM: Java HotSpot(TM) Client VM
Java Version: 1.8.0_171-b11
Operating System: Windows 10
OS Version: 10.0
Default Encoding: MS932
Language: ja
Country: JP
--></g></svg>