<?xml version="1.0" encoding="UTF-8" standalone="no"?><svg xmlns="http://www.w3.org/2000/svg" xmlns:xlink="http://www.w3.org/1999/xlink" contentScriptType="application/ecmascript" contentStyleType="text/css" height="2278px" preserveAspectRatio="none" style="width:1115px;height:2278px;" version="1.1" viewBox="0 0 1115 2278" width="1115px" zoomAndPan="magnify"><defs><filter height="300%" id="f7almjaj2miju" width="300%" x="-1" y="-1"><feGaussianBlur result="blurOut" stdDeviation="2.0"/><feColorMatrix in="blurOut" result="blurOut2" type="matrix" values="0 0 0 0 0 0 0 0 0 0 0 0 0 0 0 0 0 0 .4 0"/><feOffset dx="4.0" dy="4.0" in="blurOut2" result="blurOut3"/><feBlend in="SourceGraphic" in2="blurOut3" mode="normal"/></filter></defs><g><text fill="#000000" font-family="sans-serif" font-size="14" font-weight="bold" lengthAdjust="spacingAndGlyphs" textLength="112" x="497.25" y="24.5332">Initial Operation</text><rect fill="#FFFFFF" filter="url(#f7almjaj2miju)" height="30.3516" style="stroke: #A80036; stroke-width: 1.0;" width="10" x="314.5" y="130.5703"/><rect fill="#FFFFFF" filter="url(#f7almjaj2miju)" height="2086.6563" style="stroke: #A80036; stroke-width: 1.0;" width="10" x="686" y="108.2188"/><rect fill="#FFFFFF" filter="url(#f7almjaj2miju)" height="30.3516" style="stroke: #A80036; stroke-width: 1.0;" width="10" x="1021" y="234.625"/><rect fill="#FFFFFF" filter="url(#f7almjaj2miju)" height="30.3516" style="stroke: #A80036; stroke-width: 1.0;" width="10" x="1021" y="631.6797"/><rect fill="#FFFFFF" filter="url(#f7almjaj2miju)" height="182.1094" style="stroke: #A80036; stroke-width: 1.0;" width="10" x="1073.5" y="1443.4375"/><rect fill="#FFFFFF" filter="url(#f7almjaj2miju)" height="182.1094" style="stroke: #A80036; stroke-width: 1.0;" width="10" x="1073.5" y="1882.3594"/><rect fill="#FFFFFF" filter="url(#f7almjaj2miju)" height="569.4844" style="stroke: #000000; stroke-width: 2.0;" width="1075.5" x="13" y="367.6797"/><rect fill="#FFFFFF" height="419.7266" style="stroke: none; stroke-width: 1.0;" width="1075.5" x="13" y="517.4375"/><rect fill="#FFFFFF" filter="url(#f7almjaj2miju)" height="389.8906" style="stroke: #000000; stroke-width: 2.0;" width="1055.5" x="23" y="540.2734"/><rect fill="#FFFFFF" filter="url(#f7almjaj2miju)" height="357.5391" style="stroke: #000000; stroke-width: 2.0;" width="1035.5" x="33" y="565.625"/><rect fill="#FFFFFF" filter="url(#f7almjaj2miju)" height="155.5938" style="stroke: #000000; stroke-width: 2.0;" width="401.5" x="657" y="590.9766"/><rect fill="#FFFFFF" height="46.1875" style="stroke: none; stroke-width: 1.0;" width="401.5" x="657" y="700.3828"/><rect fill="#FFFFFF" height="169.5938" style="stroke: none; stroke-width: 1.0;" width="1035.5" x="33" y="753.5703"/><rect fill="#FFFFFF" filter="url(#f7almjaj2miju)" height="79.0547" style="stroke: #000000; stroke-width: 2.0;" width="682" x="43" y="837.1094"/><line style="stroke: #A80036; stroke-width: 1.0; stroke-dasharray: 5.0,5.0;" x1="108" x2="108" y1="98.2188" y2="2203.875"/><line style="stroke: #A80036; stroke-width: 1.0; stroke-dasharray: 5.0,5.0;" x1="200" x2="200" y1="98.2188" y2="2203.875"/><line style="stroke: #A80036; stroke-width: 1.0; stroke-dasharray: 5.0,5.0;" x1="258" x2="258" y1="98.2188" y2="2203.875"/><line style="stroke: #A80036; stroke-width: 1.0; stroke-dasharray: 5.0,5.0;" x1="319" x2="319" y1="98.2188" y2="2203.875"/><line style="stroke: #A80036; stroke-width: 1.0; stroke-dasharray: 5.0,5.0;" x1="691" x2="691" y1="98.2188" y2="2203.875"/><line style="stroke: #A80036; stroke-width: 1.0; stroke-dasharray: 5.0,5.0;" x1="1025.5" x2="1025.5" y1="98.2188" y2="2203.875"/><line style="stroke: #A80036; stroke-width: 1.0; stroke-dasharray: 5.0,5.0;" x1="1078.5" x2="1078.5" y1="98.2188" y2="2203.875"/><rect fill="#FEFECE" filter="url(#f7almjaj2miju)" height="31.6094" style="stroke: #A80036; stroke-width: 1.5;" width="106" x="53" y="61.6094"/><text fill="#000000" font-family="sans-serif" font-size="14" lengthAdjust="spacingAndGlyphs" textLength="92" x="60" y="83.1426">GroundStation</text><rect fill="#FEFECE" filter="url(#f7almjaj2miju)" height="31.6094" style="stroke: #A80036; stroke-width: 1.5;" width="106" x="53" y="2202.875"/><text fill="#000000" font-family="sans-serif" font-size="14" lengthAdjust="spacingAndGlyphs" textLength="92" x="60" y="2224.4082">GroundStation</text><rect fill="#FEFECE" filter="url(#f7almjaj2miju)" height="31.6094" style="stroke: #A80036; stroke-width: 1.5;" width="51" x="173" y="61.6094"/><text fill="#000000" font-family="sans-serif" font-size="14" lengthAdjust="spacingAndGlyphs" textLength="37" x="180" y="83.1426">5R8G</text><rect fill="#FEFECE" filter="url(#f7almjaj2miju)" height="31.6094" style="stroke: #A80036; stroke-width: 1.5;" width="51" x="173" y="2202.875"/><text fill="#000000" font-family="sans-serif" font-size="14" lengthAdjust="spacingAndGlyphs" textLength="37" x="180" y="2224.4082">5R8G</text><rect fill="#FEFECE" filter="url(#f7almjaj2miju)" height="31.6094" style="stroke: #A80036; stroke-width: 1.5;" width="36" x="238" y="61.6094"/><text fill="#000000" font-family="sans-serif" font-size="14" lengthAdjust="spacingAndGlyphs" textLength="22" x="245" y="83.1426">CIB</text><rect fill="#FEFECE" filter="url(#f7almjaj2miju)" height="31.6094" style="stroke: #A80036; stroke-width: 1.5;" width="36" x="238" y="2202.875"/><text fill="#000000" font-family="sans-serif" font-size="14" lengthAdjust="spacingAndGlyphs" textLength="22" x="245" y="2224.4082">CIB</text><text fill="#000000" font-family="sans-serif" font-size="14" lengthAdjust="spacingAndGlyphs" textLength="57" x="288" y="95.1426">EEPLOM</text><path d="M301.5,44.6094 C301.5,34.6094 319.5,34.6094 319.5,34.6094 C319.5,34.6094 337.5,34.6094 337.5,44.6094 L337.5,70.6094 C337.5,80.6094 319.5,80.6094 319.5,80.6094 C319.5,80.6094 301.5,80.6094 301.5,70.6094 L301.5,44.6094 " fill="#FEFECE" filter="url(#f7almjaj2miju)" style="stroke: #000000; stroke-width: 1.5;"/><path d="M301.5,44.6094 C301.5,54.6094 319.5,54.6094 319.5,54.6094 C319.5,54.6094 337.5,54.6094 337.5,44.6094 " fill="none" style="stroke: #000000; stroke-width: 1.5;"/><text fill="#000000" font-family="sans-serif" font-size="14" lengthAdjust="spacingAndGlyphs" textLength="57" x="288" y="2217.4082">EEPLOM</text><path d="M301.5,2230.4844 C301.5,2220.4844 319.5,2220.4844 319.5,2220.4844 C319.5,2220.4844 337.5,2220.4844 337.5,2230.4844 L337.5,2256.4844 C337.5,2266.4844 319.5,2266.4844 319.5,2266.4844 C319.5,2266.4844 301.5,2266.4844 301.5,2256.4844 L301.5,2230.4844 " fill="#FEFECE" filter="url(#f7almjaj2miju)" style="stroke: #000000; stroke-width: 1.5;"/><path d="M301.5,2230.4844 C301.5,2240.4844 319.5,2240.4844 319.5,2240.4844 C319.5,2240.4844 337.5,2240.4844 337.5,2230.4844 " fill="none" style="stroke: #000000; stroke-width: 1.5;"/><rect fill="#FEFECE" filter="url(#f7almjaj2miju)" height="31.6094" style="stroke: #A80036; stroke-width: 1.5;" width="44" x="667" y="61.6094"/><text fill="#000000" font-family="sans-serif" font-size="14" lengthAdjust="spacingAndGlyphs" textLength="30" x="674" y="83.1426">OBC</text><rect fill="#FEFECE" filter="url(#f7almjaj2miju)" height="31.6094" style="stroke: #A80036; stroke-width: 1.5;" width="44" x="667" y="2202.875"/><text fill="#000000" font-family="sans-serif" font-size="14" lengthAdjust="spacingAndGlyphs" textLength="30" x="674" y="2224.4082">OBC</text><rect fill="#FEFECE" filter="url(#f7almjaj2miju)" height="31.6094" style="stroke: #A80036; stroke-width: 1.5;" width="41" x="1003.5" y="61.6094"/><text fill="#000000" font-family="sans-serif" font-size="14" lengthAdjust="spacingAndGlyphs" textLength="27" x="1010.5" y="83.1426">EPS</text><rect fill="#FEFECE" filter="url(#f7almjaj2miju)" height="31.6094" style="stroke: #A80036; stroke-width: 1.5;" width="41" x="1003.5" y="2202.875"/><text fill="#000000" font-family="sans-serif" font-size="14" lengthAdjust="spacingAndGlyphs" textLength="27" x="1010.5" y="2224.4082">EPS</text><rect fill="#FEFECE" filter="url(#f7almjaj2miju)" height="31.6094" style="stroke: #A80036; stroke-width: 1.5;" width="36" x="1058.5" y="61.6094"/><text fill="#000000" font-family="sans-serif" font-size="14" lengthAdjust="spacingAndGlyphs" textLength="22" x="1065.5" y="83.1426">RPI</text><rect fill="#FEFECE" filter="url(#f7almjaj2miju)" height="31.6094" style="stroke: #A80036; stroke-width: 1.5;" width="36" x="1058.5" y="2202.875"/><text fill="#000000" font-family="sans-serif" font-size="14" lengthAdjust="spacingAndGlyphs" textLength="22" x="1065.5" y="2224.4082">RPI</text><rect fill="#FFFFFF" filter="url(#f7almjaj2miju)" height="30.3516" style="stroke: #A80036; stroke-width: 1.0;" width="10" x="314.5" y="130.5703"/><rect fill="#FFFFFF" filter="url(#f7almjaj2miju)" height="2086.6563" style="stroke: #A80036; stroke-width: 1.0;" width="10" x="686" y="108.2188"/><rect fill="#FFFFFF" filter="url(#f7almjaj2miju)" height="30.3516" style="stroke: #A80036; stroke-width: 1.0;" width="10" x="1021" y="234.625"/><rect fill="#FFFFFF" filter="url(#f7almjaj2miju)" height="30.3516" style="stroke: #A80036; stroke-width: 1.0;" width="10" x="1021" y="631.6797"/><rect fill="#FFFFFF" filter="url(#f7almjaj2miju)" height="182.1094" style="stroke: #A80036; stroke-width: 1.0;" width="10" x="1073.5" y="1443.4375"/><rect fill="#FFFFFF" filter="url(#f7almjaj2miju)" height="182.1094" style="stroke: #A80036; stroke-width: 1.0;" width="10" x="1073.5" y="1882.3594"/><polygon fill="#A80036" points="335.5,126.5703,325.5,130.5703,335.5,134.5703,331.5,130.5703" style="stroke: #A80036; stroke-width: 1.0;"/><line style="stroke: #A80036; stroke-width: 1.0;" x1="329.5" x2="685" y1="130.5703" y2="130.5703"/><text fill="#000000" font-family="sans-serif" font-size="13" lengthAdjust="spacingAndGlyphs" textLength="85" x="341.5" y="125.7139">load EEPROM</text><polygon fill="#A80036" points="674,156.9219,684,160.9219,674,164.9219,678,160.9219" style="stroke: #A80036; stroke-width: 1.0;"/><line style="stroke: #A80036; stroke-width: 1.0; stroke-dasharray: 2.0,2.0;" x1="319.5" x2="680" y1="160.9219" y2="160.9219"/><text fill="#000000" font-family="sans-serif" font-size="13" lengthAdjust="spacingAndGlyphs" textLength="118" x="326.5" y="156.0654">send EEPROM data</text><line style="stroke: #A80036; stroke-width: 1.0;" x1="696" x2="738" y1="191.2734" y2="191.2734"/><line style="stroke: #A80036; stroke-width: 1.0;" x1="738" x2="738" y1="191.2734" y2="204.2734"/><line style="stroke: #A80036; stroke-width: 1.0;" x1="697" x2="738" y1="204.2734" y2="204.2734"/><polygon fill="#A80036" points="707,200.2734,697,204.2734,707,208.2734,703,204.2734" style="stroke: #A80036; stroke-width: 1.0;"/><text fill="#000000" font-family="sans-serif" font-size="13" lengthAdjust="spacingAndGlyphs" textLength="210" x="703" y="186.417">Initialize OBC(HK,transceiver_ON？)</text><polygon fill="#A80036" points="1009,230.625,1019,234.625,1009,238.625,1013,234.625" style="stroke: #A80036; stroke-width: 1.0;"/><line style="stroke: #A80036; stroke-width: 1.0;" x1="696" x2="1015" y1="234.625" y2="234.625"/><text fill="#000000" font-family="sans-serif" font-size="13" lengthAdjust="spacingAndGlyphs" textLength="239" x="703" y="229.7686">Initialize EPS(Check the Battery Voltage)</text><polygon fill="#A80036" points="707,260.9766,697,264.9766,707,268.9766,703,264.9766" style="stroke: #A80036; stroke-width: 1.0;"/><line style="stroke: #A80036; stroke-width: 1.0; stroke-dasharray: 2.0,2.0;" x1="701" x2="1025" y1="264.9766" y2="264.9766"/><text fill="#000000" font-family="sans-serif" font-size="13" lengthAdjust="spacingAndGlyphs" textLength="136" x="713" y="260.1201">send EPS Voltage data</text><line style="stroke: #A80036; stroke-width: 1.0;" x1="696" x2="738" y1="295.3281" y2="295.3281"/><line style="stroke: #A80036; stroke-width: 1.0;" x1="738" x2="738" y1="295.3281" y2="308.3281"/><line style="stroke: #A80036; stroke-width: 1.0;" x1="697" x2="738" y1="308.3281" y2="308.3281"/><polygon fill="#A80036" points="707,304.3281,697,308.3281,707,312.3281,703,308.3281" style="stroke: #A80036; stroke-width: 1.0;"/><text fill="#000000" font-family="sans-serif" font-size="13" lengthAdjust="spacingAndGlyphs" textLength="311" x="703" y="290.4717">check Satellite Operation mode(depend on EEPROM)</text><rect fill="#EEEEEE" filter="url(#f7almjaj2miju)" height="3" style="stroke: #EEEEEE; stroke-width: 1.0;" width="1100.5" x="3" y="337.5039"/><line style="stroke: #000000; stroke-width: 1.0;" x1="3" x2="1103.5" y1="337.5039" y2="337.5039"/><line style="stroke: #000000; stroke-width: 1.0;" x1="3" x2="1103.5" y1="340.5039" y2="340.5039"/><rect fill="#EEEEEE" filter="url(#f7almjaj2miju)" height="24.3516" style="stroke: #000000; stroke-width: 2.0;" width="363" x="371.75" y="326.3281"/><text fill="#000000" font-family="sans-serif" font-size="13" font-weight="bold" lengthAdjust="spacingAndGlyphs" textLength="345" x="377.75" y="343.8232">start checking whether antennae are developed or not</text><path d="M13,367.6797 L74,367.6797 L74,375.6797 L64,385.6797 L13,385.6797 L13,367.6797 " fill="#EEEEEE" style="stroke: #000000; stroke-width: 1.0;"/><rect fill="none" height="569.4844" style="stroke: #000000; stroke-width: 2.0;" width="1075.5" x="13" y="367.6797"/><text fill="#000000" font-family="sans-serif" font-size="13" font-weight="bold" lengthAdjust="spacingAndGlyphs" textLength="16" x="28" y="382.1748">alt</text><text fill="#000000" font-family="sans-serif" font-size="11" font-weight="bold" lengthAdjust="spacingAndGlyphs" textLength="153" x="89" y="381.0986">[MeltingCompletionFlag&gt;=2]</text><polygon fill="#A80036" points="269,409.3828,259,413.3828,269,417.3828,265,413.3828" style="stroke: #A80036; stroke-width: 1.0;"/><line style="stroke: #A80036; stroke-width: 1.0;" x1="263" x2="685" y1="413.3828" y2="413.3828"/><text fill="#000000" font-family="sans-serif" font-size="13" lengthAdjust="spacingAndGlyphs" textLength="100" x="275" y="408.5264">Restart telemetry</text><path d="M701,391.0313 L701,417.0313 L894,417.0313 L894,401.0313 L884,391.0313 L701,391.0313 " fill="#FBFB77" filter="url(#f7almjaj2miju)" style="stroke: #A80036; stroke-width: 1.0;"/><path d="M884,391.0313 L884,401.0313 L894,401.0313 L884,391.0313 " fill="#FBFB77" style="stroke: #A80036; stroke-width: 1.0;"/><text fill="#000000" font-family="sans-serif" font-size="13" lengthAdjust="spacingAndGlyphs" textLength="172" x="707" y="409.5264">already complete melting wire</text><polygon fill="#A80036" points="119,444.7344,109,448.7344,119,452.7344,115,448.7344" style="stroke: #A80036; stroke-width: 1.0;"/><line style="stroke: #A80036; stroke-width: 1.0;" x1="113" x2="257" y1="448.7344" y2="448.7344"/><text fill="#000000" font-family="sans-serif" font-size="13" lengthAdjust="spacingAndGlyphs" textLength="50" x="125" y="443.8779">downlink</text><polygon fill="#A80036" points="246,475.0859,256,479.0859,246,483.0859,250,479.0859" style="stroke: #A80036; stroke-width: 1.0;"/><line style="stroke: #A80036; stroke-width: 1.0; stroke-dasharray: 2.0,2.0;" x1="108" x2="252" y1="479.0859" y2="479.0859"/><text fill="#000000" font-family="sans-serif" font-size="13" lengthAdjust="spacingAndGlyphs" textLength="34" x="115" y="474.2295">uplink</text><polygon fill="#A80036" points="674,505.4375,684,509.4375,674,513.4375,678,509.4375" style="stroke: #A80036; stroke-width: 1.0;"/><line style="stroke: #A80036; stroke-width: 1.0; stroke-dasharray: 2.0,2.0;" x1="258" x2="680" y1="509.4375" y2="509.4375"/><text fill="#000000" font-family="sans-serif" font-size="13" lengthAdjust="spacingAndGlyphs" textLength="226" x="265" y="504.5811">command of starting Regular Operation</text><line style="stroke: #000000; stroke-width: 1.0; stroke-dasharray: 2.0,2.0;" x1="13" x2="1088.5" y1="518.4375" y2="518.4375"/><text fill="#000000" font-family="sans-serif" font-size="11" font-weight="bold" lengthAdjust="spacingAndGlyphs" textLength="153" x="18" y="529.8564">[MeltingCompletionFlag&lt;=1]</text><path d="M23,540.2734 L96,540.2734 L96,548.2734 L86,558.2734 L23,558.2734 L23,540.2734 " fill="#EEEEEE" style="stroke: #000000; stroke-width: 1.0;"/><rect fill="none" height="389.8906" style="stroke: #000000; stroke-width: 2.0;" width="1055.5" x="23" y="540.2734"/><text fill="#000000" font-family="sans-serif" font-size="13" font-weight="bold" lengthAdjust="spacingAndGlyphs" textLength="28" x="38" y="554.7686">loop</text><text fill="#000000" font-family="sans-serif" font-size="11" font-weight="bold" lengthAdjust="spacingAndGlyphs" textLength="116" x="111" y="553.6924">[repeat Melting Wire]</text><path d="M33,565.625 L99,565.625 L99,573.625 L89,583.625 L33,583.625 L33,565.625 " fill="#EEEEEE" style="stroke: #000000; stroke-width: 1.0;"/><rect fill="none" height="357.5391" style="stroke: #000000; stroke-width: 2.0;" width="1035.5" x="33" y="565.625"/><text fill="#000000" font-family="sans-serif" font-size="13" font-weight="bold" lengthAdjust="spacingAndGlyphs" textLength="21" x="48" y="580.1201">par</text><text fill="#000000" font-family="sans-serif" font-size="11" font-weight="bold" lengthAdjust="spacingAndGlyphs" textLength="77" x="114" y="579.0439">[loop melting]</text><path d="M657,590.9766 L718,590.9766 L718,598.9766 L708,608.9766 L657,608.9766 L657,590.9766 " fill="#EEEEEE" style="stroke: #000000; stroke-width: 1.0;"/><rect fill="none" height="155.5938" style="stroke: #000000; stroke-width: 2.0;" width="401.5" x="657" y="590.9766"/><text fill="#000000" font-family="sans-serif" font-size="13" font-weight="bold" lengthAdjust="spacingAndGlyphs" textLength="16" x="672" y="605.4717">alt</text><text fill="#000000" font-family="sans-serif" font-size="11" font-weight="bold" lengthAdjust="spacingAndGlyphs" textLength="215" x="733" y="604.3955">[Number of Melting Repetitions == TBD]</text><polygon fill="#A80036" points="1009,627.6797,1019,631.6797,1009,635.6797,1013,631.6797" style="stroke: #A80036; stroke-width: 1.0;"/><line style="stroke: #A80036; stroke-width: 1.0;" x1="696" x2="1015" y1="631.6797" y2="631.6797"/><text fill="#000000" font-family="sans-serif" font-size="13" lengthAdjust="spacingAndGlyphs" textLength="157" x="703" y="626.8232">change the melting system</text><polygon fill="#A80036" points="707,658.0313,697,662.0313,707,666.0313,703,662.0313" style="stroke: #A80036; stroke-width: 1.0;"/><line style="stroke: #A80036; stroke-width: 1.0; stroke-dasharray: 2.0,2.0;" x1="701" x2="1025" y1="662.0313" y2="662.0313"/><text fill="#000000" font-family="sans-serif" font-size="13" lengthAdjust="spacingAndGlyphs" textLength="21" x="713" y="657.1748">ack</text><polygon fill="#A80036" points="1014,688.3828,1024,692.3828,1014,696.3828,1018,692.3828" style="stroke: #A80036; stroke-width: 1.0;"/><line style="stroke: #A80036; stroke-width: 1.0;" x1="696" x2="1020" y1="692.3828" y2="692.3828"/><text fill="#000000" font-family="sans-serif" font-size="13" lengthAdjust="spacingAndGlyphs" textLength="169" x="703" y="687.5264">melting wire for TBD seconds</text><line style="stroke: #000000; stroke-width: 1.0; stroke-dasharray: 2.0,2.0;" x1="657" x2="1058.5" y1="701.3828" y2="701.3828"/><text fill="#000000" font-family="sans-serif" font-size="11" font-weight="bold" lengthAdjust="spacingAndGlyphs" textLength="209" x="662" y="712.8018">[Number of Melting Repetitions &lt; TBD]</text><polygon fill="#A80036" points="1014,734.5703,1024,738.5703,1014,742.5703,1018,738.5703" style="stroke: #A80036; stroke-width: 1.0;"/><line style="stroke: #A80036; stroke-width: 1.0;" x1="696" x2="1020" y1="738.5703" y2="738.5703"/><text fill="#000000" font-family="sans-serif" font-size="13" lengthAdjust="spacingAndGlyphs" textLength="169" x="703" y="733.7139">melting wire for TBD seconds</text><line style="stroke: #000000; stroke-width: 1.0; stroke-dasharray: 2.0,2.0;" x1="33" x2="1068.5" y1="754.5703" y2="754.5703"/><text fill="#000000" font-family="sans-serif" font-size="11" font-weight="bold" lengthAdjust="spacingAndGlyphs" textLength="202" x="38" y="765.9893">[downlink CW and wait for receiving]</text><polygon fill="#A80036" points="269,787.7578,259,791.7578,269,795.7578,265,791.7578" style="stroke: #A80036; stroke-width: 1.0;"/><line style="stroke: #A80036; stroke-width: 1.0;" x1="263" x2="685" y1="791.7578" y2="791.7578"/><text fill="#000000" font-family="sans-serif" font-size="13" lengthAdjust="spacingAndGlyphs" textLength="404" x="275" y="786.9014">accept uplink，CW(HK,Number of Melting Repetitions,...etc)down link</text><polygon fill="#A80036" points="119,818.1094,109,822.1094,119,826.1094,115,822.1094" style="stroke: #A80036; stroke-width: 1.0;"/><line style="stroke: #A80036; stroke-width: 1.0;" x1="113" x2="257" y1="822.1094" y2="822.1094"/><text fill="#000000" font-family="sans-serif" font-size="13" lengthAdjust="spacingAndGlyphs" textLength="52" x="125" y="817.2529">Downlink</text><path d="M43,837.1094 L108,837.1094 L108,845.1094 L98,855.1094 L43,855.1094 L43,837.1094 " fill="#EEEEEE" style="stroke: #000000; stroke-width: 1.0;"/><rect fill="none" height="79.0547" style="stroke: #000000; stroke-width: 2.0;" width="682" x="43" y="837.1094"/><text fill="#000000" font-family="sans-serif" font-size="13" font-weight="bold" lengthAdjust="spacingAndGlyphs" textLength="20" x="58" y="851.6045">opt</text><text fill="#000000" font-family="sans-serif" font-size="11" font-weight="bold" lengthAdjust="spacingAndGlyphs" textLength="72" x="123" y="850.5283">[Receive CW]</text><polygon fill="#A80036" points="246,873.8125,256,877.8125,246,881.8125,250,877.8125" style="stroke: #A80036; stroke-width: 1.0;"/><line style="stroke: #A80036; stroke-width: 1.0; stroke-dasharray: 2.0,2.0;" x1="108" x2="252" y1="877.8125" y2="877.8125"/><text fill="#000000" font-family="sans-serif" font-size="13" lengthAdjust="spacingAndGlyphs" textLength="34" x="115" y="872.9561">uplink</text><polygon fill="#A80036" points="674,904.1641,684,908.1641,674,912.1641,678,908.1641" style="stroke: #A80036; stroke-width: 1.0;"/><line style="stroke: #A80036; stroke-width: 1.0; stroke-dasharray: 2.0,2.0;" x1="258" x2="680" y1="908.1641" y2="908.1641"/><text fill="#000000" font-family="sans-serif" font-size="13" lengthAdjust="spacingAndGlyphs" textLength="216" x="265" y="903.3076">command of interrupting Melting Wire</text><polygon fill="#A80036" points="330.5,967.5156,320.5,971.5156,330.5,975.5156,326.5,971.5156" style="stroke: #A80036; stroke-width: 1.0;"/><line style="stroke: #A80036; stroke-width: 1.0;" x1="324.5" x2="685" y1="971.5156" y2="971.5156"/><text fill="#000000" font-family="sans-serif" font-size="13" lengthAdjust="spacingAndGlyphs" textLength="185" x="336.5" y="966.6592">write the MeltingCompletionFlag</text><path d="M701,949.1641 L701,975.1641 L1053,975.1641 L1053,959.1641 L1043,949.1641 L701,949.1641 " fill="#FBFB77" filter="url(#f7almjaj2miju)" style="stroke: #A80036; stroke-width: 1.0;"/><path d="M1043,949.1641 L1043,959.1641 L1053,959.1641 L1043,949.1641 " fill="#FBFB77" style="stroke: #A80036; stroke-width: 1.0;"/><text fill="#000000" font-family="sans-serif" font-size="13" lengthAdjust="spacingAndGlyphs" textLength="331" x="707" y="967.6592">Receive the command of interrupting Melting Wire (break)</text><rect fill="#EEEEEE" filter="url(#f7almjaj2miju)" height="3" style="stroke: #EEEEEE; stroke-width: 1.0;" width="1100.5" x="3" y="1005.6914"/><line style="stroke: #000000; stroke-width: 1.0;" x1="3" x2="1103.5" y1="1005.6914" y2="1005.6914"/><line style="stroke: #000000; stroke-width: 1.0;" x1="3" x2="1103.5" y1="1008.6914" y2="1008.6914"/><rect fill="#EEEEEE" filter="url(#f7almjaj2miju)" height="24.3516" style="stroke: #000000; stroke-width: 2.0;" width="180" x="463.25" y="994.5156"/><text fill="#000000" font-family="sans-serif" font-size="13" font-weight="bold" lengthAdjust="spacingAndGlyphs" textLength="162" x="469.25" y="1012.0107">check FM communication</text><polygon fill="#A80036" points="246,1047.2188,256,1051.2188,246,1055.2188,250,1051.2188" style="stroke: #A80036; stroke-width: 1.0;"/><line style="stroke: #A80036; stroke-width: 1.0;" x1="108" x2="252" y1="1051.2188" y2="1051.2188"/><text fill="#000000" font-family="sans-serif" font-size="13" lengthAdjust="spacingAndGlyphs" textLength="34" x="115" y="1046.3623">uplink</text><polygon fill="#A80036" points="674,1077.5703,684,1081.5703,674,1085.5703,678,1081.5703" style="stroke: #A80036; stroke-width: 1.0;"/><line style="stroke: #A80036; stroke-width: 1.0;" x1="258" x2="680" y1="1081.5703" y2="1081.5703"/><text fill="#000000" font-family="sans-serif" font-size="13" lengthAdjust="spacingAndGlyphs" textLength="102" x="265" y="1076.7139">FM HK command</text><polygon fill="#A80036" points="269,1107.9219,259,1111.9219,269,1115.9219,265,1111.9219" style="stroke: #A80036; stroke-width: 1.0;"/><line style="stroke: #A80036; stroke-width: 1.0; stroke-dasharray: 2.0,2.0;" x1="263" x2="685" y1="1111.9219" y2="1111.9219"/><text fill="#000000" font-family="sans-serif" font-size="13" lengthAdjust="spacingAndGlyphs" textLength="73" x="275" y="1107.0654">send FM HK</text><polygon fill="#A80036" points="119,1138.2734,109,1142.2734,119,1146.2734,115,1142.2734" style="stroke: #A80036; stroke-width: 1.0;"/><line style="stroke: #A80036; stroke-width: 1.0; stroke-dasharray: 2.0,2.0;" x1="113" x2="257" y1="1142.2734" y2="1142.2734"/><text fill="#000000" font-family="sans-serif" font-size="13" lengthAdjust="spacingAndGlyphs" textLength="50" x="125" y="1137.417">downlink</text><rect fill="#EEEEEE" filter="url(#f7almjaj2miju)" height="3" style="stroke: #EEEEEE; stroke-width: 1.0;" width="1100.5" x="3" y="1171.4492"/><line style="stroke: #000000; stroke-width: 1.0;" x1="3" x2="1103.5" y1="1171.4492" y2="1171.4492"/><line style="stroke: #000000; stroke-width: 1.0;" x1="3" x2="1103.5" y1="1174.4492" y2="1174.4492"/><rect fill="#EEEEEE" filter="url(#f7almjaj2miju)" height="24.3516" style="stroke: #000000; stroke-width: 2.0;" width="194" x="456.25" y="1160.2734"/><text fill="#000000" font-family="sans-serif" font-size="13" font-weight="bold" lengthAdjust="spacingAndGlyphs" textLength="176" x="462.25" y="1177.7686">check 5R8G communication</text><polygon fill="#A80036" points="246,1212.9766,256,1216.9766,246,1220.9766,250,1216.9766" style="stroke: #A80036; stroke-width: 1.0;"/><line style="stroke: #A80036; stroke-width: 1.0;" x1="108" x2="252" y1="1216.9766" y2="1216.9766"/><text fill="#000000" font-family="sans-serif" font-size="13" lengthAdjust="spacingAndGlyphs" textLength="34" x="115" y="1212.1201">uplink</text><polygon fill="#A80036" points="674,1243.3281,684,1247.3281,674,1251.3281,678,1247.3281" style="stroke: #A80036; stroke-width: 1.0;"/><line style="stroke: #A80036; stroke-width: 1.0;" x1="258" x2="680" y1="1247.3281" y2="1247.3281"/><text fill="#000000" font-family="sans-serif" font-size="13" lengthAdjust="spacingAndGlyphs" textLength="199" x="265" y="1242.4717">command of sending Mock picture</text><polygon fill="#A80036" points="211.5,1273.6797,201.5,1277.6797,211.5,1281.6797,207.5,1277.6797" style="stroke: #A80036; stroke-width: 1.0;"/><line style="stroke: #A80036; stroke-width: 1.0; stroke-dasharray: 2.0,2.0;" x1="205.5" x2="685" y1="1277.6797" y2="1277.6797"/><text fill="#000000" font-family="sans-serif" font-size="13" lengthAdjust="spacingAndGlyphs" textLength="107" x="217.5" y="1272.8232">send Mock picture</text><polygon fill="#A80036" points="119,1304.0313,109,1308.0313,119,1312.0313,115,1308.0313" style="stroke: #A80036; stroke-width: 1.0;"/><line style="stroke: #A80036; stroke-width: 1.0; stroke-dasharray: 2.0,2.0;" x1="113" x2="199.5" y1="1308.0313" y2="1308.0313"/><text fill="#000000" font-family="sans-serif" font-size="13" lengthAdjust="spacingAndGlyphs" textLength="48" x="125" y="1303.1748">dounlink</text><rect fill="#EEEEEE" filter="url(#f7almjaj2miju)" height="3" style="stroke: #EEEEEE; stroke-width: 1.0;" width="1100.5" x="3" y="1337.207"/><line style="stroke: #000000; stroke-width: 1.0;" x1="3" x2="1103.5" y1="1337.207" y2="1337.207"/><line style="stroke: #000000; stroke-width: 1.0;" x1="3" x2="1103.5" y1="1340.207" y2="1340.207"/><rect fill="#EEEEEE" filter="url(#f7almjaj2miju)" height="24.3516" style="stroke: #000000; stroke-width: 2.0;" width="312" x="397.25" y="1326.0313"/><text fill="#000000" font-family="sans-serif" font-size="13" font-weight="bold" lengthAdjust="spacingAndGlyphs" textLength="294" x="403.25" y="1343.5264">check the part of Camera for extension startup</text><polygon fill="#A80036" points="246,1378.7344,256,1382.7344,246,1386.7344,250,1382.7344" style="stroke: #A80036; stroke-width: 1.0;"/><line style="stroke: #A80036; stroke-width: 1.0;" x1="108" x2="252" y1="1382.7344" y2="1382.7344"/><text fill="#000000" font-family="sans-serif" font-size="13" lengthAdjust="spacingAndGlyphs" textLength="34" x="115" y="1377.8779">uplink</text><polygon fill="#A80036" points="674,1409.0859,684,1413.0859,674,1417.0859,678,1413.0859" style="stroke: #A80036; stroke-width: 1.0;"/><line style="stroke: #A80036; stroke-width: 1.0;" x1="258" x2="680" y1="1413.0859" y2="1413.0859"/><text fill="#000000" font-family="sans-serif" font-size="13" lengthAdjust="spacingAndGlyphs" textLength="256" x="265" y="1408.2295">command of checking Camera for Extension</text><polygon fill="#A80036" points="1061.5,1439.4375,1071.5,1443.4375,1061.5,1447.4375,1065.5,1443.4375" style="stroke: #A80036; stroke-width: 1.0;"/><line style="stroke: #A80036; stroke-width: 1.0;" x1="696" x2="1067.5" y1="1443.4375" y2="1443.4375"/><text fill="#000000" font-family="sans-serif" font-size="13" lengthAdjust="spacingAndGlyphs" textLength="79" x="703" y="1438.5811">send RPI_ON</text><polygon fill="#A80036" points="707,1469.7891,697,1473.7891,707,1477.7891,703,1473.7891" style="stroke: #A80036; stroke-width: 1.0;"/><line style="stroke: #A80036; stroke-width: 1.0; stroke-dasharray: 2.0,2.0;" x1="701" x2="1072.5" y1="1473.7891" y2="1473.7891"/><text fill="#000000" font-family="sans-serif" font-size="13" lengthAdjust="spacingAndGlyphs" textLength="21" x="713" y="1468.9326">ack</text><polygon fill="#A80036" points="1061.5,1500.1406,1071.5,1504.1406,1061.5,1508.1406,1065.5,1504.1406" style="stroke: #A80036; stroke-width: 1.0;"/><line style="stroke: #A80036; stroke-width: 1.0;" x1="696" x2="1067.5" y1="1504.1406" y2="1504.1406"/><text fill="#000000" font-family="sans-serif" font-size="13" lengthAdjust="spacingAndGlyphs" textLength="79" x="703" y="1499.2842">HK command</text><polygon fill="#A80036" points="707,1530.4922,697,1534.4922,707,1538.4922,703,1534.4922" style="stroke: #A80036; stroke-width: 1.0;"/><line style="stroke: #A80036; stroke-width: 1.0; stroke-dasharray: 2.0,2.0;" x1="701" x2="1072.5" y1="1534.4922" y2="1534.4922"/><text fill="#000000" font-family="sans-serif" font-size="13" lengthAdjust="spacingAndGlyphs" textLength="50" x="713" y="1529.6357">send HK</text><polygon fill="#A80036" points="1061.5,1560.8438,1071.5,1564.8438,1061.5,1568.8438,1065.5,1564.8438" style="stroke: #A80036; stroke-width: 1.0;"/><line style="stroke: #A80036; stroke-width: 1.0;" x1="696" x2="1067.5" y1="1564.8438" y2="1564.8438"/><text fill="#000000" font-family="sans-serif" font-size="13" lengthAdjust="spacingAndGlyphs" textLength="160" x="703" y="1559.9873">command of taking pictures</text><polygon fill="#A80036" points="707,1591.1953,697,1595.1953,707,1599.1953,703,1595.1953" style="stroke: #A80036; stroke-width: 1.0;"/><line style="stroke: #A80036; stroke-width: 1.0; stroke-dasharray: 2.0,2.0;" x1="701" x2="1072.5" y1="1595.1953" y2="1595.1953"/><text fill="#000000" font-family="sans-serif" font-size="13" lengthAdjust="spacingAndGlyphs" textLength="78" x="713" y="1590.3389">send pictures</text><polygon fill="#A80036" points="1066.5,1621.5469,1076.5,1625.5469,1066.5,1629.5469,1070.5,1625.5469" style="stroke: #A80036; stroke-width: 1.0;"/><line style="stroke: #A80036; stroke-width: 1.0;" x1="696" x2="1072.5" y1="1625.5469" y2="1625.5469"/><text fill="#000000" font-family="sans-serif" font-size="13" lengthAdjust="spacingAndGlyphs" textLength="86" x="703" y="1620.6904">send RPI_OFF</text><polygon fill="#A80036" points="269,1651.8984,259,1655.8984,269,1659.8984,265,1655.8984" style="stroke: #A80036; stroke-width: 1.0;"/><line style="stroke: #A80036; stroke-width: 1.0; stroke-dasharray: 2.0,2.0;" x1="263" x2="685" y1="1655.8984" y2="1655.8984"/><text fill="#000000" font-family="sans-serif" font-size="13" lengthAdjust="spacingAndGlyphs" textLength="253" x="275" y="1651.042">send HK of the part of Camera for extension</text><polygon fill="#A80036" points="119,1682.25,109,1686.25,119,1690.25,115,1686.25" style="stroke: #A80036; stroke-width: 1.0;"/><line style="stroke: #A80036; stroke-width: 1.0; stroke-dasharray: 2.0,2.0;" x1="113" x2="257" y1="1686.25" y2="1686.25"/><text fill="#000000" font-family="sans-serif" font-size="13" lengthAdjust="spacingAndGlyphs" textLength="50" x="125" y="1681.3936">downlink</text><polygon fill="#A80036" points="211.5,1712.6016,201.5,1716.6016,211.5,1720.6016,207.5,1716.6016" style="stroke: #A80036; stroke-width: 1.0;"/><line style="stroke: #A80036; stroke-width: 1.0; stroke-dasharray: 2.0,2.0;" x1="205.5" x2="685" y1="1716.6016" y2="1716.6016"/><text fill="#000000" font-family="sans-serif" font-size="13" lengthAdjust="spacingAndGlyphs" textLength="78" x="217.5" y="1711.7451">send pictures</text><polygon fill="#A80036" points="119,1742.9531,109,1746.9531,119,1750.9531,115,1746.9531" style="stroke: #A80036; stroke-width: 1.0;"/><line style="stroke: #A80036; stroke-width: 1.0; stroke-dasharray: 2.0,2.0;" x1="113" x2="199.5" y1="1746.9531" y2="1746.9531"/><text fill="#000000" font-family="sans-serif" font-size="13" lengthAdjust="spacingAndGlyphs" textLength="50" x="125" y="1742.0967">downlink</text><rect fill="#EEEEEE" filter="url(#f7almjaj2miju)" height="3" style="stroke: #EEEEEE; stroke-width: 1.0;" width="1100.5" x="3" y="1776.1289"/><line style="stroke: #000000; stroke-width: 1.0;" x1="3" x2="1103.5" y1="1776.1289" y2="1776.1289"/><line style="stroke: #000000; stroke-width: 1.0;" x1="3" x2="1103.5" y1="1779.1289" y2="1779.1289"/><rect fill="#EEEEEE" filter="url(#f7almjaj2miju)" height="24.3516" style="stroke: #000000; stroke-width: 2.0;" width="258" x="424.25" y="1764.9531"/><text fill="#000000" font-family="sans-serif" font-size="13" font-weight="bold" lengthAdjust="spacingAndGlyphs" textLength="240" x="430.25" y="1782.4482">check the part of Side Camera startup</text><polygon fill="#A80036" points="246,1817.6563,256,1821.6563,246,1825.6563,250,1821.6563" style="stroke: #A80036; stroke-width: 1.0;"/><line style="stroke: #A80036; stroke-width: 1.0;" x1="108" x2="252" y1="1821.6563" y2="1821.6563"/><text fill="#000000" font-family="sans-serif" font-size="13" lengthAdjust="spacingAndGlyphs" textLength="34" x="115" y="1816.7998">uplink</text><polygon fill="#A80036" points="674,1848.0078,684,1852.0078,674,1856.0078,678,1852.0078" style="stroke: #A80036; stroke-width: 1.0;"/><line style="stroke: #A80036; stroke-width: 1.0;" x1="258" x2="680" y1="1852.0078" y2="1852.0078"/><text fill="#000000" font-family="sans-serif" font-size="13" lengthAdjust="spacingAndGlyphs" textLength="206" x="265" y="1847.1514">command of checking Side Camera</text><polygon fill="#A80036" points="1061.5,1878.3594,1071.5,1882.3594,1061.5,1886.3594,1065.5,1882.3594" style="stroke: #A80036; stroke-width: 1.0;"/><line style="stroke: #A80036; stroke-width: 1.0;" x1="696" x2="1067.5" y1="1882.3594" y2="1882.3594"/><text fill="#000000" font-family="sans-serif" font-size="13" lengthAdjust="spacingAndGlyphs" textLength="79" x="703" y="1877.5029">send RPI_ON</text><polygon fill="#A80036" points="707,1908.7109,697,1912.7109,707,1916.7109,703,1912.7109" style="stroke: #A80036; stroke-width: 1.0;"/><line style="stroke: #A80036; stroke-width: 1.0; stroke-dasharray: 2.0,2.0;" x1="701" x2="1072.5" y1="1912.7109" y2="1912.7109"/><text fill="#000000" font-family="sans-serif" font-size="13" lengthAdjust="spacingAndGlyphs" textLength="21" x="713" y="1907.8545">ack</text><polygon fill="#A80036" points="1061.5,1939.0625,1071.5,1943.0625,1061.5,1947.0625,1065.5,1943.0625" style="stroke: #A80036; stroke-width: 1.0;"/><line style="stroke: #A80036; stroke-width: 1.0;" x1="696" x2="1067.5" y1="1943.0625" y2="1943.0625"/><text fill="#000000" font-family="sans-serif" font-size="13" lengthAdjust="spacingAndGlyphs" textLength="79" x="703" y="1938.2061">HK command</text><polygon fill="#A80036" points="707,1969.4141,697,1973.4141,707,1977.4141,703,1973.4141" style="stroke: #A80036; stroke-width: 1.0;"/><line style="stroke: #A80036; stroke-width: 1.0; stroke-dasharray: 2.0,2.0;" x1="701" x2="1072.5" y1="1973.4141" y2="1973.4141"/><text fill="#000000" font-family="sans-serif" font-size="13" lengthAdjust="spacingAndGlyphs" textLength="50" x="713" y="1968.5576">send HK</text><polygon fill="#A80036" points="1061.5,1999.7656,1071.5,2003.7656,1061.5,2007.7656,1065.5,2003.7656" style="stroke: #A80036; stroke-width: 1.0;"/><line style="stroke: #A80036; stroke-width: 1.0;" x1="696" x2="1067.5" y1="2003.7656" y2="2003.7656"/><text fill="#000000" font-family="sans-serif" font-size="13" lengthAdjust="spacingAndGlyphs" textLength="160" x="703" y="1998.9092">command of taking pictures</text><polygon fill="#A80036" points="707,2030.1172,697,2034.1172,707,2038.1172,703,2034.1172" style="stroke: #A80036; stroke-width: 1.0;"/><line style="stroke: #A80036; stroke-width: 1.0; stroke-dasharray: 2.0,2.0;" x1="701" x2="1072.5" y1="2034.1172" y2="2034.1172"/><text fill="#000000" font-family="sans-serif" font-size="13" lengthAdjust="spacingAndGlyphs" textLength="78" x="713" y="2029.2607">send pictures</text><polygon fill="#A80036" points="1066.5,2060.4688,1076.5,2064.4688,1066.5,2068.4688,1070.5,2064.4688" style="stroke: #A80036; stroke-width: 1.0;"/><line style="stroke: #A80036; stroke-width: 1.0;" x1="696" x2="1072.5" y1="2064.4688" y2="2064.4688"/><text fill="#000000" font-family="sans-serif" font-size="13" lengthAdjust="spacingAndGlyphs" textLength="86" x="703" y="2059.6123">send RPI_OFF</text><polygon fill="#A80036" points="269,2090.8203,259,2094.8203,269,2098.8203,265,2094.8203" style="stroke: #A80036; stroke-width: 1.0;"/><line style="stroke: #A80036; stroke-width: 1.0; stroke-dasharray: 2.0,2.0;" x1="263" x2="685" y1="2094.8203" y2="2094.8203"/><text fill="#000000" font-family="sans-serif" font-size="13" lengthAdjust="spacingAndGlyphs" textLength="205" x="275" y="2089.9639">send HK of the part of Side Camera</text><polygon fill="#A80036" points="119,2121.1719,109,2125.1719,119,2129.1719,115,2125.1719" style="stroke: #A80036; stroke-width: 1.0;"/><line style="stroke: #A80036; stroke-width: 1.0; stroke-dasharray: 2.0,2.0;" x1="113" x2="257" y1="2125.1719" y2="2125.1719"/><text fill="#000000" font-family="sans-serif" font-size="13" lengthAdjust="spacingAndGlyphs" textLength="50" x="125" y="2120.3154">downlink</text><polygon fill="#A80036" points="211.5,2151.5234,201.5,2155.5234,211.5,2159.5234,207.5,2155.5234" style="stroke: #A80036; stroke-width: 1.0;"/><line style="stroke: #A80036; stroke-width: 1.0; stroke-dasharray: 2.0,2.0;" x1="205.5" x2="685" y1="2155.5234" y2="2155.5234"/><text fill="#000000" font-family="sans-serif" font-size="13" lengthAdjust="spacingAndGlyphs" textLength="78" x="217.5" y="2150.667">send pictures</text><polygon fill="#A80036" points="119,2181.875,109,2185.875,119,2189.875,115,2185.875" style="stroke: #A80036; stroke-width: 1.0;"/><line style="stroke: #A80036; stroke-width: 1.0; stroke-dasharray: 2.0,2.0;" x1="113" x2="199.5" y1="2185.875" y2="2185.875"/><text fill="#000000" font-family="sans-serif" font-size="13" lengthAdjust="spacingAndGlyphs" textLength="50" x="125" y="2181.0186">downlink</text><!--
@startuml
title Initial Operation
participant GroundStation
participant 5R8G
participant CIB
database EEPLOM
participant OBC
participant EPS
participant RPI


activate OBC

OBC -> EEPLOM: load EEPROM
activate EEPLOM
EEPLOM - -> OBC: send EEPROM data
deactivate EEPLOM
OBC -> OBC: Initialize OBC(HK,transceiver_ON？)
OBC -> EPS: Initialize EPS(Check the Battery Voltage)
activate EPS
EPS - -> OBC: send EPS Voltage data 
deactivate EPS
OBC ->OBC: check Satellite Operation mode(depend on EEPROM)

== start checking whether antennae are developed or not ==

alt MeltingCompletionFlag>=2
OBC -> CIB: Restart telemetry
note right: already complete melting wire
CIB -> GroundStation: downlink
GroundStation - -> CIB: uplink
CIB - -> OBC: command of starting Regular Operation
else MeltingCompletionFlag<=1
loop repeat Melting Wire
par loop melting
alt Number of Melting Repetitions == TBD
OBC -> EPS: change the melting system 
activate EPS
EPS - -> OBC: ack 
deactivate EPS
OBC -> EPS: melting wire for TBD seconds
else Number of Melting Repetitions < TBD
OBC -> EPS: melting wire for TBD seconds
end
else downlink CW and wait for receiving
OBC -> CIB: accept uplink，CW(HK,Number of Melting Repetitions,...etc)down link 
CIB -> GroundStation: Downlink
opt Receive CW
GroundStation - -> CIB: uplink
CIB - -> OBC:  command of interrupting Melting Wire
end
end
end
end

OBC -> EEPLOM: write the MeltingCompletionFlag 
note right: Receive the command of interrupting Melting Wire (break)

== check FM communication ==

GroundStation -> CIB: uplink
CIB -> OBC : FM HK command 
OBC - -> CIB: send FM HK
CIB - -> GroundStation: downlink

== check 5R8G communication ==

GroundStation -> CIB: uplink
CIB -> OBC: command of sending Mock picture
OBC - -> 5R8G: send Mock picture
5R8G - -> GroundStation: dounlink

== check the part of Camera for extension startup ==

GroundStation -> CIB: uplink
CIB -> OBC: command of checking Camera for Extension 
OBC -> RPI: send RPI_ON
activate RPI
RPI - -> OBC: ack 
OBC -> RPI: HK command 
RPI - -> OBC: send HK 
OBC -> RPI: command of taking pictures 
RPI - -> OBC: send pictures 
OBC -> RPI: send RPI_OFF 
deactivate RPI

OBC - -> CIB: send HK of the part of Camera for extension 
CIB - -> GroundStation: downlink
OBC - -> 5R8G: send pictures
5R8G - -> GroundStation: downlink 

== check the part of Side Camera startup ==

GroundStation -> CIB: uplink
CIB -> OBC: command of checking Side Camera 
OBC -> RPI: send RPI_ON 
activate RPI
RPI - -> OBC: ack 
OBC -> RPI: HK command 
RPI - -> OBC: send HK 
OBC -> RPI: command of taking pictures 
RPI - -> OBC: send pictures 
OBC -> RPI: send RPI_OFF 
deactivate RPI

OBC - -> CIB: send HK of the part of Side Camera 
CIB - -> GroundStation: downlink
OBC - -> 5R8G: send pictures
5R8G - -> GroundStation:downlink 

@enduml

PlantUML version 1.2018.03(Fri Apr 06 01:59:15 JST 2018)
(GPL source distribution)
Java Runtime: Java(TM) SE Runtime Environment
JVM: Java HotSpot(TM) Client VM
Java Version: 1.8.0_171-b11
Operating System: Windows 10
OS Version: 10.0
Default Encoding: MS932
Language: ja
Country: JP
--></g></svg>