<?xml version="1.0" encoding="UTF-8" standalone="no"?><svg xmlns="http://www.w3.org/2000/svg" xmlns:xlink="http://www.w3.org/1999/xlink" contentScriptType="application/ecmascript" contentStyleType="text/css" height="1709px" preserveAspectRatio="none" style="width:1175px;height:1709px;" version="1.1" viewBox="0 0 1175 1709" width="1175px" zoomAndPan="magnify"><defs><filter height="300%" id="fad0cjvqc7wtf" width="300%" x="-1" y="-1"><feGaussianBlur result="blurOut" stdDeviation="2.0"/><feColorMatrix in="blurOut" result="blurOut2" type="matrix" values="0 0 0 0 0 0 0 0 0 0 0 0 0 0 0 0 0 0 .4 0"/><feOffset dx="4.0" dy="4.0" in="blurOut2" result="blurOut3"/><feBlend in="SourceGraphic" in2="blurOut3" mode="normal"/></filter></defs><g><text fill="#000000" font-family="sans-serif" font-size="14" font-weight="bold" lengthAdjust="spacingAndGlyphs" textLength="112" x="527.25" y="24.5332">Initial Operation</text><rect fill="#FFFFFF" filter="url(#fad0cjvqc7wtf)" height="1577.1953" style="stroke: #A80036; stroke-width: 1.0;" width="10" x="574" y="81.2188"/><rect fill="#FFFFFF" filter="url(#fad0cjvqc7wtf)" height="30.3516" style="stroke: #A80036; stroke-width: 1.0;" width="10" x="909" y="103.5703"/><rect fill="#FFFFFF" filter="url(#fad0cjvqc7wtf)" height="30.3516" style="stroke: #A80036; stroke-width: 1.0;" width="10" x="1081" y="207.625"/><rect fill="#FFFFFF" filter="url(#fad0cjvqc7wtf)" height="30.3516" style="stroke: #A80036; stroke-width: 1.0;" width="10" x="1081" y="543.9766"/><rect fill="#FFFFFF" filter="url(#fad0cjvqc7wtf)" height="182.1094" style="stroke: #A80036; stroke-width: 1.0;" width="10" x="1133.5" y="1093.0859"/><rect fill="#FFFFFF" filter="url(#fad0cjvqc7wtf)" height="182.1094" style="stroke: #A80036; stroke-width: 1.0;" width="10" x="1133.5" y="1406.6016"/><rect fill="#FFFFFF" filter="url(#fad0cjvqc7wtf)" height="496.9453" style="stroke: #000000; stroke-width: 2.0;" width="1135.5" x="13" y="340.6797"/><rect fill="#FFFFFF" height="407.8906" style="stroke: none; stroke-width: 1.0;" width="1135.5" x="13" y="429.7344"/><rect fill="#FFFFFF" filter="url(#fad0cjvqc7wtf)" height="378.0547" style="stroke: #000000; stroke-width: 2.0;" width="1115.5" x="23" y="452.5703"/><rect fill="#FFFFFF" filter="url(#fad0cjvqc7wtf)" height="283" style="stroke: #000000; stroke-width: 2.0;" width="1095.5" x="33" y="477.9219"/><rect fill="#FFFFFF" filter="url(#fad0cjvqc7wtf)" height="155.5938" style="stroke: #000000; stroke-width: 2.0;" width="597.5" x="521" y="503.2734"/><rect fill="#FFFFFF" height="46.1875" style="stroke: none; stroke-width: 1.0;" width="597.5" x="521" y="612.6797"/><rect fill="#FFFFFF" height="95.0547" style="stroke: none; stroke-width: 1.0;" width="1095.5" x="33" y="665.8672"/><rect fill="#FFFFFF" filter="url(#fad0cjvqc7wtf)" height="48.7031" style="stroke: #000000; stroke-width: 2.0;" width="594" x="43" y="705.2188"/><rect fill="#FFFFFF" filter="url(#fad0cjvqc7wtf)" height="48.7031" style="stroke: #000000; stroke-width: 2.0;" width="440.5" x="521" y="774.9219"/><line style="stroke: #A80036; stroke-width: 1.0; stroke-dasharray: 5.0,5.0;" x1="108" x2="108" y1="71.2188" y2="1667.4141"/><line style="stroke: #A80036; stroke-width: 1.0; stroke-dasharray: 5.0,5.0;" x1="579" x2="579" y1="71.2188" y2="1667.4141"/><line style="stroke: #A80036; stroke-width: 1.0; stroke-dasharray: 5.0,5.0;" x1="913.5" x2="913.5" y1="71.2188" y2="1667.4141"/><line style="stroke: #A80036; stroke-width: 1.0; stroke-dasharray: 5.0,5.0;" x1="1007.5" x2="1007.5" y1="71.2188" y2="1667.4141"/><line style="stroke: #A80036; stroke-width: 1.0; stroke-dasharray: 5.0,5.0;" x1="1085.5" x2="1085.5" y1="71.2188" y2="1667.4141"/><line style="stroke: #A80036; stroke-width: 1.0; stroke-dasharray: 5.0,5.0;" x1="1138.5" x2="1138.5" y1="71.2188" y2="1667.4141"/><rect fill="#FEFECE" filter="url(#fad0cjvqc7wtf)" height="31.6094" style="stroke: #A80036; stroke-width: 1.5;" width="106" x="53" y="34.6094"/><text fill="#000000" font-family="sans-serif" font-size="14" lengthAdjust="spacingAndGlyphs" textLength="92" x="60" y="56.1426">GroundStation</text><rect fill="#FEFECE" filter="url(#fad0cjvqc7wtf)" height="31.6094" style="stroke: #A80036; stroke-width: 1.5;" width="106" x="53" y="1666.4141"/><text fill="#000000" font-family="sans-serif" font-size="14" lengthAdjust="spacingAndGlyphs" textLength="92" x="60" y="1687.9473">GroundStation</text><rect fill="#FEFECE" filter="url(#fad0cjvqc7wtf)" height="31.6094" style="stroke: #A80036; stroke-width: 1.5;" width="92" x="531" y="34.6094"/><text fill="#000000" font-family="sans-serif" font-size="14" lengthAdjust="spacingAndGlyphs" textLength="78" x="538" y="56.1426">COBC_OBC</text><rect fill="#FEFECE" filter="url(#fad0cjvqc7wtf)" height="31.6094" style="stroke: #A80036; stroke-width: 1.5;" width="92" x="531" y="1666.4141"/><text fill="#000000" font-family="sans-serif" font-size="14" lengthAdjust="spacingAndGlyphs" textLength="78" x="538" y="1687.9473">COBC_OBC</text><rect fill="#FEFECE" filter="url(#fad0cjvqc7wtf)" height="31.6094" style="stroke: #A80036; stroke-width: 1.5;" width="71" x="876.5" y="34.6094"/><text fill="#000000" font-family="sans-serif" font-size="14" lengthAdjust="spacingAndGlyphs" textLength="57" x="883.5" y="56.1426">EEPLOM</text><rect fill="#FEFECE" filter="url(#fad0cjvqc7wtf)" height="31.6094" style="stroke: #A80036; stroke-width: 1.5;" width="71" x="876.5" y="1666.4141"/><text fill="#000000" font-family="sans-serif" font-size="14" lengthAdjust="spacingAndGlyphs" textLength="57" x="883.5" y="1687.9473">EEPLOM</text><rect fill="#FEFECE" filter="url(#fad0cjvqc7wtf)" height="31.6094" style="stroke: #A80036; stroke-width: 1.5;" width="88" x="961.5" y="34.6094"/><text fill="#000000" font-family="sans-serif" font-size="14" lengthAdjust="spacingAndGlyphs" textLength="74" x="968.5" y="56.1426">MeltingWire</text><rect fill="#FEFECE" filter="url(#fad0cjvqc7wtf)" height="31.6094" style="stroke: #A80036; stroke-width: 1.5;" width="88" x="961.5" y="1666.4141"/><text fill="#000000" font-family="sans-serif" font-size="14" lengthAdjust="spacingAndGlyphs" textLength="74" x="968.5" y="1687.9473">MeltingWire</text><rect fill="#FEFECE" filter="url(#fad0cjvqc7wtf)" height="31.6094" style="stroke: #A80036; stroke-width: 1.5;" width="41" x="1063.5" y="34.6094"/><text fill="#000000" font-family="sans-serif" font-size="14" lengthAdjust="spacingAndGlyphs" textLength="27" x="1070.5" y="56.1426">EPS</text><rect fill="#FEFECE" filter="url(#fad0cjvqc7wtf)" height="31.6094" style="stroke: #A80036; stroke-width: 1.5;" width="41" x="1063.5" y="1666.4141"/><text fill="#000000" font-family="sans-serif" font-size="14" lengthAdjust="spacingAndGlyphs" textLength="27" x="1070.5" y="1687.9473">EPS</text><rect fill="#FEFECE" filter="url(#fad0cjvqc7wtf)" height="31.6094" style="stroke: #A80036; stroke-width: 1.5;" width="36" x="1118.5" y="34.6094"/><text fill="#000000" font-family="sans-serif" font-size="14" lengthAdjust="spacingAndGlyphs" textLength="22" x="1125.5" y="56.1426">RPI</text><rect fill="#FEFECE" filter="url(#fad0cjvqc7wtf)" height="31.6094" style="stroke: #A80036; stroke-width: 1.5;" width="36" x="1118.5" y="1666.4141"/><text fill="#000000" font-family="sans-serif" font-size="14" lengthAdjust="spacingAndGlyphs" textLength="22" x="1125.5" y="1687.9473">RPI</text><rect fill="#FFFFFF" filter="url(#fad0cjvqc7wtf)" height="1577.1953" style="stroke: #A80036; stroke-width: 1.0;" width="10" x="574" y="81.2188"/><rect fill="#FFFFFF" filter="url(#fad0cjvqc7wtf)" height="30.3516" style="stroke: #A80036; stroke-width: 1.0;" width="10" x="909" y="103.5703"/><rect fill="#FFFFFF" filter="url(#fad0cjvqc7wtf)" height="30.3516" style="stroke: #A80036; stroke-width: 1.0;" width="10" x="1081" y="207.625"/><rect fill="#FFFFFF" filter="url(#fad0cjvqc7wtf)" height="30.3516" style="stroke: #A80036; stroke-width: 1.0;" width="10" x="1081" y="543.9766"/><rect fill="#FFFFFF" filter="url(#fad0cjvqc7wtf)" height="182.1094" style="stroke: #A80036; stroke-width: 1.0;" width="10" x="1133.5" y="1093.0859"/><rect fill="#FFFFFF" filter="url(#fad0cjvqc7wtf)" height="182.1094" style="stroke: #A80036; stroke-width: 1.0;" width="10" x="1133.5" y="1406.6016"/><polygon fill="#A80036" points="897,99.5703,907,103.5703,897,107.5703,901,103.5703" style="stroke: #A80036; stroke-width: 1.0;"/><line style="stroke: #A80036; stroke-width: 1.0;" x1="584" x2="903" y1="103.5703" y2="103.5703"/><text fill="#000000" font-family="sans-serif" font-size="13" lengthAdjust="spacingAndGlyphs" textLength="112" x="591" y="98.7139">load EEPROM(I2C)</text><polygon fill="#A80036" points="595,129.9219,585,133.9219,595,137.9219,591,133.9219" style="stroke: #A80036; stroke-width: 1.0;"/><line style="stroke: #A80036; stroke-width: 1.0; stroke-dasharray: 2.0,2.0;" x1="589" x2="913" y1="133.9219" y2="133.9219"/><text fill="#000000" font-family="sans-serif" font-size="13" lengthAdjust="spacingAndGlyphs" textLength="145" x="601" y="129.0654">send EEPROM data(I2C)</text><line style="stroke: #A80036; stroke-width: 1.0;" x1="584" x2="626" y1="164.2734" y2="164.2734"/><line style="stroke: #A80036; stroke-width: 1.0;" x1="626" x2="626" y1="164.2734" y2="177.2734"/><line style="stroke: #A80036; stroke-width: 1.0;" x1="585" x2="626" y1="177.2734" y2="177.2734"/><polygon fill="#A80036" points="595,173.2734,585,177.2734,595,181.2734,591,177.2734" style="stroke: #A80036; stroke-width: 1.0;"/><text fill="#000000" font-family="sans-serif" font-size="13" lengthAdjust="spacingAndGlyphs" textLength="231" x="591" y="159.417">Initialization OBC(HK,transceiver_ON？)</text><polygon fill="#A80036" points="1069,203.625,1079,207.625,1069,211.625,1073,207.625" style="stroke: #A80036; stroke-width: 1.0;"/><line style="stroke: #A80036; stroke-width: 1.0;" x1="584" x2="1075" y1="207.625" y2="207.625"/><text fill="#000000" font-family="sans-serif" font-size="13" lengthAdjust="spacingAndGlyphs" textLength="287" x="591" y="202.7686">Initialization EPS(Check the Battery Voltage)(I2C)</text><polygon fill="#A80036" points="595,233.9766,585,237.9766,595,241.9766,591,237.9766" style="stroke: #A80036; stroke-width: 1.0;"/><line style="stroke: #A80036; stroke-width: 1.0; stroke-dasharray: 2.0,2.0;" x1="589" x2="1085" y1="237.9766" y2="237.9766"/><text fill="#000000" font-family="sans-serif" font-size="13" lengthAdjust="spacingAndGlyphs" textLength="167" x="601" y="233.1201">send EPS Voltage data (I2C)</text><line style="stroke: #A80036; stroke-width: 1.0;" x1="584" x2="626" y1="268.3281" y2="268.3281"/><line style="stroke: #A80036; stroke-width: 1.0;" x1="626" x2="626" y1="268.3281" y2="281.3281"/><line style="stroke: #A80036; stroke-width: 1.0;" x1="585" x2="626" y1="281.3281" y2="281.3281"/><polygon fill="#A80036" points="595,277.3281,585,281.3281,595,285.3281,591,281.3281" style="stroke: #A80036; stroke-width: 1.0;"/><text fill="#000000" font-family="sans-serif" font-size="13" lengthAdjust="spacingAndGlyphs" textLength="311" x="591" y="263.4717">check Satellite Operation mode(depend on EEPROM)</text><rect fill="#EEEEEE" filter="url(#fad0cjvqc7wtf)" height="3" style="stroke: #EEEEEE; stroke-width: 1.0;" width="1160.5" x="3" y="310.5039"/><line style="stroke: #000000; stroke-width: 1.0;" x1="3" x2="1163.5" y1="310.5039" y2="310.5039"/><line style="stroke: #000000; stroke-width: 1.0;" x1="3" x2="1163.5" y1="313.5039" y2="313.5039"/><rect fill="#EEEEEE" filter="url(#fad0cjvqc7wtf)" height="24.3516" style="stroke: #000000; stroke-width: 2.0;" width="363" x="401.75" y="299.3281"/><text fill="#000000" font-family="sans-serif" font-size="13" font-weight="bold" lengthAdjust="spacingAndGlyphs" textLength="345" x="407.75" y="316.8232">start checking whether antennae are developed or not</text><path d="M13,340.6797 L74,340.6797 L74,348.6797 L64,358.6797 L13,358.6797 L13,340.6797 " fill="#EEEEEE" style="stroke: #000000; stroke-width: 1.0;"/><rect fill="none" height="496.9453" style="stroke: #000000; stroke-width: 2.0;" width="1135.5" x="13" y="340.6797"/><text fill="#000000" font-family="sans-serif" font-size="13" font-weight="bold" lengthAdjust="spacingAndGlyphs" textLength="16" x="28" y="355.1748">alt</text><text fill="#000000" font-family="sans-serif" font-size="11" font-weight="bold" lengthAdjust="spacingAndGlyphs" textLength="153" x="89" y="354.0986">[MeltingCompletionFlag&gt;=2]</text><polygon fill="#A80036" points="119,382.3828,109,386.3828,119,390.3828,115,386.3828" style="stroke: #A80036; stroke-width: 1.0;"/><line style="stroke: #A80036; stroke-width: 1.0;" x1="113" x2="573" y1="386.3828" y2="386.3828"/><text fill="#000000" font-family="sans-serif" font-size="13" lengthAdjust="spacingAndGlyphs" textLength="134" x="125" y="381.5264">Restart telemetry(UHF)</text><path d="M589,364.0313 L589,390.0313 L782,390.0313 L782,374.0313 L772,364.0313 L589,364.0313 " fill="#FBFB77" filter="url(#fad0cjvqc7wtf)" style="stroke: #A80036; stroke-width: 1.0;"/><path d="M772,364.0313 L772,374.0313 L782,374.0313 L772,364.0313 " fill="#FBFB77" style="stroke: #A80036; stroke-width: 1.0;"/><text fill="#000000" font-family="sans-serif" font-size="13" lengthAdjust="spacingAndGlyphs" textLength="172" x="595" y="382.5264">already complete melting wire</text><polygon fill="#A80036" points="562,417.7344,572,421.7344,562,425.7344,566,421.7344" style="stroke: #A80036; stroke-width: 1.0;"/><line style="stroke: #A80036; stroke-width: 1.0; stroke-dasharray: 2.0,2.0;" x1="108" x2="568" y1="421.7344" y2="421.7344"/><text fill="#000000" font-family="sans-serif" font-size="13" lengthAdjust="spacingAndGlyphs" textLength="260" x="115" y="416.8779">command of starting Regular Operation(VHF)</text><line style="stroke: #000000; stroke-width: 1.0; stroke-dasharray: 2.0,2.0;" x1="13" x2="1148.5" y1="430.7344" y2="430.7344"/><text fill="#000000" font-family="sans-serif" font-size="11" font-weight="bold" lengthAdjust="spacingAndGlyphs" textLength="153" x="18" y="442.1533">[MeltingCompletionFlag&lt;=1]</text><path d="M23,452.5703 L96,452.5703 L96,460.5703 L86,470.5703 L23,470.5703 L23,452.5703 " fill="#EEEEEE" style="stroke: #000000; stroke-width: 1.0;"/><rect fill="none" height="378.0547" style="stroke: #000000; stroke-width: 2.0;" width="1115.5" x="23" y="452.5703"/><text fill="#000000" font-family="sans-serif" font-size="13" font-weight="bold" lengthAdjust="spacingAndGlyphs" textLength="28" x="38" y="467.0654">loop</text><text fill="#000000" font-family="sans-serif" font-size="11" font-weight="bold" lengthAdjust="spacingAndGlyphs" textLength="116" x="111" y="465.9893">[repeat Melting Wire]</text><path d="M33,477.9219 L99,477.9219 L99,485.9219 L89,495.9219 L33,495.9219 L33,477.9219 " fill="#EEEEEE" style="stroke: #000000; stroke-width: 1.0;"/><rect fill="none" height="283" style="stroke: #000000; stroke-width: 2.0;" width="1095.5" x="33" y="477.9219"/><text fill="#000000" font-family="sans-serif" font-size="13" font-weight="bold" lengthAdjust="spacingAndGlyphs" textLength="21" x="48" y="492.417">par</text><path d="M521,503.2734 L582,503.2734 L582,511.2734 L572,521.2734 L521,521.2734 L521,503.2734 " fill="#EEEEEE" style="stroke: #000000; stroke-width: 1.0;"/><rect fill="none" height="155.5938" style="stroke: #000000; stroke-width: 2.0;" width="597.5" x="521" y="503.2734"/><text fill="#000000" font-family="sans-serif" font-size="13" font-weight="bold" lengthAdjust="spacingAndGlyphs" textLength="16" x="536" y="517.7686">alt</text><text fill="#000000" font-family="sans-serif" font-size="11" font-weight="bold" lengthAdjust="spacingAndGlyphs" textLength="215" x="597" y="516.6924">[Number of Melting Repetitions == TBD]</text><polygon fill="#A80036" points="1069,539.9766,1079,543.9766,1069,547.9766,1073,543.9766" style="stroke: #A80036; stroke-width: 1.0;"/><line style="stroke: #A80036; stroke-width: 1.0;" x1="584" x2="1075" y1="543.9766" y2="543.9766"/><text fill="#000000" font-family="sans-serif" font-size="13" lengthAdjust="spacingAndGlyphs" textLength="188" x="591" y="539.1201">change the melting system (I2C)</text><polygon fill="#A80036" points="595,570.3281,585,574.3281,595,578.3281,591,574.3281" style="stroke: #A80036; stroke-width: 1.0;"/><line style="stroke: #A80036; stroke-width: 1.0; stroke-dasharray: 2.0,2.0;" x1="589" x2="1085" y1="574.3281" y2="574.3281"/><text fill="#000000" font-family="sans-serif" font-size="13" lengthAdjust="spacingAndGlyphs" textLength="52" x="601" y="569.4717">ack (I2C)</text><polygon fill="#A80036" points="995.5,600.6797,1005.5,604.6797,995.5,608.6797,999.5,604.6797" style="stroke: #A80036; stroke-width: 1.0;"/><line style="stroke: #A80036; stroke-width: 1.0;" x1="584" x2="1001.5" y1="604.6797" y2="604.6797"/><text fill="#000000" font-family="sans-serif" font-size="13" lengthAdjust="spacingAndGlyphs" textLength="169" x="591" y="599.8232">melting wire for TBD seconds</text><line style="stroke: #000000; stroke-width: 1.0; stroke-dasharray: 2.0,2.0;" x1="521" x2="1118.5" y1="613.6797" y2="613.6797"/><text fill="#000000" font-family="sans-serif" font-size="11" font-weight="bold" lengthAdjust="spacingAndGlyphs" textLength="209" x="526" y="625.0986">[Number of Melting Repetitions &lt; TBD]</text><polygon fill="#A80036" points="995.5,646.8672,1005.5,650.8672,995.5,654.8672,999.5,650.8672" style="stroke: #A80036; stroke-width: 1.0;"/><line style="stroke: #A80036; stroke-width: 1.0;" x1="584" x2="1001.5" y1="650.8672" y2="650.8672"/><text fill="#000000" font-family="sans-serif" font-size="13" lengthAdjust="spacingAndGlyphs" textLength="169" x="591" y="646.0107">melting wire for TBD seconds</text><line style="stroke: #000000; stroke-width: 1.0; stroke-dasharray: 2.0,2.0;" x1="33" x2="1128.5" y1="666.8672" y2="666.8672"/><polygon fill="#A80036" points="119,686.2188,109,690.2188,119,694.2188,115,690.2188" style="stroke: #A80036; stroke-width: 1.0;"/><line style="stroke: #A80036; stroke-width: 1.0;" x1="113" x2="573" y1="690.2188" y2="690.2188"/><text fill="#000000" font-family="sans-serif" font-size="13" lengthAdjust="spacingAndGlyphs" textLength="442" x="125" y="685.3623">accept uplink，CW(HK,Number of Melting Repetitions,...etc)down link (UHF)</text><path d="M43,705.2188 L108,705.2188 L108,713.2188 L98,723.2188 L43,723.2188 L43,705.2188 " fill="#EEEEEE" style="stroke: #000000; stroke-width: 1.0;"/><rect fill="none" height="48.7031" style="stroke: #000000; stroke-width: 2.0;" width="594" x="43" y="705.2188"/><text fill="#000000" font-family="sans-serif" font-size="13" font-weight="bold" lengthAdjust="spacingAndGlyphs" textLength="20" x="58" y="719.7139">opt</text><text fill="#000000" font-family="sans-serif" font-size="11" font-weight="bold" lengthAdjust="spacingAndGlyphs" textLength="72" x="123" y="718.6377">[Receive CW]</text><polygon fill="#A80036" points="562,741.9219,572,745.9219,562,749.9219,566,745.9219" style="stroke: #A80036; stroke-width: 1.0;"/><line style="stroke: #A80036; stroke-width: 1.0; stroke-dasharray: 2.0,2.0;" x1="108" x2="568" y1="745.9219" y2="745.9219"/><text fill="#000000" font-family="sans-serif" font-size="13" lengthAdjust="spacingAndGlyphs" textLength="254" x="115" y="741.0654">command of interrupting Melting Wire (VHF)</text><path d="M521,774.9219 L602,774.9219 L602,782.9219 L592,792.9219 L521,792.9219 L521,774.9219 " fill="#EEEEEE" style="stroke: #000000; stroke-width: 1.0;"/><rect fill="none" height="48.7031" style="stroke: #000000; stroke-width: 2.0;" width="440.5" x="521" y="774.9219"/><text fill="#000000" font-family="sans-serif" font-size="13" font-weight="bold" lengthAdjust="spacingAndGlyphs" textLength="36" x="536" y="789.417">break</text><text fill="#000000" font-family="sans-serif" font-size="11" font-weight="bold" lengthAdjust="spacingAndGlyphs" textLength="285" x="617" y="788.3408">[Receive the command of interrupting Melting Wire]</text><polygon fill="#A80036" points="902,811.625,912,815.625,902,819.625,906,815.625" style="stroke: #A80036; stroke-width: 1.0;"/><line style="stroke: #A80036; stroke-width: 1.0;" x1="584" x2="908" y1="815.625" y2="815.625"/><text fill="#000000" font-family="sans-serif" font-size="13" lengthAdjust="spacingAndGlyphs" textLength="216" x="591" y="810.7686">write the MeltingCompletionFlag (I2C)</text><rect fill="#EEEEEE" filter="url(#fad0cjvqc7wtf)" height="3" style="stroke: #EEEEEE; stroke-width: 1.0;" width="1160.5" x="3" y="865.8008"/><line style="stroke: #000000; stroke-width: 1.0;" x1="3" x2="1163.5" y1="865.8008" y2="865.8008"/><line style="stroke: #000000; stroke-width: 1.0;" x1="3" x2="1163.5" y1="868.8008" y2="868.8008"/><rect fill="#EEEEEE" filter="url(#fad0cjvqc7wtf)" height="24.3516" style="stroke: #000000; stroke-width: 2.0;" width="198" x="484.25" y="854.625"/><text fill="#000000" font-family="sans-serif" font-size="13" font-weight="bold" lengthAdjust="spacingAndGlyphs" textLength="180" x="490.25" y="872.1201">start checking other function</text><polygon fill="#A80036" points="562,912.3281,572,916.3281,562,920.3281,566,916.3281" style="stroke: #A80036; stroke-width: 1.0;"/><line style="stroke: #A80036; stroke-width: 1.0;" x1="108" x2="568" y1="916.3281" y2="916.3281"/><text fill="#000000" font-family="sans-serif" font-size="13" lengthAdjust="spacingAndGlyphs" textLength="140" x="115" y="911.4717">FM HK command (VHF)</text><path d="M589,893.9766 L589,919.9766 L760,919.9766 L760,903.9766 L750,893.9766 L589,893.9766 " fill="#FBFB77" filter="url(#fad0cjvqc7wtf)" style="stroke: #A80036; stroke-width: 1.0;"/><path d="M750,893.9766 L750,903.9766 L760,903.9766 L750,893.9766 " fill="#FBFB77" style="stroke: #A80036; stroke-width: 1.0;"/><text fill="#000000" font-family="sans-serif" font-size="13" lengthAdjust="spacingAndGlyphs" textLength="150" x="595" y="912.4717">check FM communication</text><polygon fill="#A80036" points="119,947.6797,109,951.6797,119,955.6797,115,951.6797" style="stroke: #A80036; stroke-width: 1.0;"/><line style="stroke: #A80036; stroke-width: 1.0; stroke-dasharray: 2.0,2.0;" x1="113" x2="573" y1="951.6797" y2="951.6797"/><text fill="#000000" font-family="sans-serif" font-size="13" lengthAdjust="spacingAndGlyphs" textLength="111" x="125" y="946.8232">send FM HK (UHF)</text><polygon fill="#A80036" points="562,983.0313,572,987.0313,562,991.0313,566,987.0313" style="stroke: #A80036; stroke-width: 1.0;"/><line style="stroke: #A80036; stroke-width: 1.0;" x1="108" x2="568" y1="987.0313" y2="987.0313"/><text fill="#000000" font-family="sans-serif" font-size="13" lengthAdjust="spacingAndGlyphs" textLength="237" x="115" y="982.1748">command of sending Mock picture (VHF)</text><path d="M589,964.6797 L589,990.6797 L774,990.6797 L774,974.6797 L764,964.6797 L589,964.6797 " fill="#FBFB77" filter="url(#fad0cjvqc7wtf)" style="stroke: #A80036; stroke-width: 1.0;"/><path d="M764,964.6797 L764,974.6797 L774,974.6797 L764,964.6797 " fill="#FBFB77" style="stroke: #A80036; stroke-width: 1.0;"/><text fill="#000000" font-family="sans-serif" font-size="13" lengthAdjust="spacingAndGlyphs" textLength="164" x="595" y="983.1748">check 5R8G communication</text><polygon fill="#A80036" points="119,1018.3828,109,1022.3828,119,1026.3828,115,1022.3828" style="stroke: #A80036; stroke-width: 1.0;"/><line style="stroke: #A80036; stroke-width: 1.0; stroke-dasharray: 2.0,2.0;" x1="113" x2="573" y1="1022.3828" y2="1022.3828"/><text fill="#000000" font-family="sans-serif" font-size="13" lengthAdjust="spacingAndGlyphs" textLength="152" x="125" y="1017.5264">send Mock picture (5R8G)</text><polygon fill="#A80036" points="562,1053.7344,572,1057.7344,562,1061.7344,566,1057.7344" style="stroke: #A80036; stroke-width: 1.0;"/><line style="stroke: #A80036; stroke-width: 1.0;" x1="108" x2="568" y1="1057.7344" y2="1057.7344"/><text fill="#000000" font-family="sans-serif" font-size="13" lengthAdjust="spacingAndGlyphs" textLength="294" x="115" y="1052.8779">command of checking Camera for Extension (VHF)</text><path d="M589,1035.3828 L589,1061.3828 L878,1061.3828 L878,1045.3828 L868,1035.3828 L589,1035.3828 " fill="#FBFB77" filter="url(#fad0cjvqc7wtf)" style="stroke: #A80036; stroke-width: 1.0;"/><path d="M868,1035.3828 L868,1045.3828 L878,1045.3828 L868,1035.3828 " fill="#FBFB77" style="stroke: #A80036; stroke-width: 1.0;"/><text fill="#000000" font-family="sans-serif" font-size="13" lengthAdjust="spacingAndGlyphs" textLength="268" x="595" y="1053.8779">check the part of Camera for extension startup</text><polygon fill="#A80036" points="1121.5,1089.0859,1131.5,1093.0859,1121.5,1097.0859,1125.5,1093.0859" style="stroke: #A80036; stroke-width: 1.0;"/><line style="stroke: #A80036; stroke-width: 1.0;" x1="584" x2="1127.5" y1="1093.0859" y2="1093.0859"/><text fill="#000000" font-family="sans-serif" font-size="13" lengthAdjust="spacingAndGlyphs" textLength="93" x="591" y="1088.2295">RPI_ON (UART)</text><polygon fill="#A80036" points="595,1119.4375,585,1123.4375,595,1127.4375,591,1123.4375" style="stroke: #A80036; stroke-width: 1.0;"/><line style="stroke: #A80036; stroke-width: 1.0; stroke-dasharray: 2.0,2.0;" x1="589" x2="1132.5" y1="1123.4375" y2="1123.4375"/><text fill="#000000" font-family="sans-serif" font-size="13" lengthAdjust="spacingAndGlyphs" textLength="67" x="601" y="1118.5811">ack (UART)</text><polygon fill="#A80036" points="1121.5,1149.7891,1131.5,1153.7891,1121.5,1157.7891,1125.5,1153.7891" style="stroke: #A80036; stroke-width: 1.0;"/><line style="stroke: #A80036; stroke-width: 1.0;" x1="584" x2="1127.5" y1="1153.7891" y2="1153.7891"/><text fill="#000000" font-family="sans-serif" font-size="13" lengthAdjust="spacingAndGlyphs" textLength="125" x="591" y="1148.9326">HK command (UART)</text><polygon fill="#A80036" points="595,1180.1406,585,1184.1406,595,1188.1406,591,1184.1406" style="stroke: #A80036; stroke-width: 1.0;"/><line style="stroke: #A80036; stroke-width: 1.0; stroke-dasharray: 2.0,2.0;" x1="589" x2="1132.5" y1="1184.1406" y2="1184.1406"/><text fill="#000000" font-family="sans-serif" font-size="13" lengthAdjust="spacingAndGlyphs" textLength="96" x="601" y="1179.2842">send HK (UART)</text><polygon fill="#A80036" points="1121.5,1210.4922,1131.5,1214.4922,1121.5,1218.4922,1125.5,1214.4922" style="stroke: #A80036; stroke-width: 1.0;"/><line style="stroke: #A80036; stroke-width: 1.0;" x1="584" x2="1127.5" y1="1214.4922" y2="1214.4922"/><text fill="#000000" font-family="sans-serif" font-size="13" lengthAdjust="spacingAndGlyphs" textLength="206" x="591" y="1209.6357">command of taking pictures (UART)</text><polygon fill="#A80036" points="595,1240.8438,585,1244.8438,595,1248.8438,591,1244.8438" style="stroke: #A80036; stroke-width: 1.0;"/><line style="stroke: #A80036; stroke-width: 1.0; stroke-dasharray: 2.0,2.0;" x1="589" x2="1132.5" y1="1244.8438" y2="1244.8438"/><text fill="#000000" font-family="sans-serif" font-size="13" lengthAdjust="spacingAndGlyphs" textLength="124" x="601" y="1239.9873">send pictures (UART)</text><polygon fill="#A80036" points="1126.5,1271.1953,1136.5,1275.1953,1126.5,1279.1953,1130.5,1275.1953" style="stroke: #A80036; stroke-width: 1.0;"/><line style="stroke: #A80036; stroke-width: 1.0;" x1="584" x2="1132.5" y1="1275.1953" y2="1275.1953"/><text fill="#000000" font-family="sans-serif" font-size="13" lengthAdjust="spacingAndGlyphs" textLength="100" x="591" y="1270.3389">RPI_OFF (UART)</text><polygon fill="#A80036" points="119,1301.5469,109,1305.5469,119,1309.5469,115,1305.5469" style="stroke: #A80036; stroke-width: 1.0;"/><line style="stroke: #A80036; stroke-width: 1.0; stroke-dasharray: 2.0,2.0;" x1="113" x2="573" y1="1305.5469" y2="1305.5469"/><text fill="#000000" font-family="sans-serif" font-size="13" lengthAdjust="spacingAndGlyphs" textLength="291" x="125" y="1300.6904">send HK of the part of Camera for extension (UHF)</text><polygon fill="#A80036" points="119,1331.8984,109,1335.8984,119,1339.8984,115,1335.8984" style="stroke: #A80036; stroke-width: 1.0;"/><line style="stroke: #A80036; stroke-width: 1.0; stroke-dasharray: 2.0,2.0;" x1="113" x2="573" y1="1335.8984" y2="1335.8984"/><text fill="#000000" font-family="sans-serif" font-size="13" lengthAdjust="spacingAndGlyphs" textLength="123" x="125" y="1331.042">send pictures (5R8G)</text><polygon fill="#A80036" points="562,1367.25,572,1371.25,562,1375.25,566,1371.25" style="stroke: #A80036; stroke-width: 1.0;"/><line style="stroke: #A80036; stroke-width: 1.0;" x1="108" x2="568" y1="1371.25" y2="1371.25"/><text fill="#000000" font-family="sans-serif" font-size="13" lengthAdjust="spacingAndGlyphs" textLength="244" x="115" y="1366.3936">command of checking Side Camera (VHF)</text><path d="M589,1348.8984 L589,1374.8984 L830,1374.8984 L830,1358.8984 L820,1348.8984 L589,1348.8984 " fill="#FBFB77" filter="url(#fad0cjvqc7wtf)" style="stroke: #A80036; stroke-width: 1.0;"/><path d="M820,1348.8984 L820,1358.8984 L830,1358.8984 L820,1348.8984 " fill="#FBFB77" style="stroke: #A80036; stroke-width: 1.0;"/><text fill="#000000" font-family="sans-serif" font-size="13" lengthAdjust="spacingAndGlyphs" textLength="220" x="595" y="1367.3936">check the part of Side Camera startup</text><polygon fill="#A80036" points="1121.5,1402.6016,1131.5,1406.6016,1121.5,1410.6016,1125.5,1406.6016" style="stroke: #A80036; stroke-width: 1.0;"/><line style="stroke: #A80036; stroke-width: 1.0;" x1="584" x2="1127.5" y1="1406.6016" y2="1406.6016"/><text fill="#000000" font-family="sans-serif" font-size="13" lengthAdjust="spacingAndGlyphs" textLength="93" x="591" y="1401.7451">RPI_ON (UART)</text><polygon fill="#A80036" points="595,1432.9531,585,1436.9531,595,1440.9531,591,1436.9531" style="stroke: #A80036; stroke-width: 1.0;"/><line style="stroke: #A80036; stroke-width: 1.0; stroke-dasharray: 2.0,2.0;" x1="589" x2="1132.5" y1="1436.9531" y2="1436.9531"/><text fill="#000000" font-family="sans-serif" font-size="13" lengthAdjust="spacingAndGlyphs" textLength="67" x="601" y="1432.0967">ack (UART)</text><polygon fill="#A80036" points="1121.5,1463.3047,1131.5,1467.3047,1121.5,1471.3047,1125.5,1467.3047" style="stroke: #A80036; stroke-width: 1.0;"/><line style="stroke: #A80036; stroke-width: 1.0;" x1="584" x2="1127.5" y1="1467.3047" y2="1467.3047"/><text fill="#000000" font-family="sans-serif" font-size="13" lengthAdjust="spacingAndGlyphs" textLength="125" x="591" y="1462.4482">HK command (UART)</text><polygon fill="#A80036" points="595,1493.6563,585,1497.6563,595,1501.6563,591,1497.6563" style="stroke: #A80036; stroke-width: 1.0;"/><line style="stroke: #A80036; stroke-width: 1.0; stroke-dasharray: 2.0,2.0;" x1="589" x2="1132.5" y1="1497.6563" y2="1497.6563"/><text fill="#000000" font-family="sans-serif" font-size="13" lengthAdjust="spacingAndGlyphs" textLength="96" x="601" y="1492.7998">send HK (UART)</text><polygon fill="#A80036" points="1121.5,1524.0078,1131.5,1528.0078,1121.5,1532.0078,1125.5,1528.0078" style="stroke: #A80036; stroke-width: 1.0;"/><line style="stroke: #A80036; stroke-width: 1.0;" x1="584" x2="1127.5" y1="1528.0078" y2="1528.0078"/><text fill="#000000" font-family="sans-serif" font-size="13" lengthAdjust="spacingAndGlyphs" textLength="206" x="591" y="1523.1514">command of taking pictures (UART)</text><polygon fill="#A80036" points="595,1554.3594,585,1558.3594,595,1562.3594,591,1558.3594" style="stroke: #A80036; stroke-width: 1.0;"/><line style="stroke: #A80036; stroke-width: 1.0; stroke-dasharray: 2.0,2.0;" x1="589" x2="1132.5" y1="1558.3594" y2="1558.3594"/><text fill="#000000" font-family="sans-serif" font-size="13" lengthAdjust="spacingAndGlyphs" textLength="124" x="601" y="1553.5029">send pictures (UART)</text><polygon fill="#A80036" points="1126.5,1584.7109,1136.5,1588.7109,1126.5,1592.7109,1130.5,1588.7109" style="stroke: #A80036; stroke-width: 1.0;"/><line style="stroke: #A80036; stroke-width: 1.0;" x1="584" x2="1132.5" y1="1588.7109" y2="1588.7109"/><text fill="#000000" font-family="sans-serif" font-size="13" lengthAdjust="spacingAndGlyphs" textLength="100" x="591" y="1583.8545">RPI_OFF (UART)</text><polygon fill="#A80036" points="119,1615.0625,109,1619.0625,119,1623.0625,115,1619.0625" style="stroke: #A80036; stroke-width: 1.0;"/><line style="stroke: #A80036; stroke-width: 1.0; stroke-dasharray: 2.0,2.0;" x1="113" x2="573" y1="1619.0625" y2="1619.0625"/><text fill="#000000" font-family="sans-serif" font-size="13" lengthAdjust="spacingAndGlyphs" textLength="243" x="125" y="1614.2061">send HK of the part of Side Camera (VHF)</text><polygon fill="#A80036" points="119,1645.4141,109,1649.4141,119,1653.4141,115,1649.4141" style="stroke: #A80036; stroke-width: 1.0;"/><line style="stroke: #A80036; stroke-width: 1.0; stroke-dasharray: 2.0,2.0;" x1="113" x2="573" y1="1649.4141" y2="1649.4141"/><text fill="#000000" font-family="sans-serif" font-size="13" lengthAdjust="spacingAndGlyphs" textLength="123" x="125" y="1644.5576">send pictures (5R8G)</text><!--
@startuml
title Initial Operation
participant GroundStation
participant COBC_OBC
participant EEPLOM
participant MeltingWire
participant EPS
participant RPI


activate COBC_OBC

COBC_OBC -> EEPLOM: load EEPROM(I2C)
activate EEPLOM
EEPLOM - -> COBC_OBC: send EEPROM data(I2C)
deactivate EEPLOM
COBC_OBC -> COBC_OBC: Initialization OBC(HK,transceiver_ON？)
COBC_OBC -> EPS: Initialization EPS(Check the Battery Voltage)(I2C)
activate EPS
EPS - -> COBC_OBC: send EPS Voltage data (I2C)
deactivate EPS
COBC_OBC ->COBC_OBC: check Satellite Operation mode(depend on EEPROM)

== start checking whether antennae are developed or not ==

alt MeltingCompletionFlag>=2
COBC_OBC -> GroundStation: Restart telemetry(UHF)
note right: already complete melting wire
GroundStation - -> COBC_OBC: command of starting Regular Operation(VHF)
else MeltingCompletionFlag<=1
loop repeat Melting Wire
par 
alt Number of Melting Repetitions == TBD
COBC_OBC -> EPS: change the melting system (I2C)
activate EPS
EPS - -> COBC_OBC: ack (I2C)
deactivate EPS
COBC_OBC -> MeltingWire: melting wire for TBD seconds
else Number of Melting Repetitions < TBD
COBC_OBC -> MeltingWire: melting wire for TBD seconds
end
else
COBC_OBC -> GroundStation: accept uplink，CW(HK,Number of Melting Repetitions,...etc)down link (UHF)
opt Receive CW
GroundStation - -> COBC_OBC: command of interrupting Melting Wire (VHF)
end
end
break Receive the command of interrupting Melting Wire
COBC_OBC -> EEPLOM: write the MeltingCompletionFlag (I2C)
end
end
end

== start checking other function ==

GroundStation -> COBC_OBC : FM HK command (VHF)
note right: check FM communication
COBC_OBC - -> GroundStation: send FM HK (UHF)

GroundStation -> COBC_OBC: command of sending Mock picture (VHF)
note right: check 5R8G communication
COBC_OBC - -> GroundStation: send Mock picture (5R8G)

GroundStation -> COBC_OBC: command of checking Camera for Extension (VHF)
note right: check the part of Camera for extension startup
COBC_OBC -> RPI: RPI_ON (UART)
activate RPI
RPI - -> COBC_OBC: ack (UART)
COBC_OBC -> RPI: HK command (UART)
RPI - -> COBC_OBC: send HK (UART)
COBC_OBC -> RPI: command of taking pictures (UART)
RPI - -> COBC_OBC: send pictures (UART)
COBC_OBC -> RPI: RPI_OFF (UART)
deactivate RPI

COBC_OBC - -> GroundStation: send HK of the part of Camera for extension (UHF)
COBC_OBC - -> GroundStation: send pictures (5R8G)

GroundStation -> COBC_OBC: command of checking Side Camera (VHF)
note right: check the part of Side Camera startup
COBC_OBC -> RPI: RPI_ON (UART)
activate RPI
RPI - -> COBC_OBC: ack (UART)
COBC_OBC -> RPI: HK command (UART)
RPI - -> COBC_OBC: send HK (UART)
COBC_OBC -> RPI: command of taking pictures (UART)
RPI - -> COBC_OBC: send pictures (UART)
COBC_OBC -> RPI: RPI_OFF (UART)
deactivate RPI

COBC_OBC - -> GroundStation: send HK of the part of Side Camera (VHF)
COBC_OBC - -> GroundStation: send pictures (5R8G)

@enduml

PlantUML version 1.2018.03(Fri Apr 06 01:59:15 JST 2018)
(GPL source distribution)
Java Runtime: Java(TM) SE Runtime Environment
JVM: Java HotSpot(TM) Client VM
Java Version: 1.8.0_171-b11
Operating System: Windows 10
OS Version: 10.0
Default Encoding: MS932
Language: ja
Country: JP
--></g></svg>