<?xml version="1.0" encoding="UTF-8" standalone="no"?><svg xmlns="http://www.w3.org/2000/svg" xmlns:xlink="http://www.w3.org/1999/xlink" contentScriptType="application/ecmascript" contentStyleType="text/css" height="2360px" preserveAspectRatio="none" style="width:930px;height:2360px;" version="1.1" viewBox="0 0 930 2360" width="930px" zoomAndPan="magnify"><defs><filter height="300%" id="f1d32yiq8lz565" width="300%" x="-1" y="-1"><feGaussianBlur result="blurOut" stdDeviation="2.0"/><feColorMatrix in="blurOut" result="blurOut2" type="matrix" values="0 0 0 0 0 0 0 0 0 0 0 0 0 0 0 0 0 0 .4 0"/><feOffset dx="4.0" dy="4.0" in="blurOut2" result="blurOut3"/><feBlend in="SourceGraphic" in2="blurOut3" mode="normal"/></filter></defs><g><text fill="#000000" font-family="sans-serif" font-size="14" font-weight="bold" lengthAdjust="spacingAndGlyphs" textLength="192" x="364.5" y="24.5332">membrane cut of sequence</text><rect fill="#FFFFFF" filter="url(#f1d32yiq8lz565)" height="2228.2031" style="stroke: #A80036; stroke-width: 1.0;" width="10" x="405.5" y="81.2188"/><rect fill="#FFFFFF" filter="url(#f1d32yiq8lz565)" height="295.1641" style="stroke: #A80036; stroke-width: 1.0;" width="10" x="616.5" y="252.9766"/><rect fill="#FFFFFF" filter="url(#f1d32yiq8lz565)" height="390.2188" style="stroke: #A80036; stroke-width: 1.0;" width="10" x="616.5" y="727.8984"/><rect fill="#FFFFFF" filter="url(#f1d32yiq8lz565)" height="388.2188" style="stroke: #A80036; stroke-width: 1.0;" width="10" x="616.5" y="1297.875"/><rect fill="#FFFFFF" filter="url(#f1d32yiq8lz565)" height="329.5156" style="stroke: #A80036; stroke-width: 1.0;" width="10" x="686" y="758.25"/><rect fill="#FFFFFF" filter="url(#f1d32yiq8lz565)" height="327.5156" style="stroke: #A80036; stroke-width: 1.0;" width="10" x="686" y="1328.2266"/><rect fill="#FFFFFF" filter="url(#f1d32yiq8lz565)" height="262.8125" style="stroke: #A80036; stroke-width: 1.0;" width="10" x="686" y="1966.9063"/><line style="stroke: #A80036; stroke-width: 1.0; stroke-dasharray: 5.0,5.0;" x1="168" x2="168" y1="71.2188" y2="2318.4219"/><line style="stroke: #A80036; stroke-width: 1.0; stroke-dasharray: 5.0,5.0;" x1="410.5" x2="410.5" y1="71.2188" y2="2318.4219"/><line style="stroke: #A80036; stroke-width: 1.0; stroke-dasharray: 5.0,5.0;" x1="621" x2="621" y1="71.2188" y2="2318.4219"/><line style="stroke: #A80036; stroke-width: 1.0; stroke-dasharray: 5.0,5.0;" x1="691" x2="691" y1="71.2188" y2="2318.4219"/><rect fill="#FEFECE" filter="url(#f1d32yiq8lz565)" height="31.6094" style="stroke: #A80036; stroke-width: 1.5;" width="109" x="112" y="34.6094"/><text fill="#000000" font-family="sans-serif" font-size="14" lengthAdjust="spacingAndGlyphs" textLength="95" x="119" y="56.1426">ground_station</text><rect fill="#FEFECE" filter="url(#f1d32yiq8lz565)" height="31.6094" style="stroke: #A80036; stroke-width: 1.5;" width="109" x="112" y="2317.4219"/><text fill="#000000" font-family="sans-serif" font-size="14" lengthAdjust="spacingAndGlyphs" textLength="95" x="119" y="2338.9551">ground_station</text><rect fill="#FEFECE" filter="url(#f1d32yiq8lz565)" height="31.6094" style="stroke: #A80036; stroke-width: 1.5;" width="92" x="362.5" y="34.6094"/><text fill="#000000" font-family="sans-serif" font-size="14" lengthAdjust="spacingAndGlyphs" textLength="78" x="369.5" y="56.1426">COBC_OBC</text><rect fill="#FEFECE" filter="url(#f1d32yiq8lz565)" height="31.6094" style="stroke: #A80036; stroke-width: 1.5;" width="92" x="362.5" y="2317.4219"/><text fill="#000000" font-family="sans-serif" font-size="14" lengthAdjust="spacingAndGlyphs" textLength="78" x="369.5" y="2338.9551">COBC_OBC</text><rect fill="#FEFECE" filter="url(#f1d32yiq8lz565)" height="31.6094" style="stroke: #A80036; stroke-width: 1.5;" width="75" x="582" y="34.6094"/><text fill="#000000" font-family="sans-serif" font-size="14" lengthAdjust="spacingAndGlyphs" textLength="61" x="589" y="56.1426">MDC_PIC</text><rect fill="#FEFECE" filter="url(#f1d32yiq8lz565)" height="31.6094" style="stroke: #A80036; stroke-width: 1.5;" width="75" x="582" y="2317.4219"/><text fill="#000000" font-family="sans-serif" font-size="14" lengthAdjust="spacingAndGlyphs" textLength="61" x="589" y="2338.9551">MDC_PIC</text><rect fill="#FEFECE" filter="url(#f1d32yiq8lz565)" height="31.6094" style="stroke: #A80036; stroke-width: 1.5;" width="36" x="671" y="34.6094"/><text fill="#000000" font-family="sans-serif" font-size="14" lengthAdjust="spacingAndGlyphs" textLength="22" x="678" y="56.1426">RPI</text><rect fill="#FEFECE" filter="url(#f1d32yiq8lz565)" height="31.6094" style="stroke: #A80036; stroke-width: 1.5;" width="36" x="671" y="2317.4219"/><text fill="#000000" font-family="sans-serif" font-size="14" lengthAdjust="spacingAndGlyphs" textLength="22" x="678" y="2338.9551">RPI</text><rect fill="#FFFFFF" filter="url(#f1d32yiq8lz565)" height="2228.2031" style="stroke: #A80036; stroke-width: 1.0;" width="10" x="405.5" y="81.2188"/><rect fill="#FFFFFF" filter="url(#f1d32yiq8lz565)" height="295.1641" style="stroke: #A80036; stroke-width: 1.0;" width="10" x="616.5" y="252.9766"/><rect fill="#FFFFFF" filter="url(#f1d32yiq8lz565)" height="390.2188" style="stroke: #A80036; stroke-width: 1.0;" width="10" x="616.5" y="727.8984"/><rect fill="#FFFFFF" filter="url(#f1d32yiq8lz565)" height="388.2188" style="stroke: #A80036; stroke-width: 1.0;" width="10" x="616.5" y="1297.875"/><rect fill="#FFFFFF" filter="url(#f1d32yiq8lz565)" height="329.5156" style="stroke: #A80036; stroke-width: 1.0;" width="10" x="686" y="758.25"/><rect fill="#FFFFFF" filter="url(#f1d32yiq8lz565)" height="327.5156" style="stroke: #A80036; stroke-width: 1.0;" width="10" x="686" y="1328.2266"/><rect fill="#FFFFFF" filter="url(#f1d32yiq8lz565)" height="262.8125" style="stroke: #A80036; stroke-width: 1.0;" width="10" x="686" y="1966.9063"/><rect fill="#EEEEEE" filter="url(#f1d32yiq8lz565)" height="3" style="stroke: #EEEEEE; stroke-width: 1.0;" width="915" x="3" y="102.3945"/><line style="stroke: #000000; stroke-width: 1.0;" x1="3" x2="918" y1="102.3945" y2="102.3945"/><line style="stroke: #000000; stroke-width: 1.0;" x1="3" x2="918" y1="105.3945" y2="105.3945"/><rect fill="#EEEEEE" filter="url(#f1d32yiq8lz565)" height="24.3516" style="stroke: #000000; stroke-width: 2.0;" width="222" x="349.5" y="91.2188"/><text fill="#000000" font-family="sans-serif" font-size="13" font-weight="bold" lengthAdjust="spacingAndGlyphs" textLength="204" x="355.5" y="108.7139">start membrane cut of sequence</text><polygon fill="#A80036" points="393.5,143.9219,403.5,147.9219,393.5,151.9219,397.5,147.9219" style="stroke: #A80036; stroke-width: 1.0;"/><line style="stroke: #A80036; stroke-width: 1.0;" x1="168.5" x2="399.5" y1="147.9219" y2="147.9219"/><text fill="#000000" font-family="sans-serif" font-size="13" lengthAdjust="spacingAndGlyphs" textLength="117" x="175.5" y="143.0654">uplink the command</text><polygon fill="#A80036" points="179.5,174.2734,169.5,178.2734,179.5,182.2734,175.5,178.2734" style="stroke: #A80036; stroke-width: 1.0;"/><line style="stroke: #A80036; stroke-width: 1.0;" x1="173.5" x2="404.5" y1="178.2734" y2="178.2734"/><text fill="#000000" font-family="sans-serif" font-size="13" lengthAdjust="spacingAndGlyphs" textLength="190" x="185.5" y="173.417">downlink the response command</text><rect fill="#EEEEEE" filter="url(#f1d32yiq8lz565)" height="3" style="stroke: #EEEEEE; stroke-width: 1.0;" width="915" x="3" y="207.4492"/><line style="stroke: #000000; stroke-width: 1.0;" x1="3" x2="918" y1="207.4492" y2="207.4492"/><line style="stroke: #000000; stroke-width: 1.0;" x1="3" x2="918" y1="210.4492" y2="210.4492"/><rect fill="#EEEEEE" filter="url(#f1d32yiq8lz565)" height="24.3516" style="stroke: #000000; stroke-width: 2.0;" width="138" x="391.5" y="196.2734"/><text fill="#000000" font-family="sans-serif" font-size="13" font-weight="bold" lengthAdjust="spacingAndGlyphs" textLength="120" x="397.5" y="213.7686">IMU function check</text><polygon fill="#A80036" points="604.5,248.9766,614.5,252.9766,604.5,256.9766,608.5,252.9766" style="stroke: #A80036; stroke-width: 1.0;"/><line style="stroke: #A80036; stroke-width: 1.0;" x1="415.5" x2="610.5" y1="252.9766" y2="252.9766"/><text fill="#000000" font-family="sans-serif" font-size="13" lengthAdjust="spacingAndGlyphs" textLength="167" x="422.5" y="248.1201">MDC POWER ON command</text><polygon fill="#A80036" points="426.5,279.3281,416.5,283.3281,426.5,287.3281,422.5,283.3281" style="stroke: #A80036; stroke-width: 1.0;"/><line style="stroke: #A80036; stroke-width: 1.0;" x1="420.5" x2="615.5" y1="283.3281" y2="283.3281"/><text fill="#000000" font-family="sans-serif" font-size="13" lengthAdjust="spacingAndGlyphs" textLength="21" x="432.5" y="278.4717">ack</text><polygon fill="#A80036" points="604.5,309.6797,614.5,313.6797,604.5,317.6797,608.5,313.6797" style="stroke: #A80036; stroke-width: 1.0;"/><line style="stroke: #A80036; stroke-width: 1.0;" x1="415.5" x2="610.5" y1="313.6797" y2="313.6797"/><text fill="#000000" font-family="sans-serif" font-size="13" lengthAdjust="spacingAndGlyphs" textLength="177" x="422.5" y="308.8232">IMU measure check command</text><polygon fill="#FBFB77" filter="url(#f1d32yiq8lz565)" points="576,326.6797,667,326.6797,677,338.6797,667,350.6797,576,350.6797,566,338.6797,576,326.6797" style="stroke: #A80036; stroke-width: 1.0;"/><text fill="#000000" font-family="sans-serif" font-size="13" lengthAdjust="spacingAndGlyphs" textLength="87" x="578" y="344.1748">sync with OBC</text><rect fill="#FBFB77" filter="url(#f1d32yiq8lz565)" height="24" style="stroke: #A80036; stroke-width: 1.0;" width="125" x="486" y="361.0313"/><text fill="#000000" font-family="sans-serif" font-size="13" lengthAdjust="spacingAndGlyphs" textLength="117" x="490" y="378.5264">start IMU measuring</text><rect fill="#FBFB77" filter="url(#f1d32yiq8lz565)" height="24" style="stroke: #A80036; stroke-width: 1.0;" width="120" x="491" y="395.3828"/><text fill="#000000" font-family="sans-serif" font-size="13" lengthAdjust="spacingAndGlyphs" textLength="112" x="495" y="412.8779">end IMU measuring</text><polygon fill="#A80036" points="426.5,443.0859,416.5,447.0859,426.5,451.0859,422.5,447.0859" style="stroke: #A80036; stroke-width: 1.0;"/><line style="stroke: #A80036; stroke-width: 1.0;" x1="420.5" x2="615.5" y1="447.0859" y2="447.0859"/><text fill="#000000" font-family="sans-serif" font-size="13" lengthAdjust="spacingAndGlyphs" textLength="84" x="432.5" y="442.2295">send IMU data</text><polygon fill="#A80036" points="179.5,473.4375,169.5,477.4375,179.5,481.4375,175.5,477.4375" style="stroke: #A80036; stroke-width: 1.0;"/><line style="stroke: #A80036; stroke-width: 1.0;" x1="173.5" x2="404.5" y1="477.4375" y2="477.4375"/><text fill="#000000" font-family="sans-serif" font-size="13" lengthAdjust="spacingAndGlyphs" textLength="128" x="185.5" y="472.5811">downlink the IMU data</text><path d="M72,490.4375 L72,516.4375 L260,516.4375 L260,500.4375 L250,490.4375 L72,490.4375 " fill="#FBFB77" filter="url(#f1d32yiq8lz565)" style="stroke: #A80036; stroke-width: 1.0;"/><path d="M250,490.4375 L250,500.4375 L260,500.4375 L250,490.4375 " fill="#FBFB77" style="stroke: #A80036; stroke-width: 1.0;"/><text fill="#000000" font-family="sans-serif" font-size="13" lengthAdjust="spacingAndGlyphs" textLength="167" x="78" y="508.9326">check the status of IMU data</text><polygon fill="#A80036" points="609.5,544.1406,619.5,548.1406,609.5,552.1406,613.5,548.1406" style="stroke: #A80036; stroke-width: 1.0;"/><line style="stroke: #A80036; stroke-width: 1.0;" x1="415.5" x2="615.5" y1="548.1406" y2="548.1406"/><text fill="#000000" font-family="sans-serif" font-size="13" lengthAdjust="spacingAndGlyphs" textLength="174" x="422.5" y="543.2842">MDC POWER OFF command</text><rect fill="#EEEEEE" filter="url(#f1d32yiq8lz565)" height="3" style="stroke: #EEEEEE; stroke-width: 1.0;" width="915" x="3" y="577.3164"/><line style="stroke: #000000; stroke-width: 1.0;" x1="3" x2="918" y1="577.3164" y2="577.3164"/><line style="stroke: #000000; stroke-width: 1.0;" x1="3" x2="918" y1="580.3164" y2="580.3164"/><rect fill="#EEEEEE" filter="url(#f1d32yiq8lz565)" height="24.3516" style="stroke: #000000; stroke-width: 2.0;" width="248" x="336.5" y="566.1406"/><text fill="#000000" font-family="sans-serif" font-size="13" font-weight="bold" lengthAdjust="spacingAndGlyphs" textLength="230" x="342.5" y="583.6357">uplink the melting the gut command</text><polygon fill="#A80036" points="393.5,618.8438,403.5,622.8438,393.5,626.8438,397.5,622.8438" style="stroke: #A80036; stroke-width: 1.0;"/><line style="stroke: #A80036; stroke-width: 1.0;" x1="168.5" x2="399.5" y1="622.8438" y2="622.8438"/><text fill="#000000" font-family="sans-serif" font-size="13" lengthAdjust="spacingAndGlyphs" textLength="117" x="175.5" y="617.9873">uplink the command</text><polygon fill="#A80036" points="179.5,649.1953,169.5,653.1953,179.5,657.1953,175.5,653.1953" style="stroke: #A80036; stroke-width: 1.0;"/><line style="stroke: #A80036; stroke-width: 1.0;" x1="173.5" x2="404.5" y1="653.1953" y2="653.1953"/><text fill="#000000" font-family="sans-serif" font-size="13" lengthAdjust="spacingAndGlyphs" textLength="190" x="185.5" y="648.3389">downlink the response command</text><rect fill="#EEEEEE" filter="url(#f1d32yiq8lz565)" height="3" style="stroke: #EEEEEE; stroke-width: 1.0;" width="915" x="3" y="682.3711"/><line style="stroke: #000000; stroke-width: 1.0;" x1="3" x2="918" y1="682.3711" y2="682.3711"/><line style="stroke: #000000; stroke-width: 1.0;" x1="3" x2="918" y1="685.3711" y2="685.3711"/><rect fill="#EEEEEE" filter="url(#f1d32yiq8lz565)" height="24.3516" style="stroke: #000000; stroke-width: 2.0;" width="114" x="403.5" y="671.1953"/><text fill="#000000" font-family="sans-serif" font-size="13" font-weight="bold" lengthAdjust="spacingAndGlyphs" textLength="96" x="409.5" y="688.6904">melting the gut</text><polygon fill="#A80036" points="604.5,723.8984,614.5,727.8984,604.5,731.8984,608.5,727.8984" style="stroke: #A80036; stroke-width: 1.0;"/><line style="stroke: #A80036; stroke-width: 1.0;" x1="415.5" x2="610.5" y1="727.8984" y2="727.8984"/><text fill="#000000" font-family="sans-serif" font-size="13" lengthAdjust="spacingAndGlyphs" textLength="167" x="422.5" y="723.042">MDC POWER ON command</text><polygon fill="#A80036" points="674,754.25,684,758.25,674,762.25,678,758.25" style="stroke: #A80036; stroke-width: 1.0;"/><line style="stroke: #A80036; stroke-width: 1.0;" x1="415.5" x2="680" y1="758.25" y2="758.25"/><text fill="#000000" font-family="sans-serif" font-size="13" lengthAdjust="spacingAndGlyphs" textLength="159" x="422.5" y="753.3936">RPI POWER ON command</text><polygon fill="#A80036" points="604.5,784.6016,614.5,788.6016,604.5,792.6016,608.5,788.6016" style="stroke: #A80036; stroke-width: 1.0;"/><line style="stroke: #A80036; stroke-width: 1.0;" x1="415.5" x2="610.5" y1="788.6016" y2="788.6016"/><text fill="#000000" font-family="sans-serif" font-size="13" lengthAdjust="spacingAndGlyphs" textLength="147" x="422.5" y="783.7451">melting the gut command</text><polygon fill="#A80036" points="674,814.9531,684,818.9531,674,822.9531,678,818.9531" style="stroke: #A80036; stroke-width: 1.0;"/><line style="stroke: #A80036; stroke-width: 1.0;" x1="415.5" x2="680" y1="818.9531" y2="818.9531"/><text fill="#000000" font-family="sans-serif" font-size="13" lengthAdjust="spacingAndGlyphs" textLength="147" x="422.5" y="814.0967">melting the gut command</text><polygon fill="#FBFB77" filter="url(#f1d32yiq8lz565)" points="604,831.9531,708,831.9531,718,843.9531,708,855.9531,604,855.9531,594,843.9531,604,831.9531" style="stroke: #A80036; stroke-width: 1.0;"/><text fill="#000000" font-family="sans-serif" font-size="13" lengthAdjust="spacingAndGlyphs" textLength="87" x="612.5" y="849.4482">sync with OBC</text><rect fill="#FBFB77" filter="url(#f1d32yiq8lz565)" height="24" style="stroke: #A80036; stroke-width: 1.0;" width="125" x="486" y="866.3047"/><text fill="#000000" font-family="sans-serif" font-size="13" lengthAdjust="spacingAndGlyphs" textLength="117" x="490" y="883.7998">start IMU measuring</text><rect fill="#FBFB77" filter="url(#f1d32yiq8lz565)" height="24" style="stroke: #A80036; stroke-width: 1.0;" width="94" x="701" y="900.6563"/><text fill="#000000" font-family="sans-serif" font-size="13" lengthAdjust="spacingAndGlyphs" textLength="86" x="705" y="918.1514">melting the gut</text><rect fill="#FBFB77" filter="url(#f1d32yiq8lz565)" height="24" style="stroke: #A80036; stroke-width: 1.0;" width="120" x="491" y="935.0078"/><text fill="#000000" font-family="sans-serif" font-size="13" lengthAdjust="spacingAndGlyphs" textLength="112" x="495" y="952.5029">end IMU measuring</text><polygon fill="#A80036" points="426.5,982.7109,416.5,986.7109,426.5,990.7109,422.5,986.7109" style="stroke: #A80036; stroke-width: 1.0;"/><line style="stroke: #A80036; stroke-width: 1.0;" x1="420.5" x2="615.5" y1="986.7109" y2="986.7109"/><text fill="#000000" font-family="sans-serif" font-size="13" lengthAdjust="spacingAndGlyphs" textLength="84" x="432.5" y="981.8545">send IMU data</text><polygon fill="#A80036" points="179.5,1013.0625,169.5,1017.0625,179.5,1021.0625,175.5,1017.0625" style="stroke: #A80036; stroke-width: 1.0;"/><line style="stroke: #A80036; stroke-width: 1.0;" x1="173.5" x2="404.5" y1="1017.0625" y2="1017.0625"/><text fill="#000000" font-family="sans-serif" font-size="13" lengthAdjust="spacingAndGlyphs" textLength="128" x="185.5" y="1012.2061">downlink the IMU data</text><path d="M72,1030.0625 L72,1056.0625 L260,1056.0625 L260,1040.0625 L250,1030.0625 L72,1030.0625 " fill="#FBFB77" filter="url(#f1d32yiq8lz565)" style="stroke: #A80036; stroke-width: 1.0;"/><path d="M250,1030.0625 L250,1040.0625 L260,1040.0625 L250,1030.0625 " fill="#FBFB77" style="stroke: #A80036; stroke-width: 1.0;"/><text fill="#000000" font-family="sans-serif" font-size="13" lengthAdjust="spacingAndGlyphs" textLength="167" x="78" y="1048.5576">check the status of IMU data</text><polygon fill="#A80036" points="679,1083.7656,689,1087.7656,679,1091.7656,683,1087.7656" style="stroke: #A80036; stroke-width: 1.0;"/><line style="stroke: #A80036; stroke-width: 1.0;" x1="415.5" x2="685" y1="1087.7656" y2="1087.7656"/><text fill="#000000" font-family="sans-serif" font-size="13" lengthAdjust="spacingAndGlyphs" textLength="166" x="422.5" y="1082.9092">RPI POWER OFF command</text><polygon fill="#A80036" points="609.5,1114.1172,619.5,1118.1172,609.5,1122.1172,613.5,1118.1172" style="stroke: #A80036; stroke-width: 1.0;"/><line style="stroke: #A80036; stroke-width: 1.0;" x1="415.5" x2="615.5" y1="1118.1172" y2="1118.1172"/><text fill="#000000" font-family="sans-serif" font-size="13" lengthAdjust="spacingAndGlyphs" textLength="174" x="422.5" y="1113.2607">MDC POWER OFF command</text><rect fill="#EEEEEE" filter="url(#f1d32yiq8lz565)" height="3" style="stroke: #EEEEEE; stroke-width: 1.0;" width="915" x="3" y="1147.293"/><line style="stroke: #000000; stroke-width: 1.0;" x1="3" x2="918" y1="1147.293" y2="1147.293"/><line style="stroke: #000000; stroke-width: 1.0;" x1="3" x2="918" y1="1150.293" y2="1150.293"/><rect fill="#EEEEEE" filter="url(#f1d32yiq8lz565)" height="24.3516" style="stroke: #000000; stroke-width: 2.0;" width="221" x="350" y="1136.1172"/><text fill="#000000" font-family="sans-serif" font-size="13" font-weight="bold" lengthAdjust="spacingAndGlyphs" textLength="203" x="356" y="1153.6123">uplink the cut of mast command</text><polygon fill="#A80036" points="393.5,1188.8203,403.5,1192.8203,393.5,1196.8203,397.5,1192.8203" style="stroke: #A80036; stroke-width: 1.0;"/><line style="stroke: #A80036; stroke-width: 1.0;" x1="168.5" x2="399.5" y1="1192.8203" y2="1192.8203"/><text fill="#000000" font-family="sans-serif" font-size="13" lengthAdjust="spacingAndGlyphs" textLength="117" x="175.5" y="1187.9639">uplink the command</text><polygon fill="#A80036" points="179.5,1219.1719,169.5,1223.1719,179.5,1227.1719,175.5,1223.1719" style="stroke: #A80036; stroke-width: 1.0;"/><line style="stroke: #A80036; stroke-width: 1.0;" x1="173.5" x2="404.5" y1="1223.1719" y2="1223.1719"/><text fill="#000000" font-family="sans-serif" font-size="13" lengthAdjust="spacingAndGlyphs" textLength="190" x="185.5" y="1218.3154">downlink the response command</text><rect fill="#EEEEEE" filter="url(#f1d32yiq8lz565)" height="3" style="stroke: #EEEEEE; stroke-width: 1.0;" width="915" x="3" y="1252.3477"/><line style="stroke: #000000; stroke-width: 1.0;" x1="3" x2="918" y1="1252.3477" y2="1252.3477"/><line style="stroke: #000000; stroke-width: 1.0;" x1="3" x2="918" y1="1255.3477" y2="1255.3477"/><rect fill="#EEEEEE" filter="url(#f1d32yiq8lz565)" height="24.3516" style="stroke: #000000; stroke-width: 2.0;" width="111" x="405" y="1241.1719"/><text fill="#000000" font-family="sans-serif" font-size="13" font-weight="bold" lengthAdjust="spacingAndGlyphs" textLength="93" x="411" y="1258.667">cut of the mast</text><polygon fill="#A80036" points="604.5,1293.875,614.5,1297.875,604.5,1301.875,608.5,1297.875" style="stroke: #A80036; stroke-width: 1.0;"/><line style="stroke: #A80036; stroke-width: 1.0;" x1="415.5" x2="610.5" y1="1297.875" y2="1297.875"/><text fill="#000000" font-family="sans-serif" font-size="13" lengthAdjust="spacingAndGlyphs" textLength="167" x="422.5" y="1293.0186">MDC POWER ON command</text><polygon fill="#A80036" points="674,1324.2266,684,1328.2266,674,1332.2266,678,1328.2266" style="stroke: #A80036; stroke-width: 1.0;"/><line style="stroke: #A80036; stroke-width: 1.0;" x1="415.5" x2="680" y1="1328.2266" y2="1328.2266"/><text fill="#000000" font-family="sans-serif" font-size="13" lengthAdjust="spacingAndGlyphs" textLength="159" x="422.5" y="1323.3701">RPI POWER ON command</text><polygon fill="#A80036" points="604.5,1354.5781,614.5,1358.5781,604.5,1362.5781,608.5,1358.5781" style="stroke: #A80036; stroke-width: 1.0;"/><line style="stroke: #A80036; stroke-width: 1.0;" x1="415.5" x2="610.5" y1="1358.5781" y2="1358.5781"/><text fill="#000000" font-family="sans-serif" font-size="13" lengthAdjust="spacingAndGlyphs" textLength="148" x="422.5" y="1353.7217">cut of the mast command</text><polygon fill="#A80036" points="674,1384.9297,684,1388.9297,674,1392.9297,678,1388.9297" style="stroke: #A80036; stroke-width: 1.0;"/><line style="stroke: #A80036; stroke-width: 1.0;" x1="415.5" x2="680" y1="1388.9297" y2="1388.9297"/><text fill="#000000" font-family="sans-serif" font-size="13" lengthAdjust="spacingAndGlyphs" textLength="148" x="422.5" y="1384.0732">cut of the mast command</text><polygon fill="#FBFB77" filter="url(#f1d32yiq8lz565)" points="604,1401.9297,708,1401.9297,718,1413.9297,708,1425.9297,604,1425.9297,594,1413.9297,604,1401.9297" style="stroke: #A80036; stroke-width: 1.0;"/><text fill="#000000" font-family="sans-serif" font-size="13" lengthAdjust="spacingAndGlyphs" textLength="87" x="612.5" y="1419.4248">sync with OBC</text><rect fill="#FBFB77" filter="url(#f1d32yiq8lz565)" height="24" style="stroke: #A80036; stroke-width: 1.0;" width="125" x="486" y="1436.2813"/><text fill="#000000" font-family="sans-serif" font-size="13" lengthAdjust="spacingAndGlyphs" textLength="117" x="490" y="1453.7764">start IMU measuring</text><rect fill="#FBFB77" filter="url(#f1d32yiq8lz565)" height="24" style="stroke: #A80036; stroke-width: 1.0;" width="127" x="701" y="1470.6328"/><text fill="#000000" font-family="sans-serif" font-size="13" lengthAdjust="spacingAndGlyphs" textLength="119" x="705" y="1488.1279">start mast extension</text><rect fill="#FBFB77" filter="url(#f1d32yiq8lz565)" height="24" style="stroke: #A80036; stroke-width: 1.0;" width="140" x="701" y="1504.9844"/><text fill="#000000" font-family="sans-serif" font-size="13" lengthAdjust="spacingAndGlyphs" textLength="132" x="705" y="1522.4795">check the encode data</text><polygon fill="#FBFB77" filter="url(#f1d32yiq8lz565)" points="586,1539.3359,725,1539.3359,735,1551.3359,725,1563.3359,586,1563.3359,576,1551.3359,586,1539.3359" style="stroke: #A80036; stroke-width: 1.0;"/><text fill="#000000" font-family="sans-serif" font-size="13" lengthAdjust="spacingAndGlyphs" textLength="135" x="588" y="1556.8311">wait cutting of the mast</text><polygon fill="#FBFB77" filter="url(#f1d32yiq8lz565)" points="583,1573.6875,729,1573.6875,739,1585.6875,729,1597.6875,583,1597.6875,573,1585.6875,583,1573.6875" style="stroke: #A80036; stroke-width: 1.0;"/><text fill="#000000" font-family="sans-serif" font-size="13" lengthAdjust="spacingAndGlyphs" textLength="142" x="585" y="1591.1826">finish cutting of the mast</text><polygon fill="#A80036" points="426.5,1621.3906,416.5,1625.3906,426.5,1629.3906,422.5,1625.3906" style="stroke: #A80036; stroke-width: 1.0;"/><line style="stroke: #A80036; stroke-width: 1.0;" x1="420.5" x2="685" y1="1625.3906" y2="1625.3906"/><text fill="#000000" font-family="sans-serif" font-size="13" lengthAdjust="spacingAndGlyphs" textLength="103" x="432.5" y="1620.5342">send encode data</text><polygon fill="#A80036" points="679,1651.7422,689,1655.7422,679,1659.7422,683,1655.7422" style="stroke: #A80036; stroke-width: 1.0;"/><line style="stroke: #A80036; stroke-width: 1.0;" x1="415.5" x2="685" y1="1655.7422" y2="1655.7422"/><text fill="#000000" font-family="sans-serif" font-size="13" lengthAdjust="spacingAndGlyphs" textLength="166" x="422.5" y="1650.8857">RPI POWER OFF command</text><polygon fill="#A80036" points="609.5,1682.0938,619.5,1686.0938,609.5,1690.0938,613.5,1686.0938" style="stroke: #A80036; stroke-width: 1.0;"/><line style="stroke: #A80036; stroke-width: 1.0;" x1="415.5" x2="615.5" y1="1686.0938" y2="1686.0938"/><text fill="#000000" font-family="sans-serif" font-size="13" lengthAdjust="spacingAndGlyphs" textLength="174" x="422.5" y="1681.2373">MDC POWER OFF command</text><polygon fill="#A80036" points="426.5,1712.4453,416.5,1716.4453,426.5,1720.4453,422.5,1716.4453" style="stroke: #A80036; stroke-width: 1.0;"/><line style="stroke: #A80036; stroke-width: 1.0;" x1="420.5" x2="620.5" y1="1716.4453" y2="1716.4453"/><text fill="#000000" font-family="sans-serif" font-size="13" lengthAdjust="spacingAndGlyphs" textLength="84" x="432.5" y="1711.5889">send IMU data</text><polygon fill="#A80036" points="179.5,1742.7969,169.5,1746.7969,179.5,1750.7969,175.5,1746.7969" style="stroke: #A80036; stroke-width: 1.0;"/><line style="stroke: #A80036; stroke-width: 1.0;" x1="173.5" x2="404.5" y1="1746.7969" y2="1746.7969"/><text fill="#000000" font-family="sans-serif" font-size="13" lengthAdjust="spacingAndGlyphs" textLength="213" x="185.5" y="1741.9404">downlink the data of encode and IMU</text><path d="M19,1759.7969 L19,1785.7969 L314,1785.7969 L314,1769.7969 L304,1759.7969 L19,1759.7969 " fill="#FBFB77" filter="url(#f1d32yiq8lz565)" style="stroke: #A80036; stroke-width: 1.0;"/><path d="M304,1759.7969 L304,1769.7969 L314,1769.7969 L304,1759.7969 " fill="#FBFB77" style="stroke: #A80036; stroke-width: 1.0;"/><text fill="#000000" font-family="sans-serif" font-size="13" lengthAdjust="spacingAndGlyphs" textLength="274" x="25" y="1778.292">check the status of the data of encode and IMU</text><rect fill="#EEEEEE" filter="url(#f1d32yiq8lz565)" height="3" style="stroke: #EEEEEE; stroke-width: 1.0;" width="915" x="3" y="1816.3242"/><line style="stroke: #000000; stroke-width: 1.0;" x1="3" x2="918" y1="1816.3242" y2="1816.3242"/><line style="stroke: #000000; stroke-width: 1.0;" x1="3" x2="918" y1="1819.3242" y2="1819.3242"/><rect fill="#EEEEEE" filter="url(#f1d32yiq8lz565)" height="24.3516" style="stroke: #000000; stroke-width: 2.0;" width="241" x="340" y="1805.1484"/><text fill="#000000" font-family="sans-serif" font-size="13" font-weight="bold" lengthAdjust="spacingAndGlyphs" textLength="223" x="346" y="1822.6436">uplink the camera check command</text><polygon fill="#A80036" points="393.5,1857.8516,403.5,1861.8516,393.5,1865.8516,397.5,1861.8516" style="stroke: #A80036; stroke-width: 1.0;"/><line style="stroke: #A80036; stroke-width: 1.0;" x1="168.5" x2="399.5" y1="1861.8516" y2="1861.8516"/><text fill="#000000" font-family="sans-serif" font-size="13" lengthAdjust="spacingAndGlyphs" textLength="117" x="175.5" y="1856.9951">uplink the command</text><polygon fill="#A80036" points="179.5,1888.2031,169.5,1892.2031,179.5,1896.2031,175.5,1892.2031" style="stroke: #A80036; stroke-width: 1.0;"/><line style="stroke: #A80036; stroke-width: 1.0;" x1="173.5" x2="404.5" y1="1892.2031" y2="1892.2031"/><text fill="#000000" font-family="sans-serif" font-size="13" lengthAdjust="spacingAndGlyphs" textLength="190" x="185.5" y="1887.3467">downlink the response command</text><rect fill="#EEEEEE" filter="url(#f1d32yiq8lz565)" height="3" style="stroke: #EEEEEE; stroke-width: 1.0;" width="915" x="3" y="1921.3789"/><line style="stroke: #000000; stroke-width: 1.0;" x1="3" x2="918" y1="1921.3789" y2="1921.3789"/><line style="stroke: #000000; stroke-width: 1.0;" x1="3" x2="918" y1="1924.3789" y2="1924.3789"/><rect fill="#EEEEEE" filter="url(#f1d32yiq8lz565)" height="24.3516" style="stroke: #000000; stroke-width: 2.0;" width="126" x="397.5" y="1910.2031"/><text fill="#000000" font-family="sans-serif" font-size="13" font-weight="bold" lengthAdjust="spacingAndGlyphs" textLength="108" x="403.5" y="1927.6982">check by camera</text><polygon fill="#A80036" points="674,1962.9063,684,1966.9063,674,1970.9063,678,1966.9063" style="stroke: #A80036; stroke-width: 1.0;"/><line style="stroke: #A80036; stroke-width: 1.0;" x1="415.5" x2="680" y1="1966.9063" y2="1966.9063"/><text fill="#000000" font-family="sans-serif" font-size="13" lengthAdjust="spacingAndGlyphs" textLength="159" x="422.5" y="1962.0498">RPI POWER ON command</text><polygon fill="#A80036" points="674,1993.2578,684,1997.2578,674,2001.2578,678,1997.2578" style="stroke: #A80036; stroke-width: 1.0;"/><line style="stroke: #A80036; stroke-width: 1.0;" x1="415.5" x2="680" y1="1997.2578" y2="1997.2578"/><text fill="#000000" font-family="sans-serif" font-size="13" lengthAdjust="spacingAndGlyphs" textLength="161" x="422.5" y="1992.4014">check by camera command</text><polygon fill="#FBFB77" filter="url(#f1d32yiq8lz565)" points="645,2010.2578,736,2010.2578,746,2022.2578,736,2034.2578,645,2034.2578,635,2022.2578,645,2010.2578" style="stroke: #A80036; stroke-width: 1.0;"/><text fill="#000000" font-family="sans-serif" font-size="13" lengthAdjust="spacingAndGlyphs" textLength="87" x="647" y="2027.7529">sync with OBC</text><rect fill="#FBFB77" filter="url(#f1d32yiq8lz565)" height="24" style="stroke: #A80036; stroke-width: 1.0;" width="56" x="701" y="2044.6094"/><text fill="#000000" font-family="sans-serif" font-size="13" lengthAdjust="spacingAndGlyphs" textLength="48" x="705" y="2062.1045">LED ON</text><rect fill="#FBFB77" filter="url(#f1d32yiq8lz565)" height="24" style="stroke: #A80036; stroke-width: 1.0;" width="212" x="701" y="2078.9609"/><text fill="#000000" font-family="sans-serif" font-size="13" lengthAdjust="spacingAndGlyphs" textLength="204" x="705" y="2096.4561">take the phote with sutereo camera</text><rect fill="#FBFB77" filter="url(#f1d32yiq8lz565)" height="24" style="stroke: #A80036; stroke-width: 1.0;" width="130" x="701" y="2113.3125"/><text fill="#000000" font-family="sans-serif" font-size="13" lengthAdjust="spacingAndGlyphs" textLength="122" x="705" y="2130.8076">resize the phote data</text><rect fill="#FBFB77" filter="url(#f1d32yiq8lz565)" height="24" style="stroke: #A80036; stroke-width: 1.0;" width="63" x="701" y="2147.6641"/><text fill="#000000" font-family="sans-serif" font-size="13" lengthAdjust="spacingAndGlyphs" textLength="55" x="705" y="2165.1592">LED OFF</text><polygon fill="#A80036" points="426.5,2195.3672,416.5,2199.3672,426.5,2203.3672,422.5,2199.3672" style="stroke: #A80036; stroke-width: 1.0;"/><line style="stroke: #A80036; stroke-width: 1.0;" x1="420.5" x2="685" y1="2199.3672" y2="2199.3672"/><text fill="#000000" font-family="sans-serif" font-size="13" lengthAdjust="spacingAndGlyphs" textLength="93" x="432.5" y="2194.5107">send photo data</text><polygon fill="#A80036" points="679,2225.7188,689,2229.7188,679,2233.7188,683,2229.7188" style="stroke: #A80036; stroke-width: 1.0;"/><line style="stroke: #A80036; stroke-width: 1.0;" x1="415.5" x2="685" y1="2229.7188" y2="2229.7188"/><text fill="#000000" font-family="sans-serif" font-size="13" lengthAdjust="spacingAndGlyphs" textLength="166" x="422.5" y="2224.8623">RPI POWER OFF command</text><polygon fill="#A80036" points="179.5,2256.0703,169.5,2260.0703,179.5,2264.0703,175.5,2260.0703" style="stroke: #A80036; stroke-width: 1.0;"/><line style="stroke: #A80036; stroke-width: 1.0;" x1="173.5" x2="404.5" y1="2260.0703" y2="2260.0703"/><text fill="#000000" font-family="sans-serif" font-size="13" lengthAdjust="spacingAndGlyphs" textLength="137" x="185.5" y="2255.2139">downlink the photo data</text><path d="M8,2273.0703 L8,2299.0703 L326,2299.0703 L326,2283.0703 L316,2273.0703 L8,2273.0703 " fill="#FBFB77" filter="url(#f1d32yiq8lz565)" style="stroke: #A80036; stroke-width: 1.0;"/><path d="M316,2273.0703 L316,2283.0703 L326,2283.0703 L316,2273.0703 " fill="#FBFB77" style="stroke: #A80036; stroke-width: 1.0;"/><text fill="#000000" font-family="sans-serif" font-size="13" lengthAdjust="spacingAndGlyphs" textLength="297" x="14" y="2291.5654">check that cut off mast sequence is success or not</text><!--
@startuml
title membrane cut of sequence

participant ground_station
participant COBC_OBC
participant MDC_PIC
participant RPI

activate COBC_OBC

== start membrane cut of sequence ==
ground_station -> COBC_OBC      : uplink the command
COBC_OBC -> ground_station      : downlink the response command

== IMU function check ==
COBC_OBC -> MDC_PIC             : MDC POWER ON command
activate MDC_PIC
MDC_PIC -> COBC_OBC             : ack
COBC_OBC -> MDC_PIC             : IMU measure check command
hnote over MDC_PIC              : sync with OBC
rnote left of MDC_PIC           : start IMU measuring
rnote left of MDC_PIC           : end IMU measuring
MDC_PIC -> COBC_OBC             : send IMU data
COBC_OBC -> ground_station      : downlink the IMU data
note over ground_station        : check the status of IMU data
COBC_OBC -> MDC_PIC             : MDC POWER OFF command
deactivate MDC_PIC

== uplink the melting the gut command ==
ground_station -> COBC_OBC      : uplink the command
COBC_OBC -> ground_station      : downlink the response command

== melting the gut ==
COBC_OBC -> MDC_PIC             : MDC POWER ON command
activate MDC_PIC
COBC_OBC -> RPI                 : RPI POWER ON command
activate RPI
COBC_OBC -> MDC_PIC             : melting the gut command
COBC_OBC -> RPI                 : melting the gut command
hnote over MDC_PIC, RPI         : sync with OBC
rnote left of MDC_PIC           : start IMU measuring
rnote right of RPI              : melting the gut
rnote left of MDC_PIC           : end IMU measuring
MDC_PIC -> COBC_OBC             : send IMU data
COBC_OBC -> ground_station      : downlink the IMU data
note over ground_station        : check the status of IMU data
COBC_OBC -> RPI                 : RPI POWER OFF command
deactivate RPI
COBC_OBC -> MDC_PIC             : MDC POWER OFF command
deactivate MDC_PIC

== uplink the cut of mast command ==
ground_station -> COBC_OBC      : uplink the command
COBC_OBC -> ground_station      : downlink the response command

== cut of the mast ==
COBC_OBC -> MDC_PIC             : MDC POWER ON command
activate MDC_PIC
COBC_OBC -> RPI                 : RPI POWER ON command
activate RPI
COBC_OBC -> MDC_PIC             : cut of the mast command
COBC_OBC -> RPI                 : cut of the mast command
hnote over MDC_PIC, RPI         : sync with OBC
rnote left of MDC_PIC           : start IMU measuring
rnote right of RPI              : start mast extension
rnote right of RPI              : check the encode data
hnote over MDC_PIC, RPI         : wait cutting of the mast
hnote over MDC_PIC, RPI         : finish cutting of the mast
RPI -> COBC_OBC                 : send encode data
COBC_OBC -> RPI                 : RPI POWER OFF command
deactivate RPI
COBC_OBC -> MDC_PIC             : MDC POWER OFF command
deactivate MDC_PIC
MDC_PIC -> COBC_OBC             : send IMU data
COBC_OBC -> ground_station      : downlink the data of encode and IMU
note over ground_station        : check the status of the data of encode and IMU

== uplink the camera check command ==
ground_station -> COBC_OBC      : uplink the command
COBC_OBC -> ground_station      : downlink the response command

== check by camera ==
COBC_OBC -> RPI                 : RPI POWER ON command
activate RPI
COBC_OBC -> RPI                 : check by camera command
hnote over RPI                  : sync with OBC
rnote right of RPI              : LED ON
rnote right of RPI              : take the phote with sutereo camera
rnote right of RPI              : resize the phote data
rnote right of RPI              : LED OFF
RPI -> COBC_OBC                 : send photo data
COBC_OBC -> RPI                 : RPI POWER OFF command
deactivate RPI
COBC_OBC -> ground_station      : downlink the photo data
note over ground_station        : check that cut off mast sequence is success or not



@enduml

PlantUML version 1.2018.03(Fri Apr 06 01:59:15 JST 2018)
(GPL source distribution)
Java Runtime: Java(TM) SE Runtime Environment
JVM: Java HotSpot(TM) Client VM
Java Version: 1.8.0_171-b11
Operating System: Windows 10
OS Version: 10.0
Default Encoding: MS932
Language: ja
Country: JP
--></g></svg>