<?xml version="1.0" encoding="UTF-8" standalone="no"?><svg xmlns="http://www.w3.org/2000/svg" xmlns:xlink="http://www.w3.org/1999/xlink" contentScriptType="application/ecmascript" contentStyleType="text/css" height="1480px" preserveAspectRatio="none" style="width:1279px;height:1480px;" version="1.1" viewBox="0 0 1279 1480" width="1279px" zoomAndPan="magnify"><defs><filter height="300%" id="fg6y8fcarxy55" width="300%" x="-1" y="-1"><feGaussianBlur result="blurOut" stdDeviation="2.0"/><feColorMatrix in="blurOut" result="blurOut2" type="matrix" values="0 0 0 0 0 0 0 0 0 0 0 0 0 0 0 0 0 0 .4 0"/><feOffset dx="4.0" dy="4.0" in="blurOut2" result="blurOut3"/><feBlend in="SourceGraphic" in2="blurOut3" mode="normal"/></filter></defs><g><text fill="#000000" font-family="sans-serif" font-size="14" font-weight="bold" lengthAdjust="spacingAndGlyphs" textLength="44" x="613" y="24.5332">TX_RX</text><rect fill="#FFFFFF" filter="url(#fg6y8fcarxy55)" height="125.2422" style="stroke: #000000; stroke-width: 2.0;" width="676.5" x="13" y="189.9219"/><rect fill="#FFFFFF" height="46.1875" style="stroke: none; stroke-width: 1.0;" width="676.5" x="13" y="268.9766"/><rect fill="#FFFFFF" filter="url(#fg6y8fcarxy55)" height="122.4063" style="stroke: #000000; stroke-width: 2.0;" width="383.5" x="598.5" y="493.9219"/><rect fill="#FFFFFF" filter="url(#fg6y8fcarxy55)" height="181.5938" style="stroke: #000000; stroke-width: 2.0;" width="967" x="13" y="630.3281"/><rect fill="#FFFFFF" height="89.5391" style="stroke: none; stroke-width: 1.0;" width="967" x="13" y="722.3828"/><rect fill="#FFFFFF" filter="url(#fg6y8fcarxy55)" height="122.4063" style="stroke: #000000; stroke-width: 2.0;" width="383.5" x="598.5" y="1071.0313"/><rect fill="#FFFFFF" filter="url(#fg6y8fcarxy55)" height="181.5938" style="stroke: #000000; stroke-width: 2.0;" width="969" x="13" y="1207.4375"/><rect fill="#FFFFFF" height="89.5391" style="stroke: none; stroke-width: 1.0;" width="969" x="13" y="1299.4922"/><line style="stroke: #A80036; stroke-width: 1.0; stroke-dasharray: 5.0,5.0;" x1="42" x2="42" y1="98.2188" y2="1406.0313"/><line style="stroke: #A80036; stroke-width: 1.0; stroke-dasharray: 5.0,5.0;" x1="242" x2="242" y1="98.2188" y2="1406.0313"/><line style="stroke: #A80036; stroke-width: 1.0; stroke-dasharray: 5.0,5.0;" x1="562.5" x2="562.5" y1="98.2188" y2="1406.0313"/><line style="stroke: #A80036; stroke-width: 1.0; stroke-dasharray: 5.0,5.0;" x1="643.5" x2="643.5" y1="98.2188" y2="1406.0313"/><line style="stroke: #A80036; stroke-width: 1.0; stroke-dasharray: 5.0,5.0;" x1="843.5" x2="843.5" y1="98.2188" y2="1406.0313"/><line style="stroke: #A80036; stroke-width: 1.0; stroke-dasharray: 5.0,5.0;" x1="1147" x2="1147" y1="98.2188" y2="1406.0313"/><rect fill="#FEFECE" filter="url(#fg6y8fcarxy55)" height="31.6094" style="stroke: #A80036; stroke-width: 1.5;" width="34" x="23" y="61.6094"/><text fill="#000000" font-family="sans-serif" font-size="14" lengthAdjust="spacingAndGlyphs" textLength="20" x="30" y="83.1426">GS</text><rect fill="#FEFECE" filter="url(#fg6y8fcarxy55)" height="31.6094" style="stroke: #A80036; stroke-width: 1.5;" width="34" x="23" y="1405.0313"/><text fill="#000000" font-family="sans-serif" font-size="14" lengthAdjust="spacingAndGlyphs" textLength="20" x="30" y="1426.5645">GS</text><rect fill="#FEFECE" filter="url(#fg6y8fcarxy55)" height="31.6094" style="stroke: #A80036; stroke-width: 1.5;" width="72" x="204" y="61.6094"/><text fill="#000000" font-family="sans-serif" font-size="14" lengthAdjust="spacingAndGlyphs" textLength="58" x="211" y="83.1426">RXCOBC</text><rect fill="#FEFECE" filter="url(#fg6y8fcarxy55)" height="31.6094" style="stroke: #A80036; stroke-width: 1.5;" width="72" x="204" y="1405.0313"/><text fill="#000000" font-family="sans-serif" font-size="14" lengthAdjust="spacingAndGlyphs" textLength="58" x="211" y="1426.5645">RXCOBC</text><text fill="#000000" font-family="sans-serif" font-size="14" lengthAdjust="spacingAndGlyphs" textLength="65" x="527.5" y="95.1426">EEPLOM1</text><path d="M545,44.6094 C545,34.6094 563,34.6094 563,34.6094 C563,34.6094 581,34.6094 581,44.6094 L581,70.6094 C581,80.6094 563,80.6094 563,80.6094 C563,80.6094 545,80.6094 545,70.6094 L545,44.6094 " fill="#FEFECE" filter="url(#fg6y8fcarxy55)" style="stroke: #000000; stroke-width: 1.5;"/><path d="M545,44.6094 C545,54.6094 563,54.6094 563,54.6094 C563,54.6094 581,54.6094 581,44.6094 " fill="none" style="stroke: #000000; stroke-width: 1.5;"/><text fill="#000000" font-family="sans-serif" font-size="14" lengthAdjust="spacingAndGlyphs" textLength="65" x="527.5" y="1419.5645">EEPLOM1</text><path d="M545,1432.6406 C545,1422.6406 563,1422.6406 563,1422.6406 C563,1422.6406 581,1422.6406 581,1432.6406 L581,1458.6406 C581,1468.6406 563,1468.6406 563,1468.6406 C563,1468.6406 545,1468.6406 545,1458.6406 L545,1432.6406 " fill="#FEFECE" filter="url(#fg6y8fcarxy55)" style="stroke: #000000; stroke-width: 1.5;"/><path d="M545,1432.6406 C545,1442.6406 563,1442.6406 563,1442.6406 C563,1442.6406 581,1442.6406 581,1432.6406 " fill="none" style="stroke: #000000; stroke-width: 1.5;"/><text fill="#000000" font-family="sans-serif" font-size="14" lengthAdjust="spacingAndGlyphs" textLength="65" x="608.5" y="95.1426">EEPLOM2</text><path d="M626,44.6094 C626,34.6094 644,34.6094 644,34.6094 C644,34.6094 662,34.6094 662,44.6094 L662,70.6094 C662,80.6094 644,80.6094 644,80.6094 C644,80.6094 626,80.6094 626,70.6094 L626,44.6094 " fill="#FEFECE" filter="url(#fg6y8fcarxy55)" style="stroke: #000000; stroke-width: 1.5;"/><path d="M626,44.6094 C626,54.6094 644,54.6094 644,54.6094 C644,54.6094 662,54.6094 662,44.6094 " fill="none" style="stroke: #000000; stroke-width: 1.5;"/><text fill="#000000" font-family="sans-serif" font-size="14" lengthAdjust="spacingAndGlyphs" textLength="65" x="608.5" y="1419.5645">EEPLOM2</text><path d="M626,1432.6406 C626,1422.6406 644,1422.6406 644,1422.6406 C644,1422.6406 662,1422.6406 662,1432.6406 L662,1458.6406 C662,1468.6406 644,1468.6406 644,1468.6406 C644,1468.6406 626,1468.6406 626,1458.6406 L626,1432.6406 " fill="#FEFECE" filter="url(#fg6y8fcarxy55)" style="stroke: #000000; stroke-width: 1.5;"/><path d="M626,1432.6406 C626,1442.6406 644,1442.6406 644,1442.6406 C644,1442.6406 662,1442.6406 662,1432.6406 " fill="none" style="stroke: #000000; stroke-width: 1.5;"/><rect fill="#FEFECE" filter="url(#fg6y8fcarxy55)" height="31.6094" style="stroke: #A80036; stroke-width: 1.5;" width="71" x="806.5" y="61.6094"/><text fill="#000000" font-family="sans-serif" font-size="14" lengthAdjust="spacingAndGlyphs" textLength="57" x="813.5" y="83.1426">TXCOBC</text><rect fill="#FEFECE" filter="url(#fg6y8fcarxy55)" height="31.6094" style="stroke: #A80036; stroke-width: 1.5;" width="71" x="806.5" y="1405.0313"/><text fill="#000000" font-family="sans-serif" font-size="14" lengthAdjust="spacingAndGlyphs" textLength="57" x="813.5" y="1426.5645">TXCOBC</text><rect fill="#FEFECE" filter="url(#fg6y8fcarxy55)" height="31.6094" style="stroke: #A80036; stroke-width: 1.5;" width="44" x="1123" y="61.6094"/><text fill="#000000" font-family="sans-serif" font-size="14" lengthAdjust="spacingAndGlyphs" textLength="30" x="1130" y="83.1426">OBC</text><rect fill="#FEFECE" filter="url(#fg6y8fcarxy55)" height="31.6094" style="stroke: #A80036; stroke-width: 1.5;" width="44" x="1123" y="1405.0313"/><text fill="#000000" font-family="sans-serif" font-size="14" lengthAdjust="spacingAndGlyphs" textLength="30" x="1130" y="1426.5645">OBC</text><rect fill="#EEEEEE" filter="url(#fg6y8fcarxy55)" height="3" style="stroke: #EEEEEE; stroke-width: 1.0;" width="1264" x="3" y="129.3945"/><line style="stroke: #000000; stroke-width: 1.0;" x1="3" x2="1267" y1="129.3945" y2="129.3945"/><line style="stroke: #000000; stroke-width: 1.0;" x1="3" x2="1267" y1="132.3945" y2="132.3945"/><rect fill="#EEEEEE" filter="url(#fg6y8fcarxy55)" height="24.3516" style="stroke: #000000; stroke-width: 2.0;" width="87" x="591.5" y="118.2188"/><text fill="#000000" font-family="sans-serif" font-size="13" font-weight="bold" lengthAdjust="spacingAndGlyphs" textLength="69" x="597.5" y="135.7139">VHF uplink</text><polygon fill="#A80036" points="230,170.9219,240,174.9219,230,178.9219,234,174.9219" style="stroke: #A80036; stroke-width: 1.0;"/><line style="stroke: #A80036; stroke-width: 1.0;" x1="42" x2="236" y1="174.9219" y2="174.9219"/><text fill="#000000" font-family="sans-serif" font-size="13" lengthAdjust="spacingAndGlyphs" textLength="176" x="49" y="170.0654">Uplink through the Modem(RX)</text><path d="M13,189.9219 L74,189.9219 L74,197.9219 L64,207.9219 L13,207.9219 L13,189.9219 " fill="#EEEEEE" style="stroke: #000000; stroke-width: 1.0;"/><rect fill="none" height="125.2422" style="stroke: #000000; stroke-width: 2.0;" width="676.5" x="13" y="189.9219"/><text fill="#000000" font-family="sans-serif" font-size="13" font-weight="bold" lengthAdjust="spacingAndGlyphs" textLength="16" x="28" y="204.417">alt</text><text fill="#000000" font-family="sans-serif" font-size="11" font-weight="bold" lengthAdjust="spacingAndGlyphs" textLength="130" x="89" y="203.3408">[AX.25 protocol signals]</text><polygon fill="#A80036" points="551,226.625,561,230.625,551,234.625,555,230.625" style="stroke: #A80036; stroke-width: 1.0;"/><line style="stroke: #A80036; stroke-width: 1.0;" x1="242" x2="557" y1="230.625" y2="230.625"/><text fill="#000000" font-family="sans-serif" font-size="13" lengthAdjust="spacingAndGlyphs" textLength="297" x="249" y="225.7686">Write the command data with the specified address</text><polygon fill="#A80036" points="632,256.9766,642,260.9766,632,264.9766,636,260.9766" style="stroke: #A80036; stroke-width: 1.0;"/><line style="stroke: #A80036; stroke-width: 1.0;" x1="242" x2="638" y1="260.9766" y2="260.9766"/><text fill="#000000" font-family="sans-serif" font-size="13" lengthAdjust="spacingAndGlyphs" textLength="301" x="249" y="256.1201">Writre the command data with the specified address</text><line style="stroke: #000000; stroke-width: 1.0; stroke-dasharray: 2.0,2.0;" x1="13" x2="689.5" y1="269.9766" y2="269.9766"/><text fill="#000000" font-family="sans-serif" font-size="11" font-weight="bold" lengthAdjust="spacingAndGlyphs" textLength="154" x="18" y="281.3955">[NOT Ax.25 protocol signals]</text><polygon fill="#A80036" points="230,303.1641,240,307.1641,230,311.1641,234,307.1641" style="stroke: #A80036; stroke-width: 1.0;"/><line style="stroke: #A80036; stroke-width: 1.0;" x1="42" x2="236" y1="307.1641" y2="307.1641"/><text fill="#000000" font-family="sans-serif" font-size="13" lengthAdjust="spacingAndGlyphs" textLength="176" x="49" y="302.3076">Uplink through the Modem(RX)</text><polygon fill="#A80036" points="832,340.5156,842,344.5156,832,348.5156,836,344.5156" style="stroke: #A80036; stroke-width: 1.0;"/><line style="stroke: #A80036; stroke-width: 1.0;" x1="242" x2="838" y1="344.5156" y2="344.5156"/><text fill="#000000" font-family="sans-serif" font-size="13" lengthAdjust="spacingAndGlyphs" textLength="192" x="249" y="339.6592">Send the command data address</text><polygon fill="#A80036" points="1135,370.8672,1145,374.8672,1135,378.8672,1139,374.8672" style="stroke: #A80036; stroke-width: 1.0;"/><line style="stroke: #A80036; stroke-width: 1.0;" x1="242" x2="1141" y1="374.8672" y2="374.8672"/><text fill="#000000" font-family="sans-serif" font-size="13" lengthAdjust="spacingAndGlyphs" textLength="192" x="249" y="370.0107">Send the command data address</text><polygon fill="#A80036" points="574,401.2188,564,405.2188,574,409.2188,570,405.2188" style="stroke: #A80036; stroke-width: 1.0;"/><line style="stroke: #A80036; stroke-width: 1.0;" x1="568" x2="843" y1="405.2188" y2="405.2188"/><text fill="#000000" font-family="sans-serif" font-size="13" lengthAdjust="spacingAndGlyphs" textLength="102" x="580" y="400.3623">Read the comand</text><polygon fill="#A80036" points="574,431.5703,564,435.5703,574,439.5703,570,435.5703" style="stroke: #A80036; stroke-width: 1.0;"/><line style="stroke: #A80036; stroke-width: 1.0;" x1="568" x2="843" y1="435.5703" y2="435.5703"/><text fill="#000000" font-family="sans-serif" font-size="13" lengthAdjust="spacingAndGlyphs" textLength="176" x="580" y="430.7139">Check the CRC of the comand</text><line style="stroke: #A80036; stroke-width: 1.0;" x1="844" x2="886" y1="465.9219" y2="465.9219"/><line style="stroke: #A80036; stroke-width: 1.0;" x1="886" x2="886" y1="465.9219" y2="478.9219"/><line style="stroke: #A80036; stroke-width: 1.0;" x1="845" x2="886" y1="478.9219" y2="478.9219"/><polygon fill="#A80036" points="855,474.9219,845,478.9219,855,482.9219,851,478.9219" style="stroke: #A80036; stroke-width: 1.0;"/><text fill="#000000" font-family="sans-serif" font-size="13" lengthAdjust="spacingAndGlyphs" textLength="119" x="851" y="461.0654">Update signal status</text><path d="M598.5,493.9219 L663.5,493.9219 L663.5,501.9219 L653.5,511.9219 L598.5,511.9219 L598.5,493.9219 " fill="#EEEEEE" style="stroke: #000000; stroke-width: 1.0;"/><rect fill="none" height="122.4063" style="stroke: #000000; stroke-width: 2.0;" width="383.5" x="598.5" y="493.9219"/><text fill="#000000" font-family="sans-serif" font-size="13" font-weight="bold" lengthAdjust="spacingAndGlyphs" textLength="20" x="613.5" y="508.417">opt</text><text fill="#000000" font-family="sans-serif" font-size="11" font-weight="bold" lengthAdjust="spacingAndGlyphs" textLength="257" x="678.5" y="507.3408">[the command CRC in EEPLOM1 is NOT correct]</text><polygon fill="#A80036" points="655,530.625,645,534.625,655,538.625,651,534.625" style="stroke: #A80036; stroke-width: 1.0;"/><line style="stroke: #A80036; stroke-width: 1.0;" x1="649" x2="843" y1="534.625" y2="534.625"/><text fill="#000000" font-family="sans-serif" font-size="13" lengthAdjust="spacingAndGlyphs" textLength="102" x="661" y="529.7686">Read the comand</text><polygon fill="#A80036" points="655,560.9766,645,564.9766,655,568.9766,651,564.9766" style="stroke: #A80036; stroke-width: 1.0;"/><line style="stroke: #A80036; stroke-width: 1.0;" x1="649" x2="843" y1="564.9766" y2="564.9766"/><text fill="#000000" font-family="sans-serif" font-size="13" lengthAdjust="spacingAndGlyphs" textLength="176" x="661" y="560.1201">Check the CRC of the comand</text><line style="stroke: #A80036; stroke-width: 1.0;" x1="844" x2="886" y1="595.3281" y2="595.3281"/><line style="stroke: #A80036; stroke-width: 1.0;" x1="886" x2="886" y1="595.3281" y2="608.3281"/><line style="stroke: #A80036; stroke-width: 1.0;" x1="845" x2="886" y1="608.3281" y2="608.3281"/><polygon fill="#A80036" points="855,604.3281,845,608.3281,855,612.3281,851,608.3281" style="stroke: #A80036; stroke-width: 1.0;"/><text fill="#000000" font-family="sans-serif" font-size="13" lengthAdjust="spacingAndGlyphs" textLength="119" x="851" y="590.4717">Update signal status</text><path d="M13,630.3281 L74,630.3281 L74,638.3281 L64,648.3281 L13,648.3281 L13,630.3281 " fill="#EEEEEE" style="stroke: #000000; stroke-width: 1.0;"/><rect fill="none" height="181.5938" style="stroke: #000000; stroke-width: 2.0;" width="967" x="13" y="630.3281"/><text fill="#000000" font-family="sans-serif" font-size="13" font-weight="bold" lengthAdjust="spacingAndGlyphs" textLength="16" x="28" y="644.8232">alt</text><text fill="#000000" font-family="sans-serif" font-size="11" font-weight="bold" lengthAdjust="spacingAndGlyphs" textLength="434" x="89" y="643.7471">[the command CRC in EEPLOM1 and the command CRC in EEPLOM2 are correct]</text><polygon fill="#A80036" points="53,667.0313,43,671.0313,53,675.0313,49,671.0313" style="stroke: #A80036; stroke-width: 1.0;"/><line style="stroke: #A80036; stroke-width: 1.0;" x1="47" x2="843" y1="671.0313" y2="671.0313"/><text fill="#000000" font-family="sans-serif" font-size="13" lengthAdjust="spacingAndGlyphs" textLength="415" x="59" y="666.1748">through the Modem(TX) and downlink (the signal is correct)(TBD times?)</text><line style="stroke: #A80036; stroke-width: 1.0;" x1="844" x2="886" y1="701.3828" y2="701.3828"/><line style="stroke: #A80036; stroke-width: 1.0;" x1="886" x2="886" y1="701.3828" y2="714.3828"/><line style="stroke: #A80036; stroke-width: 1.0;" x1="845" x2="886" y1="714.3828" y2="714.3828"/><polygon fill="#A80036" points="855,710.3828,845,714.3828,855,718.3828,851,714.3828" style="stroke: #A80036; stroke-width: 1.0;"/><text fill="#000000" font-family="sans-serif" font-size="13" lengthAdjust="spacingAndGlyphs" textLength="117" x="851" y="696.5264">signal status update</text><line style="stroke: #000000; stroke-width: 1.0; stroke-dasharray: 2.0,2.0;" x1="13" x2="980" y1="723.3828" y2="723.3828"/><text fill="#000000" font-family="sans-serif" font-size="11" font-weight="bold" lengthAdjust="spacingAndGlyphs" textLength="73" x="18" y="734.8018">[NOT correct]</text><polygon fill="#A80036" points="53,756.5703,43,760.5703,53,764.5703,49,760.5703" style="stroke: #A80036; stroke-width: 1.0;"/><line style="stroke: #A80036; stroke-width: 1.0;" x1="47" x2="843" y1="760.5703" y2="760.5703"/><text fill="#000000" font-family="sans-serif" font-size="13" lengthAdjust="spacingAndGlyphs" textLength="445" x="59" y="755.7139">through the Modem(TX) and downlink (the signal is NOT correct)(TBD times?)</text><line style="stroke: #A80036; stroke-width: 1.0;" x1="844" x2="886" y1="790.9219" y2="790.9219"/><line style="stroke: #A80036; stroke-width: 1.0;" x1="886" x2="886" y1="790.9219" y2="803.9219"/><line style="stroke: #A80036; stroke-width: 1.0;" x1="845" x2="886" y1="803.9219" y2="803.9219"/><polygon fill="#A80036" points="855,799.9219,845,803.9219,855,807.9219,851,803.9219" style="stroke: #A80036; stroke-width: 1.0;"/><text fill="#000000" font-family="sans-serif" font-size="13" lengthAdjust="spacingAndGlyphs" textLength="117" x="851" y="786.0654">signal status update</text><rect fill="#EEEEEE" filter="url(#fg6y8fcarxy55)" height="3" style="stroke: #EEEEEE; stroke-width: 1.0;" width="1264" x="3" y="840.0977"/><line style="stroke: #000000; stroke-width: 1.0;" x1="3" x2="1267" y1="840.0977" y2="840.0977"/><line style="stroke: #000000; stroke-width: 1.0;" x1="3" x2="1267" y1="843.0977" y2="843.0977"/><rect fill="#EEEEEE" filter="url(#fg6y8fcarxy55)" height="24.3516" style="stroke: #000000; stroke-width: 2.0;" width="106" x="582" y="828.9219"/><text fill="#000000" font-family="sans-serif" font-size="13" font-weight="bold" lengthAdjust="spacingAndGlyphs" textLength="88" x="588" y="846.417">UHF downlink</text><line style="stroke: #A80036; stroke-width: 1.0;" x1="1147" x2="1189" y1="885.625" y2="885.625"/><line style="stroke: #A80036; stroke-width: 1.0;" x1="1189" x2="1189" y1="885.625" y2="898.625"/><line style="stroke: #A80036; stroke-width: 1.0;" x1="1148" x2="1189" y1="898.625" y2="898.625"/><polygon fill="#A80036" points="1158,894.625,1148,898.625,1158,902.625,1154,898.625" style="stroke: #A80036; stroke-width: 1.0;"/><text fill="#000000" font-family="sans-serif" font-size="13" lengthAdjust="spacingAndGlyphs" textLength="106" x="1154" y="880.7686">Switch Multiplexer</text><polygon fill="#A80036" points="855,929.9766,845,933.9766,855,937.9766,851,933.9766" style="stroke: #A80036; stroke-width: 1.0;"/><line style="stroke: #A80036; stroke-width: 1.0;" x1="849" x2="1146" y1="933.9766" y2="933.9766"/><text fill="#000000" font-family="sans-serif" font-size="13" lengthAdjust="spacingAndGlyphs" textLength="279" x="861" y="929.1201">Downlink command and send EEPLOM address</text><path d="M499,911.625 L499,937.625 L835,937.625 L835,921.625 L825,911.625 L499,911.625 " fill="#FBFB77" filter="url(#fg6y8fcarxy55)" style="stroke: #A80036; stroke-width: 1.0;"/><path d="M825,911.625 L825,921.625 L835,921.625 L825,911.625 " fill="#FBFB77" style="stroke: #A80036; stroke-width: 1.0;"/><text fill="#000000" font-family="sans-serif" font-size="13" lengthAdjust="spacingAndGlyphs" textLength="315" x="505" y="930.1201">after RXCOBC send OBC the command data address?</text><line style="stroke: #A80036; stroke-width: 1.0;" x1="1147" x2="1189" y1="969.3281" y2="969.3281"/><line style="stroke: #A80036; stroke-width: 1.0;" x1="1189" x2="1189" y1="969.3281" y2="982.3281"/><line style="stroke: #A80036; stroke-width: 1.0;" x1="1148" x2="1189" y1="982.3281" y2="982.3281"/><polygon fill="#A80036" points="1158,978.3281,1148,982.3281,1158,986.3281,1154,982.3281" style="stroke: #A80036; stroke-width: 1.0;"/><text fill="#000000" font-family="sans-serif" font-size="13" lengthAdjust="spacingAndGlyphs" textLength="106" x="1154" y="964.4717">Switch Multiplexer</text><polygon fill="#A80036" points="574,1008.6797,564,1012.6797,574,1016.6797,570,1012.6797" style="stroke: #A80036; stroke-width: 1.0;"/><line style="stroke: #A80036; stroke-width: 1.0;" x1="568" x2="843" y1="1012.6797" y2="1012.6797"/><text fill="#000000" font-family="sans-serif" font-size="13" lengthAdjust="spacingAndGlyphs" textLength="106" x="580" y="1007.8232">Read that address</text><line style="stroke: #A80036; stroke-width: 1.0;" x1="844" x2="886" y1="1043.0313" y2="1043.0313"/><line style="stroke: #A80036; stroke-width: 1.0;" x1="886" x2="886" y1="1043.0313" y2="1056.0313"/><line style="stroke: #A80036; stroke-width: 1.0;" x1="845" x2="886" y1="1056.0313" y2="1056.0313"/><polygon fill="#A80036" points="855,1052.0313,845,1056.0313,855,1060.0313,851,1056.0313" style="stroke: #A80036; stroke-width: 1.0;"/><text fill="#000000" font-family="sans-serif" font-size="13" lengthAdjust="spacingAndGlyphs" textLength="119" x="851" y="1038.1748">Signal status update</text><path d="M598.5,1071.0313 L663.5,1071.0313 L663.5,1079.0313 L653.5,1089.0313 L598.5,1089.0313 L598.5,1071.0313 " fill="#EEEEEE" style="stroke: #000000; stroke-width: 1.0;"/><rect fill="none" height="122.4063" style="stroke: #000000; stroke-width: 2.0;" width="383.5" x="598.5" y="1071.0313"/><text fill="#000000" font-family="sans-serif" font-size="13" font-weight="bold" lengthAdjust="spacingAndGlyphs" textLength="20" x="613.5" y="1085.5264">opt</text><text fill="#000000" font-family="sans-serif" font-size="11" font-weight="bold" lengthAdjust="spacingAndGlyphs" textLength="257" x="678.5" y="1084.4502">[the command CRC in EEPLOM1 is NOT correct]</text><polygon fill="#A80036" points="655,1107.7344,645,1111.7344,655,1115.7344,651,1111.7344" style="stroke: #A80036; stroke-width: 1.0;"/><line style="stroke: #A80036; stroke-width: 1.0;" x1="649" x2="843" y1="1111.7344" y2="1111.7344"/><text fill="#000000" font-family="sans-serif" font-size="13" lengthAdjust="spacingAndGlyphs" textLength="102" x="661" y="1106.8779">Read the comand</text><polygon fill="#A80036" points="655,1138.0859,645,1142.0859,655,1146.0859,651,1142.0859" style="stroke: #A80036; stroke-width: 1.0;"/><line style="stroke: #A80036; stroke-width: 1.0;" x1="649" x2="843" y1="1142.0859" y2="1142.0859"/><text fill="#000000" font-family="sans-serif" font-size="13" lengthAdjust="spacingAndGlyphs" textLength="176" x="661" y="1137.2295">Check the CRC of the comand</text><line style="stroke: #A80036; stroke-width: 1.0;" x1="844" x2="886" y1="1172.4375" y2="1172.4375"/><line style="stroke: #A80036; stroke-width: 1.0;" x1="886" x2="886" y1="1172.4375" y2="1185.4375"/><line style="stroke: #A80036; stroke-width: 1.0;" x1="845" x2="886" y1="1185.4375" y2="1185.4375"/><polygon fill="#A80036" points="855,1181.4375,845,1185.4375,855,1189.4375,851,1185.4375" style="stroke: #A80036; stroke-width: 1.0;"/><text fill="#000000" font-family="sans-serif" font-size="13" lengthAdjust="spacingAndGlyphs" textLength="119" x="851" y="1167.5811">Signal status update</text><path d="M13,1207.4375 L74,1207.4375 L74,1215.4375 L64,1225.4375 L13,1225.4375 L13,1207.4375 " fill="#EEEEEE" style="stroke: #000000; stroke-width: 1.0;"/><rect fill="none" height="181.5938" style="stroke: #000000; stroke-width: 2.0;" width="969" x="13" y="1207.4375"/><text fill="#000000" font-family="sans-serif" font-size="13" font-weight="bold" lengthAdjust="spacingAndGlyphs" textLength="16" x="28" y="1221.9326">alt</text><text fill="#000000" font-family="sans-serif" font-size="11" font-weight="bold" lengthAdjust="spacingAndGlyphs" textLength="459" x="89" y="1220.8564">[the command CRC in EEPLOM1 and the command CRC in EEPLOM2 are NOT correct]</text><polygon fill="#A80036" points="53,1244.1406,43,1248.1406,53,1252.1406,49,1248.1406" style="stroke: #A80036; stroke-width: 1.0;"/><line style="stroke: #A80036; stroke-width: 1.0;" x1="47" x2="843" y1="1248.1406" y2="1248.1406"/><text fill="#000000" font-family="sans-serif" font-size="13" lengthAdjust="spacingAndGlyphs" textLength="437" x="59" y="1243.2842">through the Modem(TX) and downlink (the signal is not correct)(TBD times?)</text><line style="stroke: #A80036; stroke-width: 1.0;" x1="844" x2="886" y1="1278.4922" y2="1278.4922"/><line style="stroke: #A80036; stroke-width: 1.0;" x1="886" x2="886" y1="1278.4922" y2="1291.4922"/><line style="stroke: #A80036; stroke-width: 1.0;" x1="845" x2="886" y1="1291.4922" y2="1291.4922"/><polygon fill="#A80036" points="855,1287.4922,845,1291.4922,855,1295.4922,851,1291.4922" style="stroke: #A80036; stroke-width: 1.0;"/><text fill="#000000" font-family="sans-serif" font-size="13" lengthAdjust="spacingAndGlyphs" textLength="119" x="851" y="1273.6357">Signal status update</text><line style="stroke: #000000; stroke-width: 1.0; stroke-dasharray: 2.0,2.0;" x1="13" x2="982" y1="1300.4922" y2="1300.4922"/><text fill="#000000" font-family="sans-serif" font-size="11" font-weight="bold" lengthAdjust="spacingAndGlyphs" textLength="48" x="18" y="1311.9111">[correct]</text><polygon fill="#A80036" points="53,1333.6797,43,1337.6797,53,1341.6797,49,1337.6797" style="stroke: #A80036; stroke-width: 1.0;"/><line style="stroke: #A80036; stroke-width: 1.0;" x1="47" x2="843" y1="1337.6797" y2="1337.6797"/><text fill="#000000" font-family="sans-serif" font-size="13" lengthAdjust="spacingAndGlyphs" textLength="415" x="59" y="1332.8232">through the Modem(TX) and downlink (the signal is correct)(TBD times?)</text><line style="stroke: #A80036; stroke-width: 1.0;" x1="844" x2="886" y1="1368.0313" y2="1368.0313"/><line style="stroke: #A80036; stroke-width: 1.0;" x1="886" x2="886" y1="1368.0313" y2="1381.0313"/><line style="stroke: #A80036; stroke-width: 1.0;" x1="845" x2="886" y1="1381.0313" y2="1381.0313"/><polygon fill="#A80036" points="855,1377.0313,845,1381.0313,855,1385.0313,851,1381.0313" style="stroke: #A80036; stroke-width: 1.0;"/><text fill="#000000" font-family="sans-serif" font-size="13" lengthAdjust="spacingAndGlyphs" textLength="119" x="851" y="1363.1748">Signal status update</text><!--
@startuml
title TX_RX
participant GS
participant RXCOBC
database EEPLOM1
database EEPLOM2
participant TXCOBC
participant OBC

== VHF uplink ==
GS -> RXCOBC: Uplink through the Modem(RX)
alt AX.25 protocol signals
RXCOBC -> EEPLOM1: Write the command data with the specified address
RXCOBC -> EEPLOM2: Writre the command data with the specified address
else NOT Ax.25 protocol signals
GS -> RXCOBC: Uplink through the Modem(RX)
end
RXCOBC -> TXCOBC: Send the command data address
RXCOBC -> OBC: Send the command data address
TXCOBC -> EEPLOM1: Read the comand
TXCOBC -> EEPLOM1: Check the CRC of the comand

TXCOBC -> TXCOBC: Update signal status

 opt the command CRC in EEPLOM1 is NOT correct
TXCOBC -> EEPLOM2: Read the comand
TXCOBC -> EEPLOM2: Check the CRC of the comand
TXCOBC -> TXCOBC: Update signal status
 end

alt the command CRC in EEPLOM1 and the command CRC in EEPLOM2 are correct
TXCOBC -> GS: through the Modem(TX) and downlink (the signal is correct)(TBD times?)
TXCOBC -> TXCOBC: signal status update
else NOT correct
TXCOBC -> GS: through the Modem(TX) and downlink (the signal is NOT correct)(TBD times?)
TXCOBC -> TXCOBC: signal status update
end



== UHF downlink ==


OBC -> OBC: Switch Multiplexer
OBC -> TXCOBC: Downlink command and send EEPLOM address
note left: after RXCOBC send OBC the command data address?
OBC -> OBC: Switch Multiplexer
TXCOBC -> EEPLOM1: Read that address
TXCOBC -> TXCOBC: Signal status update
opt the command CRC in EEPLOM1 is NOT correct
TXCOBC -> EEPLOM2: Read the comand
TXCOBC -> EEPLOM2: Check the CRC of the comand
TXCOBC -> TXCOBC: Signal status update
 end

alt the command CRC in EEPLOM1 and the command CRC in EEPLOM2 are NOT correct
TXCOBC -> GS: through the Modem(TX) and downlink (the signal is not correct)(TBD times?)
TXCOBC -> TXCOBC: Signal status update
else correct
TXCOBC -> GS: through the Modem(TX) and downlink (the signal is correct)(TBD times?)
TXCOBC -> TXCOBC: Signal status update
end

@enduml

PlantUML version 1.2018.03(Fri Apr 06 01:59:15 JST 2018)
(GPL source distribution)
Java Runtime: Java(TM) SE Runtime Environment
JVM: Java HotSpot(TM) Client VM
Java Version: 1.8.0_181-b13
Operating System: Windows 10
OS Version: 10.0
Default Encoding: MS932
Language: ja
Country: JP
--></g></svg>