<?xml version="1.0" encoding="UTF-8" standalone="no"?><svg xmlns="http://www.w3.org/2000/svg" xmlns:xlink="http://www.w3.org/1999/xlink" contentScriptType="application/ecmascript" contentStyleType="text/css" height="2711px" preserveAspectRatio="none" style="width:1339px;height:2711px;" version="1.1" viewBox="0 0 1339 2711" width="1339px" zoomAndPan="magnify"><defs><filter height="300%" id="ffg6n70z8yrtl" width="300%" x="-1" y="-1"><feGaussianBlur result="blurOut" stdDeviation="2.0"/><feColorMatrix in="blurOut" result="blurOut2" type="matrix" values="0 0 0 0 0 0 0 0 0 0 0 0 0 0 0 0 0 0 .4 0"/><feOffset dx="4.0" dy="4.0" in="blurOut2" result="blurOut3"/><feBlend in="SourceGraphic" in2="blurOut3" mode="normal"/></filter></defs><g><text fill="#000000" font-family="sans-serif" font-size="14" font-weight="bold" lengthAdjust="spacingAndGlyphs" textLength="160" x="585" y="24.5332">membrane deployment</text><rect fill="#FFFFFF" filter="url(#ffg6n70z8yrtl)" height="2579.9609" style="stroke: #A80036; stroke-width: 1.0;" width="10" x="539" y="81.2188"/><rect fill="#FFFFFF" filter="url(#ffg6n70z8yrtl)" height="372.5156" style="stroke: #A80036; stroke-width: 1.0;" width="10" x="869" y="854.9531"/><rect fill="#FFFFFF" filter="url(#ffg6n70z8yrtl)" height="762.0313" style="stroke: #A80036; stroke-width: 1.0;" width="10" x="869" y="1573.9844"/><rect fill="#FFFFFF" filter="url(#ffg6n70z8yrtl)" height="422.2188" style="stroke: #A80036; stroke-width: 1.0;" width="10" x="1101" y="252.9766"/><rect fill="#FFFFFF" filter="url(#ffg6n70z8yrtl)" height="913.7891" style="stroke: #A80036; stroke-width: 1.0;" width="10" x="1101" y="1513.2813"/><rect fill="#FFFFFF" filter="url(#ffg6n70z8yrtl)" height="61.7031" style="stroke: #000000; stroke-width: 2.0;" width="403" x="13" y="584.1406"/><rect fill="#FFFFFF" filter="url(#ffg6n70z8yrtl)" height="61.7031" style="stroke: #000000; stroke-width: 2.0;" width="398" x="13" y="1272.8203"/><rect fill="#FFFFFF" filter="url(#ffg6n70z8yrtl)" height="388.5156" style="stroke: #000000; stroke-width: 2.0;" width="946" x="371" y="1757.7422"/><rect fill="#FFFFFF" filter="url(#ffg6n70z8yrtl)" height="269.4609" style="stroke: #000000; stroke-width: 2.0;" width="926" x="381" y="1826.4453"/><rect fill="#FFFFFF" filter="url(#ffg6n70z8yrtl)" height="61.7031" style="stroke: #000000; stroke-width: 2.0;" width="390" x="13" y="2442.0703"/><line style="stroke: #A80036; stroke-width: 1.0; stroke-dasharray: 5.0,5.0;" x1="42" x2="42" y1="71.2188" y2="2670.1797"/><line style="stroke: #A80036; stroke-width: 1.0; stroke-dasharray: 5.0,5.0;" x1="411" x2="411" y1="71.2188" y2="2670.1797"/><line style="stroke: #A80036; stroke-width: 1.0; stroke-dasharray: 5.0,5.0;" x1="544" x2="544" y1="71.2188" y2="2670.1797"/><line style="stroke: #A80036; stroke-width: 1.0; stroke-dasharray: 5.0,5.0;" x1="874" x2="874" y1="71.2188" y2="2670.1797"/><line style="stroke: #A80036; stroke-width: 1.0; stroke-dasharray: 5.0,5.0;" x1="1105.5" x2="1105.5" y1="71.2188" y2="2670.1797"/><rect fill="#FEFECE" filter="url(#ffg6n70z8yrtl)" height="31.6094" style="stroke: #A80036; stroke-width: 1.5;" width="34" x="23" y="34.6094"/><text fill="#000000" font-family="sans-serif" font-size="14" lengthAdjust="spacingAndGlyphs" textLength="20" x="30" y="56.1426">GS</text><rect fill="#FEFECE" filter="url(#ffg6n70z8yrtl)" height="31.6094" style="stroke: #A80036; stroke-width: 1.5;" width="34" x="23" y="2669.1797"/><text fill="#000000" font-family="sans-serif" font-size="14" lengthAdjust="spacingAndGlyphs" textLength="20" x="30" y="2690.7129">GS</text><rect fill="#FEFECE" filter="url(#ffg6n70z8yrtl)" height="31.6094" style="stroke: #A80036; stroke-width: 1.5;" width="36" x="391" y="34.6094"/><text fill="#000000" font-family="sans-serif" font-size="14" lengthAdjust="spacingAndGlyphs" textLength="22" x="398" y="56.1426">CIB</text><rect fill="#FEFECE" filter="url(#ffg6n70z8yrtl)" height="31.6094" style="stroke: #A80036; stroke-width: 1.5;" width="36" x="391" y="2669.1797"/><text fill="#000000" font-family="sans-serif" font-size="14" lengthAdjust="spacingAndGlyphs" textLength="22" x="398" y="2690.7129">CIB</text><rect fill="#FEFECE" filter="url(#ffg6n70z8yrtl)" height="31.6094" style="stroke: #A80036; stroke-width: 1.5;" width="44" x="520" y="34.6094"/><text fill="#000000" font-family="sans-serif" font-size="14" lengthAdjust="spacingAndGlyphs" textLength="30" x="527" y="56.1426">OBC</text><rect fill="#FEFECE" filter="url(#ffg6n70z8yrtl)" height="31.6094" style="stroke: #A80036; stroke-width: 1.5;" width="44" x="520" y="2669.1797"/><text fill="#000000" font-family="sans-serif" font-size="14" lengthAdjust="spacingAndGlyphs" textLength="30" x="527" y="2690.7129">OBC</text><rect fill="#FEFECE" filter="url(#ffg6n70z8yrtl)" height="31.6094" style="stroke: #A80036; stroke-width: 1.5;" width="36" x="854" y="34.6094"/><text fill="#000000" font-family="sans-serif" font-size="14" lengthAdjust="spacingAndGlyphs" textLength="22" x="861" y="56.1426">RPI</text><rect fill="#FEFECE" filter="url(#ffg6n70z8yrtl)" height="31.6094" style="stroke: #A80036; stroke-width: 1.5;" width="36" x="854" y="2669.1797"/><text fill="#000000" font-family="sans-serif" font-size="14" lengthAdjust="spacingAndGlyphs" textLength="22" x="861" y="2690.7129">RPI</text><rect fill="#FEFECE" filter="url(#ffg6n70z8yrtl)" height="31.6094" style="stroke: #A80036; stroke-width: 1.5;" width="45" x="1081.5" y="34.6094"/><text fill="#000000" font-family="sans-serif" font-size="14" lengthAdjust="spacingAndGlyphs" textLength="31" x="1088.5" y="56.1426">MDC</text><rect fill="#FEFECE" filter="url(#ffg6n70z8yrtl)" height="31.6094" style="stroke: #A80036; stroke-width: 1.5;" width="45" x="1081.5" y="2669.1797"/><text fill="#000000" font-family="sans-serif" font-size="14" lengthAdjust="spacingAndGlyphs" textLength="31" x="1088.5" y="2690.7129">MDC</text><rect fill="#FFFFFF" filter="url(#ffg6n70z8yrtl)" height="2579.9609" style="stroke: #A80036; stroke-width: 1.0;" width="10" x="539" y="81.2188"/><rect fill="#FFFFFF" filter="url(#ffg6n70z8yrtl)" height="372.5156" style="stroke: #A80036; stroke-width: 1.0;" width="10" x="869" y="854.9531"/><rect fill="#FFFFFF" filter="url(#ffg6n70z8yrtl)" height="762.0313" style="stroke: #A80036; stroke-width: 1.0;" width="10" x="869" y="1573.9844"/><rect fill="#FFFFFF" filter="url(#ffg6n70z8yrtl)" height="422.2188" style="stroke: #A80036; stroke-width: 1.0;" width="10" x="1101" y="252.9766"/><rect fill="#FFFFFF" filter="url(#ffg6n70z8yrtl)" height="913.7891" style="stroke: #A80036; stroke-width: 1.0;" width="10" x="1101" y="1513.2813"/><rect fill="#EEEEEE" filter="url(#ffg6n70z8yrtl)" height="3" style="stroke: #EEEEEE; stroke-width: 1.0;" width="1324" x="3" y="102.3945"/><line style="stroke: #000000; stroke-width: 1.0;" x1="3" x2="1327" y1="102.3945" y2="102.3945"/><line style="stroke: #000000; stroke-width: 1.0;" x1="3" x2="1327" y1="105.3945" y2="105.3945"/><rect fill="#EEEEEE" filter="url(#ffg6n70z8yrtl)" height="24.3516" style="stroke: #000000; stroke-width: 2.0;" width="286" x="522" y="91.2188"/><text fill="#000000" font-family="sans-serif" font-size="13" font-weight="bold" lengthAdjust="spacingAndGlyphs" textLength="268" x="528" y="108.7139">start the membrane deployment sequence</text><polygon fill="#A80036" points="527,143.9219,537,147.9219,527,151.9219,531,147.9219" style="stroke: #A80036; stroke-width: 1.0;"/><line style="stroke: #A80036; stroke-width: 1.0;" x1="42" x2="533" y1="147.9219" y2="147.9219"/><text fill="#000000" font-family="sans-serif" font-size="13" lengthAdjust="spacingAndGlyphs" textLength="119" x="49" y="143.0654">Uplink the command</text><polygon fill="#A80036" points="53,174.2734,43,178.2734,53,182.2734,49,178.2734" style="stroke: #A80036; stroke-width: 1.0;"/><line style="stroke: #A80036; stroke-width: 1.0;" x1="47" x2="538" y1="178.2734" y2="178.2734"/><text fill="#000000" font-family="sans-serif" font-size="13" lengthAdjust="spacingAndGlyphs" textLength="135" x="59" y="173.417">Downlink the command</text><rect fill="#EEEEEE" filter="url(#ffg6n70z8yrtl)" height="3" style="stroke: #EEEEEE; stroke-width: 1.0;" width="1324" x="3" y="207.4492"/><line style="stroke: #000000; stroke-width: 1.0;" x1="3" x2="1327" y1="207.4492" y2="207.4492"/><line style="stroke: #000000; stroke-width: 1.0;" x1="3" x2="1327" y1="210.4492" y2="210.4492"/><rect fill="#EEEEEE" filter="url(#ffg6n70z8yrtl)" height="24.3516" style="stroke: #000000; stroke-width: 2.0;" width="164" x="583" y="196.2734"/><text fill="#000000" font-family="sans-serif" font-size="13" font-weight="bold" lengthAdjust="spacingAndGlyphs" textLength="146" x="589" y="213.7686">IMU &amp; M/S function test</text><polygon fill="#A80036" points="1089,248.9766,1099,252.9766,1089,256.9766,1093,252.9766" style="stroke: #A80036; stroke-width: 1.0;"/><line style="stroke: #A80036; stroke-width: 1.0;" x1="549" x2="1095" y1="252.9766" y2="252.9766"/><text fill="#000000" font-family="sans-serif" font-size="13" lengthAdjust="spacingAndGlyphs" textLength="180" x="556" y="248.1201">Send MDC power on command</text><polygon fill="#A80036" points="560,279.3281,550,283.3281,560,287.3281,556,283.3281" style="stroke: #A80036; stroke-width: 1.0;"/><line style="stroke: #A80036; stroke-width: 1.0;" x1="554" x2="1100" y1="283.3281" y2="283.3281"/><text fill="#000000" font-family="sans-serif" font-size="13" lengthAdjust="spacingAndGlyphs" textLength="21" x="566" y="278.4717">ack</text><polygon fill="#A80036" points="1089,309.6797,1099,313.6797,1089,317.6797,1093,313.6797" style="stroke: #A80036; stroke-width: 1.0;"/><line style="stroke: #A80036; stroke-width: 1.0;" x1="549" x2="1095" y1="313.6797" y2="313.6797"/><text fill="#000000" font-family="sans-serif" font-size="13" lengthAdjust="spacingAndGlyphs" textLength="234" x="556" y="308.8232">Send IMU &amp; M/S function test command</text><polygon fill="#FBFB77" filter="url(#ffg6n70z8yrtl)" points="401,326.6797,1115,326.6797,1125,338.6797,1115,350.6797,401,350.6797,391,338.6797,401,326.6797" style="stroke: #A80036; stroke-width: 1.0;"/><text fill="#000000" font-family="sans-serif" font-size="13" lengthAdjust="spacingAndGlyphs" textLength="89" x="713.75" y="344.1748">Sync with OBC</text><line style="stroke: #A80036; stroke-width: 1.0;" x1="1111" x2="1153" y1="378.3828" y2="378.3828"/><line style="stroke: #A80036; stroke-width: 1.0;" x1="1153" x2="1153" y1="378.3828" y2="391.3828"/><line style="stroke: #A80036; stroke-width: 1.0;" x1="1112" x2="1153" y1="391.3828" y2="391.3828"/><polygon fill="#A80036" points="1122,387.3828,1112,391.3828,1122,395.3828,1118,391.3828" style="stroke: #A80036; stroke-width: 1.0;"/><text fill="#000000" font-family="sans-serif" font-size="13" lengthAdjust="spacingAndGlyphs" textLength="118" x="1118" y="373.5264">Measure M/S status</text><line style="stroke: #A80036; stroke-width: 1.0;" x1="1111" x2="1153" y1="421.7344" y2="421.7344"/><line style="stroke: #A80036; stroke-width: 1.0;" x1="1153" x2="1153" y1="421.7344" y2="434.7344"/><line style="stroke: #A80036; stroke-width: 1.0;" x1="1112" x2="1153" y1="434.7344" y2="434.7344"/><polygon fill="#A80036" points="1122,430.7344,1112,434.7344,1122,438.7344,1118,434.7344" style="stroke: #A80036; stroke-width: 1.0;"/><text fill="#000000" font-family="sans-serif" font-size="13" lengthAdjust="spacingAndGlyphs" textLength="77" x="1118" y="416.8779">Measure IMU</text><line style="stroke: #A80036; stroke-width: 1.0;" x1="411" x2="453" y1="465.0859" y2="465.0859"/><line style="stroke: #A80036; stroke-width: 1.0;" x1="453" x2="453" y1="465.0859" y2="478.0859"/><line style="stroke: #A80036; stroke-width: 1.0;" x1="412" x2="453" y1="478.0859" y2="478.0859"/><polygon fill="#A80036" points="422,474.0859,412,478.0859,422,482.0859,418,478.0859" style="stroke: #A80036; stroke-width: 1.0;"/><text fill="#000000" font-family="sans-serif" font-size="13" lengthAdjust="spacingAndGlyphs" textLength="77" x="418" y="460.2295">Measure IMU</text><polygon fill="#A80036" points="560,504.4375,550,508.4375,560,512.4375,556,508.4375" style="stroke: #A80036; stroke-width: 1.0;"/><line style="stroke: #A80036; stroke-width: 1.0;" x1="554" x2="1100" y1="508.4375" y2="508.4375"/><text fill="#000000" font-family="sans-serif" font-size="13" lengthAdjust="spacingAndGlyphs" textLength="179" x="566" y="503.5811">Send IMU data and M/S status</text><polygon fill="#A80036" points="527,534.7891,537,538.7891,527,542.7891,531,538.7891" style="stroke: #A80036; stroke-width: 1.0;"/><line style="stroke: #A80036; stroke-width: 1.0;" x1="411" x2="533" y1="538.7891" y2="538.7891"/><text fill="#000000" font-family="sans-serif" font-size="13" lengthAdjust="spacingAndGlyphs" textLength="86" x="418" y="533.9326">Send IMU data</text><polygon fill="#A80036" points="53,565.1406,43,569.1406,53,573.1406,49,569.1406" style="stroke: #A80036; stroke-width: 1.0;"/><line style="stroke: #A80036; stroke-width: 1.0;" x1="47" x2="538" y1="569.1406" y2="569.1406"/><text fill="#000000" font-family="sans-serif" font-size="13" lengthAdjust="spacingAndGlyphs" textLength="223" x="59" y="564.2842">Downlink the IMU data and M/S status</text><path d="M13,584.1406 L78,584.1406 L78,592.1406 L68,602.1406 L13,602.1406 L13,584.1406 " fill="#EEEEEE" style="stroke: #000000; stroke-width: 1.0;"/><rect fill="none" height="61.7031" style="stroke: #000000; stroke-width: 2.0;" width="403" x="13" y="584.1406"/><text fill="#000000" font-family="sans-serif" font-size="13" font-weight="bold" lengthAdjust="spacingAndGlyphs" textLength="20" x="28" y="598.6357">opt</text><text fill="#000000" font-family="sans-serif" font-size="11" font-weight="bold" lengthAdjust="spacingAndGlyphs" textLength="207" x="93" y="597.5596">[IMU data or M/S status is not correct]</text><line style="stroke: #A80036; stroke-width: 1.0;" x1="42" x2="84" y1="624.8438" y2="624.8438"/><line style="stroke: #A80036; stroke-width: 1.0;" x1="84" x2="84" y1="624.8438" y2="637.8438"/><line style="stroke: #A80036; stroke-width: 1.0;" x1="43" x2="84" y1="637.8438" y2="637.8438"/><polygon fill="#A80036" points="53,633.8438,43,637.8438,53,641.8438,49,637.8438" style="stroke: #A80036; stroke-width: 1.0;"/><text fill="#000000" font-family="sans-serif" font-size="13" lengthAdjust="spacingAndGlyphs" textLength="355" x="49" y="619.9873">Back to tha start the membrane deployment sequence border</text><polygon fill="#A80036" points="1094,671.1953,1104,675.1953,1094,679.1953,1098,675.1953" style="stroke: #A80036; stroke-width: 1.0;"/><line style="stroke: #A80036; stroke-width: 1.0;" x1="549" x2="1100" y1="675.1953" y2="675.1953"/><text fill="#000000" font-family="sans-serif" font-size="13" lengthAdjust="spacingAndGlyphs" textLength="179" x="556" y="670.3389">Send MDC power off command</text><rect fill="#EEEEEE" filter="url(#ffg6n70z8yrtl)" height="3" style="stroke: #EEEEEE; stroke-width: 1.0;" width="1324" x="3" y="704.3711"/><line style="stroke: #000000; stroke-width: 1.0;" x1="3" x2="1327" y1="704.3711" y2="704.3711"/><line style="stroke: #000000; stroke-width: 1.0;" x1="3" x2="1327" y1="707.3711" y2="707.3711"/><rect fill="#EEEEEE" filter="url(#ffg6n70z8yrtl)" height="24.3516" style="stroke: #000000; stroke-width: 2.0;" width="282" x="524" y="693.1953"/><text fill="#000000" font-family="sans-serif" font-size="13" font-weight="bold" lengthAdjust="spacingAndGlyphs" textLength="264" x="530" y="710.6904">Uplink the camera function test command</text><polygon fill="#A80036" points="527,745.8984,537,749.8984,527,753.8984,531,749.8984" style="stroke: #A80036; stroke-width: 1.0;"/><line style="stroke: #A80036; stroke-width: 1.0;" x1="42" x2="533" y1="749.8984" y2="749.8984"/><text fill="#000000" font-family="sans-serif" font-size="13" lengthAdjust="spacingAndGlyphs" textLength="119" x="49" y="745.042">Uplink the command</text><polygon fill="#A80036" points="53,776.25,43,780.25,53,784.25,49,780.25" style="stroke: #A80036; stroke-width: 1.0;"/><line style="stroke: #A80036; stroke-width: 1.0;" x1="47" x2="538" y1="780.25" y2="780.25"/><text fill="#000000" font-family="sans-serif" font-size="13" lengthAdjust="spacingAndGlyphs" textLength="135" x="59" y="775.3936">Downlink the command</text><rect fill="#EEEEEE" filter="url(#ffg6n70z8yrtl)" height="3" style="stroke: #EEEEEE; stroke-width: 1.0;" width="1324" x="3" y="809.4258"/><line style="stroke: #000000; stroke-width: 1.0;" x1="3" x2="1327" y1="809.4258" y2="809.4258"/><line style="stroke: #000000; stroke-width: 1.0;" x1="3" x2="1327" y1="812.4258" y2="812.4258"/><rect fill="#EEEEEE" filter="url(#ffg6n70z8yrtl)" height="24.3516" style="stroke: #000000; stroke-width: 2.0;" width="147" x="591.5" y="798.25"/><text fill="#000000" font-family="sans-serif" font-size="13" font-weight="bold" lengthAdjust="spacingAndGlyphs" textLength="129" x="597.5" y="815.7451">camera function test</text><polygon fill="#A80036" points="857,850.9531,867,854.9531,857,858.9531,861,854.9531" style="stroke: #A80036; stroke-width: 1.0;"/><line style="stroke: #A80036; stroke-width: 1.0;" x1="549" x2="863" y1="854.9531" y2="854.9531"/><text fill="#000000" font-family="sans-serif" font-size="13" lengthAdjust="spacingAndGlyphs" textLength="111" x="556" y="850.0967">Send RPI power on</text><polygon fill="#A80036" points="560,881.3047,550,885.3047,560,889.3047,556,885.3047" style="stroke: #A80036; stroke-width: 1.0;"/><line style="stroke: #A80036; stroke-width: 1.0;" x1="554" x2="868" y1="885.3047" y2="885.3047"/><text fill="#000000" font-family="sans-serif" font-size="13" lengthAdjust="spacingAndGlyphs" textLength="21" x="566" y="880.4482">ack</text><polygon fill="#A80036" points="857,911.6563,867,915.6563,857,919.6563,861,915.6563" style="stroke: #A80036; stroke-width: 1.0;"/><line style="stroke: #A80036; stroke-width: 1.0;" x1="549" x2="863" y1="915.6563" y2="915.6563"/><text fill="#000000" font-family="sans-serif" font-size="13" lengthAdjust="spacingAndGlyphs" textLength="213" x="556" y="910.7998">Send camera function test command</text><polygon fill="#FBFB77" filter="url(#ffg6n70z8yrtl)" points="534,928.6563,883,928.6563,893,940.6563,883,952.6563,534,952.6563,524,940.6563,534,928.6563" style="stroke: #A80036; stroke-width: 1.0;"/><text fill="#000000" font-family="sans-serif" font-size="13" lengthAdjust="spacingAndGlyphs" textLength="87" x="665" y="946.1514">sync with OBC</text><line style="stroke: #A80036; stroke-width: 1.0;" x1="879" x2="921" y1="980.3594" y2="980.3594"/><line style="stroke: #A80036; stroke-width: 1.0;" x1="921" x2="921" y1="980.3594" y2="993.3594"/><line style="stroke: #A80036; stroke-width: 1.0;" x1="880" x2="921" y1="993.3594" y2="993.3594"/><polygon fill="#A80036" points="890,989.3594,880,993.3594,890,997.3594,886,993.3594" style="stroke: #A80036; stroke-width: 1.0;"/><text fill="#000000" font-family="sans-serif" font-size="13" lengthAdjust="spacingAndGlyphs" textLength="48" x="886" y="975.5029">LED ON</text><line style="stroke: #A80036; stroke-width: 1.0;" x1="879" x2="921" y1="1023.7109" y2="1023.7109"/><line style="stroke: #A80036; stroke-width: 1.0;" x1="921" x2="921" y1="1023.7109" y2="1036.7109"/><line style="stroke: #A80036; stroke-width: 1.0;" x1="880" x2="921" y1="1036.7109" y2="1036.7109"/><polygon fill="#A80036" points="890,1032.7109,880,1036.7109,890,1040.7109,886,1036.7109" style="stroke: #A80036; stroke-width: 1.0;"/><text fill="#000000" font-family="sans-serif" font-size="13" lengthAdjust="spacingAndGlyphs" textLength="207" x="886" y="1018.8545">Take the photo with sutereo camera</text><line style="stroke: #A80036; stroke-width: 1.0;" x1="879" x2="921" y1="1067.0625" y2="1067.0625"/><line style="stroke: #A80036; stroke-width: 1.0;" x1="921" x2="921" y1="1067.0625" y2="1080.0625"/><line style="stroke: #A80036; stroke-width: 1.0;" x1="880" x2="921" y1="1080.0625" y2="1080.0625"/><polygon fill="#A80036" points="890,1076.0625,880,1080.0625,890,1084.0625,886,1080.0625" style="stroke: #A80036; stroke-width: 1.0;"/><text fill="#000000" font-family="sans-serif" font-size="13" lengthAdjust="spacingAndGlyphs" textLength="198" x="886" y="1062.2061">Take the movie with movie camera</text><line style="stroke: #A80036; stroke-width: 1.0;" x1="879" x2="921" y1="1110.4141" y2="1110.4141"/><line style="stroke: #A80036; stroke-width: 1.0;" x1="921" x2="921" y1="1110.4141" y2="1123.4141"/><line style="stroke: #A80036; stroke-width: 1.0;" x1="880" x2="921" y1="1123.4141" y2="1123.4141"/><polygon fill="#A80036" points="890,1119.4141,880,1123.4141,890,1127.4141,886,1123.4141" style="stroke: #A80036; stroke-width: 1.0;"/><text fill="#000000" font-family="sans-serif" font-size="13" lengthAdjust="spacingAndGlyphs" textLength="55" x="886" y="1105.5576">LED OFF</text><line style="stroke: #A80036; stroke-width: 1.0;" x1="879" x2="921" y1="1153.7656" y2="1153.7656"/><line style="stroke: #A80036; stroke-width: 1.0;" x1="921" x2="921" y1="1153.7656" y2="1166.7656"/><line style="stroke: #A80036; stroke-width: 1.0;" x1="880" x2="921" y1="1166.7656" y2="1166.7656"/><polygon fill="#A80036" points="890,1162.7656,880,1166.7656,890,1170.7656,886,1166.7656" style="stroke: #A80036; stroke-width: 1.0;"/><text fill="#000000" font-family="sans-serif" font-size="13" lengthAdjust="spacingAndGlyphs" textLength="127" x="886" y="1148.9092">Resize the photo data</text><polygon fill="#A80036" points="560,1193.1172,550,1197.1172,560,1201.1172,556,1197.1172" style="stroke: #A80036; stroke-width: 1.0;"/><line style="stroke: #A80036; stroke-width: 1.0;" x1="554" x2="868" y1="1197.1172" y2="1197.1172"/><text fill="#000000" font-family="sans-serif" font-size="13" lengthAdjust="spacingAndGlyphs" textLength="117" x="566" y="1192.2607">Send the photo data</text><polygon fill="#A80036" points="862,1223.4688,872,1227.4688,862,1231.4688,866,1227.4688" style="stroke: #A80036; stroke-width: 1.0;"/><line style="stroke: #A80036; stroke-width: 1.0;" x1="549" x2="868" y1="1227.4688" y2="1227.4688"/><text fill="#000000" font-family="sans-serif" font-size="13" lengthAdjust="spacingAndGlyphs" textLength="171" x="556" y="1222.6123">Send RPI power off command</text><polygon fill="#A80036" points="53,1253.8203,43,1257.8203,53,1261.8203,49,1257.8203" style="stroke: #A80036; stroke-width: 1.0;"/><line style="stroke: #A80036; stroke-width: 1.0;" x1="47" x2="538" y1="1257.8203" y2="1257.8203"/><text fill="#000000" font-family="sans-serif" font-size="13" lengthAdjust="spacingAndGlyphs" textLength="193" x="59" y="1252.9639">Send the data of photo and movie</text><path d="M13,1272.8203 L78,1272.8203 L78,1280.8203 L68,1290.8203 L13,1290.8203 L13,1272.8203 " fill="#EEEEEE" style="stroke: #000000; stroke-width: 1.0;"/><rect fill="none" height="61.7031" style="stroke: #000000; stroke-width: 2.0;" width="398" x="13" y="1272.8203"/><text fill="#000000" font-family="sans-serif" font-size="13" font-weight="bold" lengthAdjust="spacingAndGlyphs" textLength="20" x="28" y="1287.3154">opt</text><text fill="#000000" font-family="sans-serif" font-size="11" font-weight="bold" lengthAdjust="spacingAndGlyphs" textLength="256" x="93" y="1286.2393">[taking the photo and movie is not successful]</text><line style="stroke: #A80036; stroke-width: 1.0;" x1="42" x2="84" y1="1313.5234" y2="1313.5234"/><line style="stroke: #A80036; stroke-width: 1.0;" x1="84" x2="84" y1="1313.5234" y2="1326.5234"/><line style="stroke: #A80036; stroke-width: 1.0;" x1="43" x2="84" y1="1326.5234" y2="1326.5234"/><polygon fill="#A80036" points="53,1322.5234,43,1326.5234,53,1330.5234,49,1326.5234" style="stroke: #A80036; stroke-width: 1.0;"/><text fill="#000000" font-family="sans-serif" font-size="13" lengthAdjust="spacingAndGlyphs" textLength="350" x="49" y="1308.667">Back to the uplink the camera function test command border</text><rect fill="#EEEEEE" filter="url(#ffg6n70z8yrtl)" height="3" style="stroke: #EEEEEE; stroke-width: 1.0;" width="1324" x="3" y="1362.6992"/><line style="stroke: #000000; stroke-width: 1.0;" x1="3" x2="1327" y1="1362.6992" y2="1362.6992"/><line style="stroke: #000000; stroke-width: 1.0;" x1="3" x2="1327" y1="1365.6992" y2="1365.6992"/><rect fill="#EEEEEE" filter="url(#ffg6n70z8yrtl)" height="24.3516" style="stroke: #000000; stroke-width: 2.0;" width="277" x="526.5" y="1351.5234"/><text fill="#000000" font-family="sans-serif" font-size="13" font-weight="bold" lengthAdjust="spacingAndGlyphs" textLength="259" x="532.5" y="1369.0186">Uplink membrane deployment command</text><polygon fill="#A80036" points="527,1404.2266,537,1408.2266,527,1412.2266,531,1408.2266" style="stroke: #A80036; stroke-width: 1.0;"/><line style="stroke: #A80036; stroke-width: 1.0;" x1="42" x2="533" y1="1408.2266" y2="1408.2266"/><text fill="#000000" font-family="sans-serif" font-size="13" lengthAdjust="spacingAndGlyphs" textLength="119" x="49" y="1403.3701">Uplink the command</text><polygon fill="#A80036" points="53,1434.5781,43,1438.5781,53,1442.5781,49,1438.5781" style="stroke: #A80036; stroke-width: 1.0;"/><line style="stroke: #A80036; stroke-width: 1.0;" x1="47" x2="538" y1="1438.5781" y2="1438.5781"/><text fill="#000000" font-family="sans-serif" font-size="13" lengthAdjust="spacingAndGlyphs" textLength="135" x="59" y="1433.7217">Downlink the command</text><rect fill="#EEEEEE" filter="url(#ffg6n70z8yrtl)" height="3" style="stroke: #EEEEEE; stroke-width: 1.0;" width="1324" x="3" y="1467.7539"/><line style="stroke: #000000; stroke-width: 1.0;" x1="3" x2="1327" y1="1467.7539" y2="1467.7539"/><line style="stroke: #000000; stroke-width: 1.0;" x1="3" x2="1327" y1="1470.7539" y2="1470.7539"/><rect fill="#EEEEEE" filter="url(#ffg6n70z8yrtl)" height="24.3516" style="stroke: #000000; stroke-width: 2.0;" width="166" x="582" y="1456.5781"/><text fill="#000000" font-family="sans-serif" font-size="13" font-weight="bold" lengthAdjust="spacingAndGlyphs" textLength="148" x="588" y="1474.0732">membrane deployment</text><polygon fill="#A80036" points="1089,1509.2813,1099,1513.2813,1089,1517.2813,1093,1513.2813" style="stroke: #A80036; stroke-width: 1.0;"/><line style="stroke: #A80036; stroke-width: 1.0;" x1="549" x2="1095" y1="1513.2813" y2="1513.2813"/><text fill="#000000" font-family="sans-serif" font-size="13" lengthAdjust="spacingAndGlyphs" textLength="180" x="556" y="1508.4248">Send MDC power on command</text><polygon fill="#A80036" points="560,1539.6328,550,1543.6328,560,1547.6328,556,1543.6328" style="stroke: #A80036; stroke-width: 1.0;"/><line style="stroke: #A80036; stroke-width: 1.0;" x1="554" x2="1100" y1="1543.6328" y2="1543.6328"/><text fill="#000000" font-family="sans-serif" font-size="13" lengthAdjust="spacingAndGlyphs" textLength="21" x="566" y="1538.7764">ack</text><polygon fill="#A80036" points="857,1569.9844,867,1573.9844,857,1577.9844,861,1573.9844" style="stroke: #A80036; stroke-width: 1.0;"/><line style="stroke: #A80036; stroke-width: 1.0;" x1="549" x2="863" y1="1573.9844" y2="1573.9844"/><text fill="#000000" font-family="sans-serif" font-size="13" lengthAdjust="spacingAndGlyphs" textLength="172" x="556" y="1569.1279">Send RPI power on command</text><polygon fill="#A80036" points="560,1600.3359,550,1604.3359,560,1608.3359,556,1604.3359" style="stroke: #A80036; stroke-width: 1.0;"/><line style="stroke: #A80036; stroke-width: 1.0;" x1="554" x2="868" y1="1604.3359" y2="1604.3359"/><text fill="#000000" font-family="sans-serif" font-size="13" lengthAdjust="spacingAndGlyphs" textLength="21" x="566" y="1599.4795">ack</text><polygon fill="#A80036" points="1089,1630.6875,1099,1634.6875,1089,1638.6875,1093,1634.6875" style="stroke: #A80036; stroke-width: 1.0;"/><line style="stroke: #A80036; stroke-width: 1.0;" x1="549" x2="1095" y1="1634.6875" y2="1634.6875"/><text fill="#000000" font-family="sans-serif" font-size="13" lengthAdjust="spacingAndGlyphs" textLength="296" x="556" y="1629.8311">Send starting the membrane deployment command</text><polygon fill="#A80036" points="857,1661.0391,867,1665.0391,857,1669.0391,861,1665.0391" style="stroke: #A80036; stroke-width: 1.0;"/><line style="stroke: #A80036; stroke-width: 1.0;" x1="549" x2="863" y1="1665.0391" y2="1665.0391"/><text fill="#000000" font-family="sans-serif" font-size="13" lengthAdjust="spacingAndGlyphs" textLength="296" x="556" y="1660.1826">Send starting the membrane deployment command</text><polygon fill="#FBFB77" filter="url(#ffg6n70z8yrtl)" points="864,1678.0391,1115,1678.0391,1125,1690.0391,1115,1702.0391,864,1702.0391,854,1690.0391,864,1678.0391" style="stroke: #A80036; stroke-width: 1.0;"/><text fill="#000000" font-family="sans-serif" font-size="13" lengthAdjust="spacingAndGlyphs" textLength="87" x="946.25" y="1695.5342">sync with OBC</text><line style="stroke: #A80036; stroke-width: 1.0;" x1="879" x2="921" y1="1729.7422" y2="1729.7422"/><line style="stroke: #A80036; stroke-width: 1.0;" x1="921" x2="921" y1="1729.7422" y2="1742.7422"/><line style="stroke: #A80036; stroke-width: 1.0;" x1="880" x2="921" y1="1742.7422" y2="1742.7422"/><polygon fill="#A80036" points="890,1738.7422,880,1742.7422,890,1746.7422,886,1742.7422" style="stroke: #A80036; stroke-width: 1.0;"/><text fill="#000000" font-family="sans-serif" font-size="13" lengthAdjust="spacingAndGlyphs" textLength="48" x="886" y="1724.8857">LED ON</text><path d="M371,1757.7422 L444,1757.7422 L444,1765.7422 L434,1775.7422 L371,1775.7422 L371,1757.7422 " fill="#EEEEEE" style="stroke: #000000; stroke-width: 1.0;"/><rect fill="none" height="388.5156" style="stroke: #000000; stroke-width: 2.0;" width="946" x="371" y="1757.7422"/><text fill="#000000" font-family="sans-serif" font-size="13" font-weight="bold" lengthAdjust="spacingAndGlyphs" textLength="28" x="386" y="1772.2373">loop</text><text fill="#000000" font-family="sans-serif" font-size="11" font-weight="bold" lengthAdjust="spacingAndGlyphs" textLength="100" x="459" y="1771.1611">[taking the movie]</text><line style="stroke: #A80036; stroke-width: 1.0;" x1="879" x2="921" y1="1798.4453" y2="1798.4453"/><line style="stroke: #A80036; stroke-width: 1.0;" x1="921" x2="921" y1="1798.4453" y2="1811.4453"/><line style="stroke: #A80036; stroke-width: 1.0;" x1="880" x2="921" y1="1811.4453" y2="1811.4453"/><polygon fill="#A80036" points="890,1807.4453,880,1811.4453,890,1815.4453,886,1811.4453" style="stroke: #A80036; stroke-width: 1.0;"/><text fill="#000000" font-family="sans-serif" font-size="13" lengthAdjust="spacingAndGlyphs" textLength="126" x="886" y="1793.5889">Start taking the movie</text><path d="M381,1826.4453 L454,1826.4453 L454,1834.4453 L444,1844.4453 L381,1844.4453 L381,1826.4453 " fill="#EEEEEE" style="stroke: #000000; stroke-width: 1.0;"/><rect fill="none" height="269.4609" style="stroke: #000000; stroke-width: 2.0;" width="926" x="381" y="1826.4453"/><text fill="#000000" font-family="sans-serif" font-size="13" font-weight="bold" lengthAdjust="spacingAndGlyphs" textLength="28" x="396" y="1840.9404">loop</text><text fill="#000000" font-family="sans-serif" font-size="11" font-weight="bold" lengthAdjust="spacingAndGlyphs" textLength="90" x="469" y="1839.8643">[IMU Measuring]</text><line style="stroke: #A80036; stroke-width: 1.0;" x1="1111" x2="1153" y1="1867.1484" y2="1867.1484"/><line style="stroke: #A80036; stroke-width: 1.0;" x1="1153" x2="1153" y1="1867.1484" y2="1880.1484"/><line style="stroke: #A80036; stroke-width: 1.0;" x1="1112" x2="1153" y1="1880.1484" y2="1880.1484"/><polygon fill="#A80036" points="1122,1876.1484,1112,1880.1484,1122,1884.1484,1118,1880.1484" style="stroke: #A80036; stroke-width: 1.0;"/><text fill="#000000" font-family="sans-serif" font-size="13" lengthAdjust="spacingAndGlyphs" textLength="119" x="1118" y="1862.292">Start IMU measuring</text><line style="stroke: #A80036; stroke-width: 1.0;" x1="411" x2="453" y1="1910.5" y2="1910.5"/><line style="stroke: #A80036; stroke-width: 1.0;" x1="453" x2="453" y1="1910.5" y2="1923.5"/><line style="stroke: #A80036; stroke-width: 1.0;" x1="412" x2="453" y1="1923.5" y2="1923.5"/><polygon fill="#A80036" points="422,1919.5,412,1923.5,422,1927.5,418,1923.5" style="stroke: #A80036; stroke-width: 1.0;"/><text fill="#000000" font-family="sans-serif" font-size="13" lengthAdjust="spacingAndGlyphs" textLength="119" x="418" y="1905.6436">Start IMU measuring</text><line style="stroke: #A80036; stroke-width: 1.0;" x1="1111" x2="1153" y1="1953.8516" y2="1953.8516"/><line style="stroke: #A80036; stroke-width: 1.0;" x1="1153" x2="1153" y1="1953.8516" y2="1966.8516"/><line style="stroke: #A80036; stroke-width: 1.0;" x1="1112" x2="1153" y1="1966.8516" y2="1966.8516"/><polygon fill="#A80036" points="1122,1962.8516,1112,1966.8516,1122,1970.8516,1118,1966.8516" style="stroke: #A80036; stroke-width: 1.0;"/><text fill="#000000" font-family="sans-serif" font-size="13" lengthAdjust="spacingAndGlyphs" textLength="148" x="1118" y="1948.9951">Melt the gut of membrane</text><polygon fill="#FBFB77" filter="url(#ffg6n70z8yrtl)" points="864,1979.8516,1115,1979.8516,1125,1991.8516,1115,2003.8516,864,2003.8516,854,1991.8516,864,1979.8516" style="stroke: #A80036; stroke-width: 1.0;"/><text fill="#000000" font-family="sans-serif" font-size="13" lengthAdjust="spacingAndGlyphs" textLength="181" x="899.25" y="1997.3467">wait the membrane deployment</text><line style="stroke: #A80036; stroke-width: 1.0;" x1="879" x2="921" y1="2031.5547" y2="2031.5547"/><line style="stroke: #A80036; stroke-width: 1.0;" x1="921" x2="921" y1="2031.5547" y2="2044.5547"/><line style="stroke: #A80036; stroke-width: 1.0;" x1="880" x2="921" y1="2044.5547" y2="2044.5547"/><polygon fill="#A80036" points="890,2040.5547,880,2044.5547,890,2048.5547,886,2044.5547" style="stroke: #A80036; stroke-width: 1.0;"/><text fill="#000000" font-family="sans-serif" font-size="13" lengthAdjust="spacingAndGlyphs" textLength="133" x="886" y="2026.6982">Finish taking the movie</text><line style="stroke: #A80036; stroke-width: 1.0;" x1="1111" x2="1153" y1="2074.9063" y2="2074.9063"/><line style="stroke: #A80036; stroke-width: 1.0;" x1="1153" x2="1153" y1="2074.9063" y2="2087.9063"/><line style="stroke: #A80036; stroke-width: 1.0;" x1="1112" x2="1153" y1="2087.9063" y2="2087.9063"/><polygon fill="#A80036" points="1122,2083.9063,1112,2087.9063,1122,2091.9063,1118,2087.9063" style="stroke: #A80036; stroke-width: 1.0;"/><text fill="#000000" font-family="sans-serif" font-size="13" lengthAdjust="spacingAndGlyphs" textLength="177" x="1118" y="2070.0498">Finish measuring the IMU data</text><line style="stroke: #A80036; stroke-width: 1.0;" x1="879" x2="921" y1="2125.2578" y2="2125.2578"/><line style="stroke: #A80036; stroke-width: 1.0;" x1="921" x2="921" y1="2125.2578" y2="2138.2578"/><line style="stroke: #A80036; stroke-width: 1.0;" x1="880" x2="921" y1="2138.2578" y2="2138.2578"/><polygon fill="#A80036" points="890,2134.2578,880,2138.2578,890,2142.2578,886,2138.2578" style="stroke: #A80036; stroke-width: 1.0;"/><text fill="#000000" font-family="sans-serif" font-size="13" lengthAdjust="spacingAndGlyphs" textLength="133" x="886" y="2120.4014">Finish taking the movie</text><line style="stroke: #A80036; stroke-width: 1.0;" x1="879" x2="921" y1="2175.6094" y2="2175.6094"/><line style="stroke: #A80036; stroke-width: 1.0;" x1="921" x2="921" y1="2175.6094" y2="2188.6094"/><line style="stroke: #A80036; stroke-width: 1.0;" x1="880" x2="921" y1="2188.6094" y2="2188.6094"/><polygon fill="#A80036" points="890,2184.6094,880,2188.6094,890,2192.6094,886,2188.6094" style="stroke: #A80036; stroke-width: 1.0;"/><text fill="#000000" font-family="sans-serif" font-size="13" lengthAdjust="spacingAndGlyphs" textLength="208" x="886" y="2170.7529">Taking the photo by sutereo camera</text><line style="stroke: #A80036; stroke-width: 1.0;" x1="879" x2="921" y1="2218.9609" y2="2218.9609"/><line style="stroke: #A80036; stroke-width: 1.0;" x1="921" x2="921" y1="2218.9609" y2="2231.9609"/><line style="stroke: #A80036; stroke-width: 1.0;" x1="880" x2="921" y1="2231.9609" y2="2231.9609"/><polygon fill="#A80036" points="890,2227.9609,880,2231.9609,890,2235.9609,886,2231.9609" style="stroke: #A80036; stroke-width: 1.0;"/><text fill="#000000" font-family="sans-serif" font-size="13" lengthAdjust="spacingAndGlyphs" textLength="55" x="886" y="2214.1045">LED OFF</text><line style="stroke: #A80036; stroke-width: 1.0;" x1="879" x2="921" y1="2262.3125" y2="2262.3125"/><line style="stroke: #A80036; stroke-width: 1.0;" x1="921" x2="921" y1="2262.3125" y2="2275.3125"/><line style="stroke: #A80036; stroke-width: 1.0;" x1="880" x2="921" y1="2275.3125" y2="2275.3125"/><polygon fill="#A80036" points="890,2271.3125,880,2275.3125,890,2279.3125,886,2275.3125" style="stroke: #A80036; stroke-width: 1.0;"/><text fill="#000000" font-family="sans-serif" font-size="13" lengthAdjust="spacingAndGlyphs" textLength="127" x="886" y="2257.4561">Resize the photo data</text><polygon fill="#A80036" points="560,2301.6641,550,2305.6641,560,2309.6641,556,2305.6641" style="stroke: #A80036; stroke-width: 1.0;"/><line style="stroke: #A80036; stroke-width: 1.0;" x1="554" x2="868" y1="2305.6641" y2="2305.6641"/><text fill="#000000" font-family="sans-serif" font-size="13" lengthAdjust="spacingAndGlyphs" textLength="117" x="566" y="2300.8076">Send the photo data</text><polygon fill="#A80036" points="862,2332.0156,872,2336.0156,862,2340.0156,866,2336.0156" style="stroke: #A80036; stroke-width: 1.0;"/><line style="stroke: #A80036; stroke-width: 1.0;" x1="549" x2="868" y1="2336.0156" y2="2336.0156"/><text fill="#000000" font-family="sans-serif" font-size="13" lengthAdjust="spacingAndGlyphs" textLength="171" x="556" y="2331.1592">Send RPI power off command</text><polygon fill="#A80036" points="560,2362.3672,550,2366.3672,560,2370.3672,556,2366.3672" style="stroke: #A80036; stroke-width: 1.0;"/><line style="stroke: #A80036; stroke-width: 1.0;" x1="554" x2="1100" y1="2366.3672" y2="2366.3672"/><text fill="#000000" font-family="sans-serif" font-size="13" lengthAdjust="spacingAndGlyphs" textLength="179" x="566" y="2361.5107">Send IMU data and M/S status</text><polygon fill="#A80036" points="53,2392.7188,43,2396.7188,53,2400.7188,49,2396.7188" style="stroke: #A80036; stroke-width: 1.0;"/><line style="stroke: #A80036; stroke-width: 1.0;" x1="47" x2="538" y1="2396.7188" y2="2396.7188"/><text fill="#000000" font-family="sans-serif" font-size="13" lengthAdjust="spacingAndGlyphs" textLength="237" x="59" y="2391.8623">Downlink the data of IMU and M/S status</text><polygon fill="#A80036" points="1094,2423.0703,1104,2427.0703,1094,2431.0703,1098,2427.0703" style="stroke: #A80036; stroke-width: 1.0;"/><line style="stroke: #A80036; stroke-width: 1.0;" x1="549" x2="1100" y1="2427.0703" y2="2427.0703"/><text fill="#000000" font-family="sans-serif" font-size="13" lengthAdjust="spacingAndGlyphs" textLength="179" x="556" y="2422.2139">Send MDC power off command</text><path d="M13,2442.0703 L78,2442.0703 L78,2450.0703 L68,2460.0703 L13,2460.0703 L13,2442.0703 " fill="#EEEEEE" style="stroke: #000000; stroke-width: 1.0;"/><rect fill="none" height="61.7031" style="stroke: #000000; stroke-width: 2.0;" width="390" x="13" y="2442.0703"/><text fill="#000000" font-family="sans-serif" font-size="13" font-weight="bold" lengthAdjust="spacingAndGlyphs" textLength="20" x="28" y="2456.5654">opt</text><text fill="#000000" font-family="sans-serif" font-size="11" font-weight="bold" lengthAdjust="spacingAndGlyphs" textLength="236" x="93" y="2455.4893">[membrane deployment is not successful]</text><line style="stroke: #A80036; stroke-width: 1.0;" x1="42" x2="84" y1="2482.7734" y2="2482.7734"/><line style="stroke: #A80036; stroke-width: 1.0;" x1="84" x2="84" y1="2482.7734" y2="2495.7734"/><line style="stroke: #A80036; stroke-width: 1.0;" x1="43" x2="84" y1="2495.7734" y2="2495.7734"/><polygon fill="#A80036" points="53,2491.7734,43,2495.7734,53,2499.7734,49,2495.7734" style="stroke: #A80036; stroke-width: 1.0;"/><text fill="#000000" font-family="sans-serif" font-size="13" lengthAdjust="spacingAndGlyphs" textLength="342" x="49" y="2477.917">Back to the uplink membrane deployment command border</text><rect fill="#EEEEEE" filter="url(#ffg6n70z8yrtl)" height="3" style="stroke: #EEEEEE; stroke-width: 1.0;" width="1324" x="3" y="2531.9492"/><line style="stroke: #000000; stroke-width: 1.0;" x1="3" x2="1327" y1="2531.9492" y2="2531.9492"/><line style="stroke: #000000; stroke-width: 1.0;" x1="3" x2="1327" y1="2534.9492" y2="2534.9492"/><rect fill="#EEEEEE" filter="url(#ffg6n70z8yrtl)" height="24.3516" style="stroke: #000000; stroke-width: 2.0;" width="212" x="559" y="2520.7734"/><text fill="#000000" font-family="sans-serif" font-size="13" font-weight="bold" lengthAdjust="spacingAndGlyphs" textLength="194" x="565" y="2538.2686">Downlink the photo and movie</text><polygon fill="#A80036" points="527,2573.4766,537,2577.4766,527,2581.4766,531,2577.4766" style="stroke: #A80036; stroke-width: 1.0;"/><line style="stroke: #A80036; stroke-width: 1.0;" x1="42" x2="533" y1="2577.4766" y2="2577.4766"/><text fill="#000000" font-family="sans-serif" font-size="13" lengthAdjust="spacingAndGlyphs" textLength="119" x="49" y="2572.6201">Uplink the command</text><polygon fill="#A80036" points="53,2603.8281,43,2607.8281,53,2611.8281,49,2607.8281" style="stroke: #A80036; stroke-width: 1.0;"/><line style="stroke: #A80036; stroke-width: 1.0;" x1="47" x2="538" y1="2607.8281" y2="2607.8281"/><text fill="#000000" font-family="sans-serif" font-size="13" lengthAdjust="spacingAndGlyphs" textLength="215" x="59" y="2602.9717">Downlink the data of photo and movie</text><rect fill="#EEEEEE" filter="url(#ffg6n70z8yrtl)" height="3" style="stroke: #EEEEEE; stroke-width: 1.0;" width="1324" x="3" y="2637.0039"/><line style="stroke: #000000; stroke-width: 1.0;" x1="3" x2="1327" y1="2637.0039" y2="2637.0039"/><line style="stroke: #000000; stroke-width: 1.0;" x1="3" x2="1327" y1="2640.0039" y2="2640.0039"/><rect fill="#EEEEEE" filter="url(#ffg6n70z8yrtl)" height="24.3516" style="stroke: #000000; stroke-width: 2.0;" width="283" x="523.5" y="2625.8281"/><text fill="#000000" font-family="sans-serif" font-size="13" font-weight="bold" lengthAdjust="spacingAndGlyphs" textLength="265" x="529.5" y="2643.3232">end the membrane deployment sequence</text><!--
@startuml
title membrane deployment

participant GS
participant CIB
participant OBC
participant RPI
participant MDC

== start the membrane deployment sequence ==
activate OBC
GS -> OBC: Uplink the command 
OBC -> GS: Downlink the command 

== IMU & M/S function test ==
OBC -> MDC         : Send MDC power on command
activate MDC
MDC  -> OBC        : ack
OBC -> MDC         : Send IMU & M/S function test command
hnote over CIB,MDC : Sync with OBC
MDC -> MDC : Measure M/S status
MDC -> MDC : Measure IMU
CIB -> CIB : Measure IMU
MDC -> OBC        : Send IMU data and M/S status
CIB -> OBC : Send IMU data
OBC -> GS  : Downlink the IMU data and M/S status
opt IMU data or M/S status is not correct
    GS -> GS : Back to tha start the membrane deployment sequence border
end
OBC -> MDC         : Send MDC power off command
deactivate MDC

== Uplink the camera function test command ==
GS -> OBC  : Uplink the command
OBC -> GS  : Downlink the command

== camera function test ==
OBC -> RPI             : Send RPI power on
activate RPI
RPI -> OBC             : ack
OBC -> RPI             : Send camera function test command
hnote over OBC,RPI          : sync with OBC
RPI -> RPI          : LED ON
RPI -> RPI          : Take the photo with sutereo camera
RPI -> RPI          : Take the movie with movie camera
RPI -> RPI          : LED OFF
RPI -> RPI          : Resize the photo data
RPI -> OBC             : Send the photo data
OBC -> RPI             : Send RPI power off command
deactivate RPI
OBC -> GS  : Send the data of photo and movie
opt taking the photo and movie is not successful
    GS -> GS : Back to the uplink the camera function test command border
end

== Uplink membrane deployment command ==
GS -> OBC  : Uplink the command
OBC -> GS  : Downlink the command

== membrane deployment ==
OBC -> MDC         : Send MDC power on command
activate MDC
MDC -> OBC         : ack
OBC -> RPI             : Send RPI power on command
activate RPI
RPI -> OBC             : ack
OBC -> MDC         : Send starting the membrane deployment command
OBC -> RPI             : Send starting the membrane deployment command
hnote over MDC, RPI     : sync with OBC
RPI -> RPI          : LED ON
loop taking the movie
RPI -> RPI          : Start taking the movie
loop IMU Measuring
MDC -> MDC        : Start IMU measuring
CIB -> CIB  : Start IMU measuring
MDC -> MDC        : Melt the gut of membrane
hnote over RPI,MDC      : wait the membrane deployment
RPI -> RPI          : Finish taking the movie
MDC -> MDC        : Finish measuring the IMU data
end
RPI -> RPI : Finish taking the movie
end
RPI -> RPI          : Taking the photo by sutereo camera
RPI -> RPI          : LED OFF
RPI -> RPI          : Resize the photo data
RPI -> OBC             : Send the photo data
OBC -> RPI             : Send RPI power off command
deactivate RPI
MDC -> OBC         : Send IMU data and M/S status
OBC -> GS  : Downlink the data of IMU and M/S status
OBC -> MDC         : Send MDC power off command
deactivate MDC
opt membrane deployment is not successful
    GS -> GS : Back to the uplink membrane deployment command border
end

== Downlink the photo and movie ==
GS -> OBC  : Uplink the command
OBC -> GS  : Downlink the data of photo and movie

== end the membrane deployment sequence ==
@enduml

PlantUML version 1.2018.03(Fri Apr 06 01:59:15 JST 2018)
(GPL source distribution)
Java Runtime: Java(TM) SE Runtime Environment
JVM: Java HotSpot(TM) Client VM
Java Version: 1.8.0_171-b11
Operating System: Windows 10
OS Version: 10.0
Default Encoding: MS932
Language: ja
Country: JP
--></g></svg>